<svg width="31" height="22" viewBox="0 0 31 22" fill="none" xmlns="http://www.w3.org/2000/svg">
<path d="M12.078 16.08L12.4504 16.35L12.3095 15.91L12.6819 15.65H12.229L12.078 15.2L11.927 15.65H11.4741L11.8465 15.91L11.7056 16.35L12.078 16.08Z" fill="white"/>
<path d="M13.6884 16.08L14.0608 16.35L13.9199 15.91L14.2923 15.65H13.8393L13.6884 15.2L13.5374 15.65H13.0845L13.4569 15.91L13.316 16.35L13.6884 16.08Z" fill="white"/>
<path d="M15.2987 16.08L15.6711 16.35L15.5302 15.91L15.9026 15.65H15.4497L15.2987 15.2L15.1477 15.65H14.6948L15.0672 15.91L14.9263 16.35L15.2987 16.08Z" fill="white"/>
<path d="M16.9091 16.08L17.2815 16.35L17.1406 15.91L17.513 15.65H17.06L16.9091 15.2L16.7581 15.65H16.3052L16.6776 15.91L16.5367 16.35L16.9091 16.08Z" fill="white"/>
<path d="M18.5194 16.08L18.8918 16.35L18.7509 15.91L19.1233 15.65H18.6704L18.5194 15.2L18.3685 15.65H17.9155L18.2879 15.91L18.147 16.35L18.5194 16.08Z" fill="white"/>
<path d="M13.3608 19.0001V18.9119C13.4477 18.8255 13.525 18.7475 13.5927 18.6779C13.6603 18.6083 13.7171 18.5441 13.763 18.4853C13.8089 18.4253 13.8439 18.3707 13.868 18.3215C13.8922 18.2711 13.9043 18.2225 13.9043 18.1757C13.9043 18.1097 13.8862 18.0557 13.8499 18.0137C13.8137 17.9717 13.7587 17.9507 13.6851 17.9507C13.6367 17.9507 13.5921 17.9645 13.551 17.9921C13.5099 18.0185 13.4725 18.0509 13.4387 18.0893L13.3535 18.0047C13.4018 17.9519 13.4532 17.9099 13.5075 17.8787C13.5619 17.8463 13.6271 17.8301 13.7032 17.8301C13.8107 17.8301 13.8952 17.8613 13.9568 17.9237C14.0184 17.9849 14.0492 18.0665 14.0492 18.1685C14.0492 18.2225 14.0371 18.2771 14.013 18.3323C13.99 18.3863 13.9574 18.4427 13.9151 18.5015C13.8741 18.5591 13.8246 18.6197 13.7666 18.6833C13.7098 18.7457 13.647 18.8123 13.5782 18.8831C13.6096 18.8807 13.6422 18.8783 13.676 18.8759C13.7098 18.8735 13.7418 18.8723 13.772 18.8723H14.1072V19.0001H13.3608ZM14.7124 19.0217C14.5953 19.0217 14.5041 18.9701 14.4389 18.8669C14.3736 18.7637 14.341 18.6155 14.341 18.4223C14.341 18.2291 14.3736 18.0821 14.4389 17.9813C14.5041 17.8805 14.5953 17.8301 14.7124 17.8301C14.8284 17.8301 14.919 17.8805 14.9842 17.9813C15.0494 18.0821 15.082 18.2291 15.082 18.4223C15.082 18.6155 15.0494 18.7637 14.9842 18.8669C14.919 18.9701 14.8284 19.0217 14.7124 19.0217ZM14.7124 18.9029C14.7462 18.9029 14.7764 18.8939 14.803 18.8759C14.8308 18.8567 14.8543 18.8279 14.8737 18.7895C14.8942 18.7499 14.9099 18.7001 14.9208 18.6401C14.9316 18.5789 14.9371 18.5063 14.9371 18.4223C14.9371 18.3383 14.9316 18.2663 14.9208 18.2063C14.9099 18.1463 14.8942 18.0977 14.8737 18.0605C14.8543 18.0221 14.8308 17.9939 14.803 17.9759C14.7764 17.9579 14.7462 17.9489 14.7124 17.9489C14.6786 17.9489 14.6478 17.9579 14.62 17.9759C14.5922 17.9939 14.5681 18.0221 14.5476 18.0605C14.5282 18.0977 14.5131 18.1463 14.5023 18.2063C14.4914 18.2663 14.486 18.3383 14.486 18.4223C14.486 18.5903 14.5065 18.7127 14.5476 18.7895C14.5898 18.8651 14.6448 18.9029 14.7124 18.9029ZM15.3774 19.0001V18.8777H15.6419V18.0317H15.4318V17.9363C15.4849 17.9267 15.5308 17.9153 15.5695 17.9021C15.6093 17.8877 15.645 17.8709 15.6764 17.8517H15.7905V18.8777H16.0296V19.0001H15.3774ZM16.6331 18.4421C16.6717 18.4421 16.7122 18.4301 16.7544 18.4061C16.7979 18.3821 16.8384 18.3431 16.8758 18.2891C16.8662 18.1763 16.8396 18.0911 16.7961 18.0335C16.7526 17.9759 16.694 17.9471 16.6204 17.9471C16.5926 17.9471 16.566 17.9531 16.5407 17.9651C16.5165 17.9771 16.4954 17.9945 16.4772 18.0173C16.4591 18.0389 16.4446 18.0653 16.4338 18.0965C16.4241 18.1277 16.4193 18.1619 16.4193 18.1991C16.4193 18.2747 16.4368 18.3341 16.4718 18.3773C16.5068 18.4205 16.5606 18.4421 16.6331 18.4421ZM16.5787 19.0217C16.5171 19.0217 16.4628 19.0103 16.4157 18.9875C16.3698 18.9647 16.3311 18.9359 16.2997 18.9011L16.383 18.8075C16.4072 18.8351 16.4356 18.8573 16.4682 18.8741C16.502 18.8909 16.537 18.8993 16.5733 18.8993C16.6143 18.8993 16.653 18.8909 16.6892 18.8741C16.7255 18.8573 16.7575 18.8297 16.7852 18.7913C16.813 18.7517 16.8354 18.7007 16.8523 18.6383C16.8692 18.5759 16.8782 18.4985 16.8794 18.4061C16.8432 18.4517 16.8009 18.4877 16.7526 18.5141C16.7043 18.5405 16.656 18.5537 16.6077 18.5537C16.5074 18.5537 16.4277 18.5243 16.3685 18.4655C16.3094 18.4067 16.2798 18.3179 16.2798 18.1991C16.2798 18.1439 16.2888 18.0941 16.3069 18.0497C16.3251 18.0041 16.3492 17.9651 16.3794 17.9327C16.4108 17.9003 16.4471 17.8751 16.4881 17.8571C16.5304 17.8391 16.5745 17.8301 16.6204 17.8301C16.6771 17.8301 16.7297 17.8415 16.778 17.8643C16.8275 17.8871 16.8698 17.9219 16.9048 17.9687C16.941 18.0143 16.9688 18.0719 16.9881 18.1415C17.0087 18.2099 17.0189 18.2903 17.0189 18.3827C17.0189 18.4979 17.0069 18.5963 16.9827 18.6779C16.9586 18.7583 16.9259 18.8243 16.8849 18.8759C16.8438 18.9263 16.7967 18.9635 16.7436 18.9875C16.6916 19.0103 16.6367 19.0217 16.5787 19.0217Z" fill="white"/>
<path d="M12.2187 5.2379H12.8498C12.9525 5.2379 13.0461 5.2469 13.1306 5.2649C13.2172 5.2809 13.2916 5.3079 13.354 5.3459C13.4185 5.3819 13.4678 5.4309 13.502 5.4929C13.5382 5.5549 13.5563 5.6309 13.5563 5.7209C13.5563 5.8149 13.5282 5.9019 13.4718 5.9819C13.4175 6.0619 13.3329 6.1169 13.2182 6.1469V6.1589C13.3611 6.1829 13.4698 6.2339 13.5443 6.3119C13.6208 6.3879 13.659 6.4919 13.659 6.6239C13.659 6.7219 13.6399 6.8069 13.6016 6.8789C13.5634 6.9509 13.5101 7.0109 13.4416 7.0589C13.3752 7.1069 13.2957 7.1429 13.2031 7.1669C13.1105 7.1889 13.0098 7.1999 12.9011 7.1999H12.2187V5.2379ZM12.8196 6.0509C12.9585 6.0509 13.0581 6.0259 13.1185 5.9759C13.1809 5.9259 13.2121 5.8549 13.2121 5.7629C13.2121 5.6729 13.1799 5.6079 13.1155 5.5679C13.0511 5.5279 12.9545 5.5079 12.8256 5.5079H12.569V6.0509H12.8196ZM12.8649 6.9299C13.0098 6.9299 13.1215 6.9029 13.2001 6.8489C13.2786 6.7949 13.3178 6.7119 13.3178 6.5999C13.3178 6.4979 13.2796 6.4229 13.2031 6.3749C13.1266 6.3249 13.0138 6.2999 12.8649 6.2999H12.569V6.9299H12.8649ZM14.0204 5.2379H15.2101V5.5319H14.3706V6.0329H15.0802V6.3269H14.3706V6.9059H15.2403V7.1999H14.0204V5.2379ZM15.7146 6.7109C15.785 6.7769 15.8655 6.8309 15.9561 6.8729C16.0467 6.9129 16.1373 6.9329 16.2279 6.9329C16.3406 6.9329 16.4262 6.9099 16.4845 6.8639C16.5429 6.8179 16.5721 6.7569 16.5721 6.6809C16.5721 6.6409 16.5641 6.6069 16.548 6.5789C16.5339 6.5509 16.5127 6.5269 16.4845 6.5069C16.4584 6.4849 16.4262 6.4649 16.3879 6.4469C16.3517 6.4289 16.3114 6.4109 16.2671 6.3929L15.9954 6.2759C15.9471 6.2559 15.8988 6.2309 15.8505 6.2009C15.8042 6.1709 15.7619 6.1349 15.7236 6.0929C15.6854 6.0509 15.6542 6.0019 15.63 5.9459C15.6079 5.8899 15.5968 5.8259 15.5968 5.7539C15.5968 5.6759 15.6129 5.6039 15.6451 5.5379C15.6793 5.4699 15.7256 5.4109 15.784 5.3609C15.8424 5.3109 15.9118 5.2719 15.9924 5.2439C16.0749 5.2159 16.1645 5.2019 16.2611 5.2019C16.3758 5.2019 16.4866 5.2249 16.5932 5.2709C16.6999 5.3149 16.7915 5.3749 16.868 5.4509L16.6899 5.6729C16.6255 5.6209 16.559 5.5799 16.4906 5.5499C16.4221 5.5199 16.3456 5.5049 16.2611 5.5049C16.1665 5.5049 16.091 5.5259 16.0346 5.5679C15.9783 5.6079 15.9501 5.6639 15.9501 5.7359C15.9501 5.7739 15.9581 5.8069 15.9742 5.8349C15.9924 5.8609 16.0155 5.8849 16.0437 5.9069C16.0739 5.9269 16.1081 5.9459 16.1464 5.9639C16.1846 5.9799 16.2239 5.9959 16.2641 6.0119L16.5329 6.1229C16.5912 6.1469 16.6446 6.1749 16.6929 6.2069C16.7412 6.2389 16.7825 6.2759 16.8167 6.3179C16.8529 6.3599 16.8811 6.4089 16.9012 6.4649C16.9214 6.5189 16.9314 6.5819 16.9314 6.6539C16.9314 6.7339 16.9153 6.8089 16.8831 6.8789C16.8509 6.9489 16.8036 7.0109 16.7412 7.0649C16.6808 7.1169 16.6063 7.1589 16.5178 7.1909C16.4312 7.2209 16.3326 7.2359 16.2218 7.2359C16.089 7.2359 15.9602 7.2109 15.8354 7.1609C15.7126 7.1109 15.6039 7.0399 15.5092 6.9479L15.7146 6.7109ZM17.6301 5.5319H17.0594V5.2379H18.551V5.5319H17.9804V7.1999H17.6301V5.5319ZM10.1414 8.6379H10.5279L10.8842 9.6039L11.014 9.9759H11.0261L11.1529 9.6039L11.5031 8.6379H11.8896V10.5999H11.5605V9.7029C11.5605 9.6569 11.5615 9.6069 11.5635 9.5529C11.5676 9.4989 11.5716 9.4449 11.5756 9.3909C11.5796 9.3349 11.5847 9.2809 11.5907 9.2289C11.5967 9.1749 11.6018 9.1249 11.6058 9.0789H11.5937L11.4337 9.5259L11.0925 10.4169H10.9294L10.5882 9.5259L10.4312 9.0789H10.4191C10.4232 9.1249 10.4272 9.1749 10.4312 9.2289C10.4373 9.2809 10.4423 9.3349 10.4463 9.3909C10.4524 9.4449 10.4564 9.4989 10.4584 9.5529C10.4624 9.6069 10.4644 9.6569 10.4644 9.7029V10.5999H10.1414V8.6379ZM13.2306 9.7959L13.1612 9.5559C13.129 9.4519 13.0978 9.3449 13.0676 9.2349C13.0394 9.1249 13.0112 9.0159 12.983 8.9079H12.971C12.9428 9.0179 12.9146 9.1279 12.8864 9.2379C12.8582 9.3459 12.828 9.4519 12.7958 9.5559L12.7264 9.7959H13.2306ZM13.3091 10.0689H12.6448L12.4909 10.5999H12.1346L12.7777 8.6379H13.1884L13.8315 10.5999H13.4631L13.3091 10.0689ZM14.4252 9.5559H14.706C14.8409 9.5559 14.9435 9.5279 15.014 9.4719C15.0865 9.4159 15.1227 9.3319 15.1227 9.2199C15.1227 9.1059 15.0865 9.0269 15.014 8.9829C14.9435 8.9389 14.8409 8.9169 14.706 8.9169H14.4252V9.5559ZM15.1529 10.5999L14.7271 9.8319H14.4252V10.5999H14.0749V8.6379H14.7422C14.8449 8.6379 14.9405 8.6479 15.0291 8.6679C15.1177 8.6879 15.1942 8.7209 15.2586 8.7669C15.323 8.8109 15.3733 8.8699 15.4095 8.9439C15.4478 9.0179 15.4669 9.1099 15.4669 9.2199C15.4669 9.3699 15.4307 9.4909 15.3582 9.5829C15.2878 9.6749 15.1932 9.7409 15.0744 9.7809L15.5454 10.5999H15.1529ZM15.8825 8.6379H16.2328V9.5289H16.2418L16.9454 8.6379H17.3349L16.728 9.4029L17.4375 10.5999H17.051L16.5166 9.6759L16.2328 10.0269V10.5999H15.8825V8.6379ZM17.6842 8.6379H18.8738V8.9319H18.0344V9.4329H18.744V9.7269H18.0344V10.3059H18.904V10.5999H17.6842V8.6379ZM19.7075 8.9319H19.1368V8.6379H20.6285V8.9319H20.0577V10.5999H19.7075V8.9319ZM11.3887 12.0379H12.053C12.1617 12.0379 12.2613 12.0479 12.3519 12.0679C12.4445 12.0879 12.524 12.1219 12.5904 12.1699C12.6568 12.2179 12.7092 12.2809 12.7474 12.3589C12.7857 12.4349 12.8048 12.5299 12.8048 12.6439C12.8048 12.7519 12.7857 12.8459 12.7474 12.9259C12.7092 13.0059 12.6558 13.0729 12.5874 13.1269C12.521 13.1789 12.4415 13.2179 12.3489 13.2439C12.2583 13.2679 12.1596 13.2799 12.053 13.2799H11.7389V13.9999H11.3887V12.0379ZM12.0258 13.0009C12.3156 13.0009 12.4606 12.8819 12.4606 12.6439C12.4606 12.5199 12.4243 12.4349 12.3519 12.3889C12.2794 12.3409 12.1707 12.3169 12.0258 12.3169H11.7389V13.0009H12.0258ZM13.1756 12.0379H13.5258V13.7059H14.3471V13.9999H13.1756V12.0379ZM15.5306 13.1959L15.4612 12.9559C15.429 12.8519 15.3978 12.7449 15.3676 12.6349C15.3394 12.5249 15.3112 12.4159 15.283 12.3079H15.271C15.2428 12.4179 15.2146 12.5279 15.1864 12.6379C15.1582 12.7459 15.128 12.8519 15.0958 12.9559L15.0264 13.1959H15.5306ZM15.6091 13.4689H14.9448L14.7909 13.9999H14.4346L15.0777 12.0379H15.4884L16.1315 13.9999H15.7631L15.6091 13.4689ZM16.2428 13.0249C16.2428 12.8649 16.2659 12.7219 16.3122 12.5959C16.3605 12.4679 16.426 12.3599 16.5085 12.2719C16.591 12.1839 16.6877 12.1169 16.7984 12.0709C16.9091 12.0249 17.0278 12.0019 17.1547 12.0019C17.2754 12.0019 17.3831 12.0269 17.4778 12.0769C17.5744 12.1269 17.6539 12.1849 17.7163 12.2509L17.52 12.4669C17.4697 12.4169 17.4153 12.3779 17.357 12.3499C17.3006 12.3199 17.2342 12.3049 17.1577 12.3049C17.0752 12.3049 16.9997 12.3219 16.9312 12.3559C16.8648 12.3879 16.8064 12.4349 16.7561 12.4969C16.7078 12.5569 16.6695 12.6309 16.6414 12.7189C16.6152 12.8069 16.6021 12.9059 16.6021 13.0159C16.6021 13.2399 16.6504 13.4159 16.747 13.5439C16.8457 13.6699 16.9785 13.7329 17.1456 13.7329C17.2342 13.7329 17.3107 13.7159 17.3751 13.6819C17.4415 13.6479 17.5029 13.5999 17.5593 13.5379L17.7555 13.7509C17.675 13.8429 17.5834 13.9139 17.4808 13.9639C17.3781 14.0119 17.2644 14.0359 17.1396 14.0359C17.0128 14.0359 16.895 14.0139 16.7863 13.9699C16.6776 13.9259 16.583 13.8609 16.5025 13.7749C16.4219 13.6889 16.3585 13.5829 16.3122 13.4569C16.2659 13.3309 16.2428 13.1869 16.2428 13.0249ZM18.0852 12.0379H19.2749V12.3319H18.4354V12.8329H19.145V13.1269H18.4354V13.7059H19.3051V13.9999H18.0852V12.0379Z" fill="white"/>
<path d="M16.2776 2.89224C16.2539 2.87206 16.2203 2.86782 16.1922 2.88142L15.7619 3.08954L15.3581 2.62704C15.3432 2.60992 15.3215 2.6001 15.2987 2.6001C15.2759 2.6001 15.2543 2.60992 15.2393 2.62704L14.8356 3.08954L14.4053 2.88142C14.3772 2.86782 14.3436 2.87206 14.3198 2.89224C14.296 2.9124 14.2865 2.94466 14.2956 2.97438L14.5944 3.95094C14.6045 3.98386 14.6351 4.00634 14.6697 4.00634H15.9278C15.9624 4.00634 15.993 3.98386 16.003 3.95096L16.3018 2.97438C16.3109 2.94466 16.3014 2.9124 16.2776 2.89224ZM15.8695 3.8501H14.7279L14.4985 3.1003L14.821 3.25628C14.853 3.27176 14.8915 3.26394 14.9148 3.23722L15.2987 2.79746L15.6826 3.23722C15.706 3.26396 15.7444 3.27176 15.7765 3.25628L16.0989 3.1003L15.8695 3.8501Z" fill="white"/>
<path d="M23.1494 20C23.0241 19.3774 23.0326 19.0387 23.1494 18.6C23.4461 17.7555 23.81 17.4575 24.5585 17C24.6531 17.6405 24.6241 17.9894 24.4578 18.6C24.3084 19.0299 24.119 19.2705 23.7533 19.7L23.1494 20Z" fill="white"/>
<path d="M25.4597 18.2805C25.1702 17.7145 25.0865 17.386 25.0798 16.9323C25.1364 16.0396 25.4061 15.6551 26.0028 15.0142C26.2677 15.6057 26.3343 15.9494 26.34 16.5819C26.3128 17.0359 26.1954 17.3184 25.9597 17.8299L25.4597 18.2805Z" fill="white"/>
<path d="M27.0153 15.7177C26.5819 15.2512 26.4114 14.9578 26.2807 14.5229C26.0909 13.6486 26.2451 13.2058 26.6437 12.4277C27.0606 12.9254 27.2188 13.2381 27.3973 13.8453C27.4956 14.2895 27.4599 14.593 27.3732 15.1489L27.0153 15.7177Z" fill="white"/>
<path d="M28.0046 12.9886C27.4331 12.7046 27.1692 12.4901 26.8922 12.1293C26.4033 11.3783 26.3898 10.9098 26.4856 10.042C27.0526 10.361 27.3121 10.5979 27.6952 11.103C27.9452 11.4839 28.0201 11.7803 28.1368 12.3307L28.0046 12.9886Z" fill="white"/>
<path d="M28.0025 10.3861C27.4004 10.1736 27.1119 9.99267 26.7927 9.66813C26.2151 8.98205 26.1443 8.51873 26.1328 7.64575C26.7347 7.89355 27.0213 8.09721 27.4636 8.55207C27.7585 8.89989 27.8694 9.18495 28.0528 9.71711L28.0025 10.3861Z" fill="white"/>
<path d="M27.5056 7.5535C26.8676 7.51918 26.5395 7.42684 26.1408 7.20546C25.3911 6.71002 25.1912 6.28562 24.9312 5.45166C25.5791 5.51988 25.9121 5.63452 26.4661 5.94626C26.8479 6.19684 27.0355 6.43906 27.3632 6.89774L27.5056 7.5535Z" fill="white"/>
<path d="M26.3715 4.94884C25.7412 5.0531 25.4006 5.0338 24.963 4.90378C24.1232 4.582 23.8349 4.21094 23.3989 3.45302C24.0463 3.37972 24.3964 3.41974 25.0053 3.60446C25.4329 3.76656 25.6688 3.96252 26.0891 4.3395L26.3715 4.94884Z" fill="white"/>
<path d="M24.5313 2.48955C23.8928 2.51385 23.5574 2.45197 23.1399 2.26807C22.3476 1.84341 22.1089 1.43917 21.7727 0.632568C22.4243 0.64113 22.7663 0.724778 23.3469 0.984428C23.7601 1.17922 24.0005 1.37026 24.3286 1.84963C24.4413 2.03205 24.4771 2.18953 24.5313 2.48955Z" fill="white"/>
<path d="M22.988 20.4046C23.4951 20.0184 23.8047 19.8764 24.2526 19.7868C25.1462 19.6787 25.5759 19.8718 26.3193 20.3372C25.7827 20.7042 25.4547 20.8322 24.8299 20.9534C24.1576 21.0474 23.8347 20.9884 23.5255 20.8106C23.2761 20.6544 23.1557 20.5656 22.988 20.4046Z" fill="white"/>
<path d="M25.4038 18.6045C25.9109 18.2182 26.2205 18.0763 26.6684 17.9868C27.5619 17.8787 27.9917 18.0717 28.7351 18.5372C28.1984 18.9041 27.8705 19.0322 27.2457 19.1534C26.5734 19.2473 26.2505 19.1884 25.9413 19.0106C25.6919 18.8543 25.5715 18.7654 25.4038 18.6045Z" fill="white"/>
<path d="M27.0491 16.3323C27.2977 15.7475 27.4962 15.472 27.8408 15.1742C28.5638 14.6413 29.0335 14.598 29.9113 14.6374C29.6273 15.22 29.4059 15.4925 28.9232 15.9047C28.3855 16.3166 28.0755 16.424 27.7182 16.4213C27.4237 16.408 27.2747 16.3899 27.0491 16.3323Z" fill="white"/>
<path d="M28.0625 13.5457C28.2195 12.9304 28.3741 12.6283 28.6698 12.2824C29.3039 11.6475 29.7617 11.5344 30.6355 11.4421C30.4429 12.0606 30.2653 12.363 29.8504 12.8428C29.3812 13.3304 29.0911 13.4829 28.7375 13.5336C28.4444 13.5645 28.2944 13.5688 28.0625 13.5457Z" fill="white"/>
<path d="M28.2723 10.8009C28.1759 10.1733 28.1998 9.83536 28.3367 9.40236C28.6719 8.57222 29.0491 8.29098 29.8176 7.86792C29.8829 8.51208 29.8378 8.8593 29.6437 9.46168C29.4028 10.0923 29.1952 10.345 28.8895 10.5286C28.6314 10.6705 28.4949 10.7325 28.2723 10.8009Z" fill="white"/>
<path d="M27.9801 8.00356C27.75 7.41124 27.7003 7.07606 27.7403 6.62398C27.8879 5.74166 28.1957 5.38642 28.8547 4.80908C29.0576 5.4243 29.0888 5.77302 29.0296 6.40276C28.9306 7.0701 28.7826 7.36128 28.5238 7.60584C28.3026 7.79952 28.1828 7.88918 27.9801 8.00356Z" fill="white"/>
<path d="M27.005 5.33301C26.6112 4.83301 26.4653 4.52677 26.3709 4.08279C26.2533 3.19601 26.4433 2.76709 26.9045 2.02393C27.2789 2.55367 27.4112 2.87821 27.5392 3.49777C27.6405 4.16479 27.5843 4.48617 27.4084 4.79509C27.2536 5.04445 27.1652 5.16491 27.005 5.33301Z" fill="white"/>
<path d="M25.7043 3.50232C25.2528 3.05322 25.0706 2.7667 24.9229 2.3373C24.6984 1.47111 24.8351 1.02253 25.2025 0.229492C25.6387 0.710428 25.8094 1.01674 26.0117 1.6164C26.1933 2.26642 26.1766 2.59218 26.0395 2.91996C25.9161 3.18604 25.843 3.31622 25.7043 3.50232Z" fill="white"/>
<path d="M7.73558 20C7.86075 19.3774 7.85229 19.0387 7.73558 18.6C7.43891 17.7555 7.07492 17.4575 6.32649 17C6.23192 17.6405 6.26092 17.9894 6.42714 18.6C6.57644 19.0299 6.76598 19.2705 7.13168 19.7L7.73558 20Z" fill="white"/>
<path d="M5.42541 18.2805C5.71481 17.7145 5.79857 17.386 5.80518 16.9323C5.74855 16.0396 5.47889 15.6551 4.88226 15.0142C4.61743 15.6057 4.55072 15.9494 4.54517 16.5819C4.57232 17.0359 4.68958 17.3184 4.92524 17.8299L5.42541 18.2805Z" fill="white"/>
<path d="M3.86979 15.7177C4.30325 15.2512 4.47375 14.9578 4.60435 14.5229C4.79426 13.6486 4.64 13.2058 4.24135 12.4277C3.82456 12.9254 3.66626 13.2381 3.48775 13.8453C3.38962 14.2895 3.42511 14.593 3.51185 15.1489L3.86979 15.7177Z" fill="white"/>
<path d="M2.88054 12.9886C3.45205 12.7046 3.71601 12.4901 3.99302 12.1293C4.48198 11.3783 4.4954 10.9098 4.39958 10.042C3.83255 10.361 3.57311 10.5979 3.18996 11.103C2.93997 11.4839 2.86508 11.7803 2.74829 12.3307L2.88054 12.9886Z" fill="white"/>
<path d="M2.88248 10.3861C3.4846 10.1736 3.77294 9.99267 4.0922 9.66813C4.66975 8.98205 4.74064 8.51873 4.75216 7.64575C4.15017 7.89355 3.86357 8.09721 3.42123 8.55207C3.12631 8.89989 3.01558 9.18495 2.83203 9.71711L2.88248 10.3861Z" fill="white"/>
<path d="M3.37915 7.5535C4.01721 7.51918 4.3453 7.42684 4.74402 7.20546C5.49353 6.71002 5.69362 6.28562 5.95356 5.45166C5.30558 5.51988 4.97265 5.63452 4.41874 5.94626C4.03673 6.19684 3.84926 6.43906 3.52151 6.89774L3.37915 7.5535Z" fill="white"/>
<path d="M4.51343 4.94884C5.14371 5.0531 5.48419 5.0338 5.92177 4.90378C6.76175 4.582 7.04987 4.21094 7.48598 3.45302C6.83857 3.37972 6.48853 3.41974 5.87966 3.60446C5.452 3.76656 5.21602 3.96252 4.79577 4.3395L4.51343 4.94884Z" fill="white"/>
<path d="M6.35376 2.48955C6.99226 2.51385 7.32754 2.45197 7.7451 2.26807C8.53741 1.84341 8.77605 1.43917 9.1123 0.632568C8.46073 0.64113 8.11859 0.724778 7.5381 0.984428C7.12487 1.17922 6.88444 1.37026 6.55637 1.84963C6.44354 2.03205 6.40781 2.18953 6.35376 2.48955Z" fill="white"/>
<path d="M7.89682 20.4046C7.38975 20.0184 7.08009 19.8764 6.63232 19.7868C5.73868 19.6787 5.30887 19.8718 4.56543 20.3372C5.10225 20.7042 5.43019 20.8322 6.05498 20.9534C6.7273 21.0474 7.0502 20.9884 7.3594 20.8106C7.60884 20.6544 7.7292 20.5656 7.89682 20.4046Z" fill="white"/>
<path d="M5.4813 18.6045C4.97422 18.2182 4.66457 18.0763 4.2168 17.9868C3.32315 17.8787 2.89334 18.0717 2.1499 18.5372C2.68673 18.9041 3.01466 19.0322 3.63945 19.1534C4.31177 19.2473 4.63467 19.1884 4.94387 19.0106C5.19332 18.8543 5.31367 18.7654 5.4813 18.6045Z" fill="white"/>
<path d="M3.83588 16.3323C3.58734 15.7475 3.3888 15.472 3.04411 15.1742C2.32111 14.6413 1.85145 14.598 0.973633 14.6374C1.25767 15.22 1.47898 15.4925 1.96177 15.9047C2.49944 16.3166 2.80944 16.424 3.16668 16.4213C3.46124 16.408 3.61012 16.3899 3.83588 16.3323Z" fill="white"/>
<path d="M2.82247 13.5457C2.66532 12.9304 2.51076 12.6283 2.21511 12.2824C1.58105 11.6475 1.1233 11.5344 0.249512 11.4421C0.442068 12.0606 0.619599 12.363 1.03446 12.8428C1.50361 13.3304 1.79383 13.4829 2.1474 13.5336C2.44063 13.5645 2.59056 13.5688 2.82247 13.5457Z" fill="white"/>
<path d="M2.61235 10.8009C2.7088 10.1733 2.68482 9.83536 2.54806 9.40236C2.21292 8.57222 1.83562 8.29098 1.06697 7.86792C1.00192 8.51208 1.04691 8.8593 1.24099 9.46168C1.48201 10.0923 1.68955 10.345 1.99532 10.5286C2.2533 10.6705 2.38968 10.7325 2.61235 10.8009Z" fill="white"/>
<path d="M2.90516 8.00356C3.13513 7.41124 3.18481 7.07606 3.14495 6.62398C2.99724 5.74166 2.68959 5.38642 2.03044 4.80908C1.82755 5.4243 1.79637 5.77302 1.85559 6.40276C1.95454 7.0701 2.10254 7.36128 2.36146 7.60584C2.5827 7.79952 2.7025 7.88918 2.90516 8.00356Z" fill="white"/>
<path d="M3.88009 5.33301C4.27385 4.83301 4.41972 4.52677 4.51421 4.08279C4.63176 3.19601 4.44172 2.76709 3.98056 2.02393C3.60599 2.55367 3.47385 2.87821 3.34575 3.49777C3.24461 4.16479 3.30078 4.48617 3.47669 4.79509C3.63151 5.04445 3.7198 5.16491 3.88009 5.33301Z" fill="white"/>
<path d="M5.18051 3.50232C5.63213 3.05322 5.81414 2.7667 5.96189 2.3373C6.18634 1.47111 6.0498 1.02253 5.68233 0.229492C5.24612 0.710428 5.07551 1.01674 4.87307 1.6164C4.69162 2.26642 4.70831 2.59218 4.84541 2.91996C4.96879 3.18604 5.0418 3.31622 5.18051 3.50232Z" fill="white"/>
</svg>
