<svg width="397" height="398" viewBox="0 0 397 398" fill="none" xmlns="http://www.w3.org/2000/svg">
<path fillRule="evenodd" clipRule="evenodd" d="M1 2H395V396H1V2Z" fill="white" fillOpacity="0.1"/>
<path d="M138.172 189.517V179.827H127.813V189.517H123V166.52H127.813V175.859H138.172V166.52H142.985V189.517H138.172ZM160.117 183.938H152.037L150.284 189.517H145.344L153.328 166.52H158.986L166.986 189.517H161.87L160.117 183.938ZM153.073 180.337H159.081L156.133 170.918H156.022L153.073 180.337ZM172.644 182.967C172.75 183.902 173.25 184.662 174.142 185.245C175.024 185.819 176.107 186.106 177.393 186.106C178.668 186.106 179.709 185.83 180.517 185.278C181.314 184.735 181.712 184.04 181.712 183.19C181.712 182.447 181.415 181.845 180.82 181.388C180.225 180.933 179.231 180.549 177.839 180.242L174.843 179.588C170.625 178.685 168.516 176.544 168.516 173.166C168.516 171.062 169.34 169.357 170.986 168.05C172.623 166.765 174.732 166.122 177.313 166.122C179.97 166.122 182.095 166.754 183.688 168.017C185.261 169.271 186.068 170.945 186.111 173.038H181.6C181.526 172.071 181.096 171.306 180.31 170.743C179.534 170.191 178.541 169.914 177.329 169.914C176.139 169.914 175.183 170.174 174.461 170.695C173.728 171.216 173.361 171.901 173.361 172.751C173.361 173.453 173.659 174.026 174.253 174.473C174.838 174.897 175.794 175.265 177.122 175.572L179.911 176.162C182.217 176.65 183.895 177.416 184.947 178.456C185.999 179.487 186.525 180.878 186.525 182.633C186.525 184.863 185.686 186.632 184.007 187.939C182.328 189.257 180.06 189.915 177.202 189.915C174.429 189.915 172.224 189.299 170.588 188.067C168.941 186.824 168.081 185.124 168.006 182.967H172.644ZM204.662 189.517V179.827H194.302V189.517H189.489V166.52H194.302V175.859H204.662V166.52H209.475V189.517H204.662ZM223.053 166.153C226.261 166.153 228.807 167.22 230.686 169.357C232.567 171.492 233.508 174.382 233.508 178.027C233.508 181.67 232.567 184.556 230.686 186.68C228.807 188.815 226.261 189.884 223.053 189.884C219.845 189.884 217.304 188.815 215.436 186.68C213.555 184.556 212.614 181.67 212.614 178.027C212.614 174.382 213.555 171.492 215.436 169.357C217.315 167.22 219.855 166.153 223.053 166.153ZM223.053 168.178C220.535 168.178 218.538 169.064 217.061 170.839C215.584 172.613 214.845 175.009 214.845 178.027C214.845 181.034 215.584 183.424 217.061 185.198C218.548 186.972 220.545 187.859 223.053 187.859C225.571 187.859 227.573 186.972 229.061 185.198C230.538 183.424 231.276 181.034 231.276 178.027C231.276 175.009 230.538 172.613 229.061 170.839C227.573 169.064 225.571 168.178 223.053 168.178ZM236.903 189.517V166.52H239.054L252.537 185.724H252.648V166.52H254.8V189.517H252.696L239.165 170.297H239.054V189.517H236.903ZM273 189.517H259.119V166.52H273V168.496H261.285V176.767H272.41V178.712H261.285V187.541H273V189.517Z" fill="white"/>
<path d="M164.905 128.677C166.322 127.259 168.621 127.259 170.039 128.677L181.162 139.801C182.58 141.218 182.58 143.517 181.162 144.935C179.745 146.352 177.446 146.352 176.028 144.935L164.905 133.811C163.487 132.393 163.487 130.095 164.905 128.677Z" fill="url(#paint0_linear)"/>
<path d="M166.114 109.316C167.532 107.898 169.831 107.898 171.248 109.316L200.341 138.408C201.758 139.826 201.758 142.124 200.341 143.542C198.924 144.96 196.624 144.96 195.207 143.542L166.114 114.45C164.697 113.032 164.697 110.733 166.114 109.316Z" fill="url(#paint1_linear)"/>
<path d="M195.157 80.2732C196.574 78.8556 198.872 78.8556 200.291 80.2732L229.383 109.366C230.801 110.784 230.801 113.082 229.383 114.5C227.966 115.918 225.668 115.918 224.249 114.5L195.157 85.4074C193.738 83.9896 193.738 81.691 195.157 80.2732Z" fill="url(#paint2_linear)"/>
<path d="M214.519 79.0632C215.936 77.6456 218.235 77.6456 219.653 79.0632L230.776 90.1869C232.195 91.6047 232.195 93.9033 230.776 95.3209C229.359 96.7386 227.061 96.7386 225.643 95.3209L214.519 84.1973C213.101 82.7796 213.101 80.481 214.519 79.0632Z" fill="url(#paint3_linear)"/>
<path d="M210.45 108.837C209.033 107.419 206.734 107.419 205.316 108.837L194.867 119.286C193.449 120.704 193.449 123.003 194.867 124.42L207.255 136.809C208.672 138.226 210.971 138.226 212.389 136.809L214.953 134.245L204.926 124.219C203.46 122.752 203.46 120.375 204.926 118.908C206.392 117.442 208.77 117.442 210.236 118.908L220.263 128.935L222.838 126.359C224.256 124.942 224.256 122.643 222.838 121.225L210.45 108.837Z" fill="url(#paint4_linear)"/>
<path d="M203.336 127.758C204.754 126.34 207.053 126.34 208.471 127.758L219.594 138.882C221.011 140.299 221.011 142.598 219.594 144.016C218.177 145.433 215.878 145.433 214.46 144.016L203.336 132.892C201.919 131.474 201.919 129.176 203.336 127.758Z" fill="url(#paint5_linear)"/>
<path d="M213.786 117.31C215.204 115.892 217.502 115.892 218.92 117.31L230.044 128.433C231.461 129.851 231.461 132.15 230.044 133.567C228.626 134.985 226.327 134.985 224.91 133.567L213.786 122.444C212.369 121.026 212.369 118.728 213.786 117.31Z" fill="url(#paint6_linear)"/>
<path d="M184.498 114.242C185.916 115.66 188.214 115.66 189.632 114.242L200.081 103.793C201.498 102.375 201.498 100.076 200.081 98.6586L187.693 86.2706C186.276 84.8528 183.977 84.8528 182.559 86.2706L179.996 88.8339L190.022 98.8602C191.489 100.327 191.489 102.704 190.022 104.171C188.556 105.637 186.178 105.637 184.712 104.171L174.685 94.1445L172.11 96.7199C170.692 98.1376 170.692 100.436 172.11 101.854L184.498 114.242Z" fill="url(#paint7_linear)"/>
<path d="M191.611 95.3209C190.194 96.7386 187.895 96.7386 186.477 95.3209L175.354 84.1973C173.936 82.7796 173.936 80.4809 175.354 79.0633C176.771 77.6456 179.07 77.6456 180.488 79.0633L191.611 90.1869C193.03 91.6046 193.03 93.9032 191.611 95.3209Z" fill="url(#paint8_linear)"/>
<path d="M169.598 89.1358V91.4949C169.598 91.7608 169.686 92.0192 169.847 92.2304L171.812 94.798C172.247 95.3658 173.076 95.4351 173.599 94.9473L174.569 94.042L181.162 100.635C182.58 102.053 182.58 104.352 181.162 105.769C179.745 107.187 177.446 107.187 176.028 105.769L164.905 94.6457C163.487 93.2279 163.487 90.9293 164.905 89.5117C166.183 88.2329 168.179 88.1075 169.598 89.1358Z" fill="url(#paint9_linear)"/>
<path d="M123 251.776H127.547V265.753H129.549V251.776H134.248V249.841H123V251.776ZM136.381 265.753H138.382V259.036H145.41V265.753H147.411V249.841H145.41V257.101H138.382V249.841H136.381V265.753ZM150.233 262.97C150.233 265.557 151.952 265.905 153.388 265.818C153.388 265.818 159.741 265.514 160.067 265.448V263.883H153.584C152.953 263.883 152.235 263.905 152.235 262.753V258.905L159.175 258.688V257.08L152.235 256.862V253.015C152.235 252.428 152.235 251.797 153.366 251.797H160.067V250.189C159.698 250.145 153.171 249.841 153.171 249.841C151.691 249.798 150.233 250.515 150.233 252.797V262.97ZM167.712 255.08C167.712 256.775 168.082 258.949 171.65 258.949H174.544C175.893 258.949 176.219 259.753 176.219 260.905V262.21C176.219 263.927 174.565 263.992 173.673 263.992C171.65 263.992 169.061 263.84 168.191 263.753V265.361C169.387 265.622 172.325 265.927 173.826 265.927C175.98 265.927 178.22 265.405 178.22 262.166V260.818C178.22 259.036 177.698 256.949 174.739 256.949H171.802C170.519 256.949 169.714 256.753 169.714 254.971V253.71C169.714 251.732 170.78 251.602 172.259 251.645C172.477 251.645 176.262 251.776 177.655 251.863V250.276C176.719 250.102 173.499 249.711 172.02 249.711C169.583 249.732 167.712 250.493 167.712 253.645V255.08ZM179.6 251.776H184.148V265.753H186.149V251.776H190.848V249.841H179.6V251.776ZM189.778 265.753H192.106L193.455 261.579H199.503L200.809 265.753H203.093L197.61 249.841H195.5L189.778 265.753ZM194.108 259.666L196.544 252.732L198.894 259.666H194.108ZM205.177 265.753H207.2V253.602L215.12 265.753H217.121V249.841H215.12V262.036L207.222 249.841H205.177V265.753ZM219.943 265.753H226.1C230.212 265.753 231.713 261.775 231.713 257.862C231.713 254.428 230.908 249.841 226.1 249.841H219.943V265.753ZM221.945 263.796V251.754H226.035C228.341 251.754 229.712 253.297 229.712 257.84C229.712 261.166 228.668 263.796 226.035 263.796H221.945ZM232.377 265.753H234.705L236.054 261.579H242.102L243.407 265.753H245.692L240.209 249.841H238.099L232.377 265.753ZM236.707 259.666L239.143 252.732L241.493 259.666H236.707ZM247.406 265.753H249.408V259.079L253.302 259.384L256.457 265.753H258.654L255.391 259.275C256.087 259.145 258.11 258.753 258.11 254.688C258.11 251.015 256.435 249.841 254.238 249.841H247.406V265.753ZM249.408 257.384V251.776H254.172C255.13 251.776 256.087 252.123 256.087 254.688C256.087 257.319 255.173 257.384 254.172 257.384H249.408ZM260.736 265.753H266.893C271.005 265.753 272.507 261.775 272.507 257.862C272.507 254.428 271.702 249.841 266.893 249.841H260.736V265.753ZM262.738 263.796V251.754H266.828C269.134 251.754 270.505 253.297 270.505 257.84C270.505 261.166 269.461 263.796 266.828 263.796H262.738ZM137.73 292.924H139.732V286.077L146.672 285.86V284.251L139.732 284.034V280.186C139.732 279.599 139.732 278.969 140.863 278.969H147.564V277.36C147.194 277.317 140.667 277.013 140.667 277.013C139.144 276.969 137.73 277.73 137.73 279.991V292.924ZM149.345 285.077C149.345 292.316 151.673 293.011 155.589 293.011C159.505 293.011 161.789 292.098 161.789 285.077C161.789 277.621 159.353 276.904 155.589 276.904C151.934 276.904 149.345 277.621 149.345 285.077ZM151.346 285.077C151.346 278.969 152.847 278.839 155.589 278.839C158.395 278.839 159.788 279.012 159.788 285.077C159.788 290.185 158.765 291.077 155.589 291.077C152.347 291.077 151.346 290.338 151.346 285.077ZM163.939 292.924H165.941V286.251L169.835 286.555L172.99 292.924H175.187L171.924 286.447C172.62 286.316 174.644 285.925 174.644 281.86C174.644 278.186 172.968 277.013 170.771 277.013H163.939V292.924ZM165.941 284.555V278.947H170.706C171.663 278.947 172.62 279.295 172.62 281.86C172.62 284.49 171.706 284.555 170.706 284.555H165.941ZM182.208 284.925C182.208 289.707 183.514 293.055 187.539 293.055C188.996 293.076 191.411 292.881 192.912 292.555V290.968C192.912 290.968 190.019 291.12 187.734 291.12C184.95 291.12 184.21 288.533 184.21 284.968C184.21 279.817 185.145 278.773 187.734 278.773C189.78 278.773 192.891 279.034 192.912 279.034V277.447C191.346 277.1 188.975 276.839 187.539 276.839C183.209 276.839 182.208 279.838 182.208 284.925ZM194.875 292.924H196.876V286.251L200.77 286.555L203.925 292.924H206.123L202.859 286.447C203.555 286.316 205.579 285.925 205.579 281.86C205.579 278.186 203.903 277.013 201.706 277.013H194.875V292.924ZM196.876 284.555V278.947H201.641C202.598 278.947 203.555 279.295 203.555 281.86C203.555 284.49 202.642 284.555 201.641 284.555H196.876ZM206.85 277.013L211.854 287.468V292.924H213.855V287.468L219.294 277.013H217.097L212.854 285.164L209.025 277.013H206.85ZM221.028 292.924H223.03V286.186C223.139 286.251 226.794 286.62 227.664 286.62C229.339 286.642 231.645 286.338 231.645 281.708C231.645 277.708 229.448 277.013 227.664 277.013H221.028V292.924ZM223.03 284.708V278.947H227.599C228.36 278.947 229.579 279.143 229.622 281.73C229.622 284.338 228.687 284.708 227.599 284.708H223.03ZM233.429 278.947H237.976V292.924H239.977V278.947H244.677V277.013H233.429V278.947ZM246.08 285.077C246.08 292.316 248.408 293.011 252.324 293.011C256.24 293.011 258.524 292.098 258.524 285.077C258.524 277.621 256.088 276.904 252.324 276.904C248.669 276.904 246.08 277.621 246.08 285.077ZM248.081 285.077C248.081 278.969 249.583 278.839 252.324 278.839C255.131 278.839 256.523 279.012 256.523 285.077C256.523 290.185 255.5 291.077 252.324 291.077C249.082 291.077 248.081 290.338 248.081 285.077ZM137.049 312.097C137.049 316.879 138.354 320.226 142.379 320.226C143.837 320.248 146.252 320.052 147.753 319.726V318.14C147.753 318.14 144.86 318.292 142.575 318.292C139.79 318.292 139.051 315.705 139.051 312.14C139.051 306.988 139.986 305.945 142.575 305.945C144.62 305.945 147.731 306.206 147.753 306.206V304.619C146.187 304.271 143.815 304.01 142.379 304.01C138.05 304.01 137.049 307.01 137.049 312.097ZM149.122 312.249C149.122 319.487 151.449 320.183 155.366 320.183C159.282 320.183 161.566 319.27 161.566 312.249C161.566 304.793 159.129 304.076 155.366 304.076C151.711 304.076 149.122 304.793 149.122 312.249ZM151.123 312.249C151.123 306.141 152.624 306.01 155.366 306.01C158.172 306.01 159.565 306.184 159.565 312.249C159.565 317.357 158.542 318.248 155.366 318.248C152.124 318.248 151.123 317.509 151.123 312.249ZM164.086 320.096H166.11V307.945L174.029 320.096H176.03V304.184H174.029V316.379L166.131 304.184H164.086V320.096ZM178.548 309.423C178.548 311.118 178.918 313.292 182.486 313.292H185.379C186.728 313.292 187.055 314.096 187.055 315.248V316.553C187.055 318.27 185.401 318.335 184.509 318.335C182.486 318.335 179.897 318.183 179.027 318.096V319.705C180.223 319.965 183.16 320.27 184.661 320.27C186.815 320.27 189.056 319.748 189.056 316.509V315.162C189.056 313.379 188.534 311.292 185.575 311.292H182.638C181.354 311.292 180.55 311.097 180.55 309.314V308.053C180.55 306.075 181.616 305.945 183.095 305.988C183.313 305.988 187.098 306.119 188.491 306.206V304.619C187.555 304.445 184.335 304.054 182.856 304.054C180.419 304.076 178.548 304.836 178.548 307.988V309.423ZM191.579 313.14C191.579 320.378 194.581 320.205 197.541 320.205C200.173 320.205 203.393 320.161 203.393 313.14V304.184H201.37V313.14C201.37 318.053 199.673 318.27 197.541 318.27C195.082 318.27 193.581 318.205 193.581 313.14V304.184H191.579V313.14ZM206.218 317.27C206.218 319.726 207.762 320.096 209.285 320.096H215.899V318.161H209.568C208.937 318.161 208.219 318.183 208.219 317.031V304.184H206.218V317.27ZM214.891 306.119H219.438V320.096H221.44V306.119H226.139V304.184H214.891V306.119ZM228.271 320.096H230.273V304.184H228.271V320.096ZM233.095 320.096H235.118V307.945L243.038 320.096H245.039V304.184H243.038V316.379L235.14 304.184H233.095V320.096ZM247.361 312.053C247.361 316.661 248.035 320.292 252.539 320.205C254.453 320.205 255.737 319.552 256.52 319.031L256.999 320.096H258.478V311.553C257.956 311.51 257.456 311.488 256.999 311.488C255.302 311.488 254.105 311.749 253.213 312.031V313.336H256.477V317.292C256.477 317.292 254.301 318.313 252.691 318.292C250.146 318.248 249.362 316.748 249.362 312.097C249.362 307.836 249.928 305.923 252.669 305.923C254.91 305.923 258.043 306.206 258.174 306.206V304.641C256.433 304.271 253.953 304.01 252.474 304.01C248.144 304.01 247.361 307.64 247.361 312.053Z" fill="white"/>
<defs>
<linearGradient id="paint0_linear" x1="222.237" y1="86.782" x2="172.018" y2="137.001" gradientUnits="userSpaceOnUse">
<stop offset="0.00264941" stopColor="#783E97"/>
<stop offset="0.888832" stopColor="#32B0E5"/>
</linearGradient>
<linearGradient id="paint1_linear" x1="222.236" y1="86.782" x2="172.018" y2="137.001" gradientUnits="userSpaceOnUse">
<stop offset="0.00264941" stopColor="#783E97"/>
<stop offset="0.888832" stopColor="#32B0E5"/>
</linearGradient>
<linearGradient id="paint2_linear" x1="222.236" y1="86.782" x2="172.018" y2="137.001" gradientUnits="userSpaceOnUse">
<stop offset="0.00264941" stopColor="#783E97"/>
<stop offset="0.888832" stopColor="#32B0E5"/>
</linearGradient>
<linearGradient id="paint3_linear" x1="222.237" y1="86.7821" x2="172.019" y2="137.001" gradientUnits="userSpaceOnUse">
<stop offset="0.00264941" stopColor="#783E97"/>
<stop offset="0.888832" stopColor="#32B0E5"/>
</linearGradient>
<linearGradient id="paint4_linear" x1="222.237" y1="86.7822" x2="172.018" y2="137.001" gradientUnits="userSpaceOnUse">
<stop offset="0.00264941" stopColor="#783E97"/>
<stop offset="0.888832" stopColor="#32B0E5"/>
</linearGradient>
<linearGradient id="paint5_linear" x1="222.237" y1="86.7821" x2="172.018" y2="137.001" gradientUnits="userSpaceOnUse">
<stop offset="0.00264941" stopColor="#783E97"/>
<stop offset="0.888832" stopColor="#32B0E5"/>
</linearGradient>
<linearGradient id="paint6_linear" x1="222.237" y1="86.7822" x2="172.018" y2="137.001" gradientUnits="userSpaceOnUse">
<stop offset="0.00264941" stopColor="#783E97"/>
<stop offset="0.888832" stopColor="#32B0E5"/>
</linearGradient>
<linearGradient id="paint7_linear" x1="222.237" y1="86.7821" x2="172.018" y2="137.001" gradientUnits="userSpaceOnUse">
<stop offset="0.00264941" stopColor="#783E97"/>
<stop offset="0.888832" stopColor="#32B0E5"/>
</linearGradient>
<linearGradient id="paint8_linear" x1="222.236" y1="86.7821" x2="172.018" y2="137.001" gradientUnits="userSpaceOnUse">
<stop offset="0.00264941" stopColor="#783E97"/>
<stop offset="0.888832" stopColor="#32B0E5"/>
</linearGradient>
<linearGradient id="paint9_linear" x1="222.237" y1="86.7821" x2="172.018" y2="137.001" gradientUnits="userSpaceOnUse">
<stop offset="0.00264941" stopColor="#783E97"/>
<stop offset="0.888832" stopColor="#32B0E5"/>
</linearGradient>
</defs>
</svg>
