<svg width="5" height="12" viewBox="0 0 5 12" fill="none" xmlns="http://www.w3.org/2000/svg">
<path fill-rule="evenodd" clip-rule="evenodd" d="M4.33743 8.4744C4.31452 8.44314 4.28529 8.42765 4.25507 8.42765C4.22485 8.42765 4.19318 8.44452 4.17028 8.47854L2.51726 10.8797C0.846704 8.46555 0.828672 8.45669 0.793588 8.44038C0.731204 8.41078 0.664445 8.45642 0.643004 8.5427C0.625945 8.61296 0.643977 8.68818 0.684913 8.7305C0.774093 8.84306 1.77457 10.2823 2.43295 11.2334C2.45488 11.2655 2.48559 11.2835 2.51775 11.2835C2.54943 11.2835 2.58062 11.2649 2.60254 11.2331L4.34035 8.70893C4.38567 8.64282 4.38422 8.538 4.33743 8.4744ZM2.50411 10.7837C2.5694 10.7837 2.62204 10.7093 2.62204 10.6181L2.62253 0.839246C2.62253 0.7477 2.57038 0.673584 2.50459 0.673584C2.43929 0.673584 2.38666 0.7477 2.38666 0.839246L2.38617 10.6181C2.38617 10.7093 2.43929 10.7837 2.50411 10.7837Z" fill="#E43133"/>
<path d="M4.33743 8.4744L3.93409 8.7699L3.93467 8.77068L4.33743 8.4744ZM4.17028 8.47854L4.58214 8.76208L4.58504 8.75778L4.17028 8.47854ZM2.51726 10.8797L2.1061 11.1642L2.51832 11.7599L2.9291 11.1632L2.51726 10.8797ZM0.793588 8.44038L0.579268 8.89213L0.582809 8.89378L0.793588 8.44038ZM0.643004 8.5427L0.157754 8.42212L0.157123 8.42472L0.643004 8.5427ZM0.684913 8.7305L1.07682 8.42L1.06148 8.40064L1.0443 8.38288L0.684913 8.7305ZM2.43295 11.2334L2.84576 10.9513L2.84406 10.9488L2.43295 11.2334ZM2.60254 11.2331L3.01417 11.517L3.01438 11.5167L2.60254 11.2331ZM4.34035 8.70893L4.75219 8.99246L4.75276 8.99163L4.34035 8.70893ZM2.62204 10.6181L2.12204 10.618V10.6181H2.62204ZM2.62253 0.839246L3.12253 0.839271V0.839246H2.62253ZM2.38666 0.839246L2.88666 0.839271V0.839246H2.38666ZM2.38617 10.6181L1.88617 10.618V10.6181H2.38617ZM4.74076 8.1789C4.64178 8.0438 4.47297 7.92765 4.25507 7.92765V8.92765C4.0976 8.92765 3.98727 8.84247 3.93409 8.7699L4.74076 8.1789ZM4.25507 7.92765C4.03097 7.92765 3.85484 8.05178 3.75552 8.1993L4.58504 8.75778C4.53152 8.83727 4.41874 8.92765 4.25507 8.92765V7.92765ZM3.75843 8.19502L2.10542 10.5962L2.9291 11.1632L4.58212 8.76207L3.75843 8.19502ZM2.92842 10.5952C2.09363 9.3888 1.66951 8.7802 1.44954 8.471C1.34157 8.31924 1.27595 8.2299 1.23299 8.17627C1.2132 8.15157 1.18357 8.11572 1.147 8.08222C1.0897 8.02971 1.03689 8.0021 1.00437 7.98698L0.582809 8.89378C0.584995 8.8948 0.561331 8.88425 0.534355 8.8673C0.506762 8.84996 0.48575 8.83264 0.47141 8.8195C0.449072 8.79903 0.439657 8.78541 0.452591 8.80155C0.475079 8.82962 0.524959 8.89643 0.634706 9.0507C0.850159 9.35354 1.27034 9.95643 2.1061 11.1642L2.92842 10.5952ZM1.0079 7.98864C0.804286 7.89204 0.584032 7.92417 0.421561 8.03478C0.271891 8.13667 0.191421 8.28667 0.157761 8.42212L1.12825 8.66329C1.11603 8.71246 1.07966 8.79649 0.984323 8.8614C0.876188 8.93501 0.720505 8.95912 0.579274 8.89212L1.0079 7.98864ZM0.157123 8.42472C0.107278 8.62999 0.144399 8.89086 0.325523 9.07812L1.0443 8.38288C1.09902 8.43945 1.12099 8.49772 1.12971 8.53598C1.13893 8.57643 1.13912 8.61852 1.12888 8.66069L0.157123 8.42472ZM0.293008 9.041C0.291856 9.03955 0.29583 9.04463 0.308265 9.06165C0.319261 9.07671 0.333822 9.09689 0.351928 9.12221C0.388067 9.17274 0.436232 9.24077 0.494268 9.32319C0.610226 9.48786 0.763705 9.7073 0.935331 9.95346C1.27848 10.4456 1.69287 11.0427 2.02184 11.518L2.84406 10.9488C2.19545 10.0118 1.17929 8.54933 1.07682 8.42L0.293008 9.041ZM2.02016 11.5155C2.11451 11.6536 2.28679 11.7835 2.51775 11.7835V10.7835C2.68438 10.7835 2.79525 10.8774 2.84575 10.9513L2.02016 11.5155ZM2.51775 11.7835C2.75121 11.7835 2.92236 11.6501 3.01417 11.517L2.19092 10.9493C2.23888 10.8797 2.34765 10.7835 2.51775 10.7835V11.7835ZM3.01438 11.5167L4.75219 8.99246L3.92852 8.42539L2.1907 10.9496L3.01438 11.5167ZM4.75276 8.99163C4.8439 8.85868 4.87502 8.7102 4.87339 8.58427C4.87177 8.4587 4.83694 8.30964 4.74019 8.17811L3.93467 8.77068C3.8847 8.70276 3.874 8.63791 3.87347 8.59718C3.87294 8.55608 3.88213 8.49307 3.92795 8.42622L4.75276 8.99163ZM2.50411 11.2837C2.74123 11.2837 2.90775 11.1477 2.99515 11.0247C3.08324 10.9007 3.12204 10.7554 3.12204 10.6181H2.12204C2.12204 10.572 2.13452 10.5095 2.17996 10.4455C2.22472 10.3825 2.33228 10.2837 2.50411 10.2837V11.2837ZM3.12204 10.6181L3.12253 0.839271L2.12253 0.839221L2.12204 10.618L3.12204 10.6181ZM3.12253 0.839246C3.12253 0.703082 3.08452 0.557528 2.99605 0.432809C2.90761 0.308121 2.7406 0.173584 2.50459 0.173584V1.17358C2.33438 1.17358 2.22633 1.0761 2.18041 1.01136C2.13446 0.946587 2.12253 0.883864 2.12253 0.839246H3.12253ZM2.50459 0.173584C2.26816 0.173584 2.10152 0.3088 2.0137 0.432271C1.92533 0.556506 1.88666 0.70206 1.88666 0.839246H2.88666C2.88666 0.884886 2.87431 0.947609 2.82858 1.0119C2.78339 1.07543 2.67572 1.17358 2.50459 1.17358V0.173584ZM1.88666 0.839221L1.88617 10.618L2.88617 10.6181L2.88666 0.839271L1.88666 0.839221ZM1.88617 10.6181C1.88617 10.7564 1.92564 10.9018 2.01363 11.0253C2.10043 11.1471 2.26659 11.2837 2.50411 11.2837V10.2837C2.6768 10.2837 2.784 10.3832 2.82803 10.445C2.87327 10.5084 2.88617 10.571 2.88617 10.6181H1.88617Z" fill="#E43133"/>
</svg>
