<svg width="185" height="175" viewBox="0 0 185 175" fill="none" xmlns="http://www.w3.org/2000/svg">
<path d="M167.308 96.9091L167.26 86.6221L157.212 86.5742L104.485 56.0002C96.6384 51.4548 82.8586 51.9811 73.7677 57.1964L25.1555 85.1388C24.7727 85.3781 24.3899 85.6173 24.0072 85.8565L17.5957 85.8087V95.3302C17.6435 98.1531 19.4139 100.833 22.9067 102.89L80.4184 136.239C88.2653 140.785 102.045 140.258 111.136 135.043L159.748 107.1C164.82 104.182 167.356 100.45 167.308 96.9091Z" fill="url(#paint0_linear)"/>
<path d="M80.4195 126.765L22.9078 93.4163C15.061 88.8709 16.0658 80.9283 25.1566 75.6652L73.8167 47.7227C82.9076 42.5074 96.6874 41.9333 104.534 46.5265L161.998 79.8278C169.845 84.3733 168.84 92.3158 159.749 97.579L111.137 125.521C102.046 130.785 88.3142 131.311 80.4195 126.765Z" fill="url(#paint1_linear)"/>
<path d="M106.496 65.0911V12.1248L66.5442 11.3593V63.9906C66.4006 64.4212 66.592 64.8997 67.1184 65.1868L85.2522 75.9044C86.2092 76.4786 87.836 76.4307 88.9364 75.8087L105.587 66.4308C106.257 66.048 106.544 65.5696 106.496 65.0911Z" fill="url(#paint2_linear)"/>
<path d="M85.2518 22.6989L67.1179 11.9812C66.1609 11.4071 66.3045 10.498 67.4049 9.87597L84.0556 0.498024C85.1561 -0.123983 86.7828 -0.171832 87.7398 0.402329L105.874 11.12C106.831 11.6941 106.687 12.6032 105.587 13.2252L88.9359 22.6032C87.8355 23.2252 86.1608 23.273 85.2518 22.6989Z" fill="url(#paint3_linear)"/>
<path d="M85.8261 18.1535L74.7256 11.5985C74.1515 11.2636 74.2472 10.6894 74.917 10.3067L85.1084 4.56505C85.7782 4.18228 86.783 4.13443 87.3572 4.5172L98.4576 11.0722C99.0318 11.4071 98.9361 11.9813 98.2662 12.3641L88.0749 18.1057C87.405 18.4884 86.4002 18.5363 85.8261 18.1535Z" fill="url(#paint4_linear)"/>
<path d="M82.0938 59.9236C82.0938 59.158 81.6632 58.2968 81.089 57.9619L67.5963 49.9715C67.357 49.8279 67.1178 49.8279 66.9264 49.9236C66.8786 49.9236 66.8786 49.9715 66.8307 49.9715L63.4814 51.981L78.2182 62.7944L81.6153 60.7848C81.711 60.7848 81.7589 60.737 81.8067 60.6413C81.9981 60.5456 82.0938 60.3064 82.0938 59.9236Z" fill="url(#paint5_linear)"/>
<path d="M77.644 62.7466L64.1513 54.7562C63.5771 54.4212 63.1465 53.56 63.1465 52.7945C63.1465 52.0289 63.625 51.694 64.1991 52.0289L77.6919 60.0193C78.266 60.3542 78.6967 61.2155 78.6967 61.981C78.6488 62.7466 78.1704 63.0815 77.644 62.7466Z" fill="url(#paint6_linear)"/>
<path d="M82.046 53.9906C82.046 53.2251 81.6153 52.3638 81.0412 52.0289L67.5484 44.0385C67.3092 43.895 67.0699 43.8949 66.8786 43.9906C66.8307 43.9906 66.8307 44.0385 66.7829 44.0385L63.4336 46.0481L78.1704 56.8614L81.5675 54.8518C81.6632 54.8518 81.711 54.804 81.7589 54.7083C81.9503 54.6126 82.046 54.3734 82.046 53.9906Z" fill="url(#paint7_linear)"/>
<path d="M77.5962 56.8136L64.1034 48.8232C63.5293 48.4883 63.0986 47.627 63.0986 46.8615C63.0986 46.0959 63.5771 45.761 64.1513 46.0959L77.644 54.0863C78.2182 54.4212 78.6488 55.2825 78.6488 56.048C78.601 56.8136 78.1225 57.1485 77.5962 56.8136Z" fill="url(#paint8_linear)"/>
<path d="M82.0938 48.0576C82.0938 47.2921 81.6632 46.4308 81.089 46.0959L67.5963 38.1534C67.357 38.0098 67.1178 38.0098 66.9264 38.1055C66.8786 38.1055 66.8786 38.1534 66.8307 38.1534L63.4814 40.1629L78.2182 50.9763L81.6153 48.9667C81.711 48.9667 81.7589 48.9189 81.8067 48.8232C81.9981 48.6796 82.0938 48.4404 82.0938 48.0576Z" fill="url(#paint9_linear)"/>
<path d="M77.5962 50.8806L64.1034 42.8902C63.5293 42.5553 63.0986 41.694 63.0986 40.9285C63.0986 40.1629 63.5771 39.828 64.1513 40.1629L77.644 48.1533C78.2182 48.4883 78.6488 49.3495 78.6488 50.115C78.6488 50.8806 78.1703 51.2155 77.5962 50.8806Z" fill="url(#paint10_linear)"/>
<path d="M82.0938 42.1246C82.0938 41.3591 81.6632 40.4978 81.089 40.1629L67.5963 32.1725C67.357 32.029 67.1178 32.029 66.9264 32.1247C66.8786 32.1247 66.8786 32.1725 66.8307 32.1725L63.4814 34.1821L78.2182 44.9954L81.6153 42.9859C81.711 42.9859 81.7589 42.938 81.8067 42.8423C81.9503 42.6988 82.0938 42.4596 82.0938 42.1246Z" fill="url(#paint11_linear)"/>
<path d="M77.5962 44.8998L64.1034 36.9094C63.5293 36.5744 63.0986 35.7132 63.0986 34.9477C63.0986 34.1821 63.5771 33.8472 64.1513 34.1821L77.644 42.1725C78.2182 42.5074 78.6488 43.3687 78.6488 44.1342C78.6488 44.8998 78.1703 45.2347 77.5962 44.8998Z" fill="url(#paint12_linear)"/>
<path d="M82.1417 36.1916C82.1417 35.4261 81.711 34.5649 81.1369 34.2299L67.6441 26.2395C67.4049 26.096 67.1656 26.096 66.9743 26.1917C66.9264 26.1917 66.9264 26.2395 66.8786 26.2395L63.5293 28.2491L78.2661 39.0624L81.6632 37.0529C81.7589 37.0529 81.8067 37.005 81.8546 36.9093C81.9981 36.7658 82.0938 36.5266 82.1417 36.1916Z" fill="url(#paint13_linear)"/>
<path d="M77.644 38.9668L64.1513 30.9764C63.5771 30.6415 63.1465 29.7802 63.1465 29.0147C63.1465 28.2491 63.625 27.9142 64.1991 28.2491L77.6919 36.2395C78.266 36.5744 78.6967 37.4357 78.6967 38.2012C78.6488 38.9668 78.2182 39.3017 77.644 38.9668Z" fill="url(#paint14_linear)"/>
<path d="M82.1417 30.2587C82.1417 29.4931 81.711 28.6319 81.1369 28.297L67.6441 20.3066C67.4049 20.163 67.1656 20.163 66.9743 20.2587C66.9264 20.2587 66.9264 20.3066 66.8786 20.3066L63.5293 22.3161L78.2661 33.1295L81.6632 31.1199C81.7589 31.1199 81.8067 31.0721 81.8546 30.9764C81.9981 30.8328 82.0938 30.5936 82.1417 30.2587Z" fill="url(#paint15_linear)"/>
<path d="M77.644 33.0338L64.1513 25.0434C63.5771 24.7085 63.1465 23.8472 63.1465 23.0817C63.1465 22.3161 63.625 21.9812 64.1991 22.3161L77.6919 30.3065C78.266 30.6415 78.6967 31.5027 78.6967 32.2682C78.6488 33.0338 78.2182 33.3687 77.644 33.0338Z" fill="url(#paint16_linear)"/>
<path d="M74.7249 11.6463L76.591 12.7468L85.1077 7.96209C85.7775 7.57931 86.7823 7.53147 87.3565 7.91424L96.5909 13.3688L98.2655 12.4118C98.9354 12.0291 99.0311 11.4549 98.4569 11.12L87.3565 4.51712C86.7823 4.1822 85.7775 4.23004 85.1077 4.56497L74.9163 10.3066C74.1986 10.6893 74.1508 11.2635 74.7249 11.6463Z" fill="url(#paint17_linear)"/>
<path d="M103.625 23.0339L90.9932 30.3066V28.3448L103.625 21.0721V23.0339Z" fill="url(#paint18_linear)"/>
<path d="M103.625 26.8138L99.749 29.0626V27.1008L103.625 24.8521V26.8138Z" fill="url(#paint19_linear)"/>
<path d="M98.2659 29.8759L90.9932 34.0864V32.1247L98.2659 27.9142V29.8759Z" fill="url(#paint20_linear)"/>
<path d="M103.625 30.4501L94.6299 35.6654V33.7037L103.625 28.4884V30.4501Z" fill="url(#paint21_linear)"/>
<path d="M93.1463 36.4788L90.9932 37.7228V35.7611L93.1463 34.5171V36.4788Z" fill="url(#paint22_linear)"/>
<path d="M103.625 34.23L90.9932 41.5506V39.5889L103.625 32.2683V34.23Z" fill="url(#paint23_linear)"/>
<path d="M103.625 38.0098L99.749 40.2586V38.2969L103.625 36.0481V38.0098Z" fill="url(#paint24_linear)"/>
<path d="M98.2659 41.1199L90.9932 45.3304V43.3687L98.2659 39.1582V41.1199Z" fill="url(#paint25_linear)"/>
<path d="M103.625 41.6462L94.6299 46.8615V44.8997L103.625 39.6844V41.6462Z" fill="url(#paint26_linear)"/>
<path d="M93.1463 47.7227L90.9932 48.9667V47.005L93.1463 45.761V47.7227Z" fill="url(#paint27_linear)"/>
<path d="M103.625 45.2347L90.9932 52.5552V50.5935L103.625 43.2729V45.2347Z" fill="url(#paint28_linear)"/>
<path d="M103.625 49.0146L99.749 51.2634V49.3016L103.625 47.0529V49.0146Z" fill="url(#paint29_linear)"/>
<path d="M98.2659 52.1247L90.9932 56.3352V54.3735L98.2659 50.163V52.1247Z" fill="url(#paint30_linear)"/>
<path d="M103.625 52.6509L94.6299 57.8662V55.9045L103.625 50.6892V52.6509Z" fill="url(#paint31_linear)"/>
<path d="M93.1463 58.7275L90.9932 59.9715V58.0098L93.1463 56.7657V58.7275Z" fill="url(#paint32_linear)"/>
<path d="M103.625 56.4787L90.9932 63.7514V61.7897L103.625 54.517V56.4787Z" fill="url(#paint33_linear)"/>
<path d="M56.448 85.7608V58.0097L32.5725 57.5312V85.0909C32.4768 85.378 32.6203 85.6173 32.9074 85.8086L43.7686 92.2201C44.3428 92.555 45.2997 92.5072 45.9696 92.1722L55.9217 86.5742C56.3044 86.335 56.4958 86.0479 56.448 85.7608Z" fill="url(#paint34_linear)"/>
<path d="M43.7206 64.3255L32.8594 57.914C32.2853 57.5791 32.381 57.0049 33.0508 56.6221L43.0029 51.0241C43.6728 50.6413 44.6297 50.6413 45.2039 50.9762L56.0651 57.3877C56.6392 57.7226 56.5435 58.2968 55.8737 58.6795L45.9216 64.2776C45.2996 64.6604 44.2948 64.6604 43.7206 64.3255Z" fill="url(#paint35_linear)"/>
<path d="M53.816 92.3158L50.3232 90.3062V88.2488L53.816 90.2583V92.3158Z" fill="#3B3BC4"/>
<path d="M57.1647 90.4019L53.8154 88.488L57.1647 88.2966V90.4019Z" fill="#3B3BC4"/>
<path d="M54.4854 83.2727V87.2918L58.2174 85.9999L60.514 82.3157L58.4088 80.5454L54.4854 83.2727Z" fill="url(#paint36_linear)"/>
<path d="M54.5332 77.2917V80.7846L58.9351 78.775L59.6528 75.33L57.4997 74.8516L54.5332 77.2917Z" fill="url(#paint37_linear)"/>
<path d="M48.7441 74.0861L50.3231 73.177L53.8159 75.1866L52.237 76.0957L48.7441 74.0861Z" fill="#DFD2FF"/>
<path d="M57.1655 73.2249L53.6727 71.2632L52.0459 72.2201L55.5387 74.1818L57.1655 73.2249Z" fill="#DFD2FF"/>
<path d="M59.94 72.4114L56.5907 70.4976L55.5381 71.6459L59.1266 73.1291L59.94 72.4114Z" fill="#DFD2FF"/>
<path d="M50.3232 71.1196L53.816 73.1292V75.1866L50.3232 73.177V71.1196Z" fill="#554FC6"/>
<path d="M53.6719 69.2058L57.1647 71.1675V73.2249L53.6719 71.2632V69.2058Z" fill="#554FC6"/>
<path d="M55.3944 68.2009L58.8872 70.2105L57.1647 71.1674L53.6719 69.2057L55.3944 68.2009Z" fill="#DFD2FF"/>
<path d="M52.0457 70.1626L55.5385 72.1243L53.816 73.1291L50.3232 71.1195L52.0457 70.1626Z" fill="#DFD2FF"/>
<path d="M57.1655 90.4018V88.3443C56.8306 88.5357 56.4957 88.7271 56.065 88.9664L55.5387 89.3013V91.3587L53.8162 92.3635V90.3061L52.2373 91.2151V76.1434L53.8162 75.2344V73.1769L55.5387 72.1722V74.2296L56.7349 73.5119C56.8784 73.4162 57.022 73.3683 57.1655 73.2726V71.2152L58.888 70.2104V72.4592C59.2708 72.3635 59.6057 72.3635 59.9406 72.4592C60.2756 72.5549 60.5626 72.842 60.8019 73.2248C61.0411 73.6076 61.1368 74.1339 61.1368 74.8037C61.1368 75.5214 60.9932 76.2391 60.7062 77.0047C60.4191 77.7702 60.0363 78.4401 59.5578 79.0142C60.2277 78.8707 60.754 79.0142 61.1368 79.4449C61.5196 79.8755 61.7109 80.5453 61.7109 81.4066C61.7109 82.0764 61.5674 82.842 61.3282 83.6075C61.0889 84.3731 60.754 85.0908 60.3234 85.7128C59.9406 86.3348 59.4143 86.8611 58.8401 87.2917V89.4448L57.1655 90.4018ZM54.4861 83.2726V87.2917L56.5914 86.0955C57.4048 85.6171 57.9311 85.2822 58.1703 85.0908C58.5052 84.8037 58.7923 84.4688 58.9837 83.9903C59.1751 83.5597 59.3186 83.0812 59.3186 82.507C59.3186 82.0764 59.2229 81.7415 59.0794 81.5023C58.9358 81.263 58.6966 81.1673 58.3617 81.2152C58.0267 81.263 57.3569 81.5501 56.3521 82.1721L54.4861 83.2726ZM54.5339 77.2918V80.7846L56.0172 79.9233C56.9263 79.397 57.4526 79.0621 57.6918 78.9185C58.0746 78.6315 58.4095 78.2965 58.6009 77.8659C58.8401 77.4353 58.9358 77.0047 58.9358 76.4784C58.9358 75.9999 58.8401 75.665 58.6488 75.5214C58.4574 75.33 58.1703 75.33 57.7875 75.4736C57.5483 75.5693 56.9263 75.9042 55.8258 76.5262L54.5339 77.2918Z" fill="#B590FF"/>
<path d="M48.7441 74.0862L52.237 76.0957V91.1674L48.7441 89.2057V74.0862Z" fill="#554FC6"/>
<path d="M35.6824 66.4786L34.0556 65.5695C33.9599 65.5217 33.8643 65.3303 33.8643 65.1867V62.603C33.8643 62.4595 33.9599 62.4116 34.0556 62.4595L35.6824 63.3686C35.7781 63.4164 35.8738 63.6078 35.8738 63.7513V66.335C35.8738 66.4786 35.7781 66.5743 35.6824 66.4786Z" fill="#F5E9E6"/>
<path d="M38.5535 68.1533L36.9267 67.2442C36.831 67.1963 36.7354 67.005 36.7354 66.8614V64.2777C36.7354 64.1342 36.831 64.0863 36.9267 64.1342L38.5535 65.0432C38.6492 65.0911 38.7449 65.2825 38.7449 65.426V68.0097C38.7449 68.1533 38.6492 68.2011 38.5535 68.1533Z" fill="#F5E9E6"/>
<path d="M41.4236 69.8278L39.7969 68.9187C39.7012 68.8709 39.6055 68.6795 39.6055 68.536V65.9523C39.6055 65.8087 39.7012 65.7609 39.7969 65.8087L41.4236 66.7178C41.5193 66.7656 41.615 66.957 41.615 67.1006V69.6843C41.615 69.8278 41.5193 69.8757 41.4236 69.8278Z" fill="#F5E9E6"/>
<path d="M35.6824 70.5935L34.0556 69.6844C33.9599 69.6365 33.8643 69.4451 33.8643 69.3016V66.7179C33.8643 66.5743 33.9599 66.5265 34.0556 66.5743L35.6824 67.4834C35.7781 67.5313 35.8738 67.7227 35.8738 67.8662V70.4499C35.8738 70.5935 35.7781 70.6413 35.6824 70.5935Z" fill="#F5E9E6"/>
<path d="M38.5535 72.268L36.9267 71.3589C36.831 71.3111 36.7354 71.1197 36.7354 70.9762V68.3924C36.7354 68.2489 36.831 68.2011 36.9267 68.2489L38.5535 69.158C38.6492 69.2058 38.7449 69.3972 38.7449 69.5408V72.1245C38.7449 72.268 38.6492 72.3159 38.5535 72.268Z" fill="#F5E9E6"/>
<path d="M41.4236 73.8947L39.7969 72.9856C39.7012 72.9378 39.6055 72.7464 39.6055 72.6029V70.0191C39.6055 69.8756 39.7012 69.8278 39.7969 69.8756L41.4236 70.7847C41.5193 70.8325 41.615 71.0239 41.615 71.1675V73.7512C41.615 73.8947 41.5193 73.9904 41.4236 73.8947Z" fill="#F5E9E6"/>
<path d="M38.5535 76.3349L36.9267 75.4258C36.831 75.378 36.7354 75.1866 36.7354 75.0431V72.4593C36.7354 72.3158 36.831 72.2679 36.9267 72.3158L38.5535 73.2249C38.6492 73.2727 38.7449 73.4641 38.7449 73.6077V76.1914C38.7449 76.3349 38.6492 76.4306 38.5535 76.3349Z" fill="#F5E9E6"/>
<path d="M35.6824 78.7751L34.0556 77.866C33.9599 77.8182 33.8643 77.6268 33.8643 77.4832V74.8995C33.8643 74.756 33.9599 74.7081 34.0556 74.756L35.6824 75.6651C35.7781 75.7129 35.8738 75.9043 35.8738 76.0478V78.6316C35.8738 78.7751 35.7781 78.8229 35.6824 78.7751Z" fill="#F5E9E6"/>
<path d="M41.4236 86.1914L39.7969 85.2823C39.7012 85.2344 39.6055 85.043 39.6055 84.8995V82.3158C39.6055 82.1722 39.7012 82.1244 39.7969 82.1722L41.4236 83.0813C41.5193 83.1292 41.615 83.3206 41.615 83.4641V86.0478C41.615 86.1914 41.5193 86.2392 41.4236 86.1914Z" fill="#F5E9E6"/>
<path d="M143.242 82.1723V38.0098L119.366 37.5314V81.5025C119.271 81.7896 119.414 82.0288 119.701 82.2202L130.563 88.6316C131.137 88.9666 132.094 88.9187 132.764 88.5838L142.716 82.9857C143.098 82.6986 143.29 82.4116 143.242 82.1723Z" fill="url(#paint38_linear)"/>
<path d="M130.562 44.3256L119.701 37.9141C119.127 37.5792 119.223 37.005 119.893 36.6223L129.845 31.0242C130.515 30.6414 131.472 30.6414 132.046 30.9763L142.907 37.3878C143.481 37.7227 143.385 38.2969 142.715 38.6797L132.763 44.2777C132.094 44.6127 131.089 44.6605 130.562 44.3256Z" fill="url(#paint39_linear)"/>
<path d="M143.672 92.1244L138.84 89.3493V86.4785L143.672 89.2536V92.1244Z" fill="#3B3BC4"/>
<path d="M148.361 89.3972L143.672 86.8134L148.361 86.5264V89.3972Z" fill="#3B3BC4"/>
<path d="M144.677 79.5406L144.629 85.1387L149.796 83.3684L153.002 78.2009L150.036 75.7607L144.677 79.5406Z" fill="url(#paint40_linear)"/>
<path d="M144.677 71.2155V76.048L150.801 73.2729L151.806 68.4882L148.839 67.7705L144.677 71.2155Z" fill="url(#paint41_linear)"/>
<path d="M136.639 66.7657L138.84 65.5217L143.672 68.249L141.471 69.5409L136.639 66.7657Z" fill="#DFD2FF"/>
<path d="M148.362 65.5694L143.481 62.8422L141.232 64.134L146.065 66.8613L148.362 65.5694Z" fill="#DFD2FF"/>
<path d="M152.189 64.4211L147.548 61.7417L146.112 63.3206L151.088 65.378L152.189 64.4211Z" fill="#DFD2FF"/>
<path d="M138.84 62.6509L143.672 65.3781V68.2489L138.84 65.5217V62.6509Z" fill="#554FC6"/>
<path d="M143.48 59.9714L148.361 62.6987V65.5695L143.48 62.8422V59.9714Z" fill="#554FC6"/>
<path d="M145.873 58.5839L150.753 61.3111L148.361 62.6987L143.48 59.9714L145.873 58.5839Z" fill="#DFD2FF"/>
<path d="M141.232 61.2633L146.113 63.9906L143.672 65.3781L138.84 62.6509L141.232 61.2633Z" fill="#DFD2FF"/>
<path d="M148.361 89.3972V86.5264C147.93 86.8134 147.404 87.1005 146.83 87.4355L146.064 87.8661V90.7369L143.672 92.1244V89.2536L141.471 90.5455V69.5408L143.672 68.2489V65.3781L146.064 63.9906V66.8614L147.739 65.9044C147.93 65.8087 148.121 65.6652 148.313 65.5695V62.6987L150.705 61.3112V64.4212C151.231 64.2777 151.71 64.2777 152.141 64.4212C152.619 64.5647 153.05 64.9475 153.337 65.4738C153.672 66.0001 153.815 66.7657 153.815 67.6269C153.815 68.6317 153.624 69.6365 153.193 70.6891C152.81 71.7417 152.236 72.6508 151.566 73.4642C152.523 73.2728 153.241 73.5121 153.767 74.0862C154.294 74.7082 154.533 75.5695 154.533 76.8135C154.533 77.7704 154.341 78.7752 154.054 79.8757C153.719 80.9761 153.241 81.9331 152.667 82.8422C152.093 83.7034 151.423 84.4211 150.609 84.9953V88.0096L148.361 89.3972ZM144.676 79.5407V85.1388L147.595 83.4642C148.743 82.7943 149.461 82.3637 149.796 82.0766C150.275 81.6939 150.657 81.1675 150.944 80.5934C151.231 79.9714 151.375 79.3015 151.375 78.536C151.375 77.914 151.279 77.4355 151.04 77.1484C150.801 76.8613 150.466 76.7178 150.035 76.7656C149.605 76.8135 148.648 77.2441 147.212 78.1053L144.676 79.5407ZM144.676 71.2154V76.0479L146.782 74.8518C148.026 74.1341 148.791 73.6556 149.078 73.4642C149.605 73.0814 150.035 72.5551 150.37 71.981C150.705 71.4068 150.849 70.737 150.849 70.0671C150.849 69.3972 150.705 68.9666 150.466 68.7274C150.179 68.4882 149.796 68.4403 149.27 68.6796C148.935 68.8231 148.026 69.3016 146.542 70.1628L144.676 71.2154Z" fill="#B590FF"/>
<path d="M136.639 66.7656L141.471 69.5407V90.4976L136.591 87.7703L136.639 66.7656Z" fill="#554FC6"/>
<path d="M122.476 46.9571L120.85 46.048C120.754 46.0002 120.658 45.8088 120.658 45.6652V43.0815C120.658 42.938 120.754 42.8901 120.85 42.938L122.476 43.8471C122.572 43.8949 122.668 44.0863 122.668 44.2298V46.8136C122.668 46.9571 122.572 47.005 122.476 46.9571Z" fill="#F5E9E6"/>
<path d="M125.347 48.6318L123.721 47.7227C123.625 47.6749 123.529 47.4835 123.529 47.3399V44.7562C123.529 44.6127 123.625 44.5648 123.721 44.6127L125.347 45.5218C125.443 45.5696 125.539 45.761 125.539 45.9045V48.4883C125.539 48.6318 125.443 48.6796 125.347 48.6318Z" fill="#F5E9E6"/>
<path d="M128.218 50.2585L126.591 49.3494C126.495 49.3016 126.399 49.1102 126.399 48.9666V46.3829C126.399 46.2394 126.495 46.1915 126.591 46.2394L128.218 47.1485C128.313 47.1963 128.409 47.3877 128.409 47.5312V50.115C128.409 50.2585 128.313 50.3542 128.218 50.2585Z" fill="#F5E9E6"/>
<path d="M122.476 51.0241L120.85 50.115C120.754 50.0672 120.658 49.8758 120.658 49.7323V47.1485C120.658 47.005 120.754 46.9572 120.85 47.005L122.476 47.9141C122.572 47.9619 122.668 48.1533 122.668 48.2969V50.8806C122.668 51.0241 122.572 51.1198 122.476 51.0241Z" fill="#F5E9E6"/>
<path d="M125.347 52.6987L123.721 51.7896C123.625 51.7418 123.529 51.5504 123.529 51.4068V48.8231C123.529 48.6796 123.625 48.6317 123.721 48.6796L125.347 49.5886C125.443 49.6365 125.539 49.8279 125.539 49.9714V52.5551C125.539 52.6987 125.443 52.7465 125.347 52.6987Z" fill="#F5E9E6"/>
<path d="M128.218 54.3734L126.591 53.4643C126.495 53.4164 126.399 53.225 126.399 53.0815V50.4978C126.399 50.3542 126.495 50.3064 126.591 50.3542L128.218 51.2633C128.313 51.3112 128.409 51.5026 128.409 51.6461V54.2298C128.409 54.3734 128.313 54.4212 128.218 54.3734Z" fill="#F5E9E6"/>
<path d="M125.347 56.8135L123.721 55.8566C123.625 55.8088 123.529 55.6174 123.529 55.4738V52.8901C123.529 52.7466 123.625 52.6987 123.721 52.7466L125.347 53.6557C125.443 53.7035 125.539 53.8949 125.539 54.0384V56.6222C125.539 56.8136 125.443 56.8614 125.347 56.8135Z" fill="#F5E9E6"/>
<path d="M128.218 62.5551L126.591 61.646C126.495 61.5982 126.399 61.4068 126.399 61.2633V58.6795C126.399 58.536 126.495 58.4882 126.591 58.536L128.218 59.4451C128.313 59.4929 128.409 59.6843 128.409 59.8279V62.4116C128.409 62.5551 128.313 62.603 128.218 62.5551Z" fill="#F5E9E6"/>
<path d="M122.476 67.4355L120.85 66.5264C120.754 66.4786 120.658 66.2872 120.658 66.1436V63.5599C120.658 63.4164 120.754 63.3685 120.85 63.4164L122.476 64.3255C122.572 64.3733 122.668 64.5647 122.668 64.7082V67.292C122.668 67.4355 122.572 67.4833 122.476 67.4355Z" fill="#F5E9E6"/>
<path d="M75.5378 149.636V115.282L41.1838 114.612V148.679C41.0403 149.062 41.2317 149.445 41.6623 149.732L57.2603 158.966C58.0737 159.445 59.5091 159.397 60.4182 158.87L74.7244 150.784C75.3464 150.449 75.5856 150.067 75.5378 149.636Z" fill="url(#paint42_linear)"/>
<path d="M57.3093 124.421L41.7113 115.187C40.8979 114.708 40.9936 113.895 41.9506 113.368L56.2567 105.282C57.2136 104.756 58.6012 104.708 59.4146 105.187L75.0126 114.421C75.826 114.899 75.7303 115.713 74.7734 116.239L60.4672 124.325C59.5103 124.852 58.1227 124.899 57.3093 124.421Z" fill="url(#paint43_linear)"/>
<path d="M57.7872 120.545L48.2657 114.899C47.7872 114.612 47.8351 114.086 48.4092 113.799L57.1652 108.871C57.7393 108.536 58.6006 108.536 59.1269 108.823L68.6484 114.469C69.1268 114.756 69.079 115.282 68.5048 115.569L59.7489 120.45C59.1747 120.785 58.2656 120.832 57.7872 120.545Z" fill="url(#paint44_linear)"/>
<path d="M54.5814 146.239C54.5814 145.617 54.1986 144.852 53.7201 144.565L42.1412 137.675C41.902 137.531 41.7106 137.531 41.5671 137.627L41.5192 137.675L38.6484 139.397L51.28 148.679L54.1986 146.957C54.2465 146.957 54.3421 146.909 54.39 146.861C54.4857 146.718 54.5814 146.526 54.5814 146.239Z" fill="url(#paint45_linear)"/>
<path d="M50.7536 148.632L39.1747 141.789C38.6962 141.502 38.3135 140.737 38.3135 140.115C38.3135 139.493 38.7441 139.206 39.2226 139.493L50.8015 146.335C51.2799 146.622 51.6627 147.388 51.6627 148.01C51.6627 148.632 51.2321 148.919 50.7536 148.632Z" fill="url(#paint46_linear)"/>
<path d="M54.5814 141.12C54.5814 140.498 54.1986 139.732 53.7201 139.445L42.1412 132.603C41.902 132.459 41.7106 132.459 41.5671 132.555L41.5192 132.603L38.6484 134.325L51.28 143.608L54.1986 141.885C54.2465 141.885 54.3421 141.837 54.39 141.789C54.4857 141.598 54.5814 141.407 54.5814 141.12Z" fill="url(#paint47_linear)"/>
<path d="M50.7536 143.512L39.1747 136.67C38.6962 136.383 38.3135 135.617 38.3135 134.995C38.3135 134.373 38.7441 134.086 39.2226 134.373L50.8015 141.215C51.2799 141.502 51.6627 142.268 51.6627 142.89C51.6149 143.512 51.2321 143.799 50.7536 143.512Z" fill="url(#paint48_linear)"/>
<path d="M54.6292 136C54.6292 135.378 54.2465 134.612 53.768 134.325L42.1891 127.483C41.9499 127.34 41.7585 127.34 41.6149 127.435L41.5671 127.483L38.6963 129.206L51.3278 138.488L54.2465 136.765C54.2943 136.765 54.39 136.718 54.4379 136.67C54.5336 136.526 54.6292 136.287 54.6292 136Z" fill="url(#paint49_linear)"/>
<path d="M50.7536 138.392L39.1747 131.55C38.6962 131.263 38.3135 130.498 38.3135 129.876C38.3135 129.254 38.7441 128.966 39.2226 129.254L50.8015 136.096C51.2799 136.383 51.6627 137.148 51.6627 137.77C51.6627 138.392 51.2321 138.679 50.7536 138.392Z" fill="url(#paint50_linear)"/>
<path d="M54.6292 130.928C54.6292 130.306 54.2465 129.541 53.768 129.253L42.1891 122.411C41.9499 122.268 41.7585 122.268 41.6149 122.364L41.5671 122.411L38.6963 124.134L51.3278 133.416L54.2465 131.694C54.2943 131.694 54.39 131.646 54.4379 131.598C54.5336 131.407 54.6292 131.215 54.6292 130.928Z" fill="url(#paint51_linear)"/>
<path d="M50.7536 133.321L39.1747 126.478C38.6962 126.191 38.3135 125.426 38.3135 124.804C38.3135 124.182 38.7441 123.895 39.2226 124.182L50.8015 131.024C51.2799 131.311 51.6627 132.076 51.6627 132.699C51.6627 133.321 51.2321 133.608 50.7536 133.321Z" fill="url(#paint52_linear)"/>
<path d="M48.2657 114.899L49.8446 115.856L57.1652 111.742C57.7393 111.407 58.6006 111.407 59.1269 111.694L67.0694 116.383L68.5048 115.569C69.079 115.234 69.1268 114.756 68.6484 114.469L59.1269 108.775C58.6484 108.488 57.7872 108.488 57.1652 108.823L48.4092 113.751C47.8351 114.086 47.7394 114.612 48.2657 114.899Z" fill="url(#paint53_linear)"/>
<path d="M73.0985 124.708L62.2373 130.976V129.301L73.0985 123.033V124.708Z" fill="url(#paint54_linear)"/>
<path d="M73.0983 127.962L69.749 129.876V128.201L73.0983 126.239V127.962Z" fill="url(#paint55_linear)"/>
<path d="M68.5052 130.593L62.2373 134.23V132.507L68.5052 128.919V130.593Z" fill="url(#paint56_linear)"/>
<path d="M73.0988 131.072L65.3477 135.521V133.847L73.0988 129.397V131.072Z" fill="url(#paint57_linear)"/>
<path d="M64.1033 136.287L62.2373 137.34V135.665L64.1033 134.564V136.287Z" fill="url(#paint58_linear)"/>
<path d="M73.0985 134.325L62.2373 140.593V138.919L73.0985 132.651V134.325Z" fill="url(#paint59_linear)"/>
<path d="M73.0983 137.579L69.749 139.493V137.818L73.0983 135.904V137.579Z" fill="url(#paint60_linear)"/>
<path d="M68.5052 140.258L62.2373 143.847V142.172L68.5052 138.536V140.258Z" fill="url(#paint61_linear)"/>
<path d="M73.0988 140.689L65.3477 145.186V143.512L73.0988 139.014V140.689Z" fill="url(#paint62_linear)"/>
<path d="M64.1033 145.904L62.2373 146.957V145.282L64.1033 144.229V145.904Z" fill="url(#paint63_linear)"/>
<path d="M73.0985 143.799L62.2373 150.067V148.392L73.0985 142.124V143.799Z" fill="url(#paint64_linear)"/>
<path d="M86.7347 163.129V148.392L74.0553 148.153V162.794C74.0075 162.938 74.0553 163.081 74.2467 163.177L79.9883 166.574C80.2754 166.765 80.8017 166.718 81.1366 166.526L86.4476 163.56C86.6869 163.416 86.7826 163.273 86.7347 163.129Z" fill="url(#paint65_linear)"/>
<path d="M79.9887 151.741L74.2471 148.344C73.96 148.153 74.0079 147.866 74.3428 147.675L79.6538 144.708C79.9887 144.517 80.515 144.517 80.8021 144.66L86.5437 148.057C86.8308 148.249 86.7829 148.536 86.448 148.727L81.137 151.694C80.8021 151.933 80.3236 151.933 79.9887 151.741Z" fill="url(#paint66_linear)"/>
<path d="M77.6922 155.761L76.0654 154.852C75.9697 154.804 75.874 154.612 75.874 154.469V151.885C75.874 151.742 75.9697 151.694 76.0654 151.742L77.6922 152.651C77.7879 152.699 77.8836 152.89 77.8836 153.033V155.617C77.8836 155.761 77.7879 155.809 77.6922 155.761Z" fill="#F5E9E6"/>
<path d="M126.925 103.799L126.973 76.5743C126.973 75.7609 126.495 74.8518 125.873 74.5169L94.8201 56.6222C94.5809 56.4787 94.3417 56.4787 94.1503 56.5744L92.9541 57.2921L93.7675 58.4404V84.8518C93.7675 85.6652 94.246 86.5743 94.868 86.9092L125.155 105.474L125.442 105.33L126.59 104.708C126.782 104.517 126.925 104.23 126.925 103.799Z" fill="url(#paint67_linear)"/>
<path d="M124.772 105.426L93.7196 87.5312C93.0976 87.1963 92.6191 86.2393 92.6191 85.4738V58.1055C92.6191 57.2921 93.0976 56.9572 93.7196 57.2921L124.772 75.1867C125.394 75.5217 125.873 76.4786 125.873 77.2442V103.799C125.873 104.565 125.394 105.761 124.772 105.426Z" fill="url(#paint68_linear)"/>
<path d="M124.007 102.603L94.4375 85.5695C94.1504 85.4259 93.959 84.9953 93.959 84.6604V59.6844C93.959 59.3495 94.1504 59.1581 94.4375 59.3016L124.007 76.3351C124.294 76.4786 124.485 76.9092 124.485 77.2441V102.22C124.485 102.555 124.294 102.746 124.007 102.603Z" fill="url(#paint69_linear)"/>
<path d="M109.269 67.4357L109.126 67.3878C108.982 67.2921 108.839 67.0529 108.839 66.8615C108.839 66.6701 108.982 66.5744 109.126 66.6701L109.269 66.718C109.413 66.8136 109.557 67.0529 109.557 67.2443C109.557 67.4357 109.413 67.5313 109.269 67.4357Z" fill="url(#paint70_linear)"/>
<path d="M124.533 105.33L122.763 105.187L93.098 88.1053C92.476 87.7704 91.4712 87.8182 90.7535 88.201L69.1268 100.737L67.9785 100.641V101.789C67.9785 102.029 68.0742 102.22 68.3613 102.411L99.4138 120.306C100.036 120.641 101.041 120.593 101.758 120.21L123.959 107.34C124.342 107.1 124.533 106.861 124.533 106.574V105.33Z" fill="url(#paint71_linear)"/>
<path d="M99.4137 119.062L68.3611 101.168C67.7391 100.833 67.8348 100.211 68.5047 99.8279L90.7056 86.9571C91.3754 86.5743 92.428 86.5265 93.05 86.8614L124.103 104.756C124.725 105.091 124.629 105.713 123.959 106.096L101.758 118.967C101.04 119.349 99.9878 119.397 99.4137 119.062Z" fill="url(#paint72_linear)"/>
<path d="M108.313 113.034L78.7442 96.0002C78.4571 95.8567 78.5049 95.5696 78.8399 95.426L91.28 88.2012C91.5671 88.0098 92.0455 88.0098 92.3326 88.1533L121.902 105.187C122.189 105.33 122.141 105.617 121.806 105.761L109.366 112.986C109.031 113.177 108.6 113.177 108.313 113.034Z" fill="url(#paint73_linear)"/>
<path d="M89.1747 111.742L80.9929 107.005C80.8494 106.909 80.8494 106.766 81.0408 106.67L87.6436 102.842C87.7872 102.747 88.0742 102.747 88.2178 102.842L96.3996 107.579C96.5431 107.675 96.5431 107.818 96.3517 107.914L89.7489 111.742C89.6053 111.837 89.3183 111.837 89.1747 111.742Z" fill="url(#paint74_linear)"/>
<path d="M78.792 96.0002L78.9356 96.0959L91.28 88.9189C91.5671 88.7275 92.0455 88.7275 92.3326 88.871L121.758 105.809L121.854 105.761C122.141 105.57 122.189 105.33 121.95 105.187L92.3805 88.1533C92.0934 88.0098 91.6628 88.0098 91.3278 88.2012L78.8877 95.426C78.5528 95.6174 78.5049 95.8567 78.792 96.0002Z" fill="url(#paint75_linear)"/>
<path d="M80.9929 107.053L81.2322 107.196L87.6436 103.464C87.7872 103.368 88.0742 103.368 88.2178 103.464L96.1603 108.057L96.3517 107.962C96.4952 107.866 96.5431 107.722 96.3995 107.627L88.2178 102.89C88.0742 102.794 87.835 102.842 87.6436 102.89L81.0408 106.718C80.8972 106.813 80.8494 106.957 80.9929 107.053Z" fill="url(#paint76_linear)"/>
<path d="M89.2218 111.789L81.375 107.244C81.2314 107.148 81.1836 107.1 81.1836 107.053L82.8104 106.096C82.8582 106.096 83.0018 106.096 83.1453 106.191L90.9922 110.737C91.1357 110.833 91.1835 110.88 91.1835 110.928L89.5568 111.885C89.5089 111.885 89.3654 111.837 89.2218 111.789Z" fill="url(#paint77_linear)"/>
<path d="M91.2796 91.0719L90.4662 90.5935C90.2748 90.4499 90.2748 90.2585 90.514 90.115L90.849 89.9236C91.0882 89.7801 91.471 89.7801 91.6623 89.8758L92.4757 90.3542C92.6671 90.4978 92.6671 90.6892 92.4279 90.8327L92.093 91.0241C91.8537 91.1676 91.471 91.1676 91.2796 91.0719Z" fill="#7146CE"/>
<path d="M93.3372 92.2682L92.5238 91.7898C92.3324 91.6462 92.3324 91.4548 92.5716 91.3113L92.9066 91.1199C93.1458 90.9764 93.5286 90.9764 93.72 91.0721L94.5334 91.5505C94.7248 91.6941 94.7248 91.8855 94.4855 92.029L94.1506 92.2204C93.9114 92.3639 93.5286 92.3639 93.3372 92.2682Z" fill="#7146CE"/>
<path d="M95.3948 93.4643L94.5814 92.9858C94.39 92.8423 94.39 92.6509 94.6293 92.5073L94.9642 92.316C95.2034 92.1724 95.5862 92.1724 95.7776 92.2681L96.591 92.7466C96.7824 92.8901 96.7824 93.0815 96.5431 93.225L96.2082 93.4164C95.969 93.56 95.634 93.56 95.3948 93.4643Z" fill="#7146CE"/>
<path d="M97.4515 94.6606L96.6381 94.1821C96.4467 94.0386 96.4467 93.8472 96.6859 93.7036L97.0208 93.5122C97.2601 93.3687 97.6428 93.3687 97.8342 93.4644L98.6476 93.9429C98.839 94.0864 98.839 94.2778 98.5998 94.4213L98.2648 94.6127C98.0256 94.7563 97.6907 94.7563 97.4515 94.6606Z" fill="#7146CE"/>
<path d="M99.5569 95.8088L98.7435 95.3303C98.5521 95.1867 98.5521 94.9954 98.7914 94.8518L99.1263 94.6604C99.3655 94.5169 99.7483 94.5169 99.9397 94.6126L100.753 95.0911C100.944 95.2346 100.944 95.426 100.705 95.5695L100.37 95.7609C100.131 95.9523 99.7483 95.9523 99.5569 95.8088Z" fill="#7146CE"/>
<path d="M101.615 97.005L100.801 96.5266C100.61 96.383 100.61 96.1917 100.849 96.0481L101.184 95.8567C101.423 95.7132 101.806 95.7132 101.997 95.8089L102.811 96.2873C103.002 96.4309 103.002 96.6223 102.763 96.7658L102.428 96.9572C102.189 97.1486 101.806 97.1486 101.615 97.005Z" fill="#7146CE"/>
<path d="M103.672 98.2011L102.859 97.7226C102.667 97.5791 102.667 97.3877 102.907 97.2442L103.242 97.0528C103.481 96.9092 103.864 96.9092 104.055 97.0049L104.868 97.4834C105.06 97.6269 105.06 97.8183 104.82 97.9619L104.486 98.1532C104.246 98.2968 103.864 98.3446 103.672 98.2011Z" fill="#7146CE"/>
<path d="M105.729 99.3974L104.915 98.9189C104.724 98.7754 104.724 98.584 104.963 98.4404L105.298 98.2491C105.537 98.1055 105.92 98.1055 106.112 98.2012L106.925 98.6797C107.116 98.8232 107.116 99.0146 106.877 99.1581L106.542 99.3495C106.303 99.4931 105.968 99.5409 105.729 99.3974Z" fill="#7146CE"/>
<path d="M107.786 100.593L106.973 100.115C106.782 99.9714 106.782 99.78 107.021 99.6365L107.356 99.4451C107.595 99.3016 107.978 99.3016 108.169 99.3973L108.983 99.8757C109.174 100.019 109.174 100.211 108.935 100.354L108.6 100.546C108.361 100.689 108.026 100.689 107.786 100.593Z" fill="#7146CE"/>
<path d="M109.892 101.79L109.078 101.311C108.887 101.168 108.887 100.976 109.126 100.833L109.461 100.641C109.701 100.498 110.083 100.498 110.275 100.594L111.088 101.072C111.279 101.216 111.279 101.407 111.04 101.55L110.705 101.742C110.466 101.885 110.083 101.885 109.892 101.79Z" fill="#7146CE"/>
<path d="M111.997 102.986L111.184 102.507C110.993 102.364 110.993 102.172 111.232 102.029L111.567 101.837C111.806 101.694 112.189 101.694 112.38 101.79L113.194 102.268C113.385 102.412 113.385 102.603 113.146 102.747L112.811 102.938C112.572 103.129 112.189 103.129 111.997 102.986Z" fill="#7146CE"/>
<path d="M114.055 104.182L113.242 103.704C113.05 103.56 113.05 103.369 113.289 103.225L113.624 103.034C113.864 102.89 114.246 102.89 114.438 102.986L115.251 103.464C115.443 103.608 115.443 103.799 115.203 103.943L114.868 104.134C114.629 104.326 114.294 104.326 114.055 104.182Z" fill="#7146CE"/>
<path d="M116.112 105.378L115.298 104.9C115.107 104.756 115.107 104.565 115.346 104.421L115.681 104.23C115.92 104.086 116.303 104.086 116.494 104.182L117.308 104.66C117.499 104.804 117.499 104.995 117.26 105.139L116.925 105.33C116.686 105.474 116.351 105.522 116.112 105.378Z" fill="#7146CE"/>
<path d="M118.217 106.574L117.404 106.096C117.212 105.952 117.212 105.761 117.452 105.617L117.786 105.426C118.026 105.283 118.408 105.283 118.6 105.378L119.413 105.857C119.605 106 119.605 106.192 119.365 106.335L119.03 106.527C118.791 106.67 118.408 106.718 118.217 106.574Z" fill="#7146CE"/>
<path d="M88.887 92.4596L88.0258 91.9811C87.8344 91.8376 87.8344 91.6462 88.0736 91.5027L89.0784 90.9285C89.3176 90.785 89.7004 90.785 89.8918 90.8807L90.753 91.3591C90.9444 91.5027 90.9444 91.6941 90.7052 91.8376L89.7004 92.4117C89.4612 92.5553 89.1262 92.6031 88.887 92.4596Z" fill="#7146CE"/>
<path d="M90.9446 93.6556L90.0834 93.1772C89.892 93.0336 89.892 92.8422 90.1312 92.6987L91.136 92.1245C91.3752 91.981 91.758 91.981 91.9494 92.0767L92.8106 92.5552C93.002 92.6987 93.002 92.8901 92.7628 93.0336L91.758 93.6078C91.5188 93.7513 91.1838 93.7992 90.9446 93.6556Z" fill="#7146CE"/>
<path d="M93.0501 94.8519L92.1888 94.3735C91.9975 94.2299 91.9975 94.0385 92.2367 93.895L93.2415 93.3208C93.4807 93.1773 93.8635 93.1773 94.0549 93.273L94.9161 93.7515C95.1075 93.895 95.1075 94.0864 94.8683 94.2299L93.8635 94.8041C93.6242 94.9476 93.2415 94.9955 93.0501 94.8519Z" fill="#7146CE"/>
<path d="M95.1067 96.0482L94.2455 95.5698C94.0541 95.4262 94.0541 95.2348 94.2933 95.0913L95.2981 94.5171C95.5373 94.3736 95.9201 94.3736 96.1115 94.4693L96.9727 94.9478C97.1641 95.0913 97.1641 95.2827 96.9249 95.4262L95.9201 96.0004C95.6809 96.1439 95.346 96.1918 95.1067 96.0482Z" fill="#7146CE"/>
<path d="M97.1643 97.2443L96.3031 96.7658C96.1117 96.6223 96.1117 96.4309 96.3509 96.2873L97.3557 95.7132C97.595 95.5696 97.9777 95.5696 98.1691 95.6653L99.0304 96.1438C99.2217 96.2873 99.2217 96.4787 98.9825 96.6223L97.9777 97.1964C97.7385 97.34 97.4036 97.34 97.1643 97.2443Z" fill="#7146CE"/>
<path d="M99.2698 98.4406L98.4086 97.9621C98.2172 97.8185 98.2172 97.6272 98.4564 97.4836L99.4612 96.9095C99.7004 96.7659 100.083 96.7659 100.275 96.8616L101.136 97.3401C101.327 97.4836 101.327 97.675 101.088 97.8186L100.083 98.3927C99.844 98.5362 99.4612 98.5841 99.2698 98.4406Z" fill="#7146CE"/>
<path d="M101.327 99.6366L100.466 99.1581C100.275 99.0146 100.275 98.8232 100.514 98.6797L101.519 98.1055C101.758 97.962 102.141 97.962 102.332 98.0577L103.193 98.5361C103.385 98.6797 103.385 98.8711 103.146 99.0146L102.141 99.5887C101.902 99.7323 101.567 99.7323 101.327 99.6366Z" fill="#7146CE"/>
<path d="M103.433 100.833L102.572 100.354C102.38 100.211 102.38 100.019 102.62 99.876L103.624 99.3018C103.864 99.1582 104.246 99.1583 104.438 99.254L105.299 99.7324C105.49 99.876 105.49 100.067 105.251 100.211L104.246 100.785C104.007 100.929 103.624 100.976 103.433 100.833Z" fill="#7146CE"/>
<path d="M105.49 102.029L104.628 101.55C104.437 101.407 104.437 101.216 104.676 101.072L105.681 100.498C105.92 100.354 106.303 100.354 106.494 100.45L107.356 100.928C107.547 101.072 107.547 101.263 107.308 101.407L106.303 101.981C106.064 102.125 105.681 102.125 105.49 102.029Z" fill="#7146CE"/>
<path d="M107.547 103.225L106.686 102.747C106.495 102.603 106.495 102.412 106.734 102.268L107.739 101.694C107.978 101.551 108.361 101.551 108.552 101.646L109.413 102.125C109.605 102.268 109.605 102.46 109.365 102.603L108.361 103.177C108.121 103.321 107.786 103.321 107.547 103.225Z" fill="#7146CE"/>
<path d="M109.653 104.421L108.791 103.943C108.6 103.799 108.6 103.608 108.839 103.464L109.844 102.89C110.083 102.747 110.466 102.747 110.657 102.842L111.519 103.321C111.71 103.464 111.71 103.656 111.471 103.799L110.466 104.373C110.227 104.517 109.844 104.517 109.653 104.421Z" fill="#7146CE"/>
<path d="M111.71 105.618L110.849 105.139C110.658 104.996 110.658 104.804 110.897 104.661L111.902 104.086C112.141 103.943 112.524 103.943 112.715 104.039L113.576 104.517C113.768 104.661 113.768 104.852 113.528 104.996L112.524 105.57C112.284 105.713 111.902 105.713 111.71 105.618Z" fill="#7146CE"/>
<path d="M113.767 106.814L112.906 106.335C112.714 106.192 112.714 106 112.953 105.857L113.958 105.283C114.197 105.139 114.58 105.139 114.772 105.235L115.633 105.713C115.824 105.857 115.824 106.048 115.585 106.192L114.58 106.766C114.341 106.909 114.006 106.909 113.767 106.814Z" fill="#7146CE"/>
<path d="M115.872 108.01L115.011 107.531C114.82 107.388 114.82 107.196 115.059 107.053L116.064 106.479C116.303 106.335 116.686 106.335 116.877 106.431L117.738 106.909C117.93 107.053 117.93 107.244 117.691 107.388L116.686 107.962C116.446 108.106 116.064 108.106 115.872 108.01Z" fill="#7146CE"/>
<path d="M86.4944 93.8949L85.6332 93.4164C85.4418 93.2729 85.4418 93.0815 85.681 92.938L86.6858 92.3638C86.925 92.2203 87.3078 92.2203 87.4992 92.316L88.3604 92.7944C88.5518 92.938 88.5518 93.1294 88.3126 93.2729L87.3078 93.8471C87.0686 93.9906 86.7337 93.9906 86.4944 93.8949Z" fill="#7146CE"/>
<path d="M88.5999 95.0909L87.7386 94.6125C87.5473 94.4689 87.5473 94.2776 87.7865 94.134L88.7913 93.5598C89.0305 93.4163 89.4133 93.4163 89.6047 93.512L90.4659 93.9905C90.6573 94.134 90.6573 94.3254 90.4181 94.4689L89.4133 95.0431C89.174 95.1866 88.7913 95.1866 88.5999 95.0909Z" fill="#7146CE"/>
<path d="M90.6575 96.2872L89.7963 95.8088C89.6049 95.6652 89.6049 95.4738 89.8441 95.3303L90.8489 94.7561C91.0881 94.6126 91.4709 94.6126 91.6623 94.7083L92.5235 95.1868C92.7149 95.3303 92.7149 95.5217 92.4757 95.6652L91.4709 96.2394C91.2317 96.3829 90.8967 96.3829 90.6575 96.2872Z" fill="#7146CE"/>
<path d="M92.7142 97.4833L91.8529 97.0048C91.6615 96.8613 91.6615 96.6699 91.9008 96.5263L92.9055 95.9522C93.1448 95.8086 93.5275 95.8087 93.7189 95.9043L94.5802 96.3828C94.7716 96.5264 94.7716 96.7177 94.5323 96.8613L93.5275 97.4354C93.2883 97.579 92.9534 97.579 92.7142 97.4833Z" fill="#7146CE"/>
<path d="M94.8196 98.6317L93.9584 98.1532C93.767 98.0097 93.767 97.8183 94.0062 97.6748L95.011 97.1006C95.2502 96.9571 95.633 96.9571 95.8244 97.0528L96.6856 97.5312C96.877 97.6748 96.877 97.8662 96.6378 98.0097L95.633 98.5839C95.3938 98.7752 95.011 98.7753 94.8196 98.6317Z" fill="#7146CE"/>
<path d="M96.8772 99.8756L96.016 99.3971C95.8246 99.2536 95.8246 99.0622 96.0638 98.9187L97.0686 98.3445C97.3078 98.201 97.6906 98.201 97.882 98.2967L98.7432 98.7751C98.9346 98.9187 98.9346 99.1101 98.6954 99.2536L97.6906 99.8278C97.4514 99.9713 97.1165 99.9713 96.8772 99.8756Z" fill="#7146CE"/>
<path d="M98.9349 101.024L98.0736 100.546C97.8822 100.402 97.8822 100.211 98.1215 100.067L99.1262 99.493C99.3655 99.3494 99.7482 99.3494 99.9396 99.4451L100.801 99.9236C100.992 100.067 100.992 100.259 100.753 100.402L99.7482 100.976C99.509 101.168 99.1741 101.168 98.9349 101.024Z" fill="#7146CE"/>
<path d="M101.04 102.268L100.179 101.789C99.9877 101.646 99.9877 101.455 100.227 101.311L101.232 100.737C101.471 100.593 101.854 100.593 102.045 100.689L102.906 101.167C103.098 101.311 103.098 101.502 102.858 101.646L101.854 102.22C101.614 102.364 101.232 102.364 101.04 102.268Z" fill="#7146CE"/>
<path d="M103.097 103.416L102.236 102.938C102.044 102.794 102.044 102.603 102.284 102.459L103.288 101.885C103.528 101.742 103.91 101.742 104.102 101.837L104.963 102.316C105.154 102.459 105.154 102.651 104.915 102.794L103.91 103.369C103.671 103.56 103.336 103.56 103.097 103.416Z" fill="#7146CE"/>
<path d="M105.155 104.613L104.293 104.134C104.102 103.991 104.102 103.799 104.341 103.656L105.346 103.082C105.585 102.938 105.968 102.938 106.159 103.034L107.021 103.512C107.212 103.656 107.212 103.847 106.973 103.991L105.968 104.565C105.729 104.756 105.394 104.756 105.155 104.613Z" fill="#7146CE"/>
<path d="M107.26 105.809L106.399 105.33C106.207 105.187 106.207 104.995 106.447 104.852L107.451 104.278C107.691 104.134 108.073 104.134 108.265 104.23L109.126 104.708C109.317 104.852 109.317 105.043 109.078 105.187L108.073 105.761C107.834 105.952 107.451 105.952 107.26 105.809Z" fill="#7146CE"/>
<path d="M109.318 107.005L108.456 106.527C108.265 106.383 108.265 106.192 108.504 106.048L109.509 105.474C109.748 105.33 110.131 105.33 110.322 105.426L111.184 105.905C111.375 106.048 111.375 106.239 111.136 106.383L110.131 106.957C109.892 107.149 109.557 107.149 109.318 107.005Z" fill="#7146CE"/>
<path d="M111.374 108.201L110.513 107.723C110.322 107.579 110.322 107.388 110.561 107.244L111.566 106.67C111.805 106.526 112.188 106.526 112.379 106.622L113.24 107.101C113.432 107.244 113.432 107.436 113.192 107.579L112.188 108.153C111.948 108.297 111.614 108.345 111.374 108.201Z" fill="#7146CE"/>
<path d="M113.48 109.397L112.619 108.919C112.427 108.775 112.427 108.584 112.666 108.44L113.671 107.866C113.91 107.723 114.293 107.723 114.485 107.818L115.346 108.297C115.537 108.44 115.537 108.632 115.298 108.775L114.293 109.349C114.054 109.541 113.671 109.541 113.48 109.397Z" fill="#7146CE"/>
<path d="M86.0645 96.4785L83.1459 94.8039C82.9545 94.6603 82.9545 94.469 83.1937 94.3254L84.1985 93.7513C84.4377 93.6077 84.8205 93.6077 85.0119 93.7034L87.9305 95.378C88.1219 95.5216 88.1219 95.713 87.8827 95.8565L86.8779 96.4307C86.6387 96.5742 86.2559 96.5742 86.0645 96.4785Z" fill="#7146CE"/>
<path d="M88.1702 97.6747L87.309 97.1962C87.1176 97.0527 87.1176 96.8613 87.3568 96.7177L88.3616 96.1436C88.6008 96.0001 88.9836 96.0001 89.175 96.0957L90.0362 96.5742C90.2276 96.7178 90.2276 96.9091 89.9884 97.0527L88.9836 97.6268C88.7444 97.7704 88.3616 97.8182 88.1702 97.6747Z" fill="#7146CE"/>
<path d="M90.2268 98.8707L89.3656 98.3923C89.1742 98.2487 89.1742 98.0573 89.4134 97.9138L90.4182 97.3396C90.6575 97.1961 91.0402 97.1961 91.2316 97.2918L92.0929 97.7703C92.2842 97.9138 92.2842 98.1052 92.045 98.2487L91.0402 98.8229C90.801 98.9664 90.4661 99.0143 90.2268 98.8707Z" fill="#7146CE"/>
<path d="M92.2844 100.067L91.4232 99.5885C91.2318 99.445 91.2318 99.2536 91.4711 99.1101L92.4758 98.5359C92.7151 98.3924 93.0978 98.3924 93.2892 98.4881L94.1505 98.9665C94.3419 99.1101 94.3419 99.3015 94.1026 99.445L93.0978 100.019C92.8586 100.163 92.5237 100.163 92.2844 100.067Z" fill="#7146CE"/>
<path d="M94.3899 101.263L93.5287 100.785C93.3373 100.641 93.3373 100.45 93.5765 100.306L94.5813 99.732C94.8205 99.5884 95.2033 99.5884 95.3947 99.6841L96.2559 100.163C96.4473 100.306 96.4473 100.498 96.2081 100.641L95.2033 101.215C94.9641 101.359 94.5813 101.407 94.3899 101.263Z" fill="#7146CE"/>
<path d="M96.4475 102.459L95.5863 101.981C95.3949 101.837 95.3949 101.646 95.6341 101.502L96.6389 100.928C96.8782 100.785 97.2609 100.785 97.4523 100.88L98.3136 101.359C98.5049 101.502 98.5049 101.694 98.2657 101.837L97.2609 102.411C97.0217 102.555 96.6868 102.555 96.4475 102.459Z" fill="#7146CE"/>
<path d="M98.552 103.655L97.6908 103.177C97.4994 103.033 97.4994 102.842 97.7386 102.698L98.7434 102.124C98.9826 101.981 99.3654 101.981 99.5568 102.076L100.418 102.555C100.609 102.698 100.609 102.89 100.37 103.033L99.3654 103.608C99.1262 103.751 98.7434 103.799 98.552 103.655Z" fill="#7146CE"/>
<path d="M100.61 104.852L99.7484 104.373C99.557 104.23 99.557 104.038 99.7963 103.895L100.801 103.321C101.04 103.177 101.423 103.177 101.614 103.273L102.476 103.751C102.667 103.895 102.667 104.086 102.428 104.23L101.423 104.804C101.184 104.947 100.801 104.947 100.61 104.852Z" fill="#7146CE"/>
<path d="M102.667 106.048L101.806 105.57C101.615 105.426 101.615 105.235 101.854 105.091L102.859 104.517C103.098 104.373 103.481 104.373 103.672 104.469L104.533 104.948C104.725 105.091 104.725 105.282 104.485 105.426L103.481 106C103.241 106.144 102.907 106.144 102.667 106.048Z" fill="#7146CE"/>
<path d="M104.773 107.244L103.911 106.766C103.72 106.622 103.72 106.431 103.959 106.287L104.964 105.713C105.203 105.569 105.586 105.569 105.778 105.665L106.639 106.144C106.83 106.287 106.83 106.478 106.591 106.622L105.586 107.196C105.347 107.34 104.964 107.34 104.773 107.244Z" fill="#7146CE"/>
<path d="M106.83 108.44L105.969 107.962C105.778 107.818 105.778 107.627 106.017 107.483L107.022 106.909C107.261 106.766 107.644 106.766 107.835 106.861L108.696 107.34C108.888 107.483 108.888 107.675 108.649 107.818L107.644 108.392C107.405 108.536 107.022 108.536 106.83 108.44Z" fill="#7146CE"/>
<path d="M108.887 109.636L108.026 109.158C107.834 109.014 107.834 108.823 108.074 108.679L109.078 108.105C109.318 107.962 109.7 107.962 109.892 108.057L110.753 108.536C110.944 108.679 110.944 108.871 110.705 109.014L109.7 109.588C109.461 109.732 109.126 109.732 108.887 109.636Z" fill="#7146CE"/>
<path d="M108.6 112.22L107.739 111.742C107.547 111.598 107.547 111.407 107.786 111.263L111.184 109.302C111.423 109.158 111.806 109.158 111.997 109.254L112.858 109.732C113.05 109.876 113.05 110.067 112.81 110.211L109.413 112.172C109.126 112.316 108.791 112.364 108.6 112.22Z" fill="#7146CE"/>
<path d="M81.6145 96.67L80.7533 96.1916C80.5619 96.048 80.5619 95.8566 80.8011 95.7131L81.8059 95.139C82.0452 94.9954 82.4279 94.9954 82.6193 95.0911L83.4806 95.5696C83.6719 95.7131 83.6719 95.9045 83.4327 96.048L82.4279 96.6222C82.1887 96.8136 81.8059 96.8136 81.6145 96.67Z" fill="#7146CE"/>
<path d="M83.6721 97.8661L82.8109 97.3876C82.6195 97.2441 82.6195 97.0527 82.8588 96.9092L83.8635 96.335C84.1028 96.1915 84.4855 96.1915 84.6769 96.2872L85.5382 96.7656C85.7296 96.9092 85.7296 97.1005 85.4903 97.2441L84.4855 97.8183C84.2463 97.9618 83.8635 98.0096 83.6721 97.8661Z" fill="#7146CE"/>
<path d="M85.7776 99.0624L84.9164 98.5839C84.725 98.4404 84.725 98.249 84.9642 98.1054L85.969 97.5313C86.2082 97.3877 86.591 97.3877 86.7824 97.4834L87.6436 97.9619C87.835 98.1054 87.835 98.2968 87.5958 98.4404L86.591 99.0145C86.3518 99.2059 85.969 99.2059 85.7776 99.0624Z" fill="#7146CE"/>
<path d="M87.8343 100.258L86.973 99.78C86.7816 99.6364 86.7816 99.445 87.0209 99.3015L88.0256 98.7273C88.2649 98.5838 88.6477 98.5838 88.839 98.6795L89.7003 99.158C89.8917 99.3015 89.8917 99.4929 89.6524 99.6364L88.6477 100.211C88.4084 100.354 88.0256 100.402 87.8343 100.258Z" fill="#7146CE"/>
<path d="M96.1598 105.043L89.0306 100.928C88.8392 100.785 88.8393 100.593 89.0785 100.45L90.0833 99.8758C90.3225 99.7322 90.7053 99.7322 90.8967 99.8279L98.0258 103.943C98.2172 104.086 98.2172 104.278 97.978 104.421L96.9732 104.995C96.6861 105.139 96.3512 105.187 96.1598 105.043Z" fill="#7146CE"/>
<path d="M98.2171 106.239L97.3558 105.761C97.1644 105.617 97.1644 105.426 97.4037 105.282L98.4085 104.708C98.6477 104.565 99.0305 104.565 99.2218 104.66L100.083 105.139C100.274 105.282 100.274 105.474 100.035 105.617L99.0305 106.192C98.7912 106.335 98.4085 106.383 98.2171 106.239Z" fill="#7146CE"/>
<path d="M100.275 107.436L99.4135 106.957C99.2221 106.814 99.2221 106.622 99.4613 106.479L100.466 105.905C100.705 105.761 101.088 105.761 101.279 105.857L102.141 106.335C102.332 106.479 102.332 106.67 102.093 106.814L101.088 107.388C100.849 107.531 100.466 107.579 100.275 107.436Z" fill="#7146CE"/>
<path d="M102.38 108.632L101.519 108.153C101.328 108.01 101.328 107.818 101.567 107.675L102.572 107.101C102.811 106.957 103.194 106.957 103.385 107.053L104.246 107.531C104.438 107.675 104.438 107.866 104.198 108.01L103.194 108.584C102.906 108.727 102.572 108.775 102.38 108.632Z" fill="#7146CE"/>
<path d="M104.438 109.828L103.577 109.35C103.385 109.206 103.385 109.015 103.624 108.871L104.629 108.297C104.868 108.153 105.251 108.153 105.443 108.249L106.304 108.728C106.495 108.871 106.495 109.062 106.256 109.206L105.251 109.78C105.012 109.924 104.629 109.972 104.438 109.828Z" fill="#7146CE"/>
<path d="M106.494 111.024L105.633 110.546C105.442 110.402 105.442 110.211 105.681 110.067L106.686 109.493C106.925 109.349 107.308 109.349 107.499 109.445L108.36 109.924C108.552 110.067 108.552 110.259 108.313 110.402L107.308 110.976C107.069 111.12 106.686 111.12 106.494 111.024Z" fill="#7146CE"/>
<path d="M91.2317 90.737L90.4183 90.2585C90.2269 90.115 90.2269 89.9236 90.4662 89.78L90.8011 89.5887C91.0403 89.4451 91.4231 89.4451 91.6145 89.5408L92.4279 90.0193C92.6193 90.1628 92.6193 90.3542 92.38 90.4977L92.0451 90.6891C91.8059 90.8327 91.4231 90.8805 91.2317 90.737Z" fill="#EFE1EE"/>
<path d="M93.2893 91.933L92.476 91.4546C92.2846 91.311 92.2846 91.1196 92.5238 90.9761L92.8587 90.7847C93.098 90.6412 93.4807 90.6412 93.6721 90.7369L94.4855 91.2153C94.6769 91.3589 94.6769 91.5503 94.4377 91.6938L94.1027 91.8852C93.8635 92.0287 93.5286 92.0287 93.2893 91.933Z" fill="#EFE1EE"/>
<path d="M95.347 93.1293L94.5336 92.6508C94.3422 92.5073 94.3422 92.3159 94.5814 92.1724L94.9163 91.981C95.1556 91.8375 95.5383 91.8375 95.7297 91.9331L96.5431 92.4116C96.7345 92.5552 96.7345 92.7465 96.4953 92.8901L96.1603 93.0815C95.9211 93.225 95.5862 93.225 95.347 93.1293Z" fill="#EFE1EE"/>
<path d="M97.4515 94.3256L96.6381 93.8471C96.4467 93.7036 96.4467 93.5122 96.6859 93.3687L97.0208 93.1773C97.2601 93.0337 97.6428 93.0337 97.8342 93.1294L98.6476 93.6079C98.839 93.7514 98.839 93.9428 98.5998 94.0864L98.2648 94.2778C98.0256 94.4213 97.6428 94.4213 97.4515 94.3256Z" fill="#EFE1EE"/>
<path d="M99.5091 95.5216L98.6957 95.0432C98.5043 94.8996 98.5043 94.7083 98.7435 94.5647L99.0784 94.3733C99.3177 94.2298 99.7005 94.2298 99.8918 94.3255L100.705 94.8039C100.897 94.9475 100.897 95.1389 100.657 95.2824L100.322 95.4738C100.083 95.6173 99.7005 95.6173 99.5091 95.5216Z" fill="#EFE1EE"/>
<path d="M101.567 96.6701L100.753 96.1916C100.562 96.0481 100.562 95.8567 100.801 95.7132L101.136 95.5218C101.375 95.3782 101.758 95.3782 101.949 95.4739L102.763 95.9524C102.954 96.0959 102.954 96.2873 102.715 96.4309L102.38 96.6222C102.141 96.8136 101.758 96.8136 101.567 96.6701Z" fill="#EFE1EE"/>
<path d="M103.624 97.8661L102.811 97.3877C102.62 97.2441 102.62 97.0527 102.859 96.9092L103.194 96.7178C103.433 96.5743 103.816 96.5743 104.007 96.67L104.82 97.1484C105.012 97.292 105.012 97.4834 104.773 97.6269L104.438 97.8183C104.198 98.0097 103.864 98.0097 103.624 97.8661Z" fill="#EFE1EE"/>
<path d="M105.681 99.0624L104.868 98.584C104.676 98.4404 104.676 98.249 104.915 98.1055L105.25 97.9141C105.49 97.7706 105.872 97.7706 106.064 97.8663L106.877 98.3447C107.068 98.4883 107.069 98.6796 106.829 98.8232L106.494 99.0146C106.255 99.1581 105.92 99.206 105.681 99.0624Z" fill="#EFE1EE"/>
<path d="M107.786 100.258L106.973 99.78C106.782 99.6365 106.782 99.4451 107.021 99.3015L107.356 99.1101C107.595 98.9666 107.978 98.9666 108.169 99.0623L108.983 99.5408C109.174 99.6843 109.174 99.8757 108.935 100.019L108.6 100.211C108.361 100.354 107.978 100.402 107.786 100.258Z" fill="#EFE1EE"/>
<path d="M109.844 101.455L109.031 100.976C108.839 100.833 108.839 100.641 109.078 100.498L109.413 100.306C109.653 100.163 110.035 100.163 110.227 100.259L111.04 100.737C111.232 100.881 111.232 101.072 110.992 101.216L110.657 101.407C110.418 101.55 110.035 101.55 109.844 101.455Z" fill="#EFE1EE"/>
<path d="M111.95 102.699L111.136 102.22C110.945 102.077 110.945 101.885 111.184 101.742L111.519 101.55C111.758 101.407 112.141 101.407 112.332 101.502L113.146 101.981C113.337 102.124 113.337 102.316 113.098 102.459L112.763 102.651C112.524 102.794 112.189 102.794 111.95 102.699Z" fill="#EFE1EE"/>
<path d="M114.007 103.847L113.194 103.369C113.002 103.225 113.002 103.034 113.242 102.89L113.576 102.699C113.816 102.555 114.199 102.555 114.39 102.651L115.203 103.129C115.395 103.273 115.395 103.464 115.155 103.608L114.821 103.799C114.581 103.991 114.246 103.991 114.007 103.847Z" fill="#EFE1EE"/>
<path d="M116.112 105.043L115.298 104.565C115.107 104.421 115.107 104.23 115.346 104.086L115.681 103.895C115.92 103.751 116.303 103.751 116.494 103.847L117.308 104.325C117.499 104.469 117.499 104.66 117.26 104.804L116.925 104.995C116.686 105.187 116.303 105.187 116.112 105.043Z" fill="#EFE1EE"/>
<path d="M118.169 106.239L117.356 105.761C117.164 105.617 117.164 105.426 117.404 105.282L117.739 105.091C117.978 104.948 118.361 104.948 118.552 105.043L119.365 105.522C119.557 105.665 119.557 105.857 119.318 106L118.983 106.192C118.743 106.335 118.361 106.383 118.169 106.239Z" fill="#EFE1EE"/>
<path d="M88.8392 92.1246L87.9779 91.6462C87.7865 91.5026 87.7865 91.3112 88.0258 91.1677L89.0305 90.5935C89.2698 90.45 89.6525 90.45 89.8439 90.5457L90.7052 91.0242C90.8966 91.1677 90.8966 91.3591 90.6573 91.5026L89.6525 92.0768C89.4133 92.2203 89.0784 92.2682 88.8392 92.1246Z" fill="#EFE1EE"/>
<path d="M90.9446 93.3209L90.0834 92.8425C89.892 92.6989 89.892 92.5075 90.1312 92.364L91.136 91.7898C91.3752 91.6463 91.758 91.6463 91.9494 91.742L92.8106 92.2205C93.002 92.364 93.002 92.5554 92.7628 92.6989L91.758 93.2731C91.5188 93.4166 91.136 93.4645 90.9446 93.3209Z" fill="#EFE1EE"/>
<path d="M93.0022 94.517L92.141 94.0385C91.9496 93.895 91.9496 93.7036 92.1888 93.56L93.1936 92.9859C93.4329 92.8423 93.8156 92.8423 94.007 92.938L94.8683 93.4165C95.0596 93.56 95.0596 93.7514 94.8204 93.895L93.8156 94.4691C93.5764 94.6127 93.2415 94.6605 93.0022 94.517Z" fill="#EFE1EE"/>
<path d="M95.0589 95.7133L94.1976 95.2348C94.0062 95.0912 94.0062 94.8999 94.2455 94.7563L95.2503 94.1822C95.4895 94.0386 95.8723 94.0386 96.0637 94.1343L96.9249 94.6128C97.1163 94.7563 97.1163 94.9477 96.877 95.0913L95.8723 95.6654C95.633 95.809 95.2981 95.8568 95.0589 95.7133Z" fill="#EFE1EE"/>
<path d="M97.1643 96.9093L96.3031 96.4308C96.1117 96.2873 96.1117 96.0959 96.3509 95.9524L97.3557 95.3782C97.595 95.2347 97.9777 95.2347 98.1691 95.3304L99.0304 95.8088C99.2217 95.9524 99.2217 96.1438 98.9825 96.2873L97.9777 96.8615C97.7385 97.005 97.3557 97.0528 97.1643 96.9093Z" fill="#EFE1EE"/>
<path d="M99.2219 98.1056L98.3607 97.6271C98.1693 97.4836 98.1693 97.2922 98.4086 97.1487L99.4133 96.5745C99.6526 96.431 100.035 96.431 100.227 96.5267L101.088 97.0051C101.279 97.1487 101.279 97.34 101.04 97.4836L100.035 98.0578C99.7961 98.2013 99.4612 98.2491 99.2219 98.1056Z" fill="#EFE1EE"/>
<path d="M101.28 99.3016L100.418 98.8232C100.227 98.6796 100.227 98.4882 100.466 98.3447L101.471 97.7705C101.71 97.627 102.093 97.627 102.284 97.7227L103.146 98.2012C103.337 98.3447 103.337 98.5361 103.098 98.6796L102.093 99.2538C101.854 99.3973 101.519 99.4452 101.28 99.3016Z" fill="#EFE1EE"/>
<path d="M103.384 100.498L102.523 100.019C102.331 99.8759 102.331 99.6845 102.571 99.541L103.575 98.9668C103.815 98.8233 104.197 98.8233 104.389 98.919L105.25 99.3975C105.441 99.541 105.441 99.7324 105.202 99.8759L104.197 100.45C103.958 100.594 103.575 100.641 103.384 100.498Z" fill="#EFE1EE"/>
<path d="M105.442 101.694L104.58 101.215C104.389 101.072 104.389 100.881 104.628 100.737L105.633 100.163C105.872 100.019 106.255 100.019 106.446 100.115L107.308 100.593C107.499 100.737 107.499 100.928 107.26 101.072L106.255 101.646C106.016 101.79 105.681 101.838 105.442 101.694Z" fill="#EFE1EE"/>
<path d="M107.499 102.89L106.638 102.412C106.447 102.268 106.447 102.077 106.686 101.933L107.691 101.359C107.93 101.216 108.313 101.216 108.504 101.311L109.365 101.79C109.557 101.933 109.557 102.125 109.317 102.268L108.313 102.842C108.073 102.986 107.739 102.986 107.499 102.89Z" fill="#EFE1EE"/>
<path d="M109.605 104.086L108.744 103.608C108.552 103.464 108.552 103.273 108.791 103.129L109.796 102.555C110.035 102.412 110.418 102.412 110.61 102.507L111.471 102.986C111.662 103.129 111.662 103.321 111.423 103.464L110.418 104.038C110.179 104.182 109.796 104.23 109.605 104.086Z" fill="#EFE1EE"/>
<path d="M111.662 105.283L110.801 104.804C110.61 104.661 110.61 104.469 110.849 104.326L111.854 103.752C112.093 103.608 112.476 103.608 112.667 103.704L113.528 104.182C113.72 104.326 113.72 104.517 113.481 104.661L112.476 105.235C112.237 105.378 111.902 105.378 111.662 105.283Z" fill="#EFE1EE"/>
<path d="M113.719 106.479L112.858 106C112.666 105.857 112.666 105.665 112.906 105.522L113.91 104.948C114.15 104.804 114.532 104.804 114.724 104.9L115.585 105.378C115.776 105.522 115.776 105.713 115.537 105.857L114.532 106.431C114.293 106.574 113.958 106.574 113.719 106.479Z" fill="#EFE1EE"/>
<path d="M115.824 107.675L114.963 107.196C114.772 107.053 114.772 106.862 115.011 106.718L116.016 106.144C116.255 106 116.638 106 116.829 106.096L117.691 106.574C117.882 106.718 117.882 106.909 117.643 107.053L116.638 107.627C116.399 107.771 116.016 107.771 115.824 107.675Z" fill="#EFE1EE"/>
<path d="M86.4944 93.5599L85.6332 93.0815C85.4418 92.9379 85.4418 92.7465 85.681 92.603L86.6858 92.0288C86.925 91.8853 87.3078 91.8853 87.4992 91.981L88.3604 92.4595C88.5518 92.603 88.5518 92.7944 88.3126 92.9379L87.3078 93.5121C87.0686 93.6556 86.6858 93.6556 86.4944 93.5599Z" fill="#EFE1EE"/>
<path d="M88.552 94.7562L87.6908 94.2778C87.4994 94.1342 87.4994 93.9428 87.7386 93.7993L88.7434 93.2251C88.9827 93.0816 89.3654 93.0816 89.5568 93.1773L90.4181 93.6558C90.6094 93.7993 90.6094 93.9907 90.3702 94.1342L89.3654 94.7084C89.1262 94.8519 88.7434 94.8519 88.552 94.7562Z" fill="#EFE1EE"/>
<path d="M90.6096 95.9523L89.7484 95.4738C89.557 95.3303 89.557 95.1389 89.7963 94.9953L90.801 94.4212C91.0403 94.2776 91.423 94.2776 91.6144 94.3733L92.4757 94.8518C92.6671 94.9953 92.6671 95.1867 92.4278 95.3303L91.423 95.9044C91.1838 96.048 90.8489 96.048 90.6096 95.9523Z" fill="#EFE1EE"/>
<path d="M92.7142 97.1486L91.8529 96.6701C91.6615 96.5265 91.6615 96.3352 91.9008 96.1916L92.9055 95.6175C93.1448 95.4739 93.5275 95.4739 93.7189 95.5696L94.5802 96.0481C94.7716 96.1916 94.7716 96.383 94.5323 96.5266L93.5275 97.1007C93.2883 97.2443 92.9055 97.2442 92.7142 97.1486Z" fill="#EFE1EE"/>
<path d="M94.7718 98.3446L93.9105 97.8661C93.7191 97.7226 93.7191 97.5312 93.9584 97.3877L94.9631 96.8135C95.2024 96.67 95.5852 96.67 95.7765 96.7657L96.6378 97.2441C96.8292 97.3877 96.8292 97.5791 96.5899 97.7226L95.5852 98.2968C95.3459 98.4403 94.9631 98.4403 94.7718 98.3446Z" fill="#EFE1EE"/>
<path d="M96.8294 99.5409L95.9681 99.0624C95.7767 98.9189 95.7768 98.7275 96.016 98.584L97.0208 98.0098C97.26 97.8663 97.6428 97.8663 97.8342 97.962L98.6954 98.4404C98.8868 98.584 98.8868 98.7753 98.6476 98.9189L97.6428 99.4931C97.4035 99.6366 97.0686 99.6366 96.8294 99.5409Z" fill="#EFE1EE"/>
<path d="M98.9349 100.737L98.0736 100.258C97.8822 100.115 97.8822 99.9235 98.1215 99.78L99.1262 99.2058C99.3655 99.0623 99.7482 99.0623 99.9396 99.158L100.801 99.6365C100.992 99.78 100.992 99.9714 100.753 100.115L99.7482 100.689C99.509 100.833 99.1262 100.833 98.9349 100.737Z" fill="#EFE1EE"/>
<path d="M100.992 101.933L100.131 101.455C99.9398 101.311 99.9398 101.12 100.179 100.976L101.184 100.402C101.423 100.259 101.806 100.259 101.997 100.354L102.858 100.833C103.05 100.976 103.05 101.168 102.811 101.311L101.806 101.885C101.567 102.029 101.232 102.029 100.992 101.933Z" fill="#EFE1EE"/>
<path d="M103.049 103.129L102.188 102.651C101.996 102.507 101.996 102.316 102.236 102.172L103.24 101.598C103.48 101.455 103.862 101.455 104.054 101.55L104.915 102.029C105.107 102.172 105.107 102.364 104.867 102.507L103.862 103.081C103.623 103.225 103.288 103.225 103.049 103.129Z" fill="#EFE1EE"/>
<path d="M105.155 104.278L104.293 103.799C104.102 103.656 104.102 103.464 104.341 103.321L105.346 102.747C105.585 102.603 105.968 102.603 106.159 102.699L107.021 103.177C107.212 103.321 107.212 103.512 106.973 103.656L105.968 104.23C105.729 104.421 105.346 104.421 105.155 104.278Z" fill="#EFE1EE"/>
<path d="M107.212 105.522L106.351 105.043C106.16 104.9 106.16 104.708 106.399 104.565L107.404 103.991C107.643 103.847 108.026 103.847 108.217 103.943L109.078 104.421C109.27 104.565 109.27 104.756 109.03 104.9L108.026 105.474C107.786 105.617 107.451 105.617 107.212 105.522Z" fill="#EFE1EE"/>
<path d="M109.27 106.67L108.409 106.192C108.217 106.048 108.217 105.857 108.456 105.713L109.461 105.139C109.7 104.995 110.083 104.995 110.275 105.091L111.136 105.57C111.327 105.713 111.327 105.904 111.088 106.048L110.083 106.622C109.844 106.814 109.509 106.814 109.27 106.67Z" fill="#EFE1EE"/>
<path d="M111.374 107.866L110.513 107.388C110.322 107.244 110.322 107.053 110.561 106.909L111.566 106.335C111.805 106.191 112.188 106.191 112.379 106.287L113.24 106.766C113.432 106.909 113.432 107.101 113.192 107.244L112.188 107.818C111.948 108.01 111.566 108.01 111.374 107.866Z" fill="#EFE1EE"/>
<path d="M113.432 109.062L112.571 108.584C112.379 108.44 112.379 108.249 112.619 108.105L113.623 107.531C113.863 107.388 114.245 107.388 114.437 107.483L115.298 107.962C115.489 108.105 115.489 108.297 115.25 108.44L114.245 109.015C114.006 109.206 113.671 109.206 113.432 109.062Z" fill="#EFE1EE"/>
<path d="M86.0167 96.1436L83.098 94.4689C82.9066 94.3254 82.9066 94.134 83.1459 93.9905L84.1506 93.4163C84.3899 93.2728 84.7726 93.2728 84.964 93.3684L87.8827 95.0431C88.0741 95.1866 88.0741 95.378 87.8348 95.5216L86.8301 96.0957C86.5908 96.2393 86.2559 96.2393 86.0167 96.1436Z" fill="#EFE1EE"/>
<path d="M88.1224 97.3397L87.2611 96.8613C87.0697 96.7177 87.0697 96.5263 87.309 96.3828L88.3137 95.8086C88.553 95.6651 88.9358 95.6651 89.1271 95.7608L89.9884 96.2392C90.1798 96.3828 90.1798 96.5742 89.9405 96.7177L88.9357 97.2919C88.6965 97.4354 88.3616 97.4833 88.1224 97.3397Z" fill="#EFE1EE"/>
<path d="M90.2268 98.536L89.3656 98.0576C89.1742 97.914 89.1742 97.7226 89.4134 97.5791L90.4182 97.0049C90.6575 96.8614 91.0402 96.8614 91.2316 96.9571L92.0929 97.4355C92.2842 97.5791 92.2842 97.7705 92.045 97.914L91.0402 98.4882C90.7532 98.6317 90.4182 98.6796 90.2268 98.536Z" fill="#EFE1EE"/>
<path d="M92.2844 99.7321L91.4232 99.2536C91.2318 99.1101 91.2318 98.9187 91.4711 98.7751L92.4758 98.201C92.7151 98.0574 93.0978 98.0574 93.2892 98.1531L94.1505 98.6316C94.3419 98.7751 94.3419 98.9665 94.1026 99.1101L93.0978 99.6842C92.8586 99.8278 92.4758 99.8756 92.2844 99.7321Z" fill="#EFE1EE"/>
<path d="M94.3421 100.928L93.4808 100.45C93.2894 100.306 93.2894 100.115 93.5287 99.9714L94.5335 99.3973C94.7727 99.2537 95.1555 99.2537 95.3469 99.3494L96.2081 99.8279C96.3995 99.9714 96.3995 100.163 96.1602 100.306L95.1555 100.881C94.9162 101.024 94.5813 101.072 94.3421 100.928Z" fill="#EFE1EE"/>
<path d="M96.4475 102.124L95.5863 101.646C95.3949 101.502 95.3949 101.311 95.6341 101.167L96.6389 100.593C96.8782 100.45 97.2609 100.45 97.4523 100.545L98.3136 101.024C98.5049 101.167 98.5049 101.359 98.2657 101.502L97.2609 102.077C97.0217 102.22 96.6389 102.268 96.4475 102.124Z" fill="#EFE1EE"/>
<path d="M98.5042 103.321L97.6429 102.842C97.4516 102.699 97.4516 102.507 97.6908 102.364L98.6956 101.79C98.9348 101.646 99.3176 101.646 99.509 101.742L100.37 102.22C100.562 102.364 100.562 102.555 100.322 102.699L99.3176 103.273C99.0783 103.416 98.7434 103.464 98.5042 103.321Z" fill="#EFE1EE"/>
<path d="M100.562 104.517L99.7006 104.038C99.5092 103.895 99.5092 103.703 99.7484 103.56L100.753 102.986C100.992 102.842 101.375 102.842 101.567 102.938L102.428 103.416C102.619 103.56 102.619 103.751 102.38 103.895L101.375 104.469C101.136 104.612 100.801 104.66 100.562 104.517Z" fill="#EFE1EE"/>
<path d="M102.667 105.713L101.806 105.235C101.615 105.091 101.615 104.9 101.854 104.756L102.859 104.182C103.098 104.038 103.481 104.038 103.672 104.134L104.533 104.613C104.725 104.756 104.725 104.947 104.485 105.091L103.481 105.665C103.241 105.809 102.859 105.809 102.667 105.713Z" fill="#EFE1EE"/>
<path d="M104.725 106.909L103.864 106.431C103.672 106.287 103.672 106.096 103.911 105.952L104.916 105.378C105.156 105.234 105.538 105.234 105.73 105.33L106.591 105.809C106.782 105.952 106.782 106.144 106.543 106.287L105.538 106.861C105.299 107.005 104.964 107.053 104.725 106.909Z" fill="#EFE1EE"/>
<path d="M106.783 108.105L105.921 107.627C105.73 107.483 105.73 107.292 105.969 107.148L106.974 106.574C107.213 106.431 107.596 106.431 107.787 106.526L108.649 107.005C108.84 107.148 108.84 107.34 108.601 107.483L107.596 108.058C107.357 108.201 107.022 108.201 106.783 108.105Z" fill="#EFE1EE"/>
<path d="M108.887 109.301L108.026 108.823C107.834 108.679 107.834 108.488 108.074 108.344L109.078 107.77C109.318 107.627 109.7 107.627 109.892 107.722L110.753 108.201C110.944 108.344 110.944 108.536 110.705 108.679L109.7 109.254C109.461 109.397 109.078 109.397 108.887 109.301Z" fill="#EFE1EE"/>
<path d="M108.552 111.885L107.691 111.407C107.499 111.263 107.499 111.072 107.739 110.928L111.136 108.967C111.375 108.823 111.758 108.823 111.949 108.919L112.81 109.397C113.002 109.541 113.002 109.732 112.763 109.876L109.365 111.837C109.126 111.981 108.743 112.029 108.552 111.885Z" fill="#EFE1EE"/>
<path d="M81.5667 96.3351L80.7054 95.8566C80.5141 95.7131 80.5141 95.5217 80.7533 95.3782L81.7581 94.804C81.9973 94.6605 82.3801 94.6605 82.5715 94.7561L83.4327 95.2346C83.6241 95.3782 83.6241 95.5695 83.3849 95.7131L82.3801 96.2872C82.1408 96.4786 81.7581 96.4786 81.5667 96.3351Z" fill="#EFE1EE"/>
<path d="M83.6243 97.5314L82.7631 97.0529C82.5717 96.9094 82.5717 96.718 82.8109 96.5744L83.8157 96.0003C84.0549 95.8567 84.4377 95.8567 84.6291 95.9524L85.4903 96.4309C85.6817 96.5744 85.6817 96.7658 85.4425 96.9094L84.4377 97.4835C84.1985 97.6749 83.8635 97.6749 83.6243 97.5314Z" fill="#EFE1EE"/>
<path d="M85.7298 98.7274L84.8685 98.249C84.6771 98.1054 84.6771 97.914 84.9164 97.7705L85.9212 97.1963C86.1604 97.0528 86.5432 97.0528 86.7346 97.1485L87.5958 97.6269C87.7872 97.7705 87.7872 97.9619 87.5479 98.1054L86.5432 98.6796C86.3039 98.871 85.9212 98.871 85.7298 98.7274Z" fill="#EFE1EE"/>
<path d="M87.7864 99.9237L86.9252 99.4453C86.7338 99.3017 86.7338 99.1103 86.973 98.9668L87.9778 98.3926C88.217 98.2491 88.5998 98.2491 88.7912 98.3448L89.6524 98.8232C89.8438 98.9668 89.8438 99.1582 89.6046 99.3017L88.5998 99.8759C88.3606 100.067 87.9778 100.067 87.7864 99.9237Z" fill="#EFE1EE"/>
<path d="M96.1119 104.708L88.9828 100.593C88.7914 100.45 88.7914 100.259 89.0306 100.115L90.0354 99.5408C90.2747 99.3973 90.6574 99.3973 90.8488 99.493L97.978 103.608C98.1694 103.751 98.1694 103.943 97.9301 104.086L96.9253 104.66C96.6861 104.852 96.3033 104.852 96.1119 104.708Z" fill="#EFE1EE"/>
<path d="M98.1692 105.904L97.308 105.426C97.1166 105.282 97.1166 105.091 97.3558 104.947L98.3606 104.373C98.5998 104.23 98.9826 104.23 99.174 104.325L100.035 104.804C100.227 104.947 100.227 105.139 99.9874 105.282L98.9826 105.857C98.7434 106 98.3606 106.048 98.1692 105.904Z" fill="#EFE1EE"/>
<path d="M100.227 107.101L99.3656 106.622C99.1742 106.479 99.1742 106.287 99.4134 106.144L100.418 105.57C100.657 105.426 101.04 105.426 101.232 105.522L102.093 106C102.284 106.144 102.284 106.335 102.045 106.479L101.04 107.053C100.801 107.196 100.418 107.244 100.227 107.101Z" fill="#EFE1EE"/>
<path d="M102.332 108.297L101.471 107.818C101.28 107.675 101.28 107.483 101.519 107.34L102.524 106.766C102.763 106.622 103.146 106.622 103.337 106.718L104.198 107.196C104.39 107.34 104.39 107.531 104.15 107.675L103.146 108.249C102.906 108.392 102.524 108.44 102.332 108.297Z" fill="#EFE1EE"/>
<path d="M104.39 109.493L103.529 109.015C103.337 108.871 103.337 108.68 103.577 108.536L104.581 107.962C104.821 107.818 105.203 107.818 105.395 107.914L106.256 108.393C106.447 108.536 106.447 108.727 106.208 108.871L105.203 109.445C104.964 109.589 104.581 109.637 104.39 109.493Z" fill="#EFE1EE"/>
<path d="M106.447 110.689L105.585 110.211C105.394 110.067 105.394 109.876 105.633 109.732L106.638 109.158C106.877 109.014 107.26 109.014 107.451 109.11L108.313 109.589C108.504 109.732 108.504 109.924 108.265 110.067L107.26 110.641C107.021 110.785 106.638 110.833 106.447 110.689Z" fill="#EFE1EE"/>
<path d="M103.385 77.7225L106.017 74.0383C105.299 72.9378 104.438 72.0766 103.481 71.5024C100.945 69.9713 98.7918 71.5024 98.744 74.9474C98.6962 78.3924 100.706 82.4115 103.289 83.9426C105.825 85.4737 107.883 83.9426 108.026 80.5933L103.385 77.7225Z" fill="white"/>
<path d="M107.5 73.6555L104.916 77.3397L109.557 80.2105C109.557 80.1627 109.557 80.1148 109.557 80.067C109.557 77.9139 108.744 75.5215 107.5 73.6555Z" fill="white"/>
<path d="M113.72 89.2058V76.9092L115.729 78.201V90.4498L113.72 89.2058Z" fill="white"/>
<path d="M116.351 90.8326V82.3159L118.408 83.5599V92.0766L116.351 90.8326Z" fill="white"/>
<path d="M110.992 87.5312V82.6509L113.002 83.9427V88.7753L110.992 87.5312Z" fill="white"/>
<path d="M105.06 117.579C105.06 117.244 105.251 116.861 105.538 116.718L108.648 114.947C108.744 114.899 108.887 114.852 108.983 114.899H109.031L110.61 115.809L106.926 118.871L105.347 117.962C105.299 117.962 105.299 117.914 105.251 117.914C105.107 117.818 105.06 117.722 105.06 117.579Z" fill="url(#paint78_linear)"/>
<path d="M107.117 118.823L110.227 117.053C110.514 116.909 110.706 116.526 110.706 116.191C110.706 115.856 110.466 115.713 110.227 115.856L107.117 117.627C106.83 117.77 106.639 118.153 106.639 118.488C106.639 118.823 106.878 118.966 107.117 118.823Z" fill="#1800C2"/>
<defs>
<linearGradient id="paint0_linear" x1="116.612" y1="96.1501" x2="73.6656" y2="96.1501" gradientUnits="userSpaceOnUse">
<stop stopColor="#BA83FF"/>
<stop offset="1" stopColor="#B0A4E2"/>
</linearGradient>
<linearGradient id="paint1_linear" x1="324.16" y1="221.739" x2="-39.1657" y2="9.87228" gradientUnits="userSpaceOnUse">
<stop stopColor="#9C74FF"/>
<stop offset="1" stopColor="#FFF6E2"/>
</linearGradient>
<linearGradient id="paint2_linear" x1="89.9503" y1="43.8099" x2="84.5559" y2="43.8099" gradientUnits="userSpaceOnUse">
<stop stopColor="#3D00E7"/>
<stop offset="1" stopColor="#6031FF"/>
</linearGradient>
<linearGradient id="paint3_linear" x1="154.436" y1="60.8824" x2="41.3048" y2="-21.2966" gradientUnits="userSpaceOnUse">
<stop stopColor="#6318FF"/>
<stop offset="1" stopColor="#FFF6E2"/>
</linearGradient>
<linearGradient id="paint4_linear" x1="133.892" y1="45.6946" x2="47.9684" y2="-16.7206" gradientUnits="userSpaceOnUse">
<stop stopColor="#4500FF"/>
<stop offset="1" stopColor="#6A31FF"/>
</linearGradient>
<linearGradient id="paint5_linear" x1="81.6529" y1="61.8209" x2="58.5496" y2="45.268" gradientUnits="userSpaceOnUse">
<stop stopColor="#A43DFF"/>
<stop offset="1" stopColor="#EAD6E2"/>
</linearGradient>
<linearGradient id="paint6_linear" x1="115.689" y1="116.383" x2="46.2607" y2="106.561" gradientUnits="userSpaceOnUse">
<stop stopColor="#BF9FFF"/>
<stop offset="1" stopColor="#FFF6E2"/>
</linearGradient>
<linearGradient id="paint7_linear" x1="81.6043" y1="55.8884" x2="58.5009" y2="39.3354" gradientUnits="userSpaceOnUse">
<stop stopColor="#A43DFF"/>
<stop offset="1" stopColor="#EAD6E2"/>
</linearGradient>
<linearGradient id="paint8_linear" x1="116.151" y1="111.123" x2="46.7231" y2="101.301" gradientUnits="userSpaceOnUse">
<stop stopColor="#BF9FFF"/>
<stop offset="1" stopColor="#FFF6E2"/>
</linearGradient>
<linearGradient id="paint9_linear" x1="81.6432" y1="49.9559" x2="58.5399" y2="33.4029" gradientUnits="userSpaceOnUse">
<stop stopColor="#A43DFF"/>
<stop offset="1" stopColor="#EAD6E2"/>
</linearGradient>
<linearGradient id="paint10_linear" x1="115.679" y1="104.518" x2="46.2509" y2="94.6956" gradientUnits="userSpaceOnUse">
<stop stopColor="#BF9FFF"/>
<stop offset="1" stopColor="#FFF6E2"/>
</linearGradient>
<linearGradient id="paint11_linear" x1="81.6238" y1="44.0066" x2="58.5205" y2="27.4536" gradientUnits="userSpaceOnUse">
<stop stopColor="#A43DFF"/>
<stop offset="1" stopColor="#EAD6E2"/>
</linearGradient>
<linearGradient id="paint12_linear" x1="116.171" y1="99.2415" x2="46.7425" y2="89.4194" gradientUnits="userSpaceOnUse">
<stop stopColor="#BF9FFF"/>
<stop offset="1" stopColor="#FFF6E2"/>
</linearGradient>
<linearGradient id="paint13_linear" x1="81.6627" y1="38.0741" x2="58.5594" y2="21.5211" gradientUnits="userSpaceOnUse">
<stop stopColor="#A43DFF"/>
<stop offset="1" stopColor="#EAD6E2"/>
</linearGradient>
<linearGradient id="paint14_linear" x1="115.699" y1="92.6358" x2="46.2705" y2="82.8137" gradientUnits="userSpaceOnUse">
<stop stopColor="#BF9FFF"/>
<stop offset="1" stopColor="#FFF6E2"/>
</linearGradient>
<linearGradient id="paint15_linear" x1="81.6627" y1="32.1416" x2="58.5593" y2="15.5885" gradientUnits="userSpaceOnUse">
<stop stopColor="#A43DFF"/>
<stop offset="1" stopColor="#EAD6E2"/>
</linearGradient>
<linearGradient id="paint16_linear" x1="116.815" y1="88.1737" x2="47.3866" y2="78.3515" gradientUnits="userSpaceOnUse">
<stop stopColor="#BF9FFF"/>
<stop offset="1" stopColor="#FFF6E2"/>
</linearGradient>
<linearGradient id="paint17_linear" x1="87.5201" y1="8.79108" x2="84.4285" y2="8.79108" gradientUnits="userSpaceOnUse">
<stop stopColor="#3600F4"/>
<stop offset="1" stopColor="#330EE0"/>
</linearGradient>
<linearGradient id="paint18_linear" x1="119.948" y1="34.5544" x2="82.5643" y2="19.0614" gradientUnits="userSpaceOnUse">
<stop stopColor="#6318FF"/>
<stop offset="1" stopColor="#13FFE2"/>
</linearGradient>
<linearGradient id="paint19_linear" x1="109.861" y1="30.14" x2="96.3707" y2="24.5492" gradientUnits="userSpaceOnUse">
<stop stopColor="#6318FF"/>
<stop offset="1" stopColor="#13FFE2"/>
</linearGradient>
<linearGradient id="paint20_linear" x1="108.436" y1="36.4197" x2="85.6421" y2="26.9733" gradientUnits="userSpaceOnUse">
<stop stopColor="#6318FF"/>
<stop offset="1" stopColor="#13FFE2"/>
</linearGradient>
<linearGradient id="paint21_linear" x1="115.741" y1="38.5591" x2="88.3148" y2="27.1926" gradientUnits="userSpaceOnUse">
<stop stopColor="#6318FF"/>
<stop offset="1" stopColor="#13FFE2"/>
</linearGradient>
<linearGradient id="paint22_linear" x1="97.4362" y1="38.2355" x2="88.5784" y2="34.5646" gradientUnits="userSpaceOnUse">
<stop stopColor="#6318FF"/>
<stop offset="1" stopColor="#13FFE2"/>
</linearGradient>
<linearGradient id="paint23_linear" x1="119.948" y1="45.7612" x2="82.5643" y2="30.2682" gradientUnits="userSpaceOnUse">
<stop stopColor="#6318FF"/>
<stop offset="1" stopColor="#13FFE2"/>
</linearGradient>
<linearGradient id="paint24_linear" x1="109.861" y1="41.361" x2="96.3706" y2="35.7701" gradientUnits="userSpaceOnUse">
<stop stopColor="#6318FF"/>
<stop offset="1" stopColor="#13FFE2"/>
</linearGradient>
<linearGradient id="paint25_linear" x1="108.436" y1="47.6409" x2="85.642" y2="38.1943" gradientUnits="userSpaceOnUse">
<stop stopColor="#6318FF"/>
<stop offset="1" stopColor="#13FFE2"/>
</linearGradient>
<linearGradient id="paint26_linear" x1="115.741" y1="49.78" x2="88.3147" y2="38.4136" gradientUnits="userSpaceOnUse">
<stop stopColor="#6318FF"/>
<stop offset="1" stopColor="#13FFE2"/>
</linearGradient>
<linearGradient id="paint27_linear" x1="97.4361" y1="49.4565" x2="88.5783" y2="45.7855" gradientUnits="userSpaceOnUse">
<stop stopColor="#6318FF"/>
<stop offset="1" stopColor="#13FFE2"/>
</linearGradient>
<linearGradient id="paint28_linear" x1="119.948" y1="56.7825" x2="82.5642" y2="41.2896" gradientUnits="userSpaceOnUse">
<stop stopColor="#6318FF"/>
<stop offset="1" stopColor="#13FFE2"/>
</linearGradient>
<linearGradient id="paint29_linear" x1="109.861" y1="52.3681" x2="96.3706" y2="46.7773" gradientUnits="userSpaceOnUse">
<stop stopColor="#6318FF"/>
<stop offset="1" stopColor="#13FFE2"/>
</linearGradient>
<linearGradient id="paint30_linear" x1="108.436" y1="58.648" x2="85.642" y2="49.2015" gradientUnits="userSpaceOnUse">
<stop stopColor="#6318FF"/>
<stop offset="1" stopColor="#13FFE2"/>
</linearGradient>
<linearGradient id="paint31_linear" x1="115.741" y1="60.7872" x2="88.3146" y2="49.4208" gradientUnits="userSpaceOnUse">
<stop stopColor="#6318FF"/>
<stop offset="1" stopColor="#13FFE2"/>
</linearGradient>
<linearGradient id="paint32_linear" x1="97.4361" y1="60.4636" x2="88.5784" y2="56.7927" gradientUnits="userSpaceOnUse">
<stop stopColor="#6318FF"/>
<stop offset="1" stopColor="#13FFE2"/>
</linearGradient>
<linearGradient id="paint33_linear" x1="119.948" y1="67.9893" x2="82.5642" y2="52.4963" gradientUnits="userSpaceOnUse">
<stop stopColor="#6318FF"/>
<stop offset="1" stopColor="#13FFE2"/>
</linearGradient>
<linearGradient id="paint34_linear" x1="46.1769" y1="75.0031" x2="42.8711" y2="75.0031" gradientUnits="userSpaceOnUse">
<stop stopColor="#867CE2"/>
<stop offset="1" stopColor="#B590FF"/>
</linearGradient>
<linearGradient id="paint35_linear" x1="92.3605" y1="92.4416" x2="24.7274" y2="43.3124" gradientUnits="userSpaceOnUse">
<stop stopColor="#6318FF"/>
<stop offset="1" stopColor="#FFF6E2"/>
</linearGradient>
<linearGradient id="paint36_linear" x1="56.1825" y1="84.8078" x2="57.9703" y2="83.205" gradientUnits="userSpaceOnUse">
<stop stopColor="#796DE8"/>
<stop offset="1" stopColor="#554FC6"/>
</linearGradient>
<linearGradient id="paint37_linear" x1="55.8694" y1="78.7946" x2="57.6287" y2="77.2173" gradientUnits="userSpaceOnUse">
<stop stopColor="#796DE8"/>
<stop offset="1" stopColor="#554FC6"/>
</linearGradient>
<linearGradient id="paint38_linear" x1="132.987" y1="63.1876" x2="129.681" y2="63.1876" gradientUnits="userSpaceOnUse">
<stop stopColor="#867CE2"/>
<stop offset="1" stopColor="#B590FF"/>
</linearGradient>
<linearGradient id="paint39_linear" x1="179.17" y1="72.4233" x2="111.537" y2="23.2941" gradientUnits="userSpaceOnUse">
<stop stopColor="#6318FF"/>
<stop offset="1" stopColor="#FFF6E2"/>
</linearGradient>
<linearGradient id="paint40_linear" x1="146.982" y1="81.6665" x2="149.469" y2="79.4366" gradientUnits="userSpaceOnUse">
<stop stopColor="#796DE8"/>
<stop offset="1" stopColor="#554FC6"/>
</linearGradient>
<linearGradient id="paint41_linear" x1="146.546" y1="73.3009" x2="148.994" y2="71.1065" gradientUnits="userSpaceOnUse">
<stop stopColor="#796DE8"/>
<stop offset="1" stopColor="#554FC6"/>
</linearGradient>
<linearGradient id="paint42_linear" x1="61.3463" y1="136.96" x2="56.7116" y2="136.96" gradientUnits="userSpaceOnUse">
<stop stopColor="#3D00E7"/>
<stop offset="1" stopColor="#6031FF"/>
</linearGradient>
<linearGradient id="paint43_linear" x1="116.751" y1="157.221" x2="19.5522" y2="86.6147" gradientUnits="userSpaceOnUse">
<stop stopColor="#6318FF"/>
<stop offset="1" stopColor="#FFF6E2"/>
</linearGradient>
<linearGradient id="paint44_linear" x1="99.0997" y1="144.172" x2="25.2768" y2="90.5464" gradientUnits="userSpaceOnUse">
<stop stopColor="#4500FF"/>
<stop offset="1" stopColor="#6A31FF"/>
</linearGradient>
<linearGradient id="paint45_linear" x1="54.2094" y1="147.833" x2="34.3596" y2="133.611" gradientUnits="userSpaceOnUse">
<stop stopColor="#A43DFF"/>
<stop offset="1" stopColor="#EAD6E2"/>
</linearGradient>
<linearGradient id="paint46_linear" x1="83.4521" y1="194.711" x2="23.8012" y2="186.272" gradientUnits="userSpaceOnUse">
<stop stopColor="#6318FF"/>
<stop offset="1" stopColor="#FFF6E2"/>
</linearGradient>
<linearGradient id="paint47_linear" x1="54.1927" y1="142.722" x2="34.3429" y2="128.5" gradientUnits="userSpaceOnUse">
<stop stopColor="#A43DFF"/>
<stop offset="1" stopColor="#EAD6E2"/>
</linearGradient>
<linearGradient id="paint48_linear" x1="83.8744" y1="190.178" x2="24.2236" y2="181.739" gradientUnits="userSpaceOnUse">
<stop stopColor="#6318FF"/>
<stop offset="1" stopColor="#FFF6E2"/>
</linearGradient>
<linearGradient id="paint49_linear" x1="54.2261" y1="137.625" x2="34.3763" y2="123.403" gradientUnits="userSpaceOnUse">
<stop stopColor="#A43DFF"/>
<stop offset="1" stopColor="#EAD6E2"/>
</linearGradient>
<linearGradient id="paint50_linear" x1="83.4689" y1="184.503" x2="23.818" y2="176.064" gradientUnits="userSpaceOnUse">
<stop stopColor="#6318FF"/>
<stop offset="1" stopColor="#FFF6E2"/>
</linearGradient>
<linearGradient id="paint51_linear" x1="54.2261" y1="132.528" x2="34.3763" y2="118.306" gradientUnits="userSpaceOnUse">
<stop stopColor="#A43DFF"/>
<stop offset="1" stopColor="#EAD6E2"/>
</linearGradient>
<linearGradient id="paint52_linear" x1="84.428" y1="180.669" x2="24.777" y2="172.23" gradientUnits="userSpaceOnUse">
<stop stopColor="#6318FF"/>
<stop offset="1" stopColor="#FFF6E2"/>
</linearGradient>
<linearGradient id="paint53_linear" x1="59.2591" y1="112.465" x2="56.6029" y2="112.465" gradientUnits="userSpaceOnUse">
<stop stopColor="#3600F4"/>
<stop offset="1" stopColor="#330EE0"/>
</linearGradient>
<linearGradient id="paint54_linear" x1="87.1205" y1="134.601" x2="55.0013" y2="121.289" gradientUnits="userSpaceOnUse">
<stop stopColor="#6318FF"/>
<stop offset="1" stopColor="#13FFE2"/>
</linearGradient>
<linearGradient id="paint55_linear" x1="78.4538" y1="130.808" x2="66.8632" y2="126.004" gradientUnits="userSpaceOnUse">
<stop stopColor="#6318FF"/>
<stop offset="1" stopColor="#13FFE2"/>
</linearGradient>
<linearGradient id="paint56_linear" x1="77.2296" y1="136.203" x2="57.6457" y2="128.087" gradientUnits="userSpaceOnUse">
<stop stopColor="#6318FF"/>
<stop offset="1" stopColor="#13FFE2"/>
</linearGradient>
<linearGradient id="paint57_linear" x1="83.5062" y1="138.041" x2="59.9419" y2="128.275" gradientUnits="userSpaceOnUse">
<stop stopColor="#6318FF"/>
<stop offset="1" stopColor="#13FFE2"/>
</linearGradient>
<linearGradient id="paint58_linear" x1="67.7789" y1="137.763" x2="60.1685" y2="134.609" gradientUnits="userSpaceOnUse">
<stop stopColor="#6318FF"/>
<stop offset="1" stopColor="#13FFE2"/>
</linearGradient>
<linearGradient id="paint59_linear" x1="87.1203" y1="144.229" x2="55.0013" y2="130.918" gradientUnits="userSpaceOnUse">
<stop stopColor="#6318FF"/>
<stop offset="1" stopColor="#13FFE2"/>
</linearGradient>
<linearGradient id="paint60_linear" x1="78.4537" y1="140.449" x2="66.8632" y2="135.645" gradientUnits="userSpaceOnUse">
<stop stopColor="#6318FF"/>
<stop offset="1" stopColor="#13FFE2"/>
</linearGradient>
<linearGradient id="paint61_linear" x1="77.2297" y1="145.844" x2="57.6456" y2="137.728" gradientUnits="userSpaceOnUse">
<stop stopColor="#6318FF"/>
<stop offset="1" stopColor="#13FFE2"/>
</linearGradient>
<linearGradient id="paint62_linear" x1="83.5061" y1="147.682" x2="59.9418" y2="137.916" gradientUnits="userSpaceOnUse">
<stop stopColor="#6318FF"/>
<stop offset="1" stopColor="#13FFE2"/>
</linearGradient>
<linearGradient id="paint63_linear" x1="67.7788" y1="147.404" x2="60.1684" y2="144.25" gradientUnits="userSpaceOnUse">
<stop stopColor="#6318FF"/>
<stop offset="1" stopColor="#13FFE2"/>
</linearGradient>
<linearGradient id="paint64_linear" x1="87.1203" y1="153.699" x2="55.0012" y2="140.387" gradientUnits="userSpaceOnUse">
<stop stopColor="#6318FF"/>
<stop offset="1" stopColor="#13FFE2"/>
</linearGradient>
<linearGradient id="paint65_linear" x1="81.2969" y1="157.423" x2="79.5406" y2="157.423" gradientUnits="userSpaceOnUse">
<stop stopColor="#867CE2"/>
<stop offset="1" stopColor="#B590FF"/>
</linearGradient>
<linearGradient id="paint66_linear" x1="105.833" y1="166.688" x2="69.9018" y2="140.587" gradientUnits="userSpaceOnUse">
<stop stopColor="#6318FF"/>
<stop offset="1" stopColor="#FFF6E2"/>
</linearGradient>
<linearGradient id="paint67_linear" x1="112.667" y1="85.5177" x2="110.871" y2="81.7185" gradientUnits="userSpaceOnUse">
<stop stopColor="#3D00E7"/>
<stop offset="1" stopColor="#6031FF"/>
</linearGradient>
<linearGradient id="paint68_linear" x1="113.42" y1="90.2139" x2="89.0062" y2="38.3345" gradientUnits="userSpaceOnUse">
<stop stopColor="#1800C2"/>
<stop offset="1" stopColor="#240ED6"/>
</linearGradient>
<linearGradient id="paint69_linear" x1="225.634" y1="263.887" x2="26.3942" y2="101.535" gradientUnits="userSpaceOnUse">
<stop stopColor="#6318FF"/>
<stop offset="1" stopColor="#FFF6E2"/>
</linearGradient>
<linearGradient id="paint70_linear" x1="111.709" y1="70.9484" x2="107.347" y2="67.3941" gradientUnits="userSpaceOnUse">
<stop stopColor="#6318FF"/>
<stop offset="1" stopColor="#FFF6E2"/>
</linearGradient>
<linearGradient id="paint71_linear" x1="101.893" y1="104.17" x2="99.3448" y2="104.17" gradientUnits="userSpaceOnUse">
<stop stopColor="#1800C2"/>
<stop offset="1" stopColor="#240ED6"/>
</linearGradient>
<linearGradient id="paint72_linear" x1="98.6729" y1="86.9639" x2="98.1435" y2="120.12" gradientUnits="userSpaceOnUse">
<stop stopColor="#3D00E7"/>
<stop offset="1" stopColor="#6031FF"/>
</linearGradient>
<linearGradient id="paint73_linear" x1="82.638" y1="150.13" x2="88.0696" y2="2.96857" gradientUnits="userSpaceOnUse">
<stop stopColor="#6318FF"/>
<stop offset="1" stopColor="#FFF6E2"/>
</linearGradient>
<linearGradient id="paint74_linear" x1="82.2412" y1="125.446" x2="84.2305" y2="71.5486" gradientUnits="userSpaceOnUse">
<stop stopColor="#6318FF"/>
<stop offset="1" stopColor="#FFF6E2"/>
</linearGradient>
<linearGradient id="paint75_linear" x1="91.5529" y1="97.5608" x2="92.8105" y2="97.5105" gradientUnits="userSpaceOnUse">
<stop stopColor="#1800C2"/>
<stop offset="1" stopColor="#240ED6"/>
</linearGradient>
<linearGradient id="paint76_linear" x1="87.6065" y1="105.405" x2="88.4785" y2="105.405" gradientUnits="userSpaceOnUse">
<stop stopColor="#1800C2"/>
<stop offset="1" stopColor="#240ED6"/>
</linearGradient>
<linearGradient id="paint77_linear" x1="77.1433" y1="134.521" x2="78.5079" y2="101.495" gradientUnits="userSpaceOnUse">
<stop stopColor="#6318FF"/>
<stop offset="1" stopColor="#FFF6E2"/>
</linearGradient>
<linearGradient id="paint78_linear" x1="106.474" y1="118.522" x2="107.238" y2="117.375" gradientUnits="userSpaceOnUse">
<stop stopColor="#3D00E7"/>
<stop offset="1" stopColor="#6031FF"/>
</linearGradient>
</defs>
</svg>
