<svg width="20" height="22" viewBox="0 0 20 22" fill="none" xmlns="http://www.w3.org/2000/svg">
<path d="M18.6954 18.4141L17.0704 16.293V10.0117C17.0704 6.91797 15.086 4.28516 12.3243 3.30469C12.3126 2.03125 11.2774 1 10.0001 1C8.74224 1 7.7188 2.00781 7.68364 3.25781C4.85943 4.20703 2.81646 6.875 2.81646 10.0117V16.2969L1.29693 18.4219C1.20318 18.5547 1.19146 18.7266 1.26568 18.8711C1.3399 19.0156 1.48833 19.1055 1.6524 19.1055H7.72271C7.92583 20.1797 8.86724 20.9922 10.0001 20.9922C11.1329 20.9922 12.0743 20.1758 12.2774 19.1055H18.3477C18.5118 19.1055 18.6641 19.0117 18.7344 18.8633C18.8125 18.7227 18.793 18.5469 18.6954 18.4141ZM10.0001 1.86719C10.7071 1.86719 11.2969 2.375 11.4258 3.04297C10.9454 2.94141 10.4493 2.88672 9.94146 2.88672C9.47661 2.88672 9.01958 2.93359 8.57818 3.01953C8.7188 2.36328 9.30083 1.86719 10.0001 1.86719ZM10.0001 20.1328C9.35161 20.1328 8.80864 19.7031 8.62114 19.1133H11.379C11.1954 19.6992 10.6485 20.1328 10.0001 20.1328ZM2.49615 18.2422L3.60552 16.6875C3.66021 16.6133 3.68755 16.5273 3.68755 16.4336V10.0117C3.68755 6.5625 6.49615 3.75391 9.94536 3.75391C13.3946 3.75391 16.2032 6.5625 16.2032 10.0117V16.4375C16.2032 16.5313 16.2344 16.625 16.293 16.7031L17.4727 18.2422H2.49615Z" fill="white" stroke="white" strokeWidth="0.5" strokeMiterlimit="10"/>
<path d="M14.7969 15.6602H5.20312C4.96484 15.6602 4.76953 15.8555 4.76953 16.0938C4.76953 16.332 4.96484 16.5273 5.20312 16.5273H14.7969C15.0352 16.5273 15.2305 16.332 15.2305 16.0938C15.2344 15.8555 15.0391 15.6602 14.7969 15.6602Z" fill="white" stroke="white" strokeWidth="0.5" strokeMiterlimit="10"/>
<path d="M5.20304 11.2969C5.21476 11.2969 5.23038 11.2969 5.2421 11.2969C5.48038 11.2774 5.65617 11.0626 5.63664 10.8243C5.62101 10.6641 5.32414 6.88678 8.66398 6.07819C8.89835 6.0235 9.03898 5.78522 8.98429 5.55475C8.9296 5.32037 8.69523 5.17975 8.46085 5.23444C4.40226 6.2149 4.76945 10.8555 4.77335 10.9024C4.79289 11.1251 4.98039 11.2969 5.20304 11.2969Z" fill="white" stroke="white" strokeWidth="0.5" strokeMiterlimit="10"/>
</svg>
