<svg width="18" height="22" viewBox="0 0 18 22" fill="none" xmlns="http://www.w3.org/2000/svg">
<path d="M12.4648 12.7344L12.4141 12.7109C12.293 12.6562 12.168 12.6016 12.043 12.5547C11.9063 12.5 11.7656 12.4492 11.625 12.4023C11.5156 12.3672 11.4023 12.332 11.2891 12.2969C11.1172 12.2461 10.9414 12.2031 10.7617 12.1641C10.6992 12.1523 10.6406 12.1406 10.5781 12.1289L10.5352 12.1211C10.4297 12.1016 10.3242 12.082 10.2148 12.0664L10.1836 12.0625H10.1797L10.1484 12.0586C10.0586 12.0469 9.96875 12.0313 9.87891 12.0234L9.5625 11.9961C9.17578 11.9688 8.77734 11.9727 8.39453 12L8.28125 12.0078L8.23047 12.0117L8.10156 12.0234C7.98047 12.0352 7.86328 12.0508 7.74219 12.0703L7.70703 12.0742C7.625 12.0859 7.54297 12.1016 7.46484 12.1172C7.375 12.1328 7.28906 12.1523 7.19922 12.168C7.03125 12.207 6.85938 12.25 6.69922 12.2969C6.57031 12.3359 6.44141 12.375 6.32031 12.418L6.23828 12.4492C5.98438 12.5391 5.73047 12.6445 5.48438 12.7578L5.41797 12.7891C2.54688 14.1641 0.691406 17.0977 0.691406 20.2773C0.691406 20.3516 0.695313 20.4219 0.699219 20.4961L0.722656 21H17.2734L17.2969 20.5C17.3008 20.4258 17.3047 20.3516 17.3047 20.2773C17.3086 17.0469 15.4063 14.0898 12.4648 12.7344ZM1.50391 20.1875C1.53906 17.332 3.22656 14.7109 5.80078 13.5039L5.88281 13.4727L5.89063 13.4648C6.09375 13.3711 6.30078 13.2891 6.51172 13.2148L6.57813 13.1914C6.69141 13.1523 6.80859 13.1133 6.92578 13.082C7.07422 13.0391 7.22656 13 7.375 12.9648C7.45313 12.9492 7.53125 12.9336 7.61328 12.918C7.67578 12.9062 7.74219 12.8945 7.80469 12.8828L7.83594 12.8789C7.95313 12.8594 8.07031 12.8438 8.1836 12.832L8.44922 12.8086C8.79688 12.7812 9.12891 12.7812 9.53125 12.8086L9.78906 12.832C9.85156 12.8398 9.91797 12.8477 9.99219 12.8594L10.0859 12.8711C10.1836 12.8867 10.2813 12.9023 10.3789 12.9219L10.4258 12.9297C10.4805 12.9414 10.5352 12.9492 10.5859 12.9609C10.7461 12.9961 10.9023 13.0391 11.0586 13.082C11.1602 13.1133 11.2656 13.1445 11.3633 13.1758C11.4883 13.2188 11.6133 13.2656 11.7383 13.3125C11.8555 13.3594 11.9727 13.4102 12.0898 13.4609L12.1094 13.4688C14.7422 14.6758 16.4531 17.3047 16.4883 20.1914L1.50391 20.1875ZM6.99609 10.9492C7.05859 10.9766 7.12109 10.9961 7.18359 11.0195L7.31641 11.0664C7.36719 11.0859 7.41797 11.1055 7.46875 11.1211C7.95313 11.2734 8.45703 11.3516 8.97266 11.3555H9.01172C9.1875 11.3555 9.36328 11.3477 9.53516 11.3281C9.59375 11.3242 9.64844 11.3125 9.70703 11.3047L9.83594 11.2852C9.90625 11.2773 9.98047 11.2656 10.0547 11.25C10.1055 11.2383 10.1563 11.2266 10.2031 11.2109L10.3438 11.1758C10.4141 11.1602 10.4805 11.1406 10.5469 11.1211C10.5898 11.1094 10.6289 11.0938 10.6719 11.0781L10.7852 11.0391C10.8633 11.0117 10.9453 10.9844 11.0234 10.9492C11.0547 10.9375 11.0859 10.9219 11.1133 10.9062L11.1484 10.8867C11.2578 10.8359 11.3672 10.7891 11.4766 10.7305L11.5469 10.6875C11.668 10.6172 11.7891 10.5469 11.9141 10.4648C11.9766 10.4219 12.0391 10.375 12.0977 10.3242L12.3047 10.1641C13.5 9.17578 14.1836 7.72266 14.1836 6.21875L14.1875 6.17578C14.1914 3.32422 11.8672 1 9.01172 1C6.28516 1 4.01953 3.13281 3.84766 5.85156L3.84375 5.91797C3.83594 6.00391 3.83203 6.08984 3.83203 6.17578C3.83203 8.26562 5.07422 10.1367 6.99609 10.9492ZM4.65234 5.97656L4.65625 5.90234C4.80078 3.60938 6.71094 1.8125 9.00781 1.8125C11.418 1.8125 13.375 3.76953 13.375 6.14062L13.3711 6.18359C13.3711 7.48438 12.7891 8.70703 11.7773 9.54688L11.5859 9.69531C11.543 9.73047 11.5 9.76562 11.4453 9.80078C11.3477 9.86719 11.2461 9.92578 11.1406 9.98438L11.082 10.0195C10.9961 10.0664 10.9023 10.1094 10.8047 10.1523L10.6953 10.2031C10.6328 10.2305 10.5703 10.25 10.5039 10.2734L10.3711 10.3203C10.3438 10.3281 10.3203 10.3398 10.293 10.3477C10.2422 10.3633 10.1914 10.375 10.1406 10.3867L9.98047 10.4297C9.94531 10.4375 9.91016 10.4492 9.87891 10.457C9.82422 10.4688 9.76953 10.4766 9.71484 10.4844L9.5625 10.5078C9.52344 10.5156 9.48828 10.5195 9.44531 10.5234C9.30859 10.5391 9.17578 10.5469 9.03516 10.5469H8.99609C8.55078 10.5469 8.11719 10.4805 7.69922 10.3516C7.66406 10.3398 7.62891 10.3242 7.59375 10.3125L7.44141 10.2578C7.39453 10.2422 7.34766 10.2266 7.30078 10.207C5.67969 9.52344 4.63281 7.94141 4.63281 6.18359C4.64453 6.10938 4.64844 6.04297 4.65234 5.97656Z" fill="white" stroke="white" strokeMiterlimit="10"/>
</svg>
