<svg width="12" height="12" viewBox="0 0 12 12" fill="none" xmlns="http://www.w3.org/2000/svg">
<mask id="path-1-inside-1" fill="white">
<path fill-rule="evenodd" clip-rule="evenodd" d="M4.99984 -0.000244975H-0.000139952V4.99978H4.99984V-0.000244975ZM4.99984 6.99991H-0.000139952V11.9999H4.99984V6.99991ZM6.99984 -0.000244975H11.9998V4.99978H6.99984V-0.000244975ZM11.9998 6.99991H6.99984V11.9999H11.9998V6.99991Z"/>
</mask>
<path d="M-0.000139952 -0.000244975V-1.00024H-1.00014V-0.000244975H-0.000139952ZM4.99984 -0.000244975H5.99984V-1.00024H4.99984V-0.000244975ZM-0.000139952 4.99978H-1.00014V5.99978H-0.000139952V4.99978ZM4.99984 4.99978V5.99978H5.99984V4.99978H4.99984ZM-0.000139952 6.99991V5.99991H-1.00014V6.99991H-0.000139952ZM4.99984 6.99991H5.99984V5.99991H4.99984V6.99991ZM-0.000139952 11.9999H-1.00014V12.9999H-0.000139952V11.9999ZM4.99984 11.9999V12.9999H5.99984V11.9999H4.99984ZM11.9998 -0.000244975H12.9998V-1.00024H11.9998V-0.000244975ZM6.99984 -0.000244975V-1.00024H5.99984V-0.000244975H6.99984ZM11.9998 4.99978V5.99978H12.9998V4.99978H11.9998ZM6.99984 4.99978H5.99984V5.99978H6.99984V4.99978ZM6.99984 6.99991V5.99991H5.99984V6.99991H6.99984ZM11.9998 6.99991H12.9998V5.99991H11.9998V6.99991ZM6.99984 11.9999H5.99984V12.9999H6.99984V11.9999ZM11.9998 11.9999V12.9999H12.9998V11.9999H11.9998ZM-0.000139952 0.999755H4.99984V-1.00024H-0.000139952V0.999755ZM0.99986 4.99978V-0.000244975H-1.00014V4.99978H0.99986ZM4.99984 3.99978H-0.000139952V5.99978H4.99984V3.99978ZM3.99984 -0.000244975V4.99978H5.99984V-0.000244975H3.99984ZM-0.000139952 7.99991H4.99984V5.99991H-0.000139952V7.99991ZM0.99986 11.9999V6.99991H-1.00014V11.9999H0.99986ZM4.99984 10.9999H-0.000139952V12.9999H4.99984V10.9999ZM3.99984 6.99991V11.9999H5.99984V6.99991H3.99984ZM11.9998 -1.00024H6.99984V0.999755H11.9998V-1.00024ZM12.9998 4.99978V-0.000244975H10.9998V4.99978H12.9998ZM6.99984 5.99978H11.9998V3.99978H6.99984V5.99978ZM5.99984 -0.000244975V4.99978H7.99984V-0.000244975H5.99984ZM6.99984 7.99991H11.9998V5.99991H6.99984V7.99991ZM7.99984 11.9999V6.99991H5.99984V11.9999H7.99984ZM11.9998 10.9999H6.99984V12.9999H11.9998V10.9999ZM10.9998 6.99991V11.9999H12.9998V6.99991H10.9998Z" fill="white" mask="url(#path-1-inside-1)"/>
</svg>
