<?xml version="1.0" standalone="no"?>
<!DOCTYPE svg PUBLIC "-//W3C//DTD SVG 20010904//EN"
 "http://www.w3.org/TR/2001/REC-SVG-20010904/DTD/svg10.dtd">
<svg version="1.0" xmlns="http://www.w3.org/2000/svg"
 width="816.000000pt" height="816.000000pt" viewBox="0 0 816.000000 816.000000"
 preserveAspectRatio="xMidYMid meet">
<metadata>
Created by potrace 1.11, written by Peter Selinger 2001-2013
</metadata>
<g transform="translate(0.000000,816.000000) scale(0.100000,-0.100000)"
fill="#000000" stroke="none">
<path d="M4558 8145 c-2 -3 -103 -8 -224 -11 -270 -7 -284 -8 -284 -14 0 -3
-21 -5 -48 -6 -45 -1 -130 -10 -182 -19 -14 -3 -44 -7 -68 -10 -24 -3 -53 -7
-65 -10 -29 -6 -75 -15 -111 -20 -15 -2 -36 -7 -46 -10 -10 -3 -28 -8 -39 -10
-12 -2 -49 -11 -84 -20 -34 -9 -70 -18 -80 -20 -10 -2 -57 -16 -105 -31 -48
-15 -89 -28 -92 -29 -25 -6 -161 -56 -215 -80 -16 -7 -59 -25 -95 -40 -68 -28
-371 -176 -380 -185 -3 -3 -30 -18 -60 -34 -30 -16 -98 -56 -150 -89 -52 -33
-104 -64 -114 -71 -11 -6 -27 -16 -35 -23 -9 -7 -59 -42 -111 -79 -52 -37
-104 -76 -115 -85 -11 -10 -49 -42 -85 -71 -185 -150 -415 -387 -572 -588 -67
-86 -128 -172 -128 -179 0 -4 -9 -16 -20 -26 -11 -10 -20 -24 -20 -32 0 -7 -4
-13 -9 -13 -5 0 -14 -13 -21 -30 -7 -16 -16 -30 -21 -30 -5 0 -9 -4 -9 -9 0
-12 -63 -115 -72 -119 -5 -2 -8 -8 -8 -12 0 -5 -23 -48 -50 -96 -28 -48 -50
-92 -50 -99 0 -7 -7 -18 -15 -25 -8 -6 -14 -15 -13 -18 1 -6 -48 -112 -107
-232 -43 -86 -181 -460 -170 -460 2 0 -2 -15 -10 -34 -8 -18 -16 -44 -19 -57
-3 -13 -10 -44 -17 -69 -6 -25 -13 -56 -15 -70 -3 -14 -7 -33 -10 -42 -5 -19
-10 -41 -28 -133 -2 -11 -7 -38 -11 -60 -5 -22 -9 -53 -11 -70 -1 -16 -3 -30
-4 -30 -1 0 -3 -13 -4 -30 -2 -16 -6 -57 -10 -90 -14 -114 -17 -151 -22 -290
-3 -77 -5 -146 -5 -152 1 -15 1 -57 0 -75 -1 -45 17 -307 26 -373 20 -160 22
-169 43 -290 18 -98 19 -104 62 -275 32 -126 115 -369 173 -505 49 -116 157
-344 177 -375 5 -8 26 -44 45 -80 19 -36 41 -74 48 -85 52 -83 77 -127 77
-135 0 -6 5 -10 10 -10 6 0 10 -7 10 -15 0 -8 5 -15 10 -15 6 0 10 -7 10 -15
0 -8 5 -15 10 -15 6 0 10 -5 10 -10 0 -11 120 -182 146 -207 8 -8 14 -17 14
-21 0 -4 14 -21 30 -39 17 -18 30 -35 30 -38 0 -3 10 -17 23 -30 12 -13 42
-48 67 -76 63 -74 274 -284 345 -346 33 -28 71 -62 85 -74 43 -37 212 -163
280 -209 36 -24 67 -46 70 -49 3 -3 16 -13 30 -21 14 -8 63 -37 110 -66 143
-87 464 -255 485 -254 3 0 26 -10 53 -23 26 -14 79 -37 117 -52 39 -15 84 -33
100 -40 66 -27 328 -108 395 -121 14 -3 50 -11 80 -19 55 -14 85 -20 149 -31
18 -3 43 -8 55 -10 11 -3 39 -7 61 -10 22 -3 46 -7 53 -9 7 -2 40 -7 75 -11
34 -3 73 -8 87 -10 69 -11 259 -19 475 -18 249 0 397 7 615 28 30 3 116 8 190
11 74 3 149 8 165 11 17 4 39 8 50 10 41 7 81 15 114 24 19 5 38 7 42 4 4 -2
10 0 13 5 3 5 23 12 43 17 43 9 51 10 58 14 3 1 8 3 13 4 64 15 240 77 407
142 137 54 368 169 402 201 7 6 31 19 53 29 22 10 40 21 40 26 0 4 5 8 10 8 6
0 23 8 38 19 15 10 54 36 87 57 129 84 312 222 410 309 109 97 226 208 423
403 225 222 225 222 206 243 -15 16 -1016 1016 -1218 1216 l-42 41 -160 -156
c-146 -143 -230 -222 -280 -262 -109 -88 -192 -152 -239 -185 -32 -22 -63 -44
-69 -50 -15 -12 -22 -17 -176 -108 -139 -83 -286 -155 -350 -172 -3 -1 -14 -5
-25 -9 -52 -20 -72 -27 -90 -31 -11 -2 -54 -13 -95 -24 -82 -22 -128 -31 -220
-46 -19 -3 -47 -7 -63 -10 -64 -11 -222 -19 -357 -19 -334 0 -553 43 -790 157
-58 27 -111 51 -119 53 -8 1 -17 6 -20 11 -3 4 -31 21 -61 37 -64 34 -263 164
-301 198 -14 13 -41 37 -60 53 -50 45 -159 171 -159 184 0 6 -4 11 -8 11 -5 0
-24 21 -42 48 -19 26 -38 49 -42 50 -4 2 -8 8 -8 14 0 6 -13 27 -28 47 -16 20
-32 44 -35 54 -4 9 -11 17 -16 17 -5 0 -13 9 -16 20 -4 11 -22 44 -41 73 -42
64 -137 255 -159 320 -9 27 -29 76 -45 110 -53 116 -103 269 -116 357 -5 32
-11 67 -18 105 -20 106 -28 469 -13 590 10 87 34 217 48 267 7 23 13 50 14 58
1 8 8 35 15 60 7 25 13 50 14 55 2 11 42 140 76 244 11 35 25 70 31 78 6 7 8
13 5 13 -13 0 77 164 147 269 186 280 391 514 537 611 12 8 40 27 61 43 21 15
41 27 43 27 2 0 33 17 67 38 35 21 100 56 144 78 44 21 82 42 83 47 2 4 12 7
23 7 10 0 19 5 19 10 0 6 8 10 18 10 10 0 22 4 27 8 6 5 42 18 80 31 39 13 77
25 85 28 8 4 24 8 35 10 11 2 38 9 60 15 22 5 54 12 70 14 17 2 46 6 65 9 86
13 186 19 320 19 131 0 306 -10 320 -19 3 -1 28 -6 55 -9 92 -13 367 -87 460
-125 11 -5 40 -17 65 -27 24 -11 48 -20 52 -20 4 -1 11 -3 16 -4 4 -1 10 -2
15 -1 4 0 7 -3 7 -9 0 -5 4 -10 10 -10 25 0 306 -148 320 -169 3 -4 12 -10 20
-13 14 -5 223 -156 265 -191 11 -9 47 -38 80 -64 58 -46 141 -114 235 -193 25
-21 79 -65 120 -99 l75 -61 28 32 c28 32 135 151 187 208 14 15 48 53 75 84
28 31 68 76 90 100 42 45 155 171 190 211 26 30 150 167 200 223 22 24 49 54
60 66 30 34 167 186 190 212 11 12 45 50 75 84 30 35 66 75 80 89 14 15 33 36
44 48 l19 22 -151 148 c-83 81 -168 162 -189 180 -21 17 -47 40 -58 50 -30 27
-148 120 -260 203 -55 41 -102 77 -105 80 -3 3 -27 21 -55 40 -27 19 -54 38
-60 42 -16 13 -75 50 -140 90 -119 71 -248 133 -650 308 -96 41 -301 116 -345
125 -8 2 -44 11 -80 20 -36 9 -74 19 -85 21 -11 2 -31 7 -45 10 -14 4 -38 8
-55 10 -16 1 -30 3 -30 4 0 2 -24 7 -69 15 -21 4 -48 9 -60 11 -11 3 -34 7
-51 9 -16 3 -41 8 -55 11 -14 3 -39 7 -55 9 -17 1 -50 6 -75 10 -25 3 -56 8
-70 10 -14 3 -52 7 -85 10 -33 3 -80 7 -105 10 -25 3 -96 7 -157 9 -62 3 -117
7 -122 10 -4 3 -10 3 -13 1z"/>
</g>
</svg>
