<svg width="30" height="21" viewBox="0 0 30 21" fill="none" xmlns="http://www.w3.org/2000/svg">
<path d="M11.6884 15.349L12.0488 15.6068L11.9124 15.1868L12.2728 14.9386H11.8345L11.6884 14.509L11.5423 14.9386H11.104L11.4644 15.1868L11.328 15.6068L11.6884 15.349Z" fill="white"/>
<path d="M13.2468 15.349L13.6072 15.6068L13.4708 15.1868L13.8312 14.9386H13.3929L13.2468 14.509L13.1007 14.9386H12.6624L13.0227 15.1868L12.8864 15.6068L13.2468 15.349Z" fill="white"/>
<path d="M14.8051 15.349L15.1655 15.6068L15.0291 15.1868L15.3895 14.9386H14.9512L14.8051 14.509L14.659 14.9386H14.2207L14.5811 15.1868L14.4447 15.6068L14.8051 15.349Z" fill="white"/>
<path d="M16.3637 15.349L16.7241 15.6068L16.5877 15.1868L16.9481 14.9386H16.5098L16.3637 14.509L16.2176 14.9386H15.7793L16.1397 15.1868L16.0033 15.6068L16.3637 15.349Z" fill="white"/>
<path d="M17.9221 15.349L18.2825 15.6068L18.1461 15.1868L18.5065 14.9386H18.0682L17.9221 14.509L17.776 14.9386H17.3376L17.698 15.1868L17.5617 15.6068L17.9221 15.349Z" fill="white"/>
<path d="M12.9299 18.1363V18.0522C13.014 17.9697 13.0888 17.8952 13.1543 17.8288C13.2197 17.7624 13.2747 17.7011 13.3191 17.6449C13.3635 17.5877 13.3974 17.5356 13.4208 17.4886C13.4442 17.4405 13.4558 17.3941 13.4558 17.3494C13.4558 17.2864 13.4383 17.2349 13.4032 17.1948C13.3682 17.1547 13.315 17.1346 13.2437 17.1346C13.1969 17.1346 13.1537 17.1478 13.114 17.1742C13.0742 17.1994 13.038 17.2303 13.0053 17.2669L12.9229 17.1862C12.9696 17.1358 13.0193 17.0957 13.0719 17.0659C13.1245 17.035 13.1876 17.0195 13.2612 17.0195C13.3653 17.0195 13.4471 17.0493 13.5067 17.1089C13.5663 17.1673 13.5961 17.2452 13.5961 17.3425C13.5961 17.3941 13.5844 17.4462 13.561 17.4989C13.5388 17.5504 13.5073 17.6043 13.4664 17.6604C13.4266 17.7154 13.3787 17.7732 13.3226 17.8339C13.2677 17.8935 13.2069 17.9571 13.1403 18.0247C13.1706 18.0224 13.2022 18.0201 13.2349 18.0178C13.2677 18.0155 13.2986 18.0144 13.3279 18.0144H13.6522V18.1363H12.9299ZM14.2379 18.157C14.1245 18.157 14.0363 18.1077 13.9732 18.0092C13.9101 17.9107 13.8785 17.7692 13.8785 17.5848C13.8785 17.4004 13.9101 17.2601 13.9732 17.1639C14.0363 17.0676 14.1245 17.0195 14.2379 17.0195C14.3501 17.0195 14.4378 17.0676 14.5009 17.1639C14.564 17.2601 14.5956 17.4004 14.5956 17.5848C14.5956 17.7692 14.564 17.9107 14.5009 18.0092C14.4378 18.1077 14.3501 18.157 14.2379 18.157ZM14.2379 18.0436C14.2707 18.0436 14.2999 18.035 14.3256 18.0178C14.3525 17.9995 14.3753 17.972 14.394 17.9353C14.4138 17.8975 14.429 17.85 14.4395 17.7927C14.4501 17.7343 14.4553 17.665 14.4553 17.5848C14.4553 17.5046 14.4501 17.4359 14.4395 17.3786C14.429 17.3214 14.4138 17.275 14.394 17.2395C14.3753 17.2028 14.3525 17.1759 14.3256 17.1587C14.2999 17.1415 14.2707 17.1329 14.2379 17.1329C14.2052 17.1329 14.1754 17.1415 14.1485 17.1587C14.1216 17.1759 14.0982 17.2028 14.0784 17.2395C14.0597 17.275 14.0451 17.3214 14.0345 17.3786C14.024 17.4359 14.0188 17.5046 14.0188 17.5848C14.0188 17.7452 14.0386 17.862 14.0784 17.9353C14.1193 18.0075 14.1725 18.0436 14.2379 18.0436ZM14.8815 18.1363V18.0195H15.1375V17.212H14.9341V17.1209C14.9855 17.1117 15.0299 17.1009 15.0673 17.0883C15.1059 17.0745 15.1404 17.0585 15.1708 17.0401H15.2812V18.0195H15.5127V18.1363H14.8815ZM16.0966 17.6037C16.134 17.6037 16.1732 17.5923 16.2141 17.5693C16.2561 17.5464 16.2953 17.5092 16.3315 17.4577C16.3222 17.35 16.2965 17.2687 16.2544 17.2137C16.2123 17.1587 16.1556 17.1312 16.0843 17.1312C16.0574 17.1312 16.0317 17.1369 16.0072 17.1484C15.9838 17.1598 15.9634 17.1765 15.9458 17.1982C15.9283 17.2188 15.9143 17.244 15.9037 17.2738C15.8944 17.3036 15.8897 17.3362 15.8897 17.3718C15.8897 17.4439 15.9067 17.5006 15.9406 17.5419C15.9745 17.5831 16.0265 17.6037 16.0966 17.6037ZM16.044 18.157C15.9844 18.157 15.9318 18.1461 15.8862 18.1243C15.8418 18.1026 15.8044 18.0751 15.774 18.0418L15.8547 17.9525C15.878 17.9788 15.9055 18 15.9371 18.0161C15.9698 18.0321 16.0037 18.0401 16.0387 18.0401C16.0785 18.0401 16.1159 18.0321 16.151 18.0161C16.186 18 16.217 17.9737 16.2439 17.937C16.2708 17.8992 16.2924 17.8506 16.3087 17.791C16.3251 17.7314 16.3339 17.6575 16.335 17.5693C16.3 17.6129 16.2591 17.6472 16.2123 17.6724C16.1656 17.6976 16.1188 17.7102 16.0721 17.7102C15.975 17.7102 15.8979 17.6822 15.8406 17.626C15.7834 17.5699 15.7547 17.4852 15.7547 17.3718C15.7547 17.3191 15.7635 17.2715 15.781 17.2291C15.7985 17.1856 15.8219 17.1484 15.8511 17.1175C15.8815 17.0865 15.9166 17.0625 15.9563 17.0453C15.9972 17.0281 16.0399 17.0195 16.0843 17.0195C16.1393 17.0195 16.1901 17.0304 16.2369 17.0522C16.2848 17.0739 16.3257 17.1072 16.3596 17.1518C16.3947 17.1954 16.4215 17.2503 16.4402 17.3168C16.4601 17.3821 16.47 17.4588 16.47 17.547C16.47 17.657 16.4584 17.7509 16.435 17.8288C16.4116 17.9055 16.38 17.9685 16.3403 18.0178C16.3006 18.0659 16.255 18.1014 16.2035 18.1243C16.1533 18.1461 16.1001 18.157 16.044 18.157Z" fill="white"/>
<path d="M11.8246 4.99994H12.4353C12.5346 4.99994 12.6252 5.00853 12.707 5.02571C12.7908 5.04099 12.8629 5.06676 12.9233 5.10303C12.9856 5.13739 13.0333 5.18417 13.0664 5.24335C13.1015 5.30253 13.119 5.37508 13.119 5.46099C13.119 5.55071 13.0918 5.63376 13.0372 5.71012C12.9846 5.78649 12.9028 5.83899 12.7918 5.86762V5.87908C12.9301 5.90199 13.0353 5.95067 13.1074 6.02512C13.1814 6.09767 13.2184 6.19694 13.2184 6.32294C13.2184 6.41648 13.1999 6.49762 13.1629 6.56635C13.1259 6.63508 13.0742 6.69235 13.008 6.73817C12.9437 6.78398 12.8668 6.81835 12.7772 6.84126C12.6875 6.86226 12.5901 6.87276 12.4849 6.87276H11.8246V4.99994ZM12.4061 5.77599C12.5405 5.77599 12.6369 5.75212 12.6953 5.70439C12.7557 5.65667 12.7859 5.58889 12.7859 5.50108C12.7859 5.41517 12.7548 5.35312 12.6924 5.31494C12.6301 5.27676 12.5366 5.25767 12.4119 5.25767H12.1635V5.77599H12.4061ZM12.4499 6.61503C12.5901 6.61503 12.6983 6.58926 12.7742 6.53771C12.8502 6.48617 12.8882 6.40694 12.8882 6.30003C12.8882 6.20267 12.8512 6.13108 12.7772 6.08526C12.7031 6.03753 12.594 6.01367 12.4499 6.01367H12.1635V6.61503H12.4499ZM13.5681 4.99994H14.7194V5.28058H13.9071V5.7588H14.5938V6.03944H13.9071V6.59212H14.7486V6.87276H13.5681V4.99994ZM15.2076 6.40599C15.2758 6.46899 15.3537 6.52053 15.4414 6.56062C15.5291 6.5988 15.6167 6.61789 15.7044 6.61789C15.8135 6.61789 15.8963 6.59594 15.9528 6.55203C16.0093 6.50812 16.0375 6.44989 16.0375 6.37735C16.0375 6.33917 16.0297 6.30671 16.0141 6.27999C16.0005 6.25326 15.98 6.23035 15.9528 6.21126C15.9274 6.19026 15.8963 6.17117 15.8593 6.15399C15.8242 6.1368 15.7852 6.11962 15.7424 6.10244L15.4794 5.99076C15.4326 5.97167 15.3859 5.9478 15.3391 5.91917C15.2943 5.89053 15.2534 5.85617 15.2164 5.81608C15.1794 5.77599 15.1492 5.72921 15.1258 5.67576C15.1044 5.6223 15.0937 5.56121 15.0937 5.49249C15.0937 5.41803 15.1093 5.3493 15.1404 5.2863C15.1736 5.22139 15.2184 5.16508 15.2749 5.11735C15.3313 5.06962 15.3986 5.03239 15.4765 5.00567C15.5563 4.97894 15.643 4.96558 15.7365 4.96558C15.8476 4.96558 15.9547 4.98753 16.058 5.03144C16.1612 5.07344 16.2499 5.13071 16.3239 5.20326L16.1515 5.41517C16.0891 5.36553 16.0249 5.32639 15.9586 5.29776C15.8924 5.26912 15.8184 5.2548 15.7365 5.2548C15.645 5.2548 15.5719 5.27485 15.5174 5.31494C15.4628 5.35312 15.4356 5.40658 15.4356 5.4753C15.4356 5.51158 15.4434 5.54308 15.4589 5.5698C15.4765 5.59462 15.4989 5.61753 15.5262 5.63853C15.5554 5.65762 15.5885 5.67576 15.6255 5.69294C15.6625 5.70821 15.7005 5.72349 15.7395 5.73876L15.9995 5.84471C16.056 5.86762 16.1076 5.89435 16.1544 5.92489C16.2012 5.95544 16.2411 5.99076 16.2742 6.03085C16.3093 6.07094 16.3365 6.11771 16.356 6.17117C16.3755 6.22271 16.3852 6.28285 16.3852 6.35158C16.3852 6.42794 16.3697 6.49953 16.3385 6.56635C16.3073 6.63317 16.2615 6.69235 16.2012 6.74389C16.1427 6.79353 16.0706 6.83362 15.9849 6.86417C15.9012 6.8928 15.8057 6.90712 15.6986 6.90712C15.57 6.90712 15.4453 6.88326 15.3245 6.83553C15.2057 6.7878 15.1005 6.72003 15.0089 6.63221L15.2076 6.40599ZM17.0614 5.28058H16.5091V4.99994H17.9526V5.28058H17.4003V6.87276H17.0614V5.28058ZM9.81421 8.24539H10.1882L10.533 9.16749L10.6587 9.52258H10.6704L10.7931 9.16749L11.1321 8.24539H11.5061V10.1182H11.1876V9.26198C11.1876 9.21808 11.1886 9.17035 11.1905 9.1188C11.1944 9.06726 11.1983 9.01571 11.2022 8.96417C11.2061 8.91071 11.211 8.85917 11.2168 8.80953C11.2227 8.75799 11.2275 8.71026 11.2314 8.66635H11.2197L11.0649 9.09303L10.7347 9.94353H10.5769L10.2467 9.09303L10.0947 8.66635H10.083C10.0869 8.71026 10.0908 8.75799 10.0947 8.80953C10.1006 8.85917 10.1054 8.91071 10.1093 8.96417C10.1152 9.01571 10.1191 9.06726 10.121 9.1188C10.1249 9.17035 10.1269 9.21808 10.1269 9.26198V10.1182H9.81421V8.24539ZM12.8038 9.35076L12.7366 9.12167C12.7054 9.02239 12.6753 8.92026 12.646 8.81526C12.6188 8.71026 12.5915 8.60621 12.5642 8.50312H12.5525C12.5253 8.60812 12.498 8.71312 12.4707 8.81812C12.4434 8.92121 12.4142 9.02239 12.383 9.12167L12.3158 9.35076H12.8038ZM12.8798 9.61135H12.2369L12.0879 10.1182H11.7431L12.3655 8.24539H12.7629L13.3853 10.1182H13.0288L12.8798 9.61135ZM13.9599 9.12167H14.2316C14.3621 9.12167 14.4615 9.09494 14.5297 9.04149C14.5998 8.98803 14.6349 8.90785 14.6349 8.80094C14.6349 8.69212 14.5998 8.61671 14.5297 8.57471C14.4615 8.53271 14.3621 8.51171 14.2316 8.51171H13.9599V9.12167ZM14.6641 10.1182L14.2521 9.38512H13.9599V10.1182H13.6209V8.24539H14.2667C14.366 8.24539 14.4586 8.25494 14.5443 8.27403C14.63 8.29312 14.704 8.32462 14.7664 8.36853C14.8287 8.41053 14.8774 8.46685 14.9125 8.53749C14.9495 8.60812 14.968 8.69594 14.968 8.80094C14.968 8.94412 14.9329 9.05962 14.8628 9.14744C14.7946 9.23526 14.703 9.29826 14.5881 9.33644L15.0439 10.1182H14.6641ZM15.3702 8.24539H15.7091V9.09589H15.7179L16.3987 8.24539H16.7757L16.1883 8.97562L16.875 10.1182H16.501L15.9838 9.23621L15.7091 9.57126V10.1182H15.3702V8.24539ZM17.1137 8.24539H18.265V8.52603H17.4527V9.00426H18.1393V9.28489H17.4527V9.83758H18.2942V10.1182H17.1137V8.24539ZM19.0717 8.52603H18.5195V8.24539H19.963V8.52603H19.4107V10.1182H19.0717V8.52603ZM11.0213 11.4908H11.6641C11.7693 11.4908 11.8658 11.5004 11.9534 11.5195C12.043 11.5386 12.12 11.571 12.1843 11.6168C12.2486 11.6627 12.2992 11.7228 12.3362 11.7973C12.3732 11.8698 12.3917 11.9605 12.3917 12.0693C12.3917 12.1724 12.3732 12.2621 12.3362 12.3385C12.2992 12.4148 12.2476 12.4788 12.1813 12.5303C12.1171 12.58 12.0401 12.6172 11.9505 12.642C11.8628 12.6649 11.7674 12.6764 11.6641 12.6764H11.3602V13.3637H11.0213V11.4908ZM11.6378 12.4101C11.9184 12.4101 12.0586 12.2965 12.0586 12.0693C12.0586 11.9509 12.0236 11.8698 11.9534 11.8259C11.8833 11.7801 11.7781 11.7572 11.6378 11.7572H11.3602V12.4101H11.6378ZM12.7505 11.4908H13.0895V13.083H13.8843V13.3637H12.7505V11.4908ZM15.0296 12.5962L14.9624 12.3671C14.9313 12.2678 14.9011 12.1657 14.8718 12.0607C14.8446 11.9557 14.8173 11.8517 14.79 11.7486H14.7783C14.7511 11.8536 14.7238 11.9586 14.6965 12.0636C14.6692 12.1667 14.64 12.2678 14.6089 12.3671L14.5416 12.5962H15.0296ZM15.1056 12.8568H14.4627L14.3137 13.3637H13.9689L14.5913 11.4908H14.9887L15.6111 13.3637H15.2546L15.1056 12.8568ZM15.7188 12.433C15.7188 12.2803 15.7412 12.1438 15.786 12.0235C15.8328 11.9013 15.8961 11.7982 15.976 11.7142C16.0558 11.6302 16.1493 11.5663 16.2565 11.5223C16.3636 11.4784 16.4786 11.4565 16.6013 11.4565C16.7182 11.4565 16.8224 11.4803 16.9139 11.5281C17.0075 11.5758 17.0844 11.6312 17.1448 11.6942L16.9549 11.9003C16.9062 11.8526 16.8536 11.8154 16.7971 11.7887C16.7425 11.76 16.6782 11.7457 16.6042 11.7457C16.5243 11.7457 16.4513 11.7619 16.385 11.7944C16.3208 11.8249 16.2643 11.8698 16.2156 11.929C16.1688 11.9863 16.1318 12.0569 16.1045 12.1409C16.0792 12.2249 16.0665 12.3194 16.0665 12.4244C16.0665 12.6382 16.1133 12.8062 16.2068 12.9284C16.3023 13.0487 16.4308 13.1088 16.5925 13.1088C16.6782 13.1088 16.7523 13.0926 16.8146 13.0601C16.8789 13.0277 16.9383 12.9818 16.9928 12.9227L17.1828 13.126C17.1049 13.2138 17.0162 13.2816 16.9169 13.3293C16.8175 13.3751 16.7075 13.398 16.5867 13.398C16.4639 13.398 16.35 13.377 16.2448 13.335C16.1396 13.293 16.048 13.231 15.9701 13.1489C15.8922 13.0668 15.8308 12.9656 15.786 12.8453C15.7412 12.7251 15.7188 12.5876 15.7188 12.433ZM17.5018 11.4908H18.6531V11.7715H17.8407V12.2497H18.5274V12.5303H17.8407V13.083H18.6823V13.3637H17.5018V11.4908Z" fill="white"/>
<path d="M15.7524 2.76079C15.7294 2.74153 15.6969 2.73748 15.6697 2.75047L15.2533 2.94913L14.8626 2.50765C14.8481 2.49131 14.8271 2.48193 14.8051 2.48193C14.783 2.48193 14.7621 2.49131 14.7476 2.50765L14.3569 2.94913L13.9405 2.75047C13.9132 2.73748 13.8808 2.74153 13.8578 2.76079C13.8347 2.78004 13.8255 2.81083 13.8343 2.8392L14.1235 3.77137C14.1333 3.8028 14.1628 3.82425 14.1963 3.82425H15.4138C15.4474 3.82425 15.4769 3.8028 15.4866 3.77139L15.7758 2.8392C15.7846 2.81083 15.7754 2.78004 15.7524 2.76079ZM15.3575 3.67512H14.2527L14.0307 2.9594L14.3428 3.10829C14.3738 3.12306 14.411 3.1156 14.4336 3.09009L14.8051 2.67032L15.1766 3.09009C15.1992 3.11562 15.2364 3.12306 15.2674 3.10829L15.5795 2.9594L15.3575 3.67512Z" fill="white"/>
<path d="M22.4025 19.0909C22.2814 18.4967 22.2895 18.1734 22.4025 17.7546C22.6897 16.9485 23.0419 16.664 23.7662 16.2273C23.8577 16.8387 23.8297 17.1718 23.6688 17.7546C23.5242 18.1649 23.3409 18.3946 22.9869 18.8046L22.4025 19.0909Z" fill="#F2CB45"/>
<path d="M24.6383 17.4496C24.3582 16.9094 24.2772 16.5959 24.2708 16.1627C24.3255 15.3106 24.5865 14.9436 25.1639 14.3318C25.4203 14.8964 25.4848 15.2246 25.4902 15.8283C25.4639 16.2616 25.3504 16.5313 25.1222 17.0195L24.6383 17.4496Z" fill="#F2CB45"/>
<path d="M26.1438 15.0032C25.7243 14.5579 25.5593 14.2779 25.4329 13.8628C25.2492 13.0282 25.3984 12.6054 25.7842 11.8628C26.1876 12.3378 26.3407 12.6364 26.5135 13.2159C26.6086 13.6399 26.5741 13.9296 26.4901 14.4602L26.1438 15.0032Z" fill="#F2CB45"/>
<path d="M27.1013 12.3981C26.5482 12.1271 26.2928 11.9223 26.0248 11.5779C25.5516 10.861 25.5386 10.4138 25.6313 9.58545C26.1801 9.88991 26.4312 10.116 26.8019 10.5982C27.0438 10.9618 27.1163 11.2447 27.2293 11.7702L27.1013 12.3981Z" fill="#F2CB45"/>
<path d="M27.0991 9.91384C26.5165 9.71102 26.2373 9.53834 25.9284 9.22855C25.3695 8.57366 25.3009 8.1314 25.2898 7.2981C25.8723 7.53463 26.1497 7.72904 26.5777 8.16322C26.863 8.49523 26.9704 8.76733 27.1478 9.2753L27.0991 9.91384Z" fill="#F2CB45"/>
<path d="M26.6183 7.21016C26.001 7.1774 25.6834 7.08925 25.2975 6.87794C24.5721 6.40502 24.3786 5.99991 24.127 5.20386C24.754 5.26898 25.0762 5.37841 25.6123 5.67597C25.9819 5.91516 26.1634 6.14637 26.4806 6.5842L26.6183 7.21016Z" fill="#F2CB45"/>
<path d="M25.5207 4.724C24.9108 4.82352 24.5812 4.8051 24.1577 4.68099C23.345 4.37384 23.066 4.01965 22.644 3.29618C23.2705 3.22621 23.6093 3.26441 24.1986 3.44073C24.6124 3.59546 24.8407 3.78252 25.2474 4.14236L25.5207 4.724Z" fill="#F2CB45"/>
<path d="M23.7399 2.37657C23.122 2.39977 22.7975 2.3407 22.3934 2.16516C21.6267 1.75981 21.3956 1.37394 21.0703 0.604004C21.7009 0.612177 22.0319 0.692023 22.5937 0.93987C22.9936 1.12581 23.2262 1.30816 23.5437 1.76575C23.6528 1.93987 23.6875 2.09019 23.7399 2.37657Z" fill="#F2CB45"/>
<path d="M22.2466 19.477C22.7373 19.1083 23.0369 18.9728 23.4703 18.8873C24.3351 18.7841 24.751 18.9684 25.4704 19.4126C24.9511 19.7629 24.6337 19.8851 24.029 20.0008C23.3784 20.0905 23.0659 20.0342 22.7667 19.8645C22.5253 19.7154 22.4089 19.6306 22.2466 19.477Z" fill="#F2CB45"/>
<path d="M24.5842 17.759C25.0749 17.3902 25.3746 17.2548 25.808 17.1693C26.6727 17.0661 27.0886 17.2504 27.8081 17.6946C27.2887 18.0449 26.9714 18.1672 26.3667 18.2829C25.716 18.3726 25.4036 18.3163 25.1044 18.1466C24.863 17.9974 24.7465 17.9126 24.5842 17.759Z" fill="#F2CB45"/>
<path d="M26.1765 15.59C26.4171 15.0317 26.6092 14.7688 26.9427 14.4846C27.6424 13.9759 28.0969 13.9345 28.9464 13.9721C28.6716 14.5283 28.4573 14.7883 27.9901 15.1818C27.4698 15.575 27.1698 15.6775 26.824 15.6749C26.539 15.6622 26.3949 15.6449 26.1765 15.59Z" fill="#F2CB45"/>
<path d="M27.1572 12.9301C27.3092 12.3427 27.4588 12.0544 27.745 11.7242C28.3586 11.1181 28.8016 11.0102 29.6472 10.9221C29.4608 11.5125 29.289 11.8011 28.8875 12.2591C28.4334 12.7245 28.1527 12.8701 27.8104 12.9185C27.5268 12.948 27.3816 12.9522 27.1572 12.9301Z" fill="#F2CB45"/>
<path d="M27.3602 10.3102C27.2669 9.71111 27.2901 9.38851 27.4226 8.97519C27.7469 8.18278 28.112 7.91433 28.8558 7.5105C28.9189 8.12538 28.8752 8.45682 28.6874 9.03181C28.4543 9.63377 28.2534 9.87502 27.9575 10.0502C27.7078 10.1857 27.5757 10.2449 27.3602 10.3102Z" fill="#F2CB45"/>
<path d="M27.0774 7.63985C26.8547 7.07446 26.8066 6.75451 26.8454 6.32298C26.9882 5.48077 27.286 5.14167 27.9238 4.59058C28.1202 5.17783 28.1504 5.5107 28.0931 6.11182C27.9973 6.74882 27.8541 7.02677 27.6036 7.26021C27.3895 7.44509 27.2736 7.53067 27.0774 7.63985Z" fill="#F2CB45"/>
<path d="M26.1338 5.09055C25.7528 4.61328 25.6115 4.32096 25.5202 3.89716C25.4064 3.05069 25.5903 2.64126 26.0366 1.93188C26.3989 2.43755 26.5269 2.74733 26.6508 3.33873C26.7488 3.97543 26.6944 4.2822 26.5242 4.57708C26.3744 4.81511 26.2889 4.93009 26.1338 5.09055Z" fill="#F2CB45"/>
<path d="M24.8753 3.34306C24.4384 2.91437 24.2621 2.64087 24.1191 2.23099C23.9019 1.40417 24.0341 0.975987 24.3897 0.218994C24.8118 0.678069 24.977 0.970462 25.1728 1.54286C25.3485 2.16333 25.3323 2.47429 25.1996 2.78717C25.0802 3.04115 25.0095 3.16541 24.8753 3.34306Z" fill="#F2CB45"/>
<path d="M7.486 19.0909C7.60713 18.4967 7.59895 18.1734 7.486 17.7546C7.1989 16.9485 6.84665 16.664 6.12237 16.2273C6.03085 16.8387 6.05892 17.1718 6.21977 17.7546C6.36426 18.1649 6.54769 18.3946 6.90159 18.8046L7.486 19.0909Z" fill="#F2CB45"/>
<path d="M5.25028 17.4496C5.53035 16.9094 5.61141 16.5959 5.6178 16.1627C5.563 15.3106 5.30204 14.9436 4.72466 14.3318C4.46837 14.8964 4.40381 15.2246 4.39844 15.8283C4.42472 16.2616 4.53819 16.5313 4.76625 17.0195L5.25028 17.4496Z" fill="#F2CB45"/>
<path d="M3.74497 15.0032C4.16444 14.5579 4.32944 14.2779 4.45583 13.8628C4.63961 13.0282 4.49033 12.6054 4.10454 11.8628C3.7012 12.3378 3.548 12.6364 3.37525 13.2159C3.28028 13.6399 3.31463 13.9296 3.39857 14.4602L3.74497 15.0032Z" fill="#F2CB45"/>
<path d="M2.78765 12.3981C3.34073 12.1271 3.59617 11.9223 3.86425 11.5779C4.33743 10.861 4.35042 10.4138 4.25769 9.58545C3.70895 9.88991 3.45788 10.116 3.08709 10.5982C2.84516 10.9618 2.77269 11.2447 2.65967 11.7702L2.78765 12.3981Z" fill="#F2CB45"/>
<path d="M2.78954 9.91384C3.37224 9.71102 3.65128 9.53834 3.96024 9.22855C4.51916 8.57366 4.58777 8.1314 4.59891 7.2981C4.01635 7.53463 3.73898 7.72904 3.31092 8.16322C3.02551 8.49523 2.91835 8.76733 2.74072 9.2753L2.78954 9.91384Z" fill="#F2CB45"/>
<path d="M3.27026 7.21016C3.88774 7.1774 4.20525 7.08925 4.5911 6.87794C5.31644 6.40502 5.51008 5.99991 5.76163 5.20386C5.13455 5.26898 4.81236 5.37841 4.27632 5.67597C3.90663 5.91516 3.72521 6.14637 3.40803 6.5842L3.27026 7.21016Z" fill="#F2CB45"/>
<path d="M4.36792 4.724C4.97787 4.82352 5.30737 4.8051 5.73083 4.68099C6.54372 4.37384 6.82254 4.01965 7.24459 3.29618C6.61805 3.22621 6.27931 3.26441 5.69008 3.44073C5.27622 3.59546 5.04785 3.78252 4.64115 4.14236L4.36792 4.724Z" fill="#F2CB45"/>
<path d="M6.14893 2.37657C6.76683 2.39977 7.0913 2.3407 7.49538 2.16516C8.26213 1.75981 8.49308 1.37394 8.81848 0.604004C8.18793 0.612177 7.85682 0.692023 7.29506 0.93987C6.89517 1.12581 6.66249 1.30816 6.345 1.76575C6.23581 1.93987 6.20123 2.09019 6.14893 2.37657Z" fill="#F2CB45"/>
<path d="M7.64214 19.477C7.15143 19.1083 6.85176 18.9728 6.41843 18.8873C5.55362 18.7841 5.13767 18.9684 4.41821 19.4126C4.93772 19.7629 5.25508 19.8851 5.85971 20.0008C6.51034 20.0905 6.82283 20.0342 7.12205 19.8645C7.36345 19.7154 7.47993 19.6306 7.64214 19.477Z" fill="#F2CB45"/>
<path d="M5.3045 17.759C4.81378 17.3902 4.51411 17.2548 4.08079 17.1693C3.21597 17.0661 2.80002 17.2504 2.08057 17.6946C2.60007 18.0449 2.91743 18.1672 3.52207 18.2829C4.1727 18.3726 4.48518 18.3163 4.7844 18.1466C5.02581 17.9974 5.14228 17.9126 5.3045 17.759Z" fill="#F2CB45"/>
<path d="M3.71206 15.59C3.47153 15.0317 3.27939 14.7688 2.94583 14.4846C2.24615 13.9759 1.79164 13.9345 0.942139 13.9721C1.21701 14.5283 1.43118 14.7883 1.8984 15.1818C2.41872 15.575 2.71872 15.6775 3.06445 15.6749C3.3495 15.6622 3.49358 15.6449 3.71206 15.59Z" fill="#F2CB45"/>
<path d="M2.73142 12.9301C2.57933 12.3427 2.42976 12.0544 2.14365 11.7242C1.53004 11.1181 1.08706 11.0102 0.241455 10.9221C0.4278 11.5125 0.599604 11.8011 1.00108 12.2591C1.4551 12.7245 1.73596 12.8701 2.07812 12.9185C2.36189 12.948 2.50698 12.9522 2.73142 12.9301Z" fill="#F2CB45"/>
<path d="M2.52815 10.3102C2.62149 9.71111 2.59828 9.38851 2.46593 8.97519C2.1416 8.18278 1.77648 7.91433 1.03262 7.5105C0.969666 8.12538 1.01321 8.45682 1.20103 9.03181C1.43427 9.63377 1.63512 9.87502 1.93102 10.0502C2.18068 10.1857 2.31266 10.2449 2.52815 10.3102Z" fill="#F2CB45"/>
<path d="M2.81136 7.63985C3.03391 7.07446 3.08199 6.75451 3.04341 6.32298C2.90047 5.48077 2.60274 5.14167 1.96485 4.59058C1.76851 5.17783 1.73834 5.5107 1.79564 6.11182C1.8914 6.74882 2.03463 7.02677 2.28519 7.26021C2.4993 7.44509 2.61523 7.53067 2.81136 7.63985Z" fill="#F2CB45"/>
<path d="M3.75504 5.09055C4.1361 4.61328 4.27725 4.32096 4.3687 3.89716C4.48246 3.05069 4.29855 2.64126 3.85227 1.93188C3.48977 2.43755 3.3619 2.74733 3.23793 3.33873C3.14006 3.97543 3.19441 4.2822 3.36465 4.57708C3.51448 4.81511 3.59992 4.93009 3.75504 5.09055Z" fill="#F2CB45"/>
<path d="M5.01322 3.34306C5.45026 2.91437 5.62641 2.64087 5.76939 2.23099C5.9866 1.40417 5.85446 0.975987 5.49885 0.218994C5.0767 0.678069 4.91161 0.970462 4.71569 1.54286C4.54009 2.16333 4.55624 2.47429 4.68893 2.78717C4.80832 3.04115 4.87898 3.16541 5.01322 3.34306Z" fill="#F2CB45"/>
</svg>
