<svg width="150" height="243" viewBox="0 0 150 243" fill="none" xmlns="http://www.w3.org/2000/svg">
<path d="M15.172 111.517V101.827H4.81291V111.517H0V88.52H4.81291V97.8589H15.172V88.52H19.985V111.517H15.172ZM37.1173 105.938H29.0372L27.2841 111.517H22.3436L30.3281 88.52H35.9858L43.9862 111.517H38.8704L37.1173 105.938ZM30.0731 102.337H36.0814L33.133 92.9181H33.0215L30.0731 102.337ZM49.6439 104.967C49.7501 105.902 50.2495 106.662 51.1419 107.245C52.0238 107.819 53.1075 108.106 54.393 108.106C55.668 108.106 56.7093 107.83 57.5167 107.278C58.3137 106.735 58.712 106.04 58.712 105.19C58.712 104.447 58.4146 103.845 57.8196 103.388C57.2246 102.933 56.2312 102.549 54.8394 102.242L51.8431 101.588C47.6252 100.685 45.5162 98.5443 45.5162 95.1661C45.5162 93.0623 46.3396 91.3569 47.9864 90.0499C49.6226 88.7648 51.7316 88.1215 54.3133 88.1215C56.9696 88.1215 59.0946 88.7539 60.6883 90.0173C62.2607 91.2712 63.0682 92.9453 63.1107 95.0383H58.6005C58.5261 94.0714 58.0958 93.3057 57.3096 92.7427C56.534 92.1905 55.5406 91.9145 54.3294 91.9145C53.1394 91.9145 52.1831 92.1742 51.4607 92.6951C50.7275 93.2159 50.361 93.9014 50.361 94.7513C50.361 95.4531 50.6586 96.0256 51.2534 96.4731C51.8378 96.8974 52.7941 97.2646 54.1221 97.5719L56.9111 98.1621C59.2167 98.6503 60.8954 99.416 61.9472 100.456C62.9991 101.487 63.525 102.878 63.525 104.633C63.525 106.863 62.6857 108.632 61.0069 109.939C59.3283 111.257 57.0599 111.915 54.2018 111.915C51.4289 111.915 49.2242 111.299 47.5879 110.067C45.9411 108.824 45.0806 107.124 45.0062 104.967H49.6439ZM81.6619 111.517V101.827H71.3017V111.517H66.4893V88.52H71.3017V97.8589H81.6619V88.52H86.4748V111.517H81.6619ZM100.053 88.1528C103.261 88.1528 105.807 89.2204 107.686 91.3569C109.567 93.492 110.508 96.3819 110.508 100.027C110.508 103.67 109.567 106.556 107.686 108.68C105.807 110.815 103.261 111.884 100.053 111.884C96.8445 111.884 94.3041 110.815 92.4355 108.68C90.5547 106.556 89.6136 103.67 89.6136 100.027C89.6136 96.3819 90.5547 93.492 92.4355 91.3569C94.315 89.2204 96.8554 88.1528 100.053 88.1528ZM100.053 90.1778C97.5354 90.1778 95.5376 91.0645 94.0607 92.8392C92.5838 94.6126 91.8453 97.0089 91.8453 100.027C91.8453 103.034 92.5838 105.424 94.0607 107.198C95.5485 108.972 97.5449 109.859 100.053 109.859C102.571 109.859 104.573 108.972 106.061 107.198C107.538 105.424 108.276 103.034 108.276 100.027C108.276 97.0089 107.538 94.6126 106.061 92.8392C104.573 91.0645 102.571 90.1778 100.053 90.1778ZM113.903 111.517V88.52H116.054L129.537 107.724H129.648V88.52H131.8V111.517H129.696L116.165 92.2966H116.054V111.517H113.903ZM150 111.517H136.119V88.52H150V90.496H138.285V98.7673H149.41V100.712H138.285V109.541H150V111.517Z" fill="white"/>
<path d="M41.9045 50.6771C43.3223 49.2593 45.6209 49.2593 47.0387 50.6771L58.1622 61.8008C59.5799 63.2184 59.5799 65.517 58.1622 66.9347C56.7446 68.3524 54.446 68.3524 53.0282 66.9347L41.9045 55.8111C40.4869 54.3933 40.4869 52.0947 41.9045 50.6771Z" fill="url(#paint0_linear)"/>
<path d="M43.1142 31.3156C44.532 29.8979 46.8306 29.8979 48.2484 31.3156L77.3409 60.4082C78.758 61.826 78.758 64.1244 77.3409 65.5422C75.9239 66.96 73.6242 66.96 72.2071 65.5422L43.1142 36.4496C41.6966 35.0319 41.6966 32.7333 43.1142 31.3156Z" fill="url(#paint1_linear)"/>
<path d="M72.1568 2.27324C73.5739 0.855616 75.8723 0.855616 77.2907 2.27324L106.383 31.366C107.801 32.7837 107.801 35.0822 106.383 36.4999C104.966 37.9177 102.668 37.9177 101.249 36.4999L72.1568 7.40737C70.7384 5.98961 70.7384 3.691 72.1568 2.27324Z" fill="url(#paint2_linear)"/>
<path d="M91.5194 1.06322C92.9365 -0.354406 95.2348 -0.354406 96.6533 1.06322L107.776 12.1869C109.195 13.6047 109.195 15.9033 107.776 17.3209C106.359 18.7386 104.061 18.7386 102.643 17.3209L91.5194 6.19735C90.101 4.77959 90.101 2.48098 91.5194 1.06322Z" fill="url(#paint3_linear)"/>
<path d="M87.4497 30.8371C86.0327 29.4194 83.7343 29.4194 82.3159 30.8371L71.8673 41.2864C70.4489 42.7042 70.4489 45.0028 71.8673 46.4204L84.2552 58.8086C85.6723 60.2263 87.9706 60.2263 89.389 58.8086L91.9526 56.2452L81.9256 46.2188C80.4595 44.7524 80.4595 42.3746 81.9256 40.9082C83.3916 39.4417 85.7702 39.4417 87.2362 40.9082L97.2632 50.9345L99.8376 48.3591C101.256 46.9415 101.256 44.6429 99.8376 43.2252L87.4497 30.8371Z" fill="url(#paint4_linear)"/>
<path d="M80.336 49.758C81.7544 48.3403 84.0528 48.3403 85.4712 49.758L96.5944 60.8817C98.0114 62.2995 98.0114 64.5979 96.5944 66.0157C95.1773 67.4334 92.8776 67.4334 91.4605 66.0157L80.336 54.892C78.9189 53.4743 78.9189 51.1758 80.336 49.758Z" fill="url(#paint5_linear)"/>
<path d="M90.7857 39.3098C92.2042 37.892 94.5025 37.892 95.9196 39.3098L107.044 50.4334C108.461 51.8511 108.461 54.1497 107.044 55.5674C105.626 56.9851 103.327 56.9851 101.91 55.5674L90.7857 44.4438C89.3686 43.026 89.3686 40.7275 90.7857 39.3098Z" fill="url(#paint6_linear)"/>
<path d="M61.498 36.242C62.9157 37.6598 65.2143 37.6598 66.632 36.242L77.0814 25.7926C78.4985 24.375 78.4985 22.0764 77.0814 20.6586L64.6932 8.2706C63.2756 6.85284 60.977 6.85284 59.5592 8.2706L56.996 10.8339L67.0223 20.8602C68.4889 22.3267 68.4889 24.7044 67.0223 26.1708C65.5558 27.6374 63.1782 27.6374 61.7116 26.1708L51.6853 16.1445L49.11 18.7199C47.6922 20.1376 47.6922 22.4362 49.11 23.8539L61.498 36.242Z" fill="url(#paint7_linear)"/>
<path d="M68.6114 17.3209C67.1937 18.7386 64.8951 18.7386 63.4774 17.3209L52.3538 6.19731C50.9361 4.77955 50.9361 2.48094 52.3538 1.06332C53.7715 -0.35444 56.0701 -0.35444 57.4878 1.06332L68.6114 12.1869C70.0298 13.6046 70.0298 15.9032 68.6114 17.3209Z" fill="url(#paint8_linear)"/>
<path d="M46.5981 11.1358V13.4949C46.5981 13.7608 46.6857 14.0192 46.8473 14.2304L48.8124 16.798C49.2469 17.3658 50.0764 17.4351 50.599 16.9473L51.5689 16.042L58.1623 22.6353C59.5801 24.053 59.5801 26.3516 58.1623 27.7693C56.7445 29.1869 54.4461 29.1869 53.0283 27.7693L41.9046 16.6457C40.4869 15.2279 40.4869 12.9293 41.9046 11.5117C43.1834 10.2329 45.1789 10.1075 46.5981 11.1358Z" fill="url(#paint9_linear)"/>
<path d="M0 173.776H4.54708V187.753H6.54866V173.776H11.248V171.841H0V173.776ZM13.3809 187.753H15.3825V181.036H22.4098V187.753H24.4113V171.841H22.4098V179.101H15.3825V171.841H13.3809V187.753ZM27.2335 184.97C27.2335 187.557 28.9522 187.905 30.3882 187.818C30.3882 187.818 36.741 187.514 37.0674 187.448V185.883H30.584C29.953 185.883 29.2351 185.905 29.2351 184.753V180.905L36.1754 180.688V179.08L29.2351 178.862V175.015C29.2351 174.428 29.2351 173.797 30.3664 173.797H37.0674V172.189C36.6975 172.145 30.1706 171.841 30.1706 171.841C28.6912 171.798 27.2335 172.515 27.2335 174.797V184.97ZM44.7122 177.08C44.7122 178.775 45.082 180.949 48.6501 180.949H51.5437C52.8926 180.949 53.2189 181.753 53.2189 182.905V184.21C53.2189 185.927 51.5654 185.992 50.6734 185.992C48.6501 185.992 46.0611 185.84 45.1908 185.753V187.361C46.3874 187.622 49.3245 187.927 50.8257 187.927C52.9796 187.927 55.2205 187.405 55.2205 184.166V182.818C55.2205 181.036 54.6983 178.949 51.7395 178.949H48.8024C47.5187 178.949 46.7138 178.753 46.7138 176.971V175.71C46.7138 173.732 47.7798 173.602 49.2593 173.645C49.4768 173.645 53.2624 173.776 54.6548 173.863V172.276C53.7193 172.102 50.4994 171.711 49.0199 171.711C46.5832 171.732 44.7122 172.493 44.7122 175.645V177.08ZM56.6005 173.776H61.1475V187.753H63.1491V173.776H67.8485V171.841H56.6005V173.776ZM66.7781 187.753H69.106L70.4549 183.579H76.5032L77.8086 187.753H80.093L74.6104 171.841H72.5L66.7781 187.753ZM71.1076 181.666L73.5443 174.732L75.894 181.666H71.1076ZM82.177 187.753H84.2004V175.602L92.1197 187.753H94.1213V171.841H92.1197V184.036L84.2221 171.841H82.177V187.753ZM96.9433 187.753H103.1C107.212 187.753 108.713 183.775 108.713 179.862C108.713 176.428 107.908 171.841 103.1 171.841H96.9433V187.753ZM98.9448 185.796V173.754H103.035C105.341 173.754 106.712 175.297 106.712 179.84C106.712 183.166 105.668 185.796 103.035 185.796H98.9448ZM109.377 187.753H111.705L113.054 183.579H119.102L120.407 187.753H122.692L117.209 171.841H115.099L109.377 187.753ZM113.707 181.666L116.143 174.732L118.493 181.666H113.707ZM124.406 187.753H126.408V181.079L130.302 181.384L133.457 187.753H135.654L132.391 181.275C133.087 181.145 135.11 180.753 135.11 176.688C135.11 173.015 133.435 171.841 131.238 171.841H124.406V187.753ZM126.408 179.384V173.776H131.172C132.13 173.776 133.087 174.123 133.087 176.688C133.087 179.319 132.173 179.384 131.172 179.384H126.408ZM137.736 187.753H143.893C148.005 187.753 149.507 183.775 149.507 179.862C149.507 176.428 148.702 171.841 143.893 171.841H137.736V187.753ZM139.738 185.796V173.754H143.828C146.134 173.754 147.505 175.297 147.505 179.84C147.505 183.166 146.461 185.796 143.828 185.796H139.738ZM14.73 214.924H16.7316V208.077L23.6719 207.86V206.251L16.7316 206.034V202.186C16.7316 201.599 16.7316 200.969 17.863 200.969H24.5639V199.36C24.194 199.317 17.6671 199.013 17.6671 199.013C16.1442 198.969 14.73 199.73 14.73 201.991V214.924ZM26.3447 207.077C26.3447 214.316 28.6726 215.011 32.5887 215.011C36.5049 215.011 38.7893 214.098 38.7893 207.077C38.7893 199.621 36.3526 198.904 32.5887 198.904C28.9337 198.904 26.3447 199.621 26.3447 207.077ZM28.3462 207.077C28.3462 200.969 29.8474 200.839 32.5887 200.839C35.3953 200.839 36.7877 201.012 36.7877 207.077C36.7877 212.185 35.7652 213.077 32.5887 213.077C29.347 213.077 28.3462 212.338 28.3462 207.077ZM40.9394 214.924H42.941V208.251L46.8354 208.555L49.9901 214.924H52.1875L48.924 208.447C49.6202 208.316 51.6436 207.925 51.6436 203.86C51.6436 200.186 49.9683 199.013 47.7709 199.013H40.9394V214.924ZM42.941 206.555V200.947H47.7057C48.6629 200.947 49.6202 201.295 49.6202 203.86C49.6202 206.49 48.7065 206.555 47.7057 206.555H42.941ZM59.2083 206.925C59.2083 211.707 60.5137 215.055 64.5386 215.055C65.9963 215.076 68.4113 214.881 69.9125 214.555V212.968C69.9125 212.968 67.0189 213.12 64.7344 213.12C61.9496 213.12 61.2099 210.533 61.2099 206.968C61.2099 201.817 62.1454 200.773 64.7344 200.773C66.7795 200.773 69.8907 201.034 69.9125 201.034V199.447C68.346 199.1 65.9746 198.839 64.5386 198.839C60.2091 198.839 59.2083 201.838 59.2083 206.925ZM71.8745 214.924H73.8761V208.251L77.7705 208.555L80.9251 214.924H83.1225L79.8591 208.447C80.5553 208.316 82.5786 207.925 82.5786 203.86C82.5786 200.186 80.9034 199.013 78.706 199.013H71.8745V214.924ZM73.8761 206.555V200.947H78.6407C79.598 200.947 80.5553 201.295 80.5553 203.86C80.5553 206.49 79.6415 206.555 78.6407 206.555H73.8761ZM83.8496 199.013L88.8535 209.468V214.924H90.8551V209.468L96.2942 199.013H94.0968L89.8543 207.164L86.0252 199.013H83.8496ZM98.0284 214.924H100.03V208.186C100.139 208.251 103.794 208.62 104.664 208.62C106.339 208.642 108.645 208.338 108.645 203.708C108.645 199.708 106.448 199.013 104.664 199.013H98.0284V214.924ZM100.03 206.708V200.947H104.599C105.36 200.947 106.579 201.143 106.622 203.73C106.622 206.338 105.687 206.708 104.599 206.708H100.03ZM110.429 200.947H114.976V214.924H116.977V200.947H121.677V199.013H110.429V200.947ZM123.08 207.077C123.08 214.316 125.408 215.011 129.324 215.011C133.24 215.011 135.524 214.098 135.524 207.077C135.524 199.621 133.088 198.904 129.324 198.904C125.669 198.904 123.08 199.621 123.08 207.077ZM125.081 207.077C125.081 200.969 126.583 200.839 129.324 200.839C132.131 200.839 133.523 201.012 133.523 207.077C133.523 212.185 132.5 213.077 129.324 213.077C126.082 213.077 125.081 212.338 125.081 207.077ZM14.0491 234.097C14.0491 238.879 15.3544 242.226 19.3794 242.226C20.837 242.248 23.252 242.052 24.7532 241.726V240.14C24.7532 240.14 21.8596 240.292 19.5752 240.292C16.7904 240.292 16.0506 237.705 16.0506 234.14C16.0506 228.988 16.9862 227.945 19.5752 227.945C21.6203 227.945 24.7314 228.206 24.7532 228.206V226.619C23.1867 226.271 20.8153 226.01 19.3794 226.01C15.0499 226.01 14.0491 229.01 14.0491 234.097ZM26.1216 234.249C26.1216 241.487 28.4495 242.183 32.3656 242.183C36.2818 242.183 38.5662 241.27 38.5662 234.249C38.5662 226.793 36.1295 226.076 32.3656 226.076C28.7106 226.076 26.1216 226.793 26.1216 234.249ZM28.1231 234.249C28.1231 228.141 29.6243 228.01 32.3656 228.01C35.1722 228.01 36.5646 228.184 36.5646 234.249C36.5646 239.357 35.5421 240.248 32.3656 240.248C29.1239 240.248 28.1231 239.509 28.1231 234.249ZM41.0862 242.096H43.1095V229.945L51.0289 242.096H53.0304V226.184H51.0289V238.379L43.1313 226.184H41.0862V242.096ZM55.5479 231.423C55.5479 233.118 55.9178 235.292 59.4858 235.292H62.3794C63.7283 235.292 64.0546 236.096 64.0546 237.248V238.553C64.0546 240.27 62.4012 240.335 61.5092 240.335C59.4858 240.335 56.8968 240.183 56.0266 240.096V241.705C57.2232 241.965 60.1603 242.27 61.6615 242.27C63.8153 242.27 66.0562 241.748 66.0562 238.509V237.162C66.0562 235.379 65.5341 233.292 62.5752 233.292H59.6381C58.3545 233.292 57.5495 233.097 57.5495 231.314V230.053C57.5495 228.075 58.6156 227.945 60.095 227.988C60.3126 227.988 64.0982 228.119 65.4906 228.206V226.619C64.555 226.445 61.3351 226.054 59.8557 226.054C57.419 226.076 55.5479 226.836 55.5479 229.988V231.423ZM68.5791 235.14C68.5791 242.378 71.5814 242.205 74.5406 242.205C77.1731 242.205 80.393 242.161 80.393 235.14V226.184H78.3697V235.14C78.3697 240.053 76.6727 240.27 74.5406 240.27C72.0821 240.27 70.5806 240.205 70.5806 235.14V226.184H68.5791V235.14ZM83.2177 239.27C83.2177 241.726 84.7624 242.096 86.2854 242.096H92.8993V240.161H86.5682C85.9373 240.161 85.2193 240.183 85.2193 239.031V226.184H83.2177V239.27ZM91.8913 228.119H96.4383V242.096H98.4399V228.119H103.139V226.184H91.8913V228.119ZM105.271 242.096H107.273V226.184H105.271V242.096ZM110.095 242.096H112.118V229.945L120.038 242.096H122.039V226.184H120.038V238.379L112.14 226.184H110.095V242.096ZM124.361 234.053C124.361 238.661 125.035 242.292 129.539 242.205C131.453 242.205 132.737 241.552 133.52 241.031L133.999 242.096H135.478V233.553C134.956 233.51 134.456 233.488 133.999 233.488C132.302 233.488 131.105 233.749 130.213 234.031V235.336H133.477V239.292C133.477 239.292 131.301 240.313 129.691 240.292C127.146 240.248 126.362 238.748 126.362 234.097C126.362 229.836 126.928 227.923 129.669 227.923C131.91 227.923 135.043 228.206 135.174 228.206V226.641C133.433 226.271 130.953 226.01 129.474 226.01C125.144 226.01 124.361 229.64 124.361 234.053Z" fill="white"/>
<defs>
<linearGradient id="paint0_linear" x1="99.2367" y1="8.78197" x2="49.0183" y2="59.0009" gradientUnits="userSpaceOnUse">
<stop offset="0.00264941" stop-color="#783E97"/>
<stop offset="0.888832" stop-color="#32B0E5"/>
</linearGradient>
<linearGradient id="paint1_linear" x1="99.2363" y1="8.78203" x2="49.018" y2="59.0009" gradientUnits="userSpaceOnUse">
<stop offset="0.00264941" stop-color="#783E97"/>
<stop offset="0.888832" stop-color="#32B0E5"/>
</linearGradient>
<linearGradient id="paint2_linear" x1="99.2364" y1="8.78202" x2="49.0181" y2="59.0009" gradientUnits="userSpaceOnUse">
<stop offset="0.00264941" stop-color="#783E97"/>
<stop offset="0.888832" stop-color="#32B0E5"/>
</linearGradient>
<linearGradient id="paint3_linear" x1="99.2372" y1="8.78209" x2="49.0188" y2="59.001" gradientUnits="userSpaceOnUse">
<stop offset="0.00264941" stop-color="#783E97"/>
<stop offset="0.888832" stop-color="#32B0E5"/>
</linearGradient>
<linearGradient id="paint4_linear" x1="99.2365" y1="8.78221" x2="49.0182" y2="59.0011" gradientUnits="userSpaceOnUse">
<stop offset="0.00264941" stop-color="#783E97"/>
<stop offset="0.888832" stop-color="#32B0E5"/>
</linearGradient>
<linearGradient id="paint5_linear" x1="99.2368" y1="8.7821" x2="49.0184" y2="59.001" gradientUnits="userSpaceOnUse">
<stop offset="0.00264941" stop-color="#783E97"/>
<stop offset="0.888832" stop-color="#32B0E5"/>
</linearGradient>
<linearGradient id="paint6_linear" x1="99.2365" y1="8.78218" x2="49.0182" y2="59.0011" gradientUnits="userSpaceOnUse">
<stop offset="0.00264941" stop-color="#783E97"/>
<stop offset="0.888832" stop-color="#32B0E5"/>
</linearGradient>
<linearGradient id="paint7_linear" x1="99.2365" y1="8.78208" x2="49.0182" y2="59.001" gradientUnits="userSpaceOnUse">
<stop offset="0.00264941" stop-color="#783E97"/>
<stop offset="0.888832" stop-color="#32B0E5"/>
</linearGradient>
<linearGradient id="paint8_linear" x1="99.2363" y1="8.78206" x2="49.018" y2="59.001" gradientUnits="userSpaceOnUse">
<stop offset="0.00264941" stop-color="#783E97"/>
<stop offset="0.888832" stop-color="#32B0E5"/>
</linearGradient>
<linearGradient id="paint9_linear" x1="99.2367" y1="8.78208" x2="49.0183" y2="59.001" gradientUnits="userSpaceOnUse">
<stop offset="0.00264941" stop-color="#783E97"/>
<stop offset="0.888832" stop-color="#32B0E5"/>
</linearGradient>
</defs>
</svg>
