<svg width="60" height="30" viewBox="0 0 60 30" fill="none" xmlns="http://www.w3.org/2000/svg">
<path d="M49.222 23.4763C49.4928 23.7479 49.6276 24.1877 49.6276 24.7944V27.8811H48.901V24.8015C48.901 24.4252 48.8211 24.1406 48.6577 23.9525C48.493 23.7655 48.2389 23.6715 47.8917 23.6715C47.442 23.6715 47.1067 23.7973 46.8896 24.0536C46.6725 24.3123 46.5663 24.7051 46.5663 25.2377V27.8776H45.8409V24.8015C45.8409 24.4228 45.7586 24.1406 45.5964 23.9513C45.4329 23.762 45.1752 23.6691 44.8292 23.6691C44.3735 23.6691 44.0395 23.8043 43.8283 24.0736C43.6159 24.3429 43.5086 24.7838 43.5086 25.3965V27.8776H42.782V23.1482H43.3737L43.4942 23.7961H43.5276C43.6648 23.5668 43.8557 23.3869 44.1075 23.2576C44.3592 23.1282 44.636 23.0624 44.9462 23.0624C45.6966 23.0624 46.1881 23.3305 46.416 23.8655H46.4506C46.5949 23.6174 46.8001 23.4222 47.0721 23.2799C47.3453 23.1353 47.6519 23.0624 47.9991 23.0624C48.5455 23.0612 48.9511 23.1999 49.222 23.4763ZM19.1111 6.05809L19.1052 6.08513H19.1111V6.05809ZM23.1805 23.7032C23.5265 24.1324 23.6995 24.7333 23.6995 25.507C23.6995 26.2831 23.5241 26.8875 23.1722 27.3178C22.8202 27.747 22.3311 27.9634 21.7072 27.9634C21.3946 27.9634 21.1094 27.9069 20.8506 27.7917C20.5917 27.6777 20.3757 27.5025 20.2004 27.2696H20.1479C20.1837 27.5436 20.2004 27.8082 20.2004 28.0551V29.9988H19.4726V23.1458H20.0644L20.1646 23.7949H20.2004C20.3865 23.5362 20.6048 23.3493 20.8518 23.2329C21.0999 23.1164 21.385 23.06 21.706 23.06C22.3442 23.0612 22.8346 23.2764 23.1805 23.7032ZM22.9467 25.5011C22.9467 24.9097 22.8286 24.4569 22.5936 24.1442C22.3585 23.8314 22.0281 23.6726 21.601 23.6726C21.1106 23.6726 20.7563 23.8043 20.5368 24.0748C20.3173 24.3429 20.2051 24.7662 20.2004 25.3518V25.5117C20.2004 26.1761 20.3125 26.6523 20.5368 26.938C20.7611 27.2249 21.1214 27.3672 21.6189 27.3672C22.034 27.3672 22.3585 27.2003 22.5924 26.8698C22.8298 26.5382 22.9467 26.0808 22.9467 25.5011ZM59.8972 13.051C60.4006 13.4919 58.8915 14.8407 58.8915 14.8407C57.2737 16.6844 56.787 17.156 56.787 17.156C56.3324 17.6592 56.0974 17.7745 55.6774 17.925C55.2551 18.0743 54.4188 18.1719 54.4188 18.1719C30.9245 20.4296 20.4211 16.9878 20.4211 16.9878C17.8334 16.1353 15.1431 14.8219 14.4297 14.4644C13.9811 14.903 13.6876 15.1417 13.6876 15.1417C10.167 18.032 6.36839 18.226 6.36839 18.226L5.921 18.2001C5.75517 18.2025 5.59411 18.1966 5.43782 18.1872C5.61678 18.2001 5.72534 18.2001 5.72534 18.2001L6.1441 18.226H5.89356C3.32378 18.226 1.73108 17.0983 1.73108 17.0983C0 15.886 0 13.7389 0 13.7389C0.0572654 11.8939 1.84562 10.6557 1.84562 10.6557C3.54926 9.47164 5.61678 9.58217 5.61678 9.58217C8.13049 9.66448 12.2095 11.4271 12.2095 11.4271C12.5829 11.5717 12.9706 11.7164 13.3631 11.8587C14.2877 10.6381 14.8365 9.58217 14.8365 9.58217C15.5344 8.23345 15.8136 7.1587 15.8136 7.1587H6.23238V6.08513H10.7575V3.66284H4.47147V2.58809H10.7575V0.633795C10.7575 0.303375 11.5115 0.137576 11.5115 0.137576L12.2381 0.083487H13.9417V2.58809H20.4521V3.66284H13.9417V6.08513H19.1052L18.9441 6.9106C18.6924 8.01239 18.2175 9.11418 18.2175 9.11418C17.6175 10.5276 16.7788 11.7693 15.9866 12.7547C18.2366 13.4861 20.1168 14.0152 20.1168 14.0152C21.0057 14.2668 22.0197 14.4738 23.1066 14.6467V5.56305C23.1066 5.56305 21.9052 6.16862 20.8708 6.55431L20.4521 5.89229C20.4521 5.89229 21.5413 5.14914 22.6306 4.10379C22.6306 4.10379 24.7816 1.98252 24.7816 0.551483C24.7816 0.551483 24.7816 0.221064 25.5356 0.0564422L26.2621 0.00117635H27.7141L27.6592 0.524439L27.2953 1.81907C27.2953 1.81907 26.904 2.6998 26.317 3.38769V15.037C28.5146 15.2393 30.8016 15.3392 32.8536 15.3792V4.76463H26.8193V3.66401H32.8536V0.55266C32.8536 0.22224 33.6088 0.0576174 33.6088 0.0576174L34.3342 0.00235157H36.0653V3.66519H37.7403V4.76581H36.0653V15.4063C38.2902 15.3957 39.7791 15.3381 39.7791 15.3381C41.7643 15.2593 43.6326 15.1429 45.3673 15.0076V9.58335H41.0378V8.48156H45.3673V5.72884H39.0836V1.70854C39.0836 1.26759 40.5916 1.15823 40.5916 1.15823H42.1008V1.76381L45.3685 1.65445V0.553835C45.3685 0.223415 46.1249 0.0587938 46.1249 0.0587938L46.8502 0.00352792H48.5813V1.54509L53.6099 1.3793C55.0332 1.3793 55.0642 2.70215 55.0642 2.70215L54.8125 4.51887C54.5632 5.17971 54.142 5.17971 54.142 5.17971H54.0036V5.73002H48.5837V8.48274H53.1936V9.58453H48.5837V14.7196C55.1859 14.0481 59.1718 13.1639 59.1718 13.1639L59.8972 13.051ZM4.88187 18.1296C3.49915 17.9156 2.59961 17.3194 2.59961 17.3194C2.53399 17.2771 2.47076 17.2324 2.40992 17.1877C2.49224 17.2583 2.54354 17.2924 2.54354 17.2924C3.29157 17.8097 4.22093 18.0332 4.88187 18.1296ZM12.1224 13.3062L9.64086 12.0609C8.95726 11.7975 9.11712 11.8587 7.71293 11.3178C6.46979 10.838 5.22666 11.0426 5.22666 11.0426C5.16343 11.0426 5.10139 11.0461 5.03935 11.0485C2.0699 11.774 2.0699 13.7671 2.0699 13.7671C2.0699 15.4192 3.38224 16.2164 3.38224 16.2164C4.44403 16.8232 6.0916 16.8232 6.0916 16.8232C8.32734 16.8232 11.7907 13.6307 11.7907 13.6307C11.904 13.5225 12.0138 13.4143 12.1224 13.3062ZM52.0757 4.65292L52.2988 2.97378C52.2725 2.50578 51.8252 2.53283 51.8252 2.53283L48.5861 2.64336L45.3733 2.78094V2.75389L42.1044 2.8362V4.65292H52.0757ZM27.4182 23.4469C27.6926 23.6973 27.8322 24.0983 27.8322 24.6498V27.8787H27.2929L27.1497 27.2038H27.114C26.8742 27.5001 26.6356 27.7 26.3981 27.807C26.1595 27.9128 25.8625 27.9657 25.5058 27.9657C25.0297 27.9657 24.6587 27.8435 24.3867 27.6012C24.1171 27.3578 23.9823 27.0133 23.9823 26.57C23.9823 25.6152 24.7577 25.1143 26.3075 25.0696L27.1223 25.0437V24.7521C27.1223 24.3805 27.0412 24.1054 26.8777 23.9302C26.7167 23.7526 26.4566 23.6621 26.1011 23.6621C25.7014 23.6621 25.2493 23.7843 24.7434 24.0266L24.5191 23.4774C24.7565 23.3516 25.0154 23.2529 25.2958 23.1811C25.5773 23.1082 25.8601 23.0706 26.144 23.0706C26.7179 23.0694 27.1426 23.1941 27.4182 23.4469ZM27.1044 25.5529L26.3791 25.5823C25.8016 25.6034 25.3841 25.6904 25.1288 25.8492C24.8734 26.0067 24.7458 26.249 24.7458 26.5794C24.7458 26.8393 24.8257 27.038 24.9844 27.172C25.1431 27.3049 25.3662 27.3743 25.6525 27.3743C26.1047 27.3743 26.4602 27.2508 26.7191 27.0074C26.978 26.764 27.1068 26.4195 27.1068 25.9809V25.5564H27.1044V25.5529ZM41.5436 23.7244C41.9373 24.1653 42.1354 24.7603 42.1354 25.5105C42.1354 26.2807 41.9373 26.8839 41.5436 27.3178C41.1511 27.7506 40.6059 27.9681 39.9116 27.9681C39.4845 27.9681 39.1015 27.8681 38.7698 27.6694C38.437 27.4707 38.1805 27.1861 37.9991 26.8134C37.8202 26.4442 37.7271 26.0056 37.7271 25.5105C37.7271 24.7392 37.9228 24.1395 38.3129 23.7091C38.7018 23.2799 39.2471 23.0635 39.9414 23.0635C40.6143 23.0612 41.1475 23.2834 41.5436 23.7244ZM41.3838 25.5093C41.3838 24.9073 41.2597 24.4534 41.0127 24.1395C40.7658 23.8255 40.3995 23.6726 39.9199 23.6726C39.4451 23.6726 39.0836 23.8267 38.8438 24.1359C38.6016 24.444 38.4799 24.9014 38.4799 25.5117C38.4799 26.1173 38.604 26.5759 38.8486 26.8933C39.0955 27.2108 39.4546 27.366 39.9295 27.366C40.4043 27.366 40.7658 27.2097 41.0127 26.8957C41.2609 26.5747 41.3838 26.1173 41.3838 25.5093ZM33.0075 26.8334C32.8381 26.8334 32.7116 26.8828 32.6246 26.9815C32.5363 27.0803 32.4897 27.2261 32.4897 27.4201C32.4897 27.6271 32.5387 27.7764 32.6365 27.867C32.7367 27.9575 32.8608 28.0034 33.0087 28.0034C33.1769 28.0034 33.307 27.954 33.4024 27.8517C33.4979 27.7494 33.5492 27.6083 33.5492 27.4201C33.5492 27.2273 33.5002 27.0815 33.4048 26.9815C33.307 26.8839 33.1745 26.8334 33.0075 26.8334ZM36.3015 23.6973C36.4482 23.6973 36.6164 23.7185 36.8049 23.7597C36.9934 23.8008 37.1712 23.8537 37.3287 23.9184L37.553 23.3081C37.4241 23.2399 37.2404 23.1858 37.0101 23.1364C36.7811 23.0859 36.5484 23.0624 36.3182 23.0624C35.6024 23.0624 35.0512 23.2799 34.6634 23.7091C34.2769 24.1418 34.0836 24.7544 34.0836 25.5446C34.0836 26.316 34.2745 26.9133 34.6551 27.3343C35.0369 27.7529 35.5749 27.9669 36.2705 27.9669C36.7572 27.9669 37.1628 27.8846 37.4826 27.7212V27.0862C37.0602 27.2579 36.6534 27.3425 36.2526 27.3425C35.7861 27.3425 35.4329 27.1861 35.1967 26.8769C34.9569 26.5653 34.84 26.1173 34.84 25.5364C34.8388 24.31 35.3268 23.6973 36.3015 23.6973ZM29.5585 10.711C29.5585 10.711 29.8949 11.0426 30.229 10.711L31.4029 9.66448L32.4349 8.48038C32.4349 8.48038 32.7999 8.17818 32.4349 7.7925L31.4029 6.63662L30.229 5.61831C30.229 5.61831 29.8949 5.28789 29.5585 5.61831L28.3857 6.63662L27.3239 7.7925C27.3239 7.7925 27.0173 8.17818 27.3239 8.48038L28.3571 9.66448L29.5585 10.711ZM53.3331 10.711L52.4384 9.94081C52.4384 9.94081 52.189 9.69271 51.9099 9.94081L51.0151 10.711L50.2337 11.5929C50.2337 11.5929 50.0094 11.8681 50.2337 12.115L51.0151 12.9969L51.9099 13.7683C51.9099 13.7683 52.189 14.0434 52.4384 13.7683L53.3331 12.9969L54.1444 12.115C54.1444 12.115 54.3401 11.8681 54.1444 11.5929L53.3331 10.711ZM13.5313 21.542L16.0498 27.8776H15.2791L14.4822 25.8715H11.9148L11.1274 27.8776H10.3746L12.9062 21.542H13.5313ZM14.2495 25.2119L13.5063 23.2564C13.4084 23.0083 13.3106 22.7049 13.208 22.3474C13.1448 22.6214 13.0529 22.926 12.9324 23.2564L12.1796 25.2119H14.2495ZM17.8334 27.8776H18.5611V23.1482H17.8334V27.8776ZM30.4735 26.4254C30.353 26.7816 30.2731 27.0333 30.2349 27.1791H30.2003C30.1454 26.9086 30.0011 26.463 29.7708 25.8456L28.721 23.1458H27.9395L29.8758 27.9046L29.6086 28.5748C29.395 29.1299 29.0383 29.4038 28.5396 29.4038C28.3404 29.4038 28.1614 29.3874 28.0016 29.3533V29.9259C28.2163 29.9753 28.4358 30 28.6577 30C29.055 30 29.3891 29.8895 29.6623 29.6649C29.9355 29.4426 30.1741 29.0652 30.3781 28.5325L32.4408 23.1447H31.663C30.9901 24.9767 30.594 26.0714 30.4735 26.4254ZM56.5185 1.43221H56.6879V0.192843H57.1616V0H56.0425V0.192843H56.5173L56.5185 1.43221ZM16.193 27.8776H16.9183V21.1622H16.193V27.8776ZM57.5493 0.249285L57.9704 1.43339H58.1399L58.5312 0.276329V1.43339H58.7268V0.00117635H58.4775L58.0563 1.2135L57.6352 0.00117635H57.3572V1.43339H57.5529V0.249285H57.5493ZM18.1996 21.3914C18.078 21.3914 17.9754 21.4279 17.893 21.5055C17.8119 21.5808 17.7702 21.7019 17.7702 21.8677C17.7702 22.0299 17.8119 22.1499 17.893 22.2287C17.9754 22.3063 18.078 22.3486 18.1996 22.3486C18.3178 22.3486 18.418 22.3075 18.5027 22.2287C18.5862 22.1511 18.6291 22.0299 18.6291 21.8677C18.6291 21.7054 18.5862 21.5878 18.5027 21.5079C18.418 21.4279 18.3178 21.3914 18.1996 21.3914Z" fill="white"/>
</svg>
