<svg width="20" height="23" viewBox="0 0 20 23" fill="none" xmlns="http://www.w3.org/2000/svg">
<path d="M13.4075 13.3663L13.354 13.3416C13.2264 13.284 13.0946 13.2264 12.9629 13.177C12.8188 13.1193 12.6706 13.0658 12.5224 13.0164C12.4072 12.9794 12.2878 12.9423 12.1684 12.9053C11.9873 12.8518 11.802 12.8065 11.6127 12.7653C11.5468 12.753 11.485 12.7406 11.4192 12.7283L11.3739 12.72C11.2627 12.6994 11.1516 12.6789 11.0363 12.6624L11.0034 12.6583H10.9993L10.9663 12.6542C10.8717 12.6418 10.777 12.6253 10.6823 12.6171L10.3489 12.5883C9.94131 12.5595 9.52141 12.5636 9.11798 12.5924L8.9986 12.6006L8.94508 12.6048L8.80923 12.6171C8.68162 12.6295 8.55812 12.6459 8.43051 12.6665L8.39346 12.6706C8.30701 12.683 8.22056 12.6994 8.13823 12.7159C8.04354 12.7324 7.95298 12.753 7.85829 12.7694C7.68128 12.8106 7.50015 12.8559 7.33137 12.9053C7.19552 12.9464 7.05967 12.9876 6.93205 13.0329L6.84561 13.0658C6.57802 13.1605 6.31044 13.2717 6.0511 13.391L5.98111 13.424C2.9554 14.873 1 17.9646 1 21.3155C1 21.3937 1.00412 21.4678 1.00823 21.5461L1.03293 22.0771H18.4751L18.4998 21.5502C18.5039 21.472 18.508 21.3937 18.508 21.3155C18.5121 17.9111 16.5073 14.7948 13.4075 13.3663ZM1.85626 21.2208C1.89331 18.2116 3.67169 15.4493 6.38454 14.1773L6.47099 14.1444L6.47923 14.1361C6.69329 14.0373 6.91147 13.9509 7.13377 13.8727L7.20375 13.848C7.32313 13.8068 7.44663 13.7656 7.57013 13.7327C7.72656 13.6874 7.88711 13.6463 8.04354 13.6092C8.12587 13.5927 8.20821 13.5763 8.29466 13.5598C8.36052 13.5475 8.4305 13.5351 8.49637 13.5228L8.5293 13.5186C8.6528 13.4981 8.7763 13.4816 8.89568 13.4692L9.17561 13.4445C9.54199 13.4157 9.89191 13.4157 10.3159 13.4445L10.5876 13.4692C10.6535 13.4775 10.7235 13.4857 10.8017 13.4981L10.9005 13.5104C11.0034 13.5269 11.1063 13.5433 11.2092 13.5639L11.2586 13.5722C11.3163 13.5845 11.3739 13.5927 11.4274 13.6051C11.5962 13.6421 11.7609 13.6874 11.9255 13.7327C12.0326 13.7656 12.1437 13.7986 12.2466 13.8315C12.3783 13.8768 12.5101 13.9262 12.6418 13.9756C12.7653 14.025 12.8888 14.0785 13.0123 14.132L13.0329 14.1403C15.8075 15.4123 17.6106 18.1828 17.6476 21.225L1.85626 21.2208ZM7.64423 11.485C7.7101 11.5139 7.77596 11.5344 7.84183 11.5591L7.98179 11.6085C8.03531 11.6291 8.08883 11.6497 8.14234 11.6662C8.6528 11.8267 9.18385 11.909 9.72724 11.9132H9.76841C9.95366 11.9132 10.1389 11.9049 10.32 11.8843C10.3818 11.8802 10.4394 11.8679 10.5012 11.8596L10.637 11.8391C10.7111 11.8308 10.7893 11.8185 10.8675 11.802C10.9211 11.7897 10.9746 11.7773 11.024 11.7609L11.1722 11.7238C11.2463 11.7073 11.3163 11.6868 11.3862 11.6662C11.4315 11.6538 11.4727 11.6374 11.518 11.6209L11.6374 11.5797C11.7197 11.5509 11.8061 11.5221 11.8885 11.485C11.9214 11.4727 11.9543 11.4562 11.9832 11.4398L12.0202 11.4192C12.1355 11.3657 12.2507 11.3163 12.366 11.2545L12.4401 11.2092C12.5677 11.1351 12.6953 11.061 12.8271 10.9746C12.8929 10.9293 12.9588 10.8799 13.0205 10.8264L13.2387 10.6576C14.4984 9.61609 15.2188 8.08471 15.2188 6.49981L15.2229 6.45452C15.2271 3.44939 12.7777 1 9.76841 1C6.895 1 4.50736 3.24768 4.32623 6.11284L4.32211 6.18283C4.31388 6.27339 4.30977 6.36396 4.30977 6.45452C4.30977 8.65692 5.61885 10.6288 7.64423 11.485ZM5.17426 6.24458L5.17837 6.16636C5.33069 3.7499 7.34372 1.85626 9.76429 1.85626C12.3042 1.85626 14.3667 3.91869 14.3667 6.41748L14.3626 6.46276C14.3626 7.83359 13.7492 9.1221 12.683 10.0072L12.4813 10.1636C12.436 10.2007 12.3907 10.2377 12.3331 10.2748C12.2301 10.3447 12.1231 10.4065 12.012 10.4682L11.9502 10.5053C11.8597 10.5547 11.7609 10.6 11.6579 10.6452L11.5427 10.6988C11.4768 10.7276 11.4109 10.7482 11.341 10.7729L11.201 10.8223C11.1722 10.8305 11.1475 10.8428 11.1187 10.8511C11.0651 10.8675 11.0116 10.8799 10.9581 10.8922L10.7893 10.9375C10.7523 10.9458 10.7152 10.9581 10.6823 10.9663C10.6247 10.9787 10.567 10.9869 10.5094 10.9952L10.3489 11.0199C10.3077 11.0281 10.2706 11.0322 10.2254 11.0363C10.0813 11.0528 9.94131 11.061 9.79311 11.061H9.75194C9.28265 11.061 8.8257 10.991 8.38522 10.8552C8.34817 10.8428 8.31112 10.8264 8.27407 10.814L8.11353 10.7564C8.06413 10.7399 8.01473 10.7235 7.96533 10.7029C6.25693 9.98247 5.15367 8.31524 5.15367 6.46276C5.16602 6.38454 5.17014 6.31456 5.17426 6.24458Z" fill="#C4C4C4" stroke="#C4C4C4" stroke-miterlimit="10"/>
</svg>
