<svg width="22" height="22" viewBox="0 0 22 22" fill="none" xmlns="http://www.w3.org/2000/svg">
<path d="M11 16.9831C8.84865 16.9831 7.06538 18.717 6.70508 20.9984H15.2937C14.9353 18.717 13.1521 16.9831 11 16.9831Z" stroke="#C4C4C4" stroke-width="1.3" stroke-miterlimit="10" stroke-linecap="round" stroke-linejoin="round"/>
<path d="M3.66678 1C3.59134 1.46891 3.54517 1.94887 3.54517 2.44184C3.54517 7.0275 6.8828 10.7417 11.0009 10.7417C15.1183 10.7417 18.4552 7.0275 18.4552 2.44184C18.4552 1.94887 18.4104 1.46891 18.3349 1H3.66678V1Z" stroke="#C4C4C4" stroke-width="1.3" stroke-miterlimit="10" stroke-linecap="round" stroke-linejoin="round"/>
<path d="M11 10.7417V16.9832" stroke="#C4C4C4" stroke-width="1.3" stroke-miterlimit="10" stroke-linecap="round" stroke-linejoin="round"/>
<path d="M3.33579 4.44755C3.33579 4.44755 0.0163697 2.67403 1.29172 7.3592C2.57032 12.0424 11.0438 13.8166 11.0002 15.0893" stroke="#C4C4C4" stroke-width="1.3" stroke-miterlimit="10" stroke-linecap="round" stroke-linejoin="round"/>
<path d="M18.664 4.44755C18.664 4.44755 21.984 2.67403 20.708 7.3592C19.4288 12.0424 10.9579 13.8166 11.0002 15.0893" stroke="#C4C4C4" stroke-width="1.3" stroke-miterlimit="10" stroke-linecap="round" stroke-linejoin="round"/>
</svg>
