<svg width="36" height="33" viewBox="0 0 36 33" fill="none" xmlns="http://www.w3.org/2000/svg">
<path d="M2 2H6.30518" stroke="white" stroke-width="2.3" stroke-miterlimit="10" stroke-linecap="round"/>
<path d="M6.3064 2.07745L13.7291 27.8874" stroke="white" stroke-width="2.3" stroke-miterlimit="10"/>
<path d="M6.87402 6.92969H35.9958" stroke="white" stroke-width="2.3" stroke-miterlimit="10" stroke-linejoin="round"/>
<path d="M30.0574 22.8029L34.8327 7.83313" stroke="white" stroke-width="2.3" stroke-miterlimit="10"/>
<path d="M11.947 21.8995H31.0482" stroke="white" stroke-width="2.3" stroke-miterlimit="10"/>
<path d="M14.42 31.63C15.6225 31.63 16.5973 30.6131 16.5973 29.3587C16.5973 28.1044 15.6225 27.0875 14.42 27.0875C13.2175 27.0875 12.2427 28.1044 12.2427 29.3587C12.2427 30.6131 13.2175 31.63 14.42 31.63Z" stroke="white" stroke-width="2.3" stroke-miterlimit="10"/>
<path d="M29.2667 31.63C30.4692 31.63 31.444 30.6131 31.444 29.3587C31.444 28.1044 30.4692 27.0875 29.2667 27.0875C28.0642 27.0875 27.0894 28.1044 27.0894 29.3587C27.0894 30.6131 28.0642 31.63 29.2667 31.63Z" stroke="white" stroke-width="2.3" stroke-miterlimit="10"/>
<path d="M16.3501 27.9132H27.5584" stroke="white" stroke-width="2.3" stroke-miterlimit="10"/>
</svg>
