<svg width="20" height="20.74" viewBox="0 0 22 23" fill="none" xmlns="http://www.w3.org/2000/svg">
<path d="M3.59259 6.18518C4.89593 6.18518 5.97481 5.21704 6.15556 3.96296H20.6296C20.8344 3.96296 21 3.79741 21 3.59259C21 3.38778 20.8344 3.22222 20.6296 3.22222H6.15556C5.97481 1.96815 4.89593 1 3.59259 1C2.16296 1 1 2.16333 1 3.59259C1 5.02185 2.16296 6.18518 3.59259 6.18518ZM3.59259 1.74074C4.6137 1.74074 5.44444 2.57148 5.44444 3.59259C5.44444 4.6137 4.6137 5.44444 3.59259 5.44444C2.57148 5.44444 1.74074 4.6137 1.74074 3.59259C1.74074 2.57148 2.57148 1.74074 3.59259 1.74074Z" fill="white" stroke="white"/>
<path d="M18.4074 16.5555C17.1041 16.5555 16.0252 17.5237 15.8444 18.7778H1.37037C1.16593 18.7778 1 18.9433 1 19.1481C1 19.353 1.16593 19.5185 1.37037 19.5185H15.8444C16.0252 20.7726 17.1041 21.7407 18.4074 21.7407C19.8367 21.7407 21 20.5774 21 19.1481C21 17.7189 19.8367 16.5555 18.4074 16.5555ZM18.4074 21C17.3863 21 16.5556 20.1692 16.5556 19.1481C16.5556 18.127 17.3863 17.2963 18.4074 17.2963C19.4285 17.2963 20.2593 18.127 20.2593 19.1481C20.2593 20.1692 19.4285 21 18.4074 21Z" fill="white" stroke="white"/>
<path d="M20.6296 11H13.7289C13.5822 9.66593 12.4493 8.62445 11.0767 8.62445C9.70407 8.62445 8.57111 9.6663 8.42444 11H1.37037C1.16593 11 1 11.1656 1 11.3704C1 11.5752 1.16593 11.7407 1.37037 11.7407H8.44778C8.66148 13 9.75741 13.963 11.0767 13.963C12.3959 13.963 13.4915 13 13.7052 11.7407H20.6296C20.8344 11.7407 21 11.5752 21 11.3704C21 11.1656 20.8344 11 20.6296 11ZM11.0767 13.2222C10.0133 13.2222 9.14815 12.357 9.14815 11.2937C9.14815 10.2304 10.0133 9.36519 11.0767 9.36519C12.14 9.36519 13.0052 10.2304 13.0052 11.2937C13.0052 12.357 12.14 13.2222 11.0767 13.2222Z" fill="white" stroke="white"/>
</svg>
