<svg width="19" height="23" viewBox="0 0 19 23" fill="none" xmlns="http://www.w3.org/2000/svg">
<path d="M17.6612 4.91734H17.3472V4.27685C17.3472 3.73002 16.9023 3.28511 16.3554 3.28511H12.6936L12.2463 1.71923C12.1252 1.29578 11.7331 1 11.2927 1H7.70736C7.26692 1 6.87482 1.29578 6.75379 1.71928L6.30643 3.28515H2.64462C2.09778 3.28515 1.65287 3.73006 1.65287 4.2769V4.91739H1.33884C1.15171 4.91739 1 5.0691 1 5.25622C1 5.44335 1.15171 5.59506 1.33884 5.59506H2.00535L3.1901 20.404C3.258 21.2526 3.97809 21.9174 4.82947 21.9174H14.1706C15.022 21.9174 15.742 21.2526 15.8099 20.404L16.9947 5.59506H17.6612C17.8483 5.59506 18 5.44335 18 5.25622C18 5.0691 17.8483 4.91734 17.6612 4.91734ZM7.40539 1.90546C7.4437 1.77132 7.56789 1.67767 7.70736 1.67767H11.2927C11.4322 1.67767 11.5563 1.77132 11.5947 1.90546L11.9888 3.28515H7.01121L7.40539 1.90546ZM2.64462 3.96282H6.56896C6.56941 3.96282 6.56991 3.96282 6.57036 3.96282H12.4368C12.4371 3.96282 12.4375 3.96291 12.4379 3.96291C12.4383 3.96291 12.4387 3.96282 12.4391 3.96282H16.3554C16.5286 3.96282 16.6695 4.10373 16.6695 4.2769V4.91739H2.33054V4.27685C2.33054 4.10369 2.47145 3.96282 2.64462 3.96282ZM15.1344 20.3499C15.0945 20.8489 14.6711 21.2398 14.1706 21.2398H4.82947C4.3289 21.2398 3.90554 20.8489 3.8656 20.3499L2.68519 5.59501H16.3148L15.1344 20.3499Z" fill="#C4C4C4" stroke="#C4C4C4" stroke-width="0.3"/>
<path d="M9.49924 20.2854C9.68636 20.2854 9.83807 20.1337 9.83807 19.9466V7.2151C9.83807 7.02797 9.68636 6.87627 9.49924 6.87627C9.31211 6.87627 9.1604 7.02797 9.1604 7.2151V19.9465C9.1604 20.1337 9.31211 20.2854 9.49924 20.2854Z" fill="#C4C4C4" stroke="#C4C4C4" stroke-width="0.3"/>
<path d="M6.22372 19.9639C6.23303 20.1449 6.38266 20.2854 6.56184 20.2854C6.56766 20.2854 6.57358 20.2853 6.5795 20.285C6.7664 20.2754 6.91011 20.1161 6.90053 19.9292L6.24758 7.19776C6.238 7.01086 6.0792 6.8671 5.8918 6.87672C5.7049 6.8863 5.56119 7.0456 5.57076 7.2325L6.22372 19.9639Z" fill="#C4C4C4" stroke="#C4C4C4" stroke-width="0.3"/>
<path d="M12.4204 20.285C12.4263 20.2853 12.4322 20.2854 12.438 20.2854C12.6172 20.2854 12.7668 20.1449 12.7761 19.9639L13.4291 7.2325C13.4386 7.04559 13.2949 6.88634 13.108 6.87672C12.9207 6.86714 12.7619 7.0109 12.7522 7.19775L12.0993 19.9292C12.0898 20.1161 12.2335 20.2753 12.4204 20.285Z" fill="#C4C4C4" stroke="#C4C4C4" stroke-width="0.3"/>
</svg>
