<svg width="9" height="16" viewBox="0 0 9 16" fill="none" xmlns="http://www.w3.org/2000/svg">
<path d="M8.66169 0.00332907L6.50301 0C4.07779 0 2.51051 1.54551 2.51051 3.93762V5.75313H0.340044C0.15249 5.75313 0.000610352 5.89928 0.000610352 6.07954V8.71001C0.000610352 8.89027 0.152663 9.03626 0.340044 9.03626H2.51051V15.6737C2.51051 15.854 2.66238 16 2.84994 16H5.68179C5.86934 16 6.02122 15.8539 6.02122 15.6737V9.03626H8.559C8.74656 9.03626 8.89843 8.89027 8.89843 8.71001L8.89948 6.07954C8.89948 5.99299 8.86363 5.91009 8.80007 5.84884C8.73652 5.78758 8.64992 5.75313 8.55987 5.75313H6.02122V4.2141C6.02122 3.47438 6.20462 3.09886 7.20715 3.09886L8.66135 3.09837C8.84874 3.09837 9.00061 2.95221 9.00061 2.77212V0.329578C9.00061 0.149642 8.8489 0.00366197 8.66169 0.00332907Z" fill="white"/>
</svg>
