<svg width="16" height="16" viewBox="0 0 16 16" fill="none" xmlns="http://www.w3.org/2000/svg">
<path d="M15.3493 7.06064C15.3493 6.89271 15.2119 6.75659 15.0423 6.75659H8.49359C8.32405 6.75659 8.18662 6.89272 8.18662 7.06064V8.81739C8.18662 8.9853 8.32405 9.12144 8.49359 9.12144H12.1384C12.3458 9.12144 12.4932 9.32092 12.415 9.51108C11.6537 11.3632 9.81843 12.6687 7.67493 12.6687C4.84926 12.6687 2.55873 10.3998 2.55873 7.60119C2.55873 4.80243 4.84934 2.53372 7.67493 2.53372C8.98212 2.53372 10.1746 3.0194 11.0789 3.81836C11.2096 3.93388 11.4114 3.93097 11.5301 3.80326L12.8439 2.3888C12.9561 2.26796 12.9517 2.08019 12.8289 1.96987C11.4667 0.745991 9.65895 3.57464e-10 7.67493 3.57464e-10C3.43653 -4.02743e-05 0.000610352 3.40316 0.000610352 7.60119C0.000610352 11.7992 3.43653 15.2025 7.67497 15.2025C11.3769 15.2025 14.6195 12.606 15.3431 9.15149C15.3473 9.13159 15.3494 9.11124 15.3494 9.09092L15.3493 7.06064Z" fill="white"/>
</svg>
