<svg width="5" height="12" viewBox="0 0 5 12" fill="none" xmlns="http://www.w3.org/2000/svg">
<path fill-rule="evenodd" clip-rule="evenodd" d="M4.34672 3.52226C4.32332 3.55323 4.29408 3.56899 4.26387 3.56899C4.23317 3.56899 4.20149 3.55184 4.17859 3.5181L2.51729 1.11503C0.837468 3.53083 0.819436 3.53967 0.784352 3.55654C0.721485 3.58558 0.654719 3.53995 0.633278 3.45366C0.615736 3.38342 0.633768 3.30792 0.674704 3.2656C0.764857 3.15332 1.7707 1.71241 2.4325 0.760463C2.45442 0.728389 2.48512 0.710693 2.51778 0.710693C2.54945 0.710693 2.58015 0.728935 2.60306 0.761023L4.34964 3.28745C4.39545 3.35354 4.39399 3.45864 4.34672 3.52226ZM2.50364 1.211C2.56943 1.211 2.62255 1.28511 2.62255 1.37666L2.62304 11.164C2.62304 11.2556 2.57041 11.33 2.50413 11.33C2.43883 11.33 2.38571 11.2556 2.38571 11.164L2.38473 1.37666C2.38473 1.28511 2.43834 1.211 2.50364 1.211Z" fill="#00A651"/>
<path d="M4.34672 3.52226L4.74569 3.82365L4.74805 3.82047L4.34672 3.52226ZM4.17859 3.5181L4.59229 3.23726L4.58987 3.23377L4.17859 3.5181ZM2.51729 1.11503L2.92857 0.830696L2.51848 0.237497L2.10677 0.82958L2.51729 1.11503ZM0.784352 3.55654L0.994028 4.01052L1.00103 4.00716L0.784352 3.55654ZM0.633278 3.45366L1.11853 3.33309L1.11838 3.3325L0.633278 3.45366ZM0.674704 3.2656L1.03409 3.61321L1.05014 3.59663L1.06458 3.57864L0.674704 3.2656ZM2.4325 0.760463L2.84305 1.04588L2.84528 1.04262L2.4325 0.760463ZM2.60306 0.761023L3.01439 0.476659L3.01002 0.47054L2.60306 0.761023ZM4.34964 3.28745L3.93836 3.57178L3.93869 3.57227L4.34964 3.28745ZM2.62255 1.37666L2.12255 1.37666L2.12255 1.37668L2.62255 1.37666ZM2.62304 11.164L3.12304 11.164L3.12304 11.164L2.62304 11.164ZM2.38571 11.164L2.88571 11.164L2.88571 11.164L2.38571 11.164ZM2.38473 1.37666L1.88473 1.37666L1.88473 1.37671L2.38473 1.37666ZM3.94776 3.22087C3.99691 3.15581 4.10416 3.06899 4.26387 3.06899V4.06899C4.484 4.06899 4.64974 3.95064 4.74567 3.82364L3.94776 3.22087ZM4.26387 3.06899C4.42768 3.06899 4.53956 3.15962 4.59228 3.23727L3.7649 3.79892C3.86342 3.94406 4.03866 4.06899 4.26387 4.06899V3.06899ZM4.58987 3.23377L2.92857 0.830696L2.106 1.39936L3.7673 3.80243L4.58987 3.23377ZM2.10677 0.82958C1.26639 2.03816 0.843871 2.64151 0.627233 2.94469C0.516939 3.09903 0.466624 3.16621 0.443788 3.19466C0.430756 3.2109 0.439631 3.19804 0.461077 3.17826C0.474859 3.16556 0.495041 3.14876 0.521508 3.13182C0.54734 3.11527 0.570027 3.1048 0.567677 3.10593L1.00103 4.00716C1.03221 3.99216 1.08321 3.96483 1.1389 3.91349C1.17461 3.88057 1.20377 3.84538 1.22361 3.82066C1.26652 3.76721 1.33228 3.67803 1.44086 3.52608C1.66196 3.21666 2.08836 2.60769 2.9278 1.40048L2.10677 0.82958ZM0.574701 3.10262C0.714312 3.03814 0.867715 3.06213 0.97493 3.13522C1.06982 3.19992 1.10625 3.2837 1.11852 3.33309L0.148031 3.57422C0.181746 3.70991 0.262277 3.85965 0.411631 3.96148C0.573305 4.0717 0.791525 4.10398 0.994003 4.01047L0.574701 3.10262ZM1.11838 3.3325C1.12914 3.3756 1.12901 3.4184 1.1198 3.45919C1.11111 3.49771 1.0891 3.55634 1.03409 3.61321L0.315314 2.91798C0.133866 3.10557 0.0964872 3.36784 0.148178 3.57481L1.11838 3.3325ZM1.06458 3.57864C1.16907 3.4485 2.19181 1.98262 2.84303 1.04587L2.02196 0.475056C1.69126 0.950733 1.2747 1.54844 0.929687 2.04107C0.757124 2.28747 0.602814 2.50707 0.486212 2.67181C0.427849 2.75426 0.379441 2.82226 0.343136 2.87271C0.324943 2.89799 0.310356 2.91807 0.299375 2.93299C0.286842 2.95002 0.28319 2.95459 0.284828 2.95255L1.06458 3.57864ZM2.84528 1.04262C2.79225 1.1202 2.68011 1.21069 2.51778 1.21069V0.210693C2.29013 0.210693 2.11659 0.336579 2.01971 0.478308L2.84528 1.04262ZM2.51778 1.21069C2.34657 1.21069 2.24012 1.11318 2.19609 1.05151L3.01002 0.47054C2.92019 0.344686 2.75234 0.210693 2.51778 0.210693V1.21069ZM2.19177 1.04536L3.93836 3.57178L4.76093 3.00312L3.01434 0.476691L2.19177 1.04536ZM3.93869 3.57227C3.89206 3.50499 3.88258 3.44116 3.88312 3.39933C3.88366 3.35784 3.89468 3.29227 3.94538 3.22404L4.74805 3.82047C4.84602 3.68863 4.88141 3.5387 4.88304 3.41224C4.88468 3.28543 4.85303 3.136 4.76059 3.00263L3.93869 3.57227ZM2.50364 1.711C2.33452 1.711 2.22723 1.61469 2.18151 1.55097C2.13535 1.48663 2.12255 1.42333 2.12255 1.37666H3.12255C3.12255 1.23844 3.08319 1.09231 2.99402 0.968025C2.9053 0.844365 2.73855 0.710997 2.50364 0.710997V1.711ZM2.12255 1.37668L2.12304 11.1641L3.12304 11.164L3.12255 1.37663L2.12255 1.37668ZM2.12304 11.164C2.12304 11.1185 2.13537 11.0555 2.18146 10.9909C2.22752 10.9263 2.33516 10.83 2.50413 10.83V11.83C2.73938 11.83 2.90648 11.6964 2.99542 11.5718C3.08439 11.4471 3.12304 11.3012 3.12304 11.164H2.12304ZM2.50413 10.83C2.67545 10.83 2.7827 10.9282 2.8274 10.9908C2.87295 11.0547 2.88571 11.1174 2.88571 11.164H1.88571C1.88571 11.3022 1.92503 11.4479 2.01347 11.5718C2.10105 11.6945 2.26752 11.83 2.50413 11.83V10.83ZM2.88571 11.164L2.88473 1.37661L1.88473 1.37671L1.88571 11.1641L2.88571 11.164ZM2.88473 1.37666C2.88473 1.42435 2.87151 1.48766 2.82557 1.55151C2.78058 1.61404 2.67365 1.711 2.50364 1.711V0.710997C2.26833 0.710997 2.10195 0.845016 2.01383 0.967486C1.92476 1.09129 1.88473 1.23742 1.88473 1.37666H2.88473Z" fill="#00A651"/>
</svg>
