<svg width="17" height="18" viewBox="0 0 17 18" fill="none" xmlns="http://www.w3.org/2000/svg">
<path d="M4.09961 11.6018L8.41342 14.5846" stroke="white" stroke-miterlimit="10" stroke-linecap="round"/>
<path d="M13.8108 14.1165L7.95283 16.7663L2.37094 12.767H0.954346" stroke="white" stroke-miterlimit="10" stroke-linecap="round" stroke-linejoin="round"/>
<path d="M9.41442 8.53303C9.3166 9.67204 8.31484 10.5166 7.17429 10.4203C6.03579 10.3225 5.19177 9.31917 5.28857 8.17965C5.38536 7.04114 6.38763 6.19713 7.52818 6.29392C8.66617 6.39174 9.51224 7.3935 9.41442 8.53303Z" stroke="white" stroke-miterlimit="10" stroke-linecap="round" stroke-linejoin="round"/>
<path d="M15.9924 9.0959C15.8961 10.2344 14.8948 11.0794 13.7558 10.9816C12.6153 10.8848 11.7712 9.88256 11.868 8.74303C11.9648 7.60299 12.9681 6.75898 14.1077 6.85628C15.2482 6.9541 16.0902 7.95586 15.9924 9.0959Z" stroke="white" stroke-miterlimit="10" stroke-linecap="round" stroke-linejoin="round"/>
<path d="M13.2204 3.24667C13.1236 4.38568 12.1218 5.23073 10.9818 5.13239C9.84227 5.03611 8.99927 4.03281 9.09607 2.89431C9.19286 1.75427 10.1962 0.910768 11.3336 1.00756C12.4742 1.10538 13.3203 2.10663 13.2204 3.24667Z" stroke="white" stroke-miterlimit="10" stroke-linecap="round" stroke-linejoin="round"/>
</svg>
