<svg width="22" height="22" viewBox="0 0 22 22" fill="none" xmlns="http://www.w3.org/2000/svg">
<path d="M11 1C5.48595 1 1 5.48595 1 11C1 16.5141 5.48595 21 11 21C16.5141 21 21 16.5141 21 11C21 5.48595 16.514 1 11 1ZM16.733 3.75718C17.2303 4.15162 17.686 4.59612 18.0928 5.08291C17.877 5.04518 17.675 5.04918 17.4857 5.09551C17.1194 5.18508 16.8274 5.43001 16.6414 5.80367C16.5974 5.89202 16.5067 5.943 16.4092 5.93238C16.294 5.92029 16.205 5.82759 16.202 5.71678C16.1823 4.96613 16.5091 4.19445 16.733 3.75718ZM4.63279 4.3082C5.42981 3.54951 6.36172 2.93148 7.38835 2.4939C7.81192 2.7836 8.98168 3.63929 9.84597 4.79929C9.95202 4.94161 9.98763 5.12165 9.94368 5.29331C9.89973 5.46511 9.78179 5.60612 9.62015 5.68006C8.71085 6.09619 7.50589 6.74159 6.92953 7.45334C6.79601 7.61832 6.58035 7.69201 6.37977 7.64113C5.61062 7.44601 4.99264 7.67886 4.63962 8.29664C4.19374 9.07676 4.81532 9.83595 5.36376 10.5058C5.42617 10.582 5.48883 10.6587 5.55033 10.7354C4.97453 10.3935 4.53437 9.95132 4.23916 9.41471C3.72976 8.48852 3.38914 6.85275 4.63279 4.3082ZM1.75863 11C1.75863 9.18616 2.28426 7.49299 3.19068 6.06403C2.80105 7.76933 3.13899 8.98856 3.57445 9.78037C4.03898 10.6247 4.78351 11.2725 5.78743 11.7057C5.99403 11.7949 6.14859 11.976 6.20094 12.1904C6.20094 12.1904 6.22268 12.2839 6.23199 12.3302C6.30158 12.6758 6.35428 13.1904 6.27776 13.8477C6.16523 14.8186 6.59684 15.7714 7.40403 16.3342L8.15932 16.8612C8.11219 17.3995 8.04679 18.7585 8.43754 19.8797C4.58444 18.766 1.75863 15.2069 1.75863 11ZM19.9805 12.5455C19.958 12.1473 19.7672 11.7749 19.4569 11.5239C19.1502 11.2757 18.7518 11.1681 18.3638 11.2283L18.3309 11.2333C18.0348 11.2765 17.7396 11.2007 17.5002 11.0198C17.2567 10.8356 17.1003 10.5666 17.0601 10.2622C17.0159 9.92719 17.0003 9.60659 17.0136 9.30921C17.0231 9.09993 16.861 8.92266 16.6518 8.91325C16.4424 8.90369 16.2652 9.06584 16.2558 9.27512C16.2404 9.61686 16.258 9.98232 16.308 10.3614C16.375 10.8688 16.6359 11.3175 17.0428 11.625C17.4453 11.9293 17.9416 12.0567 18.4407 11.9839L18.4805 11.9779C18.6599 11.9501 18.8372 11.9983 18.9798 12.1137C19.1241 12.2303 19.2127 12.4033 19.2232 12.5883C19.2601 13.2418 19.4001 13.8097 19.6394 14.2802C18.3131 17.7613 14.941 20.2413 11 20.2413C10.6384 20.2413 10.2818 20.2197 9.93088 20.1791C10.0569 20.0508 10.2075 19.896 10.3858 19.7109C10.5311 19.56 10.5265 19.3199 10.3755 19.1746C10.2246 19.0294 9.98444 19.0339 9.83924 19.1848C9.57594 19.4584 9.37329 19.665 9.22318 19.8161C8.70271 18.595 8.93328 16.7478 8.93591 16.7272C8.95427 16.5869 8.89292 16.448 8.77685 16.367L7.83807 15.7119C7.26014 15.309 6.95102 14.6281 7.03139 13.9352C7.0943 13.394 7.08586 12.8642 7.00999 12.3798C7.67739 12.2 8.32526 12.1052 8.77746 12.0563C9.10989 12.0206 9.43762 12.131 9.67583 12.3595C10.2257 12.8872 11.0771 13.5025 12.2063 14.1883C12.5413 14.3918 12.7716 14.7304 12.8378 15.1172C12.9038 15.5027 12.7999 15.8971 12.5527 16.1991C12.2158 16.6107 11.8037 17.0841 11.328 17.6061C11.1869 17.7609 11.198 18.0008 11.3528 18.1419C11.4255 18.2082 11.517 18.2409 11.6082 18.2409C11.7112 18.2409 11.8138 18.1992 11.8887 18.1171C12.3734 17.5852 12.7943 17.1015 13.1398 16.6795C13.5261 16.2075 13.6886 15.5914 13.5855 14.9892C13.4821 14.3857 13.1229 13.8575 12.6 13.5399C11.5333 12.8921 10.7038 12.2946 10.201 11.8121C9.80055 11.4281 9.25216 11.2422 8.69598 11.3021C8.23827 11.3516 7.5909 11.4455 6.91259 11.6208C6.77522 11.0327 6.3428 10.5042 5.95069 10.0253C5.44367 9.40601 5.12428 8.97733 5.29816 8.67307C5.41039 8.47674 5.62524 8.23235 6.19315 8.37655C6.67938 8.49985 7.1999 8.32491 7.51899 7.93077C7.89648 7.46467 8.75475 6.91036 9.93574 6.36991C10.3067 6.20018 10.5774 5.87634 10.6785 5.4815C10.7796 5.08686 10.6979 4.673 10.4543 4.34608C9.73212 3.3768 8.83602 2.61933 8.24854 2.17694C9.11798 1.90525 10.0421 1.75868 10.9999 1.75868C12.8889 1.75868 14.6471 2.32882 16.1122 3.30549C15.8519 3.79066 15.4177 4.75321 15.4437 5.7368C15.4565 6.22663 15.8375 6.63513 16.3298 6.68692C16.3639 6.69051 16.398 6.69228 16.432 6.69228C16.8037 6.69228 17.1521 6.48001 17.3205 6.14186C17.448 5.8858 17.612 5.84564 17.6659 5.83244C17.8351 5.79107 18.222 5.80088 18.942 6.303C18.7873 6.30568 18.6077 6.29956 18.4128 6.27554C18.1235 6.23988 17.8366 6.31225 17.6047 6.479C17.4526 6.58819 17.3083 6.7163 17.1755 6.85968C17.0332 7.01343 17.0424 7.25341 17.1961 7.39573C17.269 7.4633 17.3615 7.49673 17.4537 7.49673C17.5557 7.49673 17.6574 7.45587 17.7321 7.37515C17.8304 7.26894 17.9365 7.17472 18.0474 7.09501C18.1241 7.03983 18.2212 7.01616 18.3201 7.02845C18.7432 7.0806 19.1075 7.06335 19.3477 7.03781C19.9203 8.23928 20.2413 9.58282 20.2413 11C20.2413 11.6818 20.1665 12.3463 20.0257 12.9864C20.0043 12.8459 19.9892 12.6989 19.9805 12.5455Z" fill="#C4C4C4" stroke="#C4C4C4" stroke-width="0.5"/>
<path d="M11.2312 18.4999C11.222 18.4771 11.2105 18.4549 11.1968 18.4346C11.1826 18.4134 11.1669 18.3942 11.1493 18.377C11.132 18.3593 11.1128 18.3436 11.0916 18.3294C11.0714 18.3158 11.0491 18.3041 11.0263 18.2945C11.0036 18.2854 10.9793 18.2778 10.9556 18.2733C10.9065 18.2632 10.8559 18.2632 10.8069 18.2733C10.7831 18.2778 10.7588 18.2854 10.7361 18.2945C10.7134 18.3041 10.6911 18.3158 10.6709 18.3294C10.6501 18.3436 10.6304 18.3593 10.6132 18.377C10.5955 18.3942 10.5798 18.4134 10.5657 18.4346C10.552 18.4549 10.5404 18.4771 10.5308 18.4999C10.5217 18.5226 10.5141 18.5469 10.5095 18.5707C10.5045 18.5955 10.502 18.6202 10.502 18.645C10.502 18.6698 10.5045 18.6946 10.5095 18.7189C10.5141 18.7431 10.5217 18.7669 10.5308 18.7902C10.5404 18.8129 10.552 18.8347 10.5657 18.8554C10.5798 18.8761 10.5955 18.8959 10.6132 18.9131C10.6304 18.9308 10.6501 18.9464 10.6709 18.9601C10.6911 18.9738 10.7134 18.9859 10.7361 18.995C10.7588 19.0046 10.7832 19.0117 10.8069 19.0167C10.8317 19.0218 10.8564 19.0243 10.8812 19.0243C10.906 19.0243 10.9308 19.0218 10.9556 19.0167C10.9794 19.0117 11.0036 19.0046 11.0264 18.995C11.0491 18.9859 11.0714 18.9738 11.0916 18.9601C11.1129 18.9464 11.1321 18.9308 11.1493 18.9131C11.167 18.8959 11.1826 18.8761 11.1968 18.8554C11.2105 18.8347 11.2221 18.8129 11.2312 18.7902C11.2408 18.7669 11.2484 18.7431 11.253 18.7189C11.2581 18.6946 11.2605 18.6698 11.2605 18.645C11.2605 18.6202 11.258 18.5955 11.253 18.5707C11.2484 18.5469 11.2408 18.5226 11.2312 18.4999Z" fill="#C4C4C4" stroke="#C4C4C4" stroke-width="0.5"/>
<path d="M12.8091 2.69019C12.7476 2.63486 12.1537 2.14498 10.2604 1.98724C9.98114 1.96387 9.86309 2.15024 9.83351 2.20785C9.69508 2.47726 9.86795 2.68048 10.1296 2.98813C10.4318 3.34347 10.9377 3.93824 11.016 4.53847C11.0358 4.6907 11.1455 4.81598 11.2937 4.85573C11.3263 4.86448 11.3594 4.86873 11.392 4.86873C11.5082 4.86873 11.6202 4.81522 11.6931 4.72019L12.8563 3.20292C12.9768 3.04583 12.9562 2.82259 12.8091 2.69019ZM11.5334 3.68172C11.381 3.3637 11.1803 3.07891 10.9923 2.84085C11.4565 2.91899 11.7745 3.01589 11.9818 3.09697L11.5334 3.68172Z" fill="#C4C4C4" stroke="#C4C4C4" stroke-width="0.5"/>
<path d="M17.0487 7.85258C17.028 7.83892 17.0063 7.82729 16.983 7.81768C16.9602 7.80807 16.9365 7.80099 16.9122 7.79593C16.8631 7.78632 16.8131 7.78632 16.764 7.79593C16.7397 7.80099 16.716 7.80807 16.6932 7.81768C16.6699 7.82729 16.6482 7.83892 16.6275 7.85258C16.6067 7.86623 16.5875 7.88242 16.5698 7.89961C16.5526 7.91732 16.5364 7.93653 16.5227 7.95727C16.5091 7.97801 16.4974 8.00026 16.4879 8.02302C16.4783 8.04578 16.4712 8.06955 16.4661 8.09382C16.4615 8.11861 16.459 8.14339 16.459 8.16817C16.459 8.19295 16.4615 8.21773 16.4661 8.24201C16.4711 8.26623 16.4782 8.29006 16.4878 8.31332C16.4974 8.33608 16.5091 8.35783 16.5227 8.37856C16.5364 8.3993 16.5525 8.41852 16.5697 8.43622C16.6405 8.50703 16.7382 8.54749 16.8383 8.54749C16.8626 8.54749 16.8879 8.54496 16.9121 8.5399C16.9364 8.53484 16.9602 8.52776 16.9829 8.51815C17.0062 8.50905 17.028 8.49691 17.0487 8.48325C17.0694 8.4696 17.0886 8.45392 17.1063 8.43622C17.1235 8.41852 17.1397 8.3993 17.1534 8.37856C17.1671 8.35783 17.1787 8.33608 17.1883 8.31332C17.1979 8.29006 17.205 8.26629 17.2101 8.24201C17.2151 8.21773 17.2172 8.19295 17.2172 8.16817C17.2172 8.06803 17.1767 7.97042 17.1064 7.89961C17.0887 7.88242 17.0695 7.86623 17.0487 7.85258Z" fill="#C4C4C4" stroke="#C4C4C4" stroke-width="0.5"/>
</svg>
