<svg width="132" height="83" viewBox="0 0 132 83" fill="none" xmlns="http://www.w3.org/2000/svg">
<path d="M22.125 82V74.875H14.5078V82H10.9688V65.0898H14.5078V71.957H22.125V65.0898H25.6641V82H22.125ZM38.2617 77.8984H32.3203L31.0312 82H27.3984L33.2695 65.0898H37.4297L43.3125 82H39.5508L38.2617 77.8984ZM33.082 75.25H37.5L35.332 68.3242H35.25L33.082 75.25ZM47.4727 77.1836C47.5508 77.8711 47.918 78.4297 48.5742 78.8594C49.2227 79.2812 50.0195 79.4922 50.9648 79.4922C51.9023 79.4922 52.668 79.2891 53.2617 78.8828C53.8477 78.4844 54.1406 77.9727 54.1406 77.3477C54.1406 76.8008 53.9219 76.3594 53.4844 76.0234C53.0469 75.6875 52.3164 75.4062 51.293 75.1797L49.0898 74.6992C45.9883 74.0352 44.4375 72.4609 44.4375 69.9766C44.4375 68.4297 45.043 67.1758 46.2539 66.2148C47.457 65.2695 49.0078 64.7969 50.9062 64.7969C52.8594 64.7969 54.4219 65.2617 55.5938 66.1914C56.75 67.1133 57.3438 68.3438 57.375 69.8828H54.0586C54.0039 69.1719 53.6875 68.6094 53.1094 68.1953C52.5391 67.7891 51.8086 67.5859 50.918 67.5859C50.043 67.5859 49.3398 67.7773 48.8086 68.1602C48.2695 68.543 48 69.0469 48 69.6719C48 70.1875 48.2188 70.6094 48.6562 70.9375C49.0859 71.25 49.7891 71.5195 50.7656 71.7461L52.8164 72.1797C54.5117 72.5391 55.7461 73.1016 56.5195 73.8672C57.293 74.625 57.6797 75.6484 57.6797 76.9375C57.6797 78.5781 57.0625 79.8789 55.8281 80.8398C54.5938 81.8086 52.9258 82.293 50.8242 82.293C48.7852 82.293 47.1641 81.8398 45.9609 80.9336C44.75 80.0195 44.1172 78.7695 44.0625 77.1836H47.4727ZM71.0156 82V74.875H63.3984V82H59.8594V65.0898H63.3984V71.957H71.0156V65.0898H74.5547V82H71.0156ZM84.5391 64.8203C86.8984 64.8203 88.7695 65.6055 90.1523 67.1758C91.5352 68.7461 92.2266 70.8711 92.2266 73.5508C92.2266 76.2305 91.5352 78.3516 90.1523 79.9141C88.7695 81.4844 86.8984 82.2695 84.5391 82.2695C82.1797 82.2695 80.3125 81.4844 78.9375 79.9141C77.5547 78.3516 76.8633 76.2305 76.8633 73.5508C76.8633 70.8711 77.5547 68.7461 78.9375 67.1758C80.3203 65.6055 82.1875 64.8203 84.5391 64.8203ZM84.5391 66.3086C82.6875 66.3086 81.2188 66.9609 80.1328 68.2656C79.0469 69.5703 78.5039 71.332 78.5039 73.5508C78.5039 75.7617 79.0469 77.5195 80.1328 78.8242C81.2266 80.1289 82.6953 80.7812 84.5391 80.7812C86.3906 80.7812 87.8633 80.1289 88.957 78.8242C90.043 77.5195 90.5859 75.7617 90.5859 73.5508C90.5859 71.332 90.043 69.5703 88.957 68.2656C87.8633 66.9609 86.3906 66.3086 84.5391 66.3086ZM94.7227 82V65.0898H96.3047L106.219 79.2109H106.301V65.0898H107.883V82H106.336L96.3867 67.8672H96.3047V82H94.7227ZM121.266 82H111.059V65.0898H121.266V66.543H112.652V72.625H120.832V74.0547H112.652V80.5469H121.266V82Z" fill="white"/>
<path d="M41.7818 37.2637C42.8243 36.2212 44.5145 36.2212 45.557 37.2637L53.7363 45.4431C54.7788 46.4855 54.7788 48.1757 53.7363 49.2182C52.6939 50.2606 51.0037 50.2606 49.9612 49.2182L41.7818 41.0388C40.7394 39.9963 40.7394 38.3061 41.7818 37.2637Z" fill="url(#paint0_linear)"/>
<path d="M42.6716 23.0269C43.7141 21.9844 45.4043 21.9844 46.4468 23.0269L67.839 44.4191C68.8815 45.4616 68.8815 47.1517 67.839 48.1942C66.7965 49.2367 65.1064 49.2367 64.0639 48.1942L42.6716 26.802C41.6292 25.7595 41.6292 24.0693 42.6716 23.0269Z" fill="url(#paint1_linear)"/>
<path d="M64.0269 1.67165C65.0693 0.629184 66.7595 0.629184 67.802 1.67165L89.1942 23.0639C90.2367 24.1064 90.2367 25.7965 89.1942 26.839C88.1517 27.8815 86.4616 27.8815 85.4191 26.839L64.0269 5.44675C62.9844 4.40429 62.9844 2.71412 64.0269 1.67165Z" fill="url(#paint2_linear)"/>
<path d="M78.2637 0.781849C79.3061 -0.260616 80.9963 -0.260616 82.0388 0.781849L90.2182 8.96124C91.2606 10.0037 91.2606 11.6939 90.2182 12.7363C89.1757 13.7788 87.4855 13.7788 86.4431 12.7363L78.2637 4.55695C77.2212 3.51449 77.2212 1.82432 78.2637 0.781849Z" fill="url(#paint3_linear)"/>
<path d="M75.2722 22.6749C74.2297 21.6324 72.5396 21.6324 71.4971 22.6749L63.8135 30.3584C62.7711 31.4009 62.7711 33.0911 63.8135 34.1335L72.9227 43.2427C73.9652 44.2852 75.6553 44.2852 76.6978 43.2427L78.5826 41.3578L71.2101 33.9853C70.1318 32.907 70.1318 31.1586 71.2101 30.0803C72.2884 29.002 74.0368 29.002 75.1151 30.0803L82.4876 37.4528L84.3814 35.5591C85.4238 34.5167 85.4238 32.8265 84.3814 31.784L75.2722 22.6749Z" fill="url(#paint4_linear)"/>
<path d="M70.0415 36.5878C71.0839 35.5453 72.7741 35.5453 73.8166 36.5878L81.996 44.7672C83.0384 45.8097 83.0384 47.4998 81.996 48.5423C80.9535 49.5848 79.2633 49.5848 78.2209 48.5423L70.0415 40.3629C68.999 39.3204 68.999 37.6303 70.0415 36.5878Z" fill="url(#paint5_linear)"/>
<path d="M77.7251 28.905C78.7676 27.8625 80.4578 27.8625 81.5002 28.905L89.6796 37.0844C90.7221 38.1268 90.7221 39.817 89.6796 40.8595C88.6372 41.9019 86.947 41.9019 85.9045 40.8595L77.7251 32.6801C76.6827 31.6376 76.6827 29.9475 77.7251 28.905Z" fill="url(#paint6_linear)"/>
<path d="M56.1893 26.6493C57.2318 27.6918 58.922 27.6918 59.9644 26.6493L67.648 18.9657C68.6905 17.9233 68.6905 16.2331 67.648 15.1906L58.5388 6.08147C57.4964 5.039 55.8062 5.039 54.7637 6.08146L52.8789 7.96631L60.2514 15.3388C61.3298 16.4172 61.3298 18.1655 60.2514 19.2438C59.1731 20.3222 57.4248 20.3222 56.3464 19.2438L48.9739 11.8713L47.0802 13.765C46.0377 14.8075 46.0377 16.4977 47.0802 17.5401L56.1893 26.6493Z" fill="url(#paint7_linear)"/>
<path d="M61.42 12.7363C60.3776 13.7788 58.6874 13.7788 57.6449 12.7363L49.4656 4.55696C48.4231 3.51449 48.4231 1.82432 49.4656 0.781853C50.508 -0.260613 52.1982 -0.260613 53.2407 0.781853L61.42 8.96124C62.4625 10.0037 62.4625 11.6939 61.42 12.7363Z" fill="url(#paint8_linear)"/>
<path d="M45.2331 8.18826V9.92301C45.2331 10.1185 45.2975 10.3085 45.4163 10.4638L46.8613 12.3518C47.1808 12.7693 47.7907 12.8203 48.175 12.4616L48.8882 11.7959L53.7364 16.6441C54.7789 17.6865 54.7789 19.3767 53.7364 20.4192C52.6939 21.4616 51.0038 21.4616 49.9613 20.4192L41.7819 12.2398C40.7394 11.1973 40.7394 9.50714 41.7819 8.46468C42.7222 7.52436 44.1895 7.43222 45.2331 8.18826Z" fill="url(#paint9_linear)"/>
<defs>
<linearGradient id="paint0_linear" x1="83.9394" y1="6.4576" x2="47.0127" y2="43.3843" gradientUnits="userSpaceOnUse">
<stop offset="0.00264941" stop-color="#783E97"/>
<stop offset="0.888832" stop-color="#32B0E5"/>
</linearGradient>
<linearGradient id="paint1_linear" x1="83.9394" y1="6.4576" x2="47.0127" y2="43.3843" gradientUnits="userSpaceOnUse">
<stop offset="0.00264941" stop-color="#783E97"/>
<stop offset="0.888832" stop-color="#32B0E5"/>
</linearGradient>
<linearGradient id="paint2_linear" x1="83.9394" y1="6.4576" x2="47.0127" y2="43.3843" gradientUnits="userSpaceOnUse">
<stop offset="0.00264941" stop-color="#783E97"/>
<stop offset="0.888832" stop-color="#32B0E5"/>
</linearGradient>
<linearGradient id="paint3_linear" x1="83.9394" y1="6.4576" x2="47.0127" y2="43.3843" gradientUnits="userSpaceOnUse">
<stop offset="0.00264941" stop-color="#783E97"/>
<stop offset="0.888832" stop-color="#32B0E5"/>
</linearGradient>
<linearGradient id="paint4_linear" x1="83.9394" y1="6.4576" x2="47.0127" y2="43.3843" gradientUnits="userSpaceOnUse">
<stop offset="0.00264941" stop-color="#783E97"/>
<stop offset="0.888832" stop-color="#32B0E5"/>
</linearGradient>
<linearGradient id="paint5_linear" x1="83.9394" y1="6.4576" x2="47.0127" y2="43.3843" gradientUnits="userSpaceOnUse">
<stop offset="0.00264941" stop-color="#783E97"/>
<stop offset="0.888832" stop-color="#32B0E5"/>
</linearGradient>
<linearGradient id="paint6_linear" x1="83.9394" y1="6.4576" x2="47.0127" y2="43.3843" gradientUnits="userSpaceOnUse">
<stop offset="0.00264941" stop-color="#783E97"/>
<stop offset="0.888832" stop-color="#32B0E5"/>
</linearGradient>
<linearGradient id="paint7_linear" x1="83.9394" y1="6.4576" x2="47.0127" y2="43.3843" gradientUnits="userSpaceOnUse">
<stop offset="0.00264941" stop-color="#783E97"/>
<stop offset="0.888832" stop-color="#32B0E5"/>
</linearGradient>
<linearGradient id="paint8_linear" x1="83.9394" y1="6.4576" x2="47.0127" y2="43.3843" gradientUnits="userSpaceOnUse">
<stop offset="0.00264941" stop-color="#783E97"/>
<stop offset="0.888832" stop-color="#32B0E5"/>
</linearGradient>
<linearGradient id="paint9_linear" x1="83.9394" y1="6.4576" x2="47.0127" y2="43.3843" gradientUnits="userSpaceOnUse">
<stop offset="0.00264941" stop-color="#783E97"/>
<stop offset="0.888832" stop-color="#32B0E5"/>
</linearGradient>
</defs>
</svg>
