<svg width="45" height="27" viewBox="0 0 45 27" fill="none" xmlns="http://www.w3.org/2000/svg">
<path d="M43.8646 20.612C43.7949 20.5738 43.7243 20.5542 43.6518 20.5542C43.5775 20.5542 43.5069 20.5738 43.4381 20.612C43.3694 20.6501 43.3127 20.7032 43.2746 20.774C43.2346 20.8429 43.217 20.9155 43.217 20.99C43.217 21.0645 43.2365 21.138 43.2746 21.206C43.3145 21.2749 43.3684 21.3307 43.4363 21.3689C43.505 21.4071 43.5775 21.4266 43.6537 21.4266C43.728 21.4266 43.8005 21.4071 43.8683 21.3689C43.9361 21.3307 43.991 21.2749 44.0291 21.206C44.0681 21.138 44.0867 21.0654 44.0867 20.99C44.0867 20.9146 44.0671 20.8429 44.0291 20.774C43.9891 20.7013 43.9343 20.6501 43.8646 20.612ZM43.7615 21.2339L43.7206 21.1594C43.6881 21.1017 43.6611 21.0635 43.6407 21.0486C43.6277 21.0393 43.6072 21.0319 43.5812 21.0319H43.5375V21.232H43.4613V20.7619H43.623C43.6788 20.7619 43.7187 20.7665 43.741 20.7758C43.7661 20.7851 43.7875 20.7982 43.8005 20.8214C43.8153 20.8429 43.8219 20.8661 43.8219 20.8903C43.8219 20.9248 43.8088 20.9537 43.7856 20.9807C43.7615 21.0049 43.728 21.0207 43.6881 21.0235C43.7048 21.0291 43.7178 21.0384 43.728 21.0486C43.7475 21.0672 43.7698 21.098 43.7977 21.1408L43.8553 21.233H43.7615V21.2339ZM43.7169 20.9481C43.7001 20.9639 43.6713 20.9676 43.6277 20.9676H43.5347V20.828H43.6221C43.6583 20.828 43.6816 20.8308 43.6964 20.8363C43.7113 20.8419 43.7196 20.8522 43.7289 20.8587C43.7364 20.8717 43.7401 20.882 43.7401 20.8969C43.7401 20.9192 43.7327 20.9341 43.7169 20.9481ZM43.2885 16.2071C43.2309 16.2369 43.1854 16.2834 43.1529 16.3421C43.1204 16.4007 43.1036 16.4631 43.1036 16.5236C43.1036 16.586 43.1204 16.6475 43.151 16.7043C43.1854 16.762 43.2291 16.8058 43.2867 16.8402C43.3443 16.8719 43.4037 16.8905 43.466 16.8905C43.5282 16.8905 43.5896 16.8719 43.6453 16.8402C43.7029 16.8076 43.7475 16.7629 43.781 16.7043C43.8135 16.6465 43.8284 16.586 43.8284 16.5236C43.8284 16.4631 43.8116 16.4007 43.7791 16.3421C43.7466 16.2844 43.7011 16.2397 43.6435 16.2071C43.5859 16.1745 43.5273 16.1587 43.466 16.1587C43.4065 16.1587 43.3461 16.1754 43.2885 16.2071ZM43.6165 16.3533C43.6323 16.3737 43.6379 16.397 43.6379 16.4222C43.6379 16.4566 43.6249 16.4855 43.6007 16.5115C43.5766 16.5385 43.5431 16.5497 43.5041 16.5544C43.5227 16.5618 43.5348 16.5702 43.544 16.5786C43.5636 16.5981 43.5859 16.6261 43.6128 16.6707L43.6704 16.7639H43.5775L43.5357 16.6912C43.5032 16.6326 43.4771 16.5953 43.4576 16.5814C43.4418 16.5693 43.4233 16.5637 43.3963 16.5637H43.3536V16.7629H43.2755V16.2937H43.4381C43.4929 16.2937 43.5338 16.2983 43.5571 16.3086C43.5803 16.3169 43.6007 16.3328 43.6165 16.3533ZM43.4381 16.357C43.4753 16.357 43.4985 16.3616 43.5143 16.3663C43.5282 16.3728 43.5385 16.3803 43.5459 16.3896C43.5543 16.4026 43.558 16.4119 43.558 16.4277C43.558 16.4482 43.5496 16.4659 43.5357 16.4799C43.518 16.4938 43.4892 16.4994 43.4456 16.4994H43.3536V16.3579H43.4381V16.357ZM33.4871 14.4278C33.7314 14.4287 33.7574 14.4529 33.7992 14.4613C33.8262 14.7025 33.6478 15.8365 32.7846 15.8365C32.3386 15.8365 32.2234 15.4976 32.2234 15.2946C32.2234 14.9008 32.4362 14.4278 33.4871 14.4278ZM10.2419 14.4278C10.4872 14.4287 10.5132 14.4529 10.5541 14.4613C10.582 14.7025 10.4026 15.8365 9.53946 15.8365C9.0944 15.8365 8.97826 15.4976 8.97826 15.2946C8.97826 14.9008 9.19103 14.4278 10.2419 14.4278ZM31.5303 4.30336e-07C28.0544 0.000931497 24.886 1.32118 22.4972 3.48964C20.1075 1.32398 16.941 0.00279387 13.4679 0.00279387C13.439 0.00279387 13.4093 0.00279387 13.3814 0.00279387C5.98736 0.0512093 0 6.07893 0 13.4995C0 20.949 6.03382 26.9953 13.4679 26.9953C16.94 26.9953 20.1065 25.676 22.4963 23.5085C21.9973 23.0569 21.5458 22.557 21.1193 22.0337H23.9002C23.4812 22.5486 23.024 23.0309 22.5325 23.4796H22.5297H22.5307C22.5195 23.4917 22.5074 23.4992 22.4963 23.5094C24.887 25.6788 28.0572 27.0009 31.5359 27C38.9745 26.9972 45.0019 20.9527 45 13.4995C45 13.4967 45 13.4949 45 13.493C45 6.03983 38.969 -0.0018617 31.5303 4.30336e-07ZM21.2726 4.88344H23.8324C24.2096 5.34153 24.5599 5.82382 24.8777 6.32846H20.311C20.6055 5.84524 20.9288 5.34991 21.2726 4.88344ZM19.5156 7.74647H25.6544C25.8728 8.21387 26.066 8.69709 26.2351 9.19242H18.7881C18.8624 9.05276 19.1226 8.4904 19.5156 7.74647ZM5.49771 16.937L6.31442 11.7771L4.47194 16.937H3.48427L3.35605 11.7771L2.48359 16.937H1.1001L2.24665 10.0937H4.33907L4.41248 14.2928L5.82569 10.0937H8.09558L6.96482 16.937H5.49771ZM10.3896 16.9296L10.437 16.3793C10.4147 16.3821 9.97801 17.0394 8.96618 17.0394C8.43657 17.0394 7.58176 16.7499 7.58176 15.4911C7.58176 13.8906 8.88442 13.3599 10.1248 13.3599C10.3199 13.3599 10.7408 13.3953 10.7408 13.3953C10.7408 13.3953 10.7882 13.2975 10.7882 13.0331C10.7882 12.5983 10.398 12.5387 9.86373 12.5387C8.92251 12.5387 8.30092 12.791 8.30092 12.791L8.50904 11.5527C8.50904 11.5527 9.2635 11.2361 10.2456 11.2361C10.7538 11.2361 12.2154 11.2901 12.2154 12.9688L11.6523 16.9259H10.3896V16.9296ZM15.7266 15.1838C15.7266 17.0935 13.8804 17.0115 13.558 17.0115C12.3547 17.0115 11.9831 16.8449 11.9487 16.8355L12.1401 15.5786C12.142 15.5674 12.7441 15.7974 13.414 15.7974C13.8005 15.7974 14.3022 15.7592 14.3022 15.2965C14.3022 14.6038 12.5071 14.7695 12.5071 13.1243C12.5071 11.6728 13.5831 11.2482 14.6441 11.2482C15.4636 11.2482 15.9672 11.3609 15.9672 11.3609L15.7861 12.629C15.7861 12.629 15.0084 12.5647 14.8067 12.5647C14.2966 12.5647 14.0188 12.6765 14.0188 13.034C14.0179 13.7519 15.7266 13.399 15.7266 15.1838ZM17.9435 15.6838C18.0708 15.6838 18.2148 15.6401 18.3133 15.6401L18.134 16.8607C17.99 16.9007 17.5821 17.046 17.059 17.0497C16.3909 17.0553 15.9161 16.681 15.9161 15.8319C15.9161 15.262 16.731 10.5667 16.7626 10.536H18.1962L18.0504 11.3758H18.7658L18.5828 12.7286H17.8237L17.4204 15.2211C17.3897 15.4185 17.4446 15.6838 17.9435 15.6838ZM21.097 11.2166C22.671 11.2166 23.142 12.3711 23.142 13.318C23.142 13.6969 22.9525 14.628 22.9525 14.628H20.0387C20.0387 14.628 19.7693 15.7779 21.3088 15.7779C22.0308 15.7779 22.8317 15.4241 22.8317 15.4241L22.579 16.8095C22.579 16.8095 22.1163 17.046 21.0645 17.046C19.9244 17.046 18.5874 16.5627 18.5874 14.533C18.5883 12.7742 19.655 11.2175 21.097 11.2166ZM24.8953 20.6427H20.1168C19.8259 20.1771 19.5546 19.6995 19.3214 19.1977H25.6795C25.4463 19.6967 25.1843 20.179 24.8953 20.6427ZM24.5748 16.9473H23.103L23.9978 11.3776H25.3329L25.2047 12.1849C25.2047 12.1849 25.6804 11.3069 26.3225 11.3069C26.5092 11.3069 26.5994 11.3255 26.5994 11.3255C26.4089 11.7147 26.2407 12.0713 26.066 12.9921C25.07 12.6374 24.9938 14.5675 24.5748 16.9473ZM30.1821 16.8607C30.1821 16.8607 29.4109 17.0581 28.9278 17.0581C27.2163 17.0581 26.3476 15.8747 26.3476 14.0824C26.3476 11.3795 27.9578 9.94007 29.6126 9.94007C30.3605 9.94007 31.2274 10.292 31.2274 10.292L30.9932 11.8143C30.9932 11.8143 30.407 11.4037 29.6776 11.4037C28.702 11.4037 27.8267 12.3366 27.8267 14.0321C27.8267 14.8673 28.2346 15.6456 29.253 15.6456C29.7371 15.6456 30.4386 15.2928 30.4386 15.2928L30.1821 16.8607ZM33.6339 16.9296L33.6822 16.3793C33.6589 16.3821 33.2222 17.0394 32.2113 17.0394C31.6817 17.0394 30.8269 16.7499 30.8269 15.4911C30.8269 13.8906 32.1296 13.3599 33.3691 13.3599C33.5642 13.3599 33.986 13.3953 33.986 13.3953C33.986 13.3953 34.0343 13.2984 34.0343 13.034C34.0343 12.5992 33.6441 12.5396 33.1089 12.5396C32.1677 12.5396 31.547 12.7919 31.547 12.7919L31.7551 11.5536C31.7551 11.5536 32.5096 11.237 33.4926 11.237C33.9999 11.237 35.4624 11.291 35.4615 12.9698L34.8984 16.9268C34.8975 16.9296 33.6339 16.9296 33.6339 16.9296ZM36.6136 16.9473H35.1418L36.0366 11.3776H37.3727L37.2445 12.1849C37.2445 12.1849 37.7211 11.3069 38.3632 11.3069C38.5499 11.3069 38.6391 11.3255 38.6391 11.3255C38.4496 11.7147 38.2795 12.0713 38.1058 12.9921C37.1088 12.6374 37.0326 14.5675 36.6136 16.9473ZM43.8442 16.3058C43.8841 16.3756 43.9018 16.4482 43.9018 16.5236C43.9018 16.5991 43.8832 16.6698 43.8442 16.7396C43.8061 16.8085 43.7522 16.8616 43.6834 16.9026C43.6156 16.9408 43.5431 16.9603 43.4669 16.9603C43.3926 16.9603 43.321 16.9408 43.2523 16.9026C43.1835 16.8616 43.1296 16.8085 43.0915 16.7396C43.0525 16.6698 43.0339 16.5991 43.0339 16.5236C43.0339 16.4473 43.0535 16.3747 43.0915 16.3058C43.1296 16.2369 43.1863 16.181 43.2542 16.1438C43.3248 16.1056 43.3945 16.086 43.4669 16.086C43.5413 16.086 43.6119 16.1056 43.6806 16.1438C43.7512 16.1819 43.8051 16.235 43.8442 16.3058ZM41.7517 12.0247L42.0621 10.1021L43.4994 10.0993L42.4031 16.9314H41.0084L41.0707 16.4184C41.0707 16.4184 40.595 17.0199 39.7346 17.0199C38.5425 17.0199 37.9581 15.8663 37.9581 14.6876C37.9581 12.8645 39.0526 11.2752 40.3664 11.2752C41.2119 11.2771 41.7517 12.0247 41.7517 12.0247ZM21.7623 13.4884H20.1707C20.1707 13.3943 20.3212 12.5033 21.1026 12.5033C21.9119 12.5033 21.7623 13.4157 21.7623 13.4884ZM40.6145 12.6597C41.1301 12.6597 41.3949 13.0144 41.3949 13.8505C41.3949 14.6075 41.0205 15.6233 40.2437 15.6233C39.7271 15.6233 39.4856 15.1876 39.4856 14.5079C39.4846 13.3934 39.9836 12.6597 40.6145 12.6597Z" fill="white"/>
</svg>
