<svg width="17" height="18" viewBox="0 0 17 18" fill="none" xmlns="http://www.w3.org/2000/svg">
<path d="M16 3.90909C16 2.30502 14.7539 1 13.2222 1C11.9808 1 10.9275 1.8576 10.5725 3.03636H2.45417C1.6525 3.03636 1 3.71971 1 4.55927V15.4768C1 16.3167 1.6525 17 2.45417 17H12.8789C13.6808 17 14.3331 16.3167 14.3331 15.4771V6.57353C15.3131 6.12349 16 5.0992 16 3.90909ZM13.7778 15.4771C13.7778 15.9961 13.3747 16.4182 12.8792 16.4182H2.45417C1.95861 16.4182 1.55556 15.9961 1.55556 15.4771V4.55927C1.55556 4.04029 1.95861 3.61818 2.45417 3.61818H10.4583C10.4494 3.71389 10.4444 3.81076 10.4444 3.90909C10.4444 5.51316 11.6906 6.81818 13.2222 6.81818C13.4125 6.81818 13.5983 6.79782 13.7778 6.75942V15.4771ZM13.9594 6.10196C13.9044 6.12233 13.8489 6.13978 13.7931 6.15578C13.7831 6.15869 13.7728 6.16131 13.7628 6.16393C13.7136 6.17702 13.6642 6.18836 13.6144 6.19796C13.5889 6.20291 13.5628 6.2064 13.5369 6.21047C13.4997 6.21629 13.4622 6.22211 13.425 6.22589C13.3581 6.232 13.2906 6.23636 13.2222 6.23636C11.9969 6.23636 11 5.19229 11 3.90909C11 3.74036 11.0192 3.56669 11.0572 3.39215C11.2825 2.35709 12.1667 1.58182 13.2222 1.58182C14.4475 1.58182 15.4444 2.62589 15.4444 3.90909C15.4444 4.92145 14.8228 5.78255 13.9594 6.10196Z" fill="white" stroke="white" stroke-width="0.4"/>
</svg>
