<svg width="60" height="16" viewBox="0 0 60 16" fill="none" xmlns="http://www.w3.org/2000/svg">
<path d="M10.7544 2.60648C10.558 2.21838 10.2473 1.89829 9.86162 1.65792C9.45928 1.41521 8.98433 1.2452 8.44154 1.14437C7.88922 1.04588 7.2512 1.00132 6.51199 0.994286L3.09928 0.996629C2.74456 1.00132 2.39698 1.27334 2.31366 1.61102L0.017488 11.4624C-0.0658359 11.7954 0.156758 12.0745 0.51148 12.0745H2.14582C2.50054 12.0745 2.85169 11.8036 2.93025 11.4624L3.49091 9.0705C3.5659 8.7375 3.91586 8.45962 4.27415 8.45962H4.74195C6.74054 8.45728 8.28798 8.05511 9.39976 7.2496C10.5175 6.44291 11.0686 5.37711 11.0686 4.05687C11.0674 3.47882 10.971 2.99341 10.7544 2.60648ZM7.22977 5.825C6.73578 6.18145 6.04895 6.35967 5.16334 6.35967H4.76338C4.40747 6.35967 4.18964 6.08296 4.26701 5.74527L4.75862 3.65353C4.82766 3.31819 5.18595 3.04031 5.5371 3.04265L6.07276 3.03913C6.69769 3.03913 7.17501 3.14583 7.49402 3.35219C7.80947 3.55621 7.96778 3.88099 7.9654 4.3113C7.97492 4.96556 7.72138 5.46856 7.22977 5.825ZM29.6963 4.53877L23.1851 15.3856C22.9756 15.7245 22.5126 15.9977 22.1602 15.9977L20.4676 16C20.1164 16 20.0009 15.7245 20.2152 15.3868L21.6627 12.9034C21.6627 12.9034 21.7793 12.7592 21.6758 11.9502C21.4532 10.4834 20.3414 4.2515 20.3414 4.2515C20.2616 3.91382 20.4783 3.63711 20.8306 3.63711L22.2947 3.63476C22.7435 3.63476 23.1042 3.92555 23.1851 4.26557L23.9136 8.5886L24.185 8.59212C24.4124 8.19464 26.7526 4.23861 26.7526 4.23861C26.9763 3.90444 27.4287 3.62421 27.781 3.62421C27.781 3.62421 29.3535 3.6289 29.7403 3.62421C30.3224 3.61132 29.6963 4.53877 29.6963 4.53877ZM40.432 2.64283C40.2272 2.25238 39.9201 1.93698 39.5321 1.69075C39.1345 1.44687 38.6631 1.27569 38.112 1.1772C37.5704 1.08222 36.924 1.03063 36.1896 1.02946L32.7721 1.03181C32.4162 1.03767 32.0746 1.30969 31.9925 1.64385L29.6939 11.4999C29.6106 11.8341 29.8391 12.1108 30.1867 12.1108L31.8234 12.1085C32.171 12.1108 32.5269 11.8364 32.609 11.4988L33.1626 9.10567C33.2435 8.77268 33.5947 8.49245 33.9482 8.4948H34.416C36.417 8.4948 37.968 8.08911 39.0845 7.28594C40.188 6.4734 40.7462 5.40994 40.7462 4.08853C40.7403 3.51283 40.6391 3.02624 40.432 2.64283ZM36.9074 5.86604C36.4146 6.21545 35.7266 6.39367 34.8457 6.39367H34.4386C34.0875 6.39719 33.8601 6.11578 33.9387 5.78045L34.4338 3.69222C34.5065 3.35805 34.8612 3.07783 35.2147 3.08134L35.7444 3.07782C36.3729 3.08134 36.8443 3.18335 37.1657 3.38971C37.4859 3.59607 37.6371 3.91968 37.6406 4.34882C37.6442 5.00308 37.3978 5.50725 36.9074 5.86604ZM18.6344 4.01466C18.0178 3.67229 17.0441 3.5011 15.7133 3.5011C15.0551 3.5011 14.3992 3.55152 13.7362 3.65235C13.2469 3.72622 13.1993 3.74029 12.8982 3.80478C12.2768 3.93844 12.1792 4.54932 12.1792 4.54932L11.9792 5.35952C11.8662 5.87659 12.1685 5.85666 12.2947 5.81328C12.5661 5.73355 12.7172 5.65147 13.2719 5.52953C13.8016 5.41111 14.3599 5.322 14.8027 5.32786C15.4562 5.32786 15.9562 5.39587 16.2895 5.53422C16.618 5.67492 16.7823 5.91646 16.7823 6.26587L16.7537 6.49333L16.518 6.63638C15.5907 6.69383 14.9206 6.77825 14.1076 6.89433C13.3124 7.00337 12.6149 7.19449 12.0352 7.45596C11.4126 7.72563 10.9508 8.08794 10.6282 8.54873C10.3163 9.01187 10.1604 9.5735 10.1604 10.2324C10.1604 10.8527 10.3866 11.3651 10.8258 11.7614C11.2674 12.1507 11.8507 12.3406 12.5482 12.3406C12.9898 12.3383 13.3315 12.3043 13.5743 12.2468L14.3659 11.9783L15.036 11.6125L15.6526 11.2115L15.661 11.2232L15.5991 11.4812L15.5955 11.4917V11.4941C15.5288 11.8083 15.7217 12.0662 16.0323 12.0967L16.0383 12.1038H16.0669H17.3203H17.556L17.5774 12.0944C17.9036 12.0569 18.2095 11.7989 18.2809 11.4917L19.4724 6.41126L19.5343 5.99736L19.5629 5.60926C19.5677 4.88934 19.2522 4.35586 18.6344 4.01466ZM15.999 9.7271L15.7443 10.0577L15.1015 10.3849C14.7992 10.5056 14.5123 10.5666 14.2468 10.5666C13.8445 10.5666 13.5291 10.5092 13.316 10.3919L13.0005 9.78807C13.0005 9.46094 13.0767 9.20182 13.2398 9.00249L13.9326 8.53818C14.229 8.43969 14.5908 8.35644 15.0098 8.29899C15.3836 8.25326 16.1216 8.17001 16.218 8.16767L16.3311 8.36348C16.3097 8.47486 16.1002 9.33783 15.999 9.7271ZM56.8063 0.446725H57.3527V0.66833H56.8063V1.38473L56.8087 1.57819L56.848 1.70717L56.9337 1.78924L57.1015 1.81504L57.2384 1.79628L57.3408 1.76579H57.3551V2.00147L57.1896 2.03312L57.0337 2.04602L56.6623 1.9147L56.5361 1.50198V0.66833H56.3528V0.446725H56.5361V0H56.8063V0.446725ZM48.318 4.02169C47.6978 3.67932 46.7253 3.50696 45.3981 3.50696C44.7398 3.50696 44.0828 3.55738 43.4221 3.66173C42.9317 3.73208 42.8829 3.74732 42.5805 3.81064C41.9604 3.94313 41.864 4.55635 41.864 4.55635L41.664 5.36538C41.5521 5.88246 41.8473 5.85901 41.9854 5.81914C42.258 5.73941 42.4044 5.66085 42.9543 5.53422C43.4816 5.41697 44.0447 5.33021 44.4887 5.33255C45.1398 5.33255 45.6397 5.40173 45.9718 5.54008C46.3027 5.68079 46.4646 5.92467 46.4646 6.27056L46.4396 6.49685L46.2063 6.64341C45.2695 6.69852 44.5982 6.78294 43.7935 6.89902C43.0007 7.00806 42.3008 7.19801 41.7199 7.46065C41.0998 7.7315 40.632 8.0938 40.3129 8.55577C39.9975 9.01891 39.8439 9.57936 39.8439 10.2324C39.8439 10.8574 40.0677 11.3698 40.5129 11.7637C40.9569 12.1518 41.5342 12.3465 42.2318 12.3465C42.671 12.3418 43.0126 12.3136 43.2567 12.2515L44.0458 11.9865L44.722 11.6207L45.3338 11.215L45.3445 11.2279L45.2886 11.4882L45.2826 11.4929L45.285 11.4976C45.2112 11.8118 45.4052 12.0721 45.7195 12.1003L45.7219 12.1061H45.7504C45.9564 12.1061 46.6682 12.1061 47.0074 12.1061H47.2383L47.2633 12.0979C47.5859 12.0592 47.8907 11.8013 47.9585 11.4905L49.1536 6.41712L49.2167 6.00088L49.2512 5.61161C49.2524 4.89404 48.9405 4.36289 48.318 4.02169ZM45.6885 9.73413L45.4231 10.0683L44.7862 10.3931C44.4839 10.5127 44.1958 10.5748 43.9352 10.5748C43.5197 10.5748 43.2126 10.5162 43.0055 10.3989L42.6865 9.79745C42.6865 9.46915 42.7639 9.21237 42.9198 9.00953C43.0781 8.81841 43.3197 8.66129 43.6197 8.54639C43.9125 8.4479 44.2744 8.36817 44.6958 8.30837C45.0672 8.26264 45.8028 8.17705 45.898 8.17588L46.0135 8.37169C45.9968 8.48307 45.7861 9.34252 45.6885 9.73413ZM54.4459 1.72241L54.4506 1.72358L52.2628 11.4917L52.1842 11.609C52.0569 11.8833 51.7771 12.1061 51.4795 12.1061H49.9595L49.9345 12.0721C49.644 12.0287 49.456 11.8013 49.5238 11.4999L49.5214 11.4929L49.5881 11.2115L51.6343 2.04954L51.7081 1.73062L51.789 1.60633C51.9212 1.33666 52.1914 1.1174 52.4913 1.1174H53.9554C54.3066 1.11271 54.5209 1.3859 54.4459 1.72241ZM59.875 0.560458L60 0.997804V2.01436H59.7334V1.11974L59.7155 0.928626L59.6822 0.777371L59.587 0.687088L59.412 0.65543L59.1882 0.710539L58.962 0.852412L58.9668 0.928626L58.9715 1.01187V2.01319H58.7061V1.11857L58.693 0.925108L58.6537 0.775027L58.5644 0.684745L58.3835 0.653086L58.1621 0.707021L57.9395 0.843033V2.01202H57.6753V0.446725H57.9407V0.620256L58.1919 0.460796L58.4573 0.403344L58.7335 0.46783L58.9037 0.654258L59.1965 0.459622L59.4846 0.40217L59.875 0.560458Z" fill="white"/>
</svg>
