<svg width="17" height="17" viewBox="0 0 17 17" fill="none" xmlns="http://www.w3.org/2000/svg">
<mask id="path-1-inside-1" fill="white">
<path d="M8.20571 12.0665V11.1889C7.70132 11.1801 7.18023 11.0239 6.87524 10.8073L7.08348 10.2248C7.39829 10.4331 7.84817 10.5991 8.33536 10.5991C8.95418 10.5991 9.36919 10.242 9.36919 9.74744C9.36919 9.26958 9.0308 8.97441 8.38792 8.71362C7.50143 8.36639 6.95481 7.96662 6.95481 7.21028C6.95481 6.48882 7.46705 5.94219 8.2671 5.81155V4.93243H8.80439V5.7757C9.32548 5.79289 9.68203 5.93286 9.93447 6.07971L9.7169 6.65433C9.53371 6.54873 9.17863 6.35768 8.62316 6.35768C7.95278 6.35768 7.70132 6.75746 7.70132 7.10469C7.70132 7.55751 8.02252 7.78294 8.77836 8.09578C9.67319 8.46118 10.125 8.91204 10.125 9.68507C10.125 10.3717 9.64716 11.0146 8.75135 11.1624V12.0661H8.20571V12.0665Z"/>
</mask>
<path d="M8.20571 11.1889H9.20571V10.2063L8.22323 10.1891L8.20571 11.1889ZM6.87524 10.8073L5.93361 10.4707L5.67859 11.184L6.29624 11.6226L6.87524 10.8073ZM7.08348 10.2248L7.63518 9.39077L6.57126 8.68703L6.14185 9.88818L7.08348 10.2248ZM8.38792 8.71362L8.76384 7.78689L8.75263 7.7825L8.38792 8.71362ZM8.2671 5.81155L8.42825 6.79848L9.2671 6.66151V5.81155H8.2671ZM8.2671 4.93243V3.93243H7.2671V4.93243H8.2671ZM8.80439 4.93243H9.80439V3.93243H8.80439V4.93243ZM8.80439 5.7757H7.80439V6.74326L8.77142 6.77516L8.80439 5.7757ZM9.93447 6.07971L10.8697 6.43381L11.1697 5.64138L10.4373 5.21532L9.93447 6.07971ZM9.7169 6.65433L9.21752 7.5207L10.2359 8.1077L10.6521 7.00842L9.7169 6.65433ZM8.77836 8.09578L8.39592 9.01977L8.40032 9.02157L8.77836 8.09578ZM8.75135 11.1624L8.58853 10.1757L7.75135 10.3139V11.1624H8.75135ZM8.75135 12.0661V13.0661H9.75135V12.0661H8.75135ZM8.20571 12.0661V11.0661H7.20571V12.0661H8.20571ZM9.20571 12.0665V11.1889H7.20571V12.0665H9.20571ZM8.22323 10.1891C7.86897 10.1828 7.55754 10.0653 7.45424 9.99197L6.29624 11.6226C6.80293 11.9824 7.53367 12.1773 8.18818 12.1887L8.22323 10.1891ZM7.81688 11.1439L8.02512 10.5615L6.14185 9.88818L5.93361 10.4707L7.81688 11.1439ZM6.53179 11.0589C6.99214 11.3634 7.63134 11.5991 8.33536 11.5991V9.59906C8.06499 9.59906 7.80445 9.50274 7.63518 9.39077L6.53179 11.0589ZM8.33536 11.5991C8.83239 11.5991 9.33131 11.455 9.72493 11.1266C10.1306 10.7882 10.3692 10.2955 10.3692 9.74744H8.36919C8.36919 9.72889 8.37365 9.69771 8.39018 9.66267C8.40651 9.62804 8.42774 9.60418 8.44374 9.59083C8.47515 9.56463 8.45716 9.59906 8.33536 9.59906V11.5991ZM10.3692 9.74744C10.3692 9.23238 10.1715 8.78918 9.82923 8.44452C9.52312 8.13625 9.13073 7.9358 8.76382 7.78696L8.01201 9.64028C8.14231 9.69314 8.23727 9.73983 8.30559 9.78C8.37406 9.82026 8.40276 9.84641 8.41004 9.85374C8.41456 9.85829 8.39924 9.84364 8.38499 9.80989C8.37839 9.79425 8.37407 9.77924 8.3716 9.76647C8.36918 9.75396 8.36919 9.74701 8.36919 9.74744H10.3692ZM8.75263 7.7825C8.34309 7.62209 8.13448 7.49301 8.03195 7.39445C7.98953 7.35367 7.97606 7.32799 7.97069 7.31567C7.9657 7.30423 7.95481 7.27519 7.95481 7.21028H5.95481C5.95481 7.87297 6.21148 8.41867 6.64591 8.83629C7.03831 9.2135 7.54625 9.45792 8.0232 9.64474L8.75263 7.7825ZM7.95481 7.21028C7.95481 7.06196 8.02505 6.86432 8.42825 6.79848L8.10594 4.82462C6.90905 5.02006 5.95481 5.91567 5.95481 7.21028H7.95481ZM9.2671 5.81155V4.93243H7.2671V5.81155H9.2671ZM8.2671 5.93243H8.80439V3.93243H8.2671V5.93243ZM7.80439 4.93243V5.7757H9.80439V4.93243H7.80439ZM8.77142 6.77516C9.11327 6.78643 9.30976 6.87319 9.43165 6.94409L10.4373 5.21532C10.0543 4.99253 9.53769 4.79934 8.83736 4.77624L8.77142 6.77516ZM8.99927 5.72561L8.7817 6.30023L10.6521 7.00842L10.8697 6.43381L8.99927 5.72561ZM10.2163 5.78795C9.96575 5.64353 9.43085 5.35768 8.62316 5.35768V7.35768C8.78292 7.35768 8.9029 7.38463 8.99062 7.41416C9.07969 7.44414 9.14803 7.48065 9.21752 7.5207L10.2163 5.78795ZM8.62316 5.35768C8.0837 5.35768 7.5825 5.52358 7.21187 5.88583C6.8499 6.23962 6.70132 6.69555 6.70132 7.10469H8.70132C8.70132 7.1666 8.67847 7.24903 8.60982 7.31612C8.57662 7.34858 8.54755 7.36191 8.53841 7.36524C8.53119 7.36787 8.55462 7.35768 8.62316 7.35768V5.35768ZM6.70132 7.10469C6.70132 7.63466 6.9179 8.0747 7.30002 8.40715C7.6108 8.67755 8.01952 8.86397 8.39592 9.01976L9.1608 7.1718C8.98452 7.09884 8.85542 7.03982 8.75904 6.98881C8.66127 6.93705 8.62212 6.90642 8.61278 6.8983C8.60868 6.89473 8.64077 6.92222 8.66926 6.98318C8.69856 7.04588 8.70132 7.09519 8.70132 7.10469H6.70132ZM8.40032 9.02157C8.78563 9.17891 8.95946 9.31074 9.03713 9.39885C9.08608 9.45439 9.12503 9.51865 9.12503 9.68507H11.125C11.125 9.07846 10.9381 8.53078 10.5374 8.07628C10.1654 7.65435 9.66593 7.37805 9.1564 7.16999L8.40032 9.02157ZM9.12503 9.68507C9.12503 9.79365 9.08858 9.89049 9.02091 9.96799C8.95587 10.0425 8.82893 10.1361 8.58853 10.1757L8.91417 12.149C10.2681 11.9256 11.125 10.8858 11.125 9.68507H9.12503ZM7.75135 11.1624V12.0661H9.75135V11.1624H7.75135ZM8.75135 11.0661H8.20571V13.0661H8.75135V11.0661ZM7.20571 12.0661V12.0665H9.20571V12.0661H7.20571Z" fill="white" mask="url(#path-1-inside-1)"/>
<path d="M8.5 16C12.6421 16 16 12.6421 16 8.5C16 4.35786 12.6421 1 8.5 1C4.35786 1 1 4.35786 1 8.5C1 12.6421 4.35786 16 8.5 16Z" stroke="white" stroke-miterlimit="10" stroke-linecap="round" stroke-linejoin="round"/>
</svg>
