<svg width="17" height="17" viewBox="0 0 17 17" fill="none" xmlns="http://www.w3.org/2000/svg">
<path d="M15.9998 2.43004C15.9998 3.22002 13.7086 3.86008 10.8788 3.86008C8.05153 3.86008 5.75781 3.22002 5.75781 2.43004C5.75781 1.64056 8.05153 1 10.8788 1C13.7086 1 15.9998 1.64056 15.9998 2.43004Z" stroke="white" stroke-miterlimit="10" stroke-linecap="round"/>
<path d="M16 4.96857C16 5.75905 13.7088 6.39911 10.879 6.39911C10.3394 6.39911 9.81845 6.37539 9.32982 6.33198C9.27026 6.32693 6.21685 5.94531 6.17041 5.90796" stroke="white" stroke-miterlimit="10" stroke-linecap="round"/>
<path d="M15.9998 7.74234C15.9998 8.51011 13.8388 9.13604 11.1246 9.17137" stroke="white" stroke-miterlimit="10" stroke-linecap="round"/>
<path d="M15.9999 10.5161C15.9999 11.2768 13.8803 11.8977 11.204 11.9436" stroke="white" stroke-miterlimit="10" stroke-linecap="round"/>
<path d="M5.7583 2.88181V6.12097" stroke="white" stroke-miterlimit="10" stroke-linecap="round"/>
<path d="M15.9999 2.88181V10.4772" stroke="white" stroke-miterlimit="10" stroke-linecap="round"/>
<path d="M6.0345 16.2817C8.82454 16.2817 11.0863 14.0199 11.0863 11.2298C11.0863 8.43979 8.82454 6.17801 6.0345 6.17801C3.24445 6.17801 0.982666 8.43979 0.982666 11.2298C0.982666 14.0199 3.24445 16.2817 6.0345 16.2817Z" stroke="white" stroke-miterlimit="10" stroke-linecap="round"/>
<mask id="path-8-inside-1" fill="white">
<path d="M5.7642 14.4947V13.6916C5.30333 13.6836 4.82581 13.5407 4.54919 13.3418L4.73849 12.8088C5.0252 12.9996 5.43811 13.1505 5.88333 13.1505C6.44868 13.1505 6.8308 12.8244 6.8308 12.3711C6.8308 11.934 6.52137 11.6639 5.9333 11.4247C5.12161 11.1067 4.61986 10.7412 4.61986 10.0486C4.61986 9.38789 5.0883 8.88766 5.81972 8.76802V7.96542H6.31289V8.73673C6.79092 8.75187 7.116 8.87907 7.34769 9.01486L7.14881 9.53983C6.98122 9.44443 6.65665 9.26977 6.14733 9.26977C5.53351 9.26977 5.30384 9.63574 5.30384 9.95324C5.30384 10.3672 5.59762 10.5736 6.29119 10.8603C7.10842 11.1945 7.52285 11.6074 7.52285 12.3156C7.52285 12.9446 7.08571 13.5321 6.26595 13.6684V14.4952H5.7642V14.4947Z"/>
</mask>
<path d="M5.7642 13.6916H6.7642V12.709L5.78172 12.6918L5.7642 13.6916ZM4.54919 13.3418L3.60685 13.0072L3.35543 13.7152L3.96544 14.1538L4.54919 13.3418ZM4.73849 12.8088L5.29251 11.9763L4.22518 11.266L3.79614 12.4741L4.73849 12.8088ZM5.9333 11.4247L6.3102 10.4983L6.29809 10.4936L5.9333 11.4247ZM5.81972 8.76802L5.98114 9.75491L6.81972 9.61775V8.76802H5.81972ZM5.81972 7.96542V6.96542H4.81972V7.96542H5.81972ZM6.31289 7.96542H7.31289V6.96542H6.31289V7.96542ZM6.31289 8.73673H5.31289V9.70555L6.28123 9.73623L6.31289 8.73673ZM7.34769 9.01486L8.28283 9.36913L8.58209 8.57921L7.85331 8.1521L7.34769 9.01486ZM7.14881 9.53983L6.65408 10.4089L7.66986 10.9871L8.08395 9.8941L7.14881 9.53983ZM6.29119 10.8603L5.90915 11.7845L5.91271 11.7859L6.29119 10.8603ZM6.26595 13.6684L6.10194 12.682L5.26595 12.8209V13.6684H6.26595ZM6.26595 14.4952V15.4952H7.26595V14.4952H6.26595ZM5.7642 14.4952H4.7642V15.4952H5.7642V14.4952ZM6.7642 14.4947V13.6916H4.7642V14.4947H6.7642ZM5.78172 12.6918C5.64427 12.6894 5.4977 12.6662 5.36709 12.6281C5.22979 12.5882 5.15353 12.5447 5.13295 12.5299L3.96544 14.1538C4.44694 14.4999 5.13735 14.6808 5.74668 14.6915L5.78172 12.6918ZM5.49154 13.6765L5.68083 13.1434L3.79614 12.4741L3.60685 13.0072L5.49154 13.6765ZM4.18446 13.6413C4.62025 13.9313 5.22362 14.1505 5.88333 14.1505V12.1505C5.6526 12.1505 5.43016 12.0679 5.29251 11.9763L4.18446 13.6413ZM5.88333 14.1505C6.35338 14.1505 6.83004 14.0143 7.20839 13.6997C7.59897 13.375 7.8308 12.9003 7.8308 12.3711H5.8308C5.8308 12.3415 5.83762 12.3002 5.85845 12.2562C5.87906 12.2127 5.90638 12.1813 5.92975 12.1619C5.9757 12.1237 5.97863 12.1505 5.88333 12.1505V14.1505ZM7.8308 12.3711C7.8308 11.8765 7.64039 11.4499 7.31247 11.1194C7.02068 10.8253 6.64946 10.6365 6.31017 10.4984L5.55643 12.3509C5.67313 12.3984 5.75611 12.4395 5.81411 12.4737C5.8424 12.4903 5.86207 12.5038 5.87508 12.5136C5.88802 12.5233 5.893 12.5283 5.89267 12.528C5.89026 12.5256 5.86968 12.5033 5.85192 12.4612C5.83375 12.4182 5.8308 12.3834 5.8308 12.3711H7.8308ZM6.29809 10.4936C5.92549 10.3476 5.74659 10.2343 5.66451 10.1555C5.64764 10.1393 5.63841 10.1278 5.63374 10.1213C5.62928 10.1151 5.62776 10.1118 5.62723 10.1106C5.62672 10.1094 5.6253 10.106 5.62377 10.0984C5.62218 10.0904 5.61986 10.0746 5.61986 10.0486H3.61986C3.61986 10.6803 3.86599 11.2016 4.27989 11.5987C4.65161 11.9553 5.12942 12.1837 5.56851 12.3558L6.29809 10.4936ZM5.61986 10.0486C5.61986 9.96644 5.64427 9.92221 5.6753 9.88908C5.71176 9.85016 5.80033 9.78448 5.98114 9.75491L5.65831 7.78114C4.52932 7.9658 3.61986 8.8156 3.61986 10.0486H5.61986ZM6.81972 8.76802V7.96542H4.81972V8.76802H6.81972ZM5.81972 8.96542H6.31289V6.96542H5.81972V8.96542ZM5.31289 7.96542V8.73673H7.31289V7.96542H5.31289ZM6.28123 9.73623C6.58044 9.7457 6.74384 9.82005 6.84207 9.87761L7.85331 8.1521C7.48815 7.9381 7.0014 7.75804 6.34456 7.73723L6.28123 9.73623ZM6.41255 8.66058L6.21367 9.18556L8.08395 9.8941L8.28283 9.36913L6.41255 8.66058ZM7.64354 8.67078C7.41233 8.53916 6.90852 8.26977 6.14733 8.26977V10.2698C6.28431 10.2698 6.38549 10.2927 6.45826 10.3171C6.53255 10.342 6.58975 10.3723 6.65408 10.4089L7.64354 8.67078ZM6.14733 8.26977C5.63619 8.26977 5.15445 8.42719 4.79624 8.77748C4.44675 9.11925 4.30384 9.5593 4.30384 9.95324H6.30384C6.30384 10.0297 6.27577 10.128 6.19456 10.2074C6.15507 10.246 6.11792 10.2646 6.09872 10.2716C6.08146 10.2778 6.0929 10.2698 6.14733 10.2698V8.26977ZM4.30384 9.95324C4.30384 10.4641 4.51385 10.8898 4.88141 11.2092C5.17757 11.4667 5.56382 11.6417 5.90915 11.7845L6.67322 9.93618C6.51255 9.86976 6.39685 9.81682 6.31179 9.77184C6.27042 9.74997 6.24113 9.73249 6.22095 9.7193C6.20078 9.70613 6.19306 9.69941 6.19344 9.69974C6.19667 9.70255 6.23424 9.73686 6.26637 9.80555C6.29933 9.87602 6.30384 9.93393 6.30384 9.95324H4.30384ZM5.91271 11.7859C6.25913 11.9276 6.40439 12.0421 6.46318 12.1088C6.48732 12.1362 6.49766 12.1563 6.50434 12.1749C6.51166 12.1952 6.52285 12.2373 6.52285 12.3156H8.52285C8.52285 11.7412 8.3451 11.2194 7.96378 10.7866C7.61105 10.3863 7.14048 10.1272 6.66966 9.93472L5.91271 11.7859ZM6.52285 12.3156C6.52285 12.3956 6.49645 12.4642 6.4485 12.5191C6.40309 12.5711 6.30504 12.6482 6.10194 12.682L6.42995 14.6549C7.70652 14.4426 8.52285 13.459 8.52285 12.3156H6.52285ZM5.26595 13.6684V14.4952H7.26595V13.6684H5.26595ZM6.26595 13.4952H5.7642V15.4952H6.26595V13.4952ZM6.7642 14.4952V14.4947H4.7642V14.4952H6.7642Z" fill="white" mask="url(#path-8-inside-1)"/>
</svg>
