<svg width="60" height="21" viewBox="0 0 60 21" fill="none" xmlns="http://www.w3.org/2000/svg">
<path d="M7.14538 13.0783C7.68687 13.1136 9.14656 13.196 9.14656 14.5498C9.14656 15.6681 7.95762 16.3391 5.95644 16.3391C3.76692 16.3391 1.63626 15.774 0.353149 15.2561V19.7293C2.2837 20.2355 4.46145 20.4827 7.01589 20.4827C12.525 20.4827 14.9853 17.3867 14.9853 14.3026C14.9853 10.8182 12.2307 8.54624 7.5927 8.24017C6.95703 8.19309 5.49735 8.09892 5.49735 6.79227C5.49735 5.20309 7.60447 5.20309 8.39317 5.20309C9.78222 5.20309 11.5715 5.6151 12.8546 5.99179C12.8546 5.99179 13.5727 6.239 14.1848 6.49797L14.2437 6.50975V6.45089V2.16601L14.1613 2.14247C12.6427 1.61275 10.877 1.10657 7.61624 1.10657C2.00118 1.10657 0 4.39085 0 7.20427C0 8.81699 0.694526 12.631 7.14538 13.0783Z" fill="white"/>
<path d="M21.3892 14.6674C22.8842 16.904 23.6258 20.2825 23.6258 20.2825H29.7941C29.182 17.7398 26.5098 13.0665 26.5098 13.0665C28.9113 10.0294 29.9589 6.79221 30.1237 6.25072H24.2261C24.1202 6.53324 23.3197 8.79339 21.3774 11.1359V1.11829L16.2214 2.13065V20.2825H21.3774V14.6674H21.3892Z" fill="white"/>
<path d="M43.096 4.92054C44.4615 4.92054 45.5563 3.81401 45.5563 2.46027C45.5563 1.10653 44.4497 0 43.096 0C41.7305 0 40.6357 1.10653 40.6357 2.46027C40.6357 3.81401 41.7423 4.92054 43.096 4.92054Z" fill="white"/>
<path d="M60 1.10657L55.0088 2.00121V20.2825H60V1.10657Z" fill="white"/>
<path d="M45.5915 6.26245H40.6003V20.2825H45.5915V6.26245Z" fill="white"/>
<path d="M35.8681 20.2826V13.8435C35.8681 11.3832 36.1977 10.3238 39.1171 10.2179V6.12132C38.6226 6.01538 37.7869 6.05069 37.7869 6.05069C33.1724 6.20373 30.8298 8.27553 30.8298 12.3838V20.2708H35.8681V20.2826Z" fill="white"/>
<path d="M47.7104 20.2825H52.7134V1.10657L47.7104 2.00121V20.2825Z" fill="white"/>
</svg>
