<svg width="19" height="16" viewBox="0 0 19 16" fill="none" xmlns="http://www.w3.org/2000/svg">
<path fill-rule="evenodd" clip-rule="evenodd" d="M14.5546 15.8233C14.8095 16.0057 15.138 16.0513 15.431 15.9393C15.7239 15.8265 15.9392 15.5737 16.0041 15.2673C16.692 12.0001 18.3608 3.73052 18.987 0.758519C19.0345 0.534519 18.9554 0.301719 18.7812 0.152119C18.607 0.00251863 18.3656 -0.0406815 18.1503 0.0401186C14.8309 1.28172 4.60832 5.15772 0.429999 6.72013C0.164797 6.81933 -0.00778282 7.07693 0.000925312 7.35933C0.0104251 7.64253 0.198837 7.88813 0.470373 7.97053C2.34421 8.53693 4.80386 9.32493 4.80386 9.32493C4.80386 9.32493 5.95333 12.8329 6.55261 14.6169C6.62782 14.8409 6.80119 15.0169 7.02997 15.0777C7.25797 15.1377 7.5018 15.0745 7.672 14.9121C8.63465 13.9937 10.1229 12.5737 10.1229 12.5737C10.1229 12.5737 12.9507 14.6689 14.5546 15.8233ZM5.83854 8.88173L7.16772 13.3121L7.46301 10.5065C7.46301 10.5065 12.5984 5.82573 15.5259 3.15772C15.6114 3.07932 15.6233 2.94812 15.5521 2.85612C15.4816 2.76412 15.3518 2.74252 15.2544 2.80492C11.8614 4.99452 5.83854 8.88173 5.83854 8.88173Z" fill="white"/>
</svg>
