<svg width="22" height="22" viewBox="0 0 22 22" fill="none" xmlns="http://www.w3.org/2000/svg">
<path d="M11 21C16.5139 21 21 16.5139 21 11C21 5.48608 16.5139 1 11 1C5.48608 1 1 5.48608 1 11C1 16.5139 5.48608 21 11 21ZM11 1.62502C16.1694 1.62502 20.375 5.83065 20.375 11C20.375 16.1694 16.1694 20.375 11 20.375C5.83061 20.375 1.62502 16.1694 1.62502 11C1.62502 5.83061 5.83061 1.62502 11 1.62502Z" fill="#C4C4C4" stroke="#C4C4C4" stroke-width="0.7"/>
<path d="M7.4337 16.8453L11.0073 14.0844L14.583 16.8472L13.2098 12.3797L16.7181 9.67037H12.3797L11.0009 5.15314L9.62182 9.67037H5.28162L8.79876 12.3803L7.4337 16.8453ZM7.11692 10.2953H10.0844L11.0009 7.29363L11.917 10.2953H14.8864L12.4852 12.1496L13.4068 15.1486L11.0072 13.2946L8.60553 15.1504L9.5226 12.149L7.11692 10.2953Z" fill="#C4C4C4" stroke="#C4C4C4" stroke-width="0.7"/>
</svg>
