<svg width="20" height="16" viewBox="0 0 20 16" fill="none" xmlns="http://www.w3.org/2000/svg">
<path d="M20.0006 1.89415C19.2569 2.21538 18.4644 2.42831 17.6381 2.53169C18.4881 2.032 19.1369 1.24677 19.4419 0.300308C18.6494 0.765538 17.7744 1.09415 16.8419 1.27754C16.0894 0.488615 15.0169 0 13.8469 0C11.5769 0 9.74936 1.81415 9.74936 4.03815C9.74936 4.35815 9.77686 4.66585 9.84436 4.95877C6.43561 4.79508 3.41936 3.18646 1.39311 0.736C1.03936 1.34031 0.83186 2.032 0.83186 2.77662C0.83186 4.17477 1.56311 5.41415 2.65311 6.13169C1.99436 6.11938 1.34811 5.93108 0.80061 5.63446C0.80061 5.64677 0.80061 5.66277 0.80061 5.67877C0.80061 7.64062 2.22186 9.27015 4.08561 9.64554C3.75186 9.73538 3.38811 9.77846 3.01061 9.77846C2.74811 9.77846 2.48311 9.76369 2.23436 9.70954C2.76561 11.3083 4.27311 12.4837 6.06561 12.5218C4.67061 13.5963 2.89936 14.2437 0.98186 14.2437C0.64561 14.2437 0.32311 14.2289 0.000610352 14.1883C1.81686 15.3415 3.96936 16 6.29061 16C13.8356 16 17.9606 9.84615 17.9606 4.512C17.9606 4.33354 17.9544 4.16123 17.9456 3.99015C18.7594 3.42154 19.4431 2.71138 20.0006 1.89415Z" fill="white"/>
</svg>
