<svg width="45" height="14" viewBox="0 0 45 14" fill="none" xmlns="http://www.w3.org/2000/svg">
<path d="M42.0404 0.247197H39.2144C38.3366 0.247197 37.6838 0.488691 37.298 1.3729L31.8671 13.8032H35.7082C35.7082 13.8032 36.3347 12.1318 36.4768 11.7657C36.8973 11.7657 40.6293 11.7714 41.1608 11.7714C41.2699 12.2449 41.6067 13.8032 41.6067 13.8032H45L42.0404 0.247197ZM37.5295 8.99043C37.8305 8.21175 38.9867 5.19973 38.9867 5.19973C38.9669 5.23681 39.2849 4.41535 39.474 3.90479L39.7205 5.07423C39.7205 5.07423 40.4214 8.31253 40.5681 8.99043H37.5295ZM32.123 9.36503C32.0966 12.1821 29.598 14 25.7531 14C24.1134 13.9829 22.5339 13.6568 21.6778 13.2774L22.1924 10.2416L22.6637 10.4584C23.865 10.9642 24.643 11.1686 26.1078 11.1686C27.1586 11.1686 28.2838 10.7522 28.295 9.84421C28.3016 9.24998 27.8237 8.82689 26.3985 8.16136C25.0099 7.51199 23.1717 6.42431 23.1952 4.4762C23.215 1.83973 25.7625 0 29.3769 0C30.7937 0 31.9292 0.294736 32.6536 0.569507L32.1587 3.50927L31.8285 3.35239C31.1549 3.07857 30.2876 2.81426 29.0909 2.83328C27.6591 2.83328 26.9949 3.43606 26.9949 3.99986C26.9874 4.63497 27.7701 5.05331 29.0495 5.68272C31.1634 6.64774 32.139 7.82384 32.123 9.36503ZM0 0.387911L0.0470377 0.115993H5.7179C6.48273 0.145467 7.09893 0.391713 7.31154 1.21793L8.54486 7.21154C7.33317 4.07688 4.41307 1.46893 0 0.387911ZM16.5394 0.245297L10.7792 13.7832L6.90889 13.7899L3.63319 2.47864C5.9879 4.00176 7.99358 6.41861 8.70009 8.10146L9.08203 9.49813L12.6644 0.248149L16.5394 0.245297ZM18.0183 0.233886H21.6778L19.3889 13.7975H15.7313L18.0183 0.233886Z" fill="white"/>
</svg>
