<svg width="60" height="36" viewBox="0 0 60 36" fill="none" xmlns="http://www.w3.org/2000/svg">
<path fill-rule="evenodd" clip-rule="evenodd" d="M45.4294 29.9966C44.7177 29.8085 43.9717 30.2833 43.8337 31.0085C43.8167 31.097 43.8488 31.1103 43.926 31.1098C44.2865 31.1069 44.647 31.1085 45.0076 31.1085H46.1011C46.1507 31.1085 46.193 31.1158 46.1958 31.038C46.2133 30.5878 45.8663 30.1119 45.4294 29.9966ZM47.0752 31.6247C47.0669 31.7249 47.0306 31.7416 46.9422 31.7413C45.9368 31.739 44.9314 31.7398 43.926 31.7398C43.7695 31.7398 43.7695 31.74 43.7948 31.8934C43.9184 32.6374 44.3549 33.1038 45.0676 33.2184C45.6141 33.306 46.099 33.1331 46.535 32.8062C46.5644 32.7843 46.5924 32.7611 46.621 32.7386C46.6276 32.7339 46.6354 32.7311 46.6484 32.7243C46.7598 32.9069 46.8676 33.0921 46.9842 33.2718C47.0311 33.3444 46.9763 33.3658 46.939 33.396C46.5691 33.6963 46.1481 33.8891 45.6777 33.9558C44.9705 34.056 44.3116 33.9261 43.7416 33.4745C43.2391 33.0762 42.9738 32.543 42.9078 31.9101C42.8478 31.3385 42.9391 30.7933 43.2441 30.2992C43.6263 29.6799 44.1957 29.3578 44.9134 29.2871C45.4002 29.2393 45.8609 29.3158 46.2686 29.6006C46.7674 29.9497 46.9912 30.4568 47.0679 31.0427C47.0932 31.2363 47.0906 31.4296 47.0752 31.6247ZM27.8903 31.7904C27.8911 31.733 27.8695 31.7108 27.8121 31.7121C27.6947 31.7145 27.577 31.7129 27.4594 31.7129C27.2812 31.7181 27.1028 31.7231 26.9257 31.7476C26.6557 31.7851 26.3898 31.8381 26.1571 31.992C25.9221 32.1475 25.8207 32.3685 25.8488 32.6476C25.8765 32.9186 26.0218 33.1104 26.2701 33.2108C26.635 33.359 26.9898 33.323 27.3037 33.0806C27.7229 32.7569 27.8846 32.3074 27.8903 31.7904ZM29.3043 33.8019C29.3056 33.8559 29.2912 33.8851 29.2302 33.8836C28.9469 33.8765 28.6625 33.9024 28.3803 33.8708C28.0628 33.8356 27.9185 33.6569 27.9313 33.3358C27.9339 33.2669 27.941 33.1983 27.9457 33.1297C27.8105 33.3352 27.6639 33.5246 27.4688 33.6741C26.8983 34.1108 25.9694 34.0873 25.4236 33.6204C24.7696 33.0608 24.8228 32.0387 25.534 31.5558C25.9013 31.3064 26.321 31.2042 26.7522 31.1395C27.09 31.0889 27.4302 31.0779 27.7709 31.0834C27.8575 31.0847 27.8804 31.0571 27.8778 30.9731C27.8726 30.8225 27.8606 30.6736 27.8204 30.5285C27.7396 30.2361 27.5512 30.0543 27.2517 29.9953C26.9778 29.9413 26.7037 29.9426 26.4347 30.0227C26.2017 30.0918 26.1383 30.1748 26.1477 30.4171C26.1522 30.5338 26.1227 30.5708 26.003 30.5638C25.8092 30.5528 25.6141 30.5588 25.4197 30.5619C25.3558 30.563 25.3336 30.5418 25.3368 30.4785C25.3407 30.3772 25.342 30.2755 25.3368 30.1745C25.3196 29.8709 25.4683 29.6666 25.7203 29.5239C25.9498 29.394 26.202 29.3371 26.46 29.3038C26.8782 29.2498 27.293 29.2599 27.6999 29.3789C28.2775 29.5479 28.5968 29.9445 28.6996 30.5275C28.7319 30.7114 28.7434 30.8974 28.7434 31.0839V32.8954C28.7439 33.0984 28.7841 33.1367 28.9839 33.1409C29.0846 33.143 29.2132 33.0978 29.2782 33.1591C29.3494 33.2262 29.2985 33.3582 29.303 33.4615C29.3074 33.5747 29.3022 33.6885 29.3043 33.8019ZM22.5207 28.3662C22.168 28.3654 21.8156 28.3688 21.4631 28.3641C21.3776 28.3631 21.3541 28.3876 21.3554 28.4726C21.3595 28.8412 21.3572 29.2098 21.3572 29.5785C21.3572 29.9473 21.3588 30.3159 21.3556 30.6845C21.3551 30.7628 21.3661 30.7998 21.4587 30.7985C21.8234 30.7931 22.1881 30.798 22.5528 30.7949C22.7275 30.7959 22.9004 30.7599 23.0601 30.689C23.477 30.4998 23.6622 30.1539 23.7003 29.717C23.7645 28.9803 23.3972 28.3688 22.5207 28.3662ZM24.3849 30.5802C24.0509 31.1956 23.5141 31.5065 22.8288 31.548C22.3923 31.5746 21.9535 31.5553 21.5155 31.5571C21.3381 31.5582 21.3577 31.536 21.3575 31.7098C21.3569 32.3951 21.3548 33.0801 21.3593 33.7651C21.3601 33.8635 21.3306 33.888 21.2367 33.8851C21.0219 33.8784 20.8069 33.8784 20.5921 33.8851C20.4963 33.8883 20.47 33.8606 20.4703 33.7641C20.4742 32.8803 20.4726 31.9967 20.4726 31.1129C20.4726 30.2371 20.471 29.3614 20.4747 28.4859C20.4747 28.3925 20.4543 28.3568 20.3552 28.3638C20.23 28.373 20.104 28.362 19.9783 28.3675C19.907 28.3709 19.8895 28.3448 19.8914 28.2775C19.8953 28.0951 19.8984 27.9125 19.8903 27.7305C19.8859 27.6311 19.9112 27.6003 20.0153 27.6016C20.4815 27.6076 20.9476 27.6037 21.4136 27.6045C21.8881 27.6055 22.3629 27.5956 22.8366 27.6133C23.3007 27.6308 23.7136 27.7983 24.0535 28.1225C24.3707 28.4257 24.5434 28.8037 24.5987 29.2346C24.6593 29.7029 24.6134 30.1591 24.3849 30.5802ZM10.2196 31.601C10.2181 31.5699 10.2181 31.5128 10.2115 31.4567C10.1458 30.9052 9.88518 30.4813 9.36579 30.2601C8.84823 30.0399 8.34475 30.096 7.90492 30.4555C7.4677 30.8131 7.32814 31.2973 7.38814 31.8485C7.40812 32.0468 7.46969 32.2383 7.56884 32.411C7.66797 32.5837 7.80245 32.7334 7.96349 32.8505C8.1245 32.9677 8.30843 33.0496 8.50325 33.0905C8.69804 33.1318 8.89936 33.1312 9.09396 33.0892C9.76388 32.9484 10.2175 32.3588 10.2196 31.601ZM9.10283 34.0842C8.13762 34.1825 7.32031 33.8812 6.73205 33.0931C5.75301 31.781 6.27736 29.6578 8.20675 29.2177C8.40136 29.1733 8.59883 29.1608 8.81457 29.1548C9.9191 29.1634 10.8692 29.8156 11.2067 30.8098C11.7282 32.3416 10.7179 33.9198 9.10283 34.0842ZM13.1977 27.2351C13.2003 27.1563 13.1774 27.1289 13.096 27.1305C12.8369 27.1349 12.5774 27.1346 12.3183 27.1305C12.2398 27.1289 12.2121 27.15 12.2129 27.2319C12.2171 27.5763 12.2163 27.9206 12.2134 28.2647C12.2127 28.3375 12.233 28.3638 12.3092 28.3625C12.5724 28.3581 12.8356 28.3581 13.0988 28.3628C13.1849 28.3646 13.1995 28.3302 13.1977 28.2556C13.1935 28.0897 13.1964 27.9235 13.1964 27.7576C13.1964 27.5833 13.1927 27.4091 13.1977 27.2351ZM12.2283 31.8937C12.2283 32.4003 12.2218 32.9069 12.2307 33.4135C12.2369 33.7586 12.4373 33.9611 12.7806 33.989C13.1202 34.0169 13.4612 33.9945 13.8014 34.0015C13.8614 34.0028 13.877 33.9757 13.8767 33.9206C13.8752 33.6491 13.8747 33.3775 13.8773 33.1059C13.8778 33.0425 13.8556 33.0198 13.7927 33.0217C13.6832 33.0251 13.5731 33.0157 13.4646 33.0245C13.3477 33.0342 13.3125 32.9935 13.3133 32.8753C13.3177 32.0283 13.3159 31.1812 13.3154 30.3339C13.3151 30.1641 13.3161 29.9932 13.3034 29.8239C13.2762 29.4744 13.073 29.2777 12.7203 29.2675C12.3963 29.2581 12.0721 29.2657 11.7478 29.2623C11.6857 29.2618 11.663 29.2779 11.6635 29.3434C11.6669 29.615 11.6669 29.8865 11.6635 30.1581C11.663 30.2233 11.6857 30.2416 11.7481 30.2392C11.8574 30.2351 11.9672 30.2452 12.0762 30.2361C12.1941 30.2259 12.2288 30.269 12.2275 30.3861C12.2221 30.8885 12.2249 31.3912 12.2249 31.8937H12.2283ZM53.856 32.5247C53.9082 33.0235 54.1127 33.4344 54.5656 33.6879C54.9438 33.8995 55.3573 33.9316 55.7797 33.9099C55.848 33.9065 55.8566 33.8711 55.8561 33.815C55.854 33.6284 55.8514 33.4419 55.8569 33.2557C55.8595 33.1649 55.8456 33.1391 55.7395 33.1458C55.266 33.1761 54.8671 32.9956 54.7409 32.4939C54.7161 32.3917 54.7036 32.2865 54.7041 32.1811C54.7046 31.5125 54.7057 30.8439 54.7015 30.1753C54.701 30.0853 54.7328 30.0691 54.8137 30.0704C55.1056 30.0746 55.3972 30.0702 55.6889 30.0733C55.7562 30.0741 55.7812 30.0564 55.7794 29.9857C55.7739 29.8156 55.7739 29.6455 55.7794 29.4754C55.782 29.3982 55.7557 29.3804 55.6829 29.3812C55.4032 29.3851 55.1233 29.3758 54.8442 29.3862C54.721 29.3906 54.6981 29.3497 54.7007 29.2367C54.7085 28.9044 54.7015 28.5723 54.7054 28.2399C54.7062 28.1651 54.685 28.1421 54.6097 28.1437C54.3913 28.1484 54.1722 28.1491 53.9536 28.1434C53.8698 28.1411 53.8539 28.1708 53.8544 28.2467C53.8583 28.5871 53.8534 28.9276 53.8583 29.268C53.8594 29.3554 53.8424 29.3911 53.7462 29.3851C53.609 29.3763 53.471 29.3851 53.3332 29.3818C53.2714 29.3802 53.2471 29.399 53.249 29.4639C53.2531 29.6382 53.2531 29.8124 53.2487 29.9867C53.2461 30.0603 53.2758 30.0751 53.341 30.0731C53.4704 30.0694 53.6006 30.0772 53.7297 30.0702C53.8158 30.0658 53.839 30.0952 53.838 30.1795C53.8338 30.54 53.8364 30.9005 53.8364 31.337C53.8482 31.6824 53.8119 32.1045 53.856 32.5247ZM56.4845 33.1049C56.4245 33.1766 56.4303 33.2199 56.495 33.2846C56.9431 33.7341 57.4876 33.9598 58.1165 33.9843C58.5814 34.0023 59.0212 33.9149 59.3997 33.624C59.9283 33.2181 60.0284 32.4564 59.6202 31.9589C59.4657 31.7705 59.2659 31.6396 59.0523 31.5287C58.7896 31.3923 58.5107 31.2934 58.2357 31.1846C58.0291 31.1027 57.8204 31.0224 57.6397 30.8883C57.4917 30.7787 57.3918 30.6397 57.4163 30.4445C57.4422 30.2366 57.5739 30.114 57.7617 30.0441C57.9715 29.9661 58.1896 29.9523 58.4087 29.9799C58.5663 29.9995 58.7178 30.0454 58.8402 30.1573C58.9484 30.2567 58.9203 30.3879 58.9231 30.5113C58.9242 30.5687 58.957 30.575 59.003 30.575C59.2096 30.5739 59.4164 30.5745 59.6233 30.5747C59.6617 30.5747 59.6987 30.5752 59.6971 30.5207C59.6919 30.3467 59.7188 30.1706 59.682 29.9992C59.6225 29.723 59.4209 29.5709 59.1801 29.4605C58.9145 29.339 58.6312 29.2897 58.3427 29.2777C57.9198 29.2599 57.5079 29.3124 57.1333 29.5271C56.4271 29.9311 56.3426 30.8705 56.9619 31.397C57.149 31.5561 57.36 31.6756 57.5833 31.7737C57.8648 31.8976 58.1499 32.0131 58.4317 32.136C58.5803 32.201 58.7251 32.2745 58.8459 32.3865C59.0666 32.5912 59.0585 32.9022 58.8277 33.0986C58.7298 33.1821 58.615 33.2311 58.4901 33.2557C58.0748 33.3368 57.6957 33.2364 57.3397 33.0214C57.162 32.9139 57.0078 32.777 56.8602 32.6218C56.7331 32.7864 56.6137 32.9497 56.4845 33.1049ZM49.068 29.8766C49.0628 29.5649 48.9023 29.3964 48.588 29.387C48.3128 29.3786 48.0368 29.3859 47.761 29.3815C47.6888 29.3802 47.6723 29.4071 47.6747 29.4731C47.6791 29.5944 47.676 29.7162 47.676 29.8378C47.676 30.1177 47.676 30.1177 47.959 30.1179C48.1938 30.1182 48.2361 30.1597 48.2361 30.3926V33.713C48.2361 33.8831 48.2361 33.8831 48.4124 33.8831C48.5867 33.8831 48.761 33.8836 48.935 33.8828C49.115 33.882 49.0941 33.9031 49.0962 33.719C49.104 32.9812 49.0578 32.2417 49.116 31.5063C49.188 30.5914 49.8777 30.0308 50.6742 30.0671C51.0655 30.0848 51.3115 30.2805 51.3968 30.6613C51.4333 30.8241 51.4463 30.9895 51.4463 31.1562C51.4463 31.8819 51.4456 32.6077 51.4479 33.3334C51.4492 33.6918 51.5914 33.8559 51.9428 33.8768C52.2258 33.8935 52.5102 33.8807 52.7937 33.8838C52.8561 33.8844 52.8683 33.8544 52.8676 33.8014C52.8655 33.6798 52.867 33.5583 52.867 33.4367C52.867 33.1411 52.867 33.1411 52.5707 33.1401C52.3516 33.1393 52.3067 33.0955 52.3064 32.8777C52.3059 32.2696 52.3064 31.6615 52.3062 31.0534C52.3062 30.8711 52.2994 30.6892 52.2749 30.5077C52.1901 29.8701 51.8382 29.4574 51.2538 29.3254C51.1312 29.2978 51.0065 29.2816 50.8808 29.2769C50.1937 29.2498 49.6297 29.4921 49.2177 30.0556C49.1666 30.1255 49.1249 30.2022 49.0688 30.2911C49.0688 30.1398 49.0706 30.0081 49.0683 29.8766H49.068ZM29.4683 35.225C29.425 35.2949 29.4446 35.3306 29.4981 35.3747C29.9554 35.7519 30.4667 35.8498 31.0221 35.6478C31.5021 35.4733 31.7729 35.0938 31.957 34.6367C32.5323 33.2108 33.1114 31.7867 33.6848 30.3605C33.75 30.1975 33.8439 30.1005 34.0276 30.1185C34.0896 30.1245 34.1131 30.1023 34.1118 30.0373C34.1087 29.8469 34.1087 29.6565 34.1118 29.4658C34.1129 29.4029 34.092 29.3804 34.0283 29.3818C33.8622 29.3854 33.6957 29.3857 33.5298 29.3836C33.2538 29.3802 33.0681 29.508 32.9677 29.7629C32.9468 29.8156 32.9259 29.8683 32.9071 29.9218C32.555 30.9125 32.1522 31.8851 31.8389 32.9019C31.7783 32.7013 31.7317 32.5049 31.6555 32.3178C31.4345 31.7745 31.2159 31.2303 30.9963 30.6864L30.6188 29.7522C30.5181 29.5031 30.3381 29.3755 30.0647 29.3828C29.9108 29.387 29.7563 29.3878 29.6027 29.381C29.5192 29.3773 29.501 29.4091 29.503 29.4856C29.508 29.6638 29.5093 29.8422 29.5025 30.0204C29.4999 30.1038 29.5297 30.125 29.6063 30.119C29.754 30.108 29.8479 30.1785 29.9063 30.3149C30.403 31.4711 30.9023 32.6262 31.4006 33.7816C31.4163 33.8184 31.4405 33.8549 31.4215 33.8971C31.2944 34.176 31.2141 34.4781 31.0106 34.7189C30.7983 34.9696 30.5027 35.058 30.2032 34.9607C30.0415 34.9085 29.9084 34.8115 29.7785 34.6873C29.6713 34.8751 29.575 35.0536 29.4681 35.225H29.4683ZM15.694 29.8151C15.6767 29.4543 15.4143 29.2735 15.0749 29.2662C14.7668 29.2594 14.4585 29.2657 14.1507 29.2623C14.0826 29.2615 14.0594 29.2811 14.0604 29.351C14.0638 29.6184 14.0643 29.886 14.0601 30.1537C14.0591 30.2275 14.0888 30.2411 14.1533 30.2392C14.2748 30.2353 14.3969 30.2418 14.5182 30.2366C14.5999 30.2332 14.6286 30.2674 14.6226 30.3438C14.62 30.3762 14.6221 30.4088 14.6221 30.4411C14.6221 31.584 14.6239 32.7271 14.6194 33.8703C14.6192 33.9804 14.6507 34.0062 14.7559 34.0036C15.0396 33.9965 15.3234 33.9965 15.6071 34.0033C15.7055 34.0057 15.7284 33.9746 15.7281 33.8799C15.7242 33.1868 15.7255 32.4937 15.7266 31.8008C15.7266 31.6547 15.7292 31.5094 15.7558 31.3649C15.8904 30.6232 16.4737 30.149 17.2062 30.1889C17.5062 30.2053 17.6956 30.3564 17.7791 30.6433C17.8305 30.8212 17.8313 31.0036 17.8321 31.1859C17.8331 31.7614 17.8313 32.3369 17.8331 32.9124C17.8336 33.0947 17.824 33.2771 17.8451 33.4589C17.8822 33.7782 18.0598 33.9603 18.3773 33.9879C18.7253 34.0182 19.0743 33.9939 19.4226 34.0015C19.4826 34.0028 19.498 33.9754 19.4977 33.9206C19.4955 33.6491 19.4955 33.3775 19.4977 33.1057C19.4987 33.0418 19.4758 33.0198 19.4132 33.0217C19.2997 33.0251 19.1857 33.0165 19.0727 33.0243C18.9666 33.0318 18.9334 32.9956 18.9345 32.8876C18.9392 32.3322 18.9361 31.7768 18.9366 31.2214C18.9371 30.9744 18.9355 30.7271 18.8956 30.4821C18.8014 29.9038 18.5419 29.4501 17.9513 29.255C17.6223 29.1462 17.2832 29.13 16.9428 29.1827C16.4568 29.2581 16.0485 29.4804 15.713 29.8631C15.7021 29.8364 15.6945 29.826 15.694 29.8151ZM35.8286 29.8878C35.8257 29.5659 35.6682 29.3969 35.3473 29.3872C35.0718 29.3786 34.7958 29.3851 34.5203 29.382C34.4598 29.3812 34.4332 29.3961 34.4343 29.4626C34.4379 29.6531 34.439 29.8438 34.4343 30.0342C34.4322 30.1088 34.4637 30.1218 34.5277 30.119C34.6163 30.1151 34.7061 30.1158 34.795 30.1187C34.9281 30.1229 34.985 30.1787 34.9949 30.312C34.9975 30.3485 34.9959 30.3851 34.9959 30.4216C34.9959 31.5282 34.998 32.6351 34.9928 33.7417C34.9923 33.8627 35.0272 33.8914 35.142 33.8857C35.3363 33.8758 35.5312 33.8758 35.7256 33.8859C35.8377 33.8922 35.8576 33.8533 35.857 33.75C35.8531 33.0934 35.8526 32.4365 35.8552 31.7797C35.8565 31.3516 35.9656 30.9551 36.2176 30.6039C36.3819 30.3744 36.5877 30.191 36.8637 30.1132C37.423 29.9559 37.8803 30.113 37.9568 30.7683C37.9852 31.0064 37.9829 31.2457 37.9829 31.4846C37.9842 32.2388 37.9863 32.9927 37.9803 33.7466C37.9797 33.8622 38.0152 33.8901 38.1237 33.8854C38.3225 33.8771 38.5213 33.8771 38.7198 33.8854C38.8213 33.8896 38.8477 33.8593 38.8471 33.7584C38.8437 33.1018 38.8432 32.4451 38.8456 31.7883C38.8461 31.5107 38.8839 31.2376 38.9937 30.9811C39.1821 30.5405 39.4656 30.1842 39.959 30.0848C40.5203 29.9716 40.859 30.1993 40.9409 30.7529C40.9641 30.9102 40.9667 31.0678 40.967 31.2256C40.9675 31.8944 40.9667 32.5633 40.9677 33.2324C40.9677 33.3131 40.9737 33.3945 40.9842 33.4745C41.0152 33.7093 41.1407 33.8369 41.3781 33.8661C41.693 33.9045 42.0099 33.8737 42.3258 33.8836C42.3916 33.8857 42.3957 33.8489 42.395 33.7991C42.3934 33.6814 42.3968 33.5638 42.3939 33.4464C42.3913 33.3498 42.4351 33.2251 42.3772 33.1641C42.313 33.096 42.1852 33.1438 42.0856 33.1414C41.8763 33.1364 41.8349 33.0989 41.8349 32.8933C41.8343 32.2691 41.8349 31.6448 41.8346 31.0205C41.8343 30.7847 41.8169 30.5505 41.7616 30.3209C41.6502 29.8529 41.4021 29.4955 40.9205 29.3549C40.327 29.1817 39.7745 29.2735 39.2757 29.6481C39.0493 29.8182 38.8766 30.0347 38.7378 30.305L38.6969 30.173C38.5904 29.8179 38.3927 29.537 38.04 29.3927C37.7384 29.2667 37.4056 29.2362 37.086 29.3051C36.5183 29.4261 36.1127 29.7611 35.8286 30.3045C35.8286 30.1432 35.8297 30.0157 35.8286 29.8878ZM3.93136 32.9512C3.04388 33.1683 2.2798 32.9627 1.69728 32.2401C1.23815 31.6706 1.09206 31.0049 1.19615 30.2851C1.26737 29.7945 1.4638 29.3585 1.82537 29.0129C2.3398 28.5206 2.96197 28.3683 3.65405 28.4739C3.93162 28.5162 4.20292 28.5838 4.4437 28.7374C4.60883 28.8428 4.70692 28.9842 4.69023 29.1913C4.6824 29.2881 4.69336 29.3862 4.68762 29.4832C4.68344 29.5584 4.70144 29.5894 4.7857 29.5878C5.0737 29.5826 5.36144 29.5837 5.64918 29.5876C5.72405 29.5886 5.74675 29.5659 5.74518 29.4913C5.74137 29.2847 5.74093 29.0781 5.74388 28.8712C5.74753 28.518 5.59753 28.2384 5.33562 28.0122C5.17508 27.8752 4.99354 27.7649 4.79797 27.6853C4.22379 27.4471 3.62588 27.3378 3.00527 27.3903C1.84102 27.4891 0.961106 28.0432 0.398149 29.0713C0.0269308 29.7485 -0.0669823 30.4821 0.0433655 31.2394C0.184235 32.1981 0.621193 32.9911 1.43198 33.5418C2.29545 34.1285 3.24683 34.2397 4.24466 33.9725C4.87023 33.8053 5.42797 33.5131 5.86518 33.0193C5.91162 32.9671 5.92675 32.933 5.87692 32.8688C5.68492 32.6228 5.50049 32.3711 5.30927 32.1159C4.7544 32.645 4.4797 32.8171 3.93136 32.9512Z" fill="white"/>
<path fill-rule="evenodd" clip-rule="evenodd" d="M28.4836 0.95687C28.4831 1.01843 28.5118 1.03096 28.5652 1.0307C28.8483 1.02865 29.1316 1.02883 29.4149 1.03122C29.4799 1.03174 29.4981 1.00774 29.4973 0.945913C29.4929 0.63887 29.4921 0.331565 29.4903 0.024L28.4919 0.0232174C28.4893 0.334435 28.4878 0.645913 28.4836 0.95687ZM27.6115 8.15635C27.6139 8.08539 27.5959 8.05565 27.5176 8.0567C27.2382 8.06087 26.9588 8.05956 26.6794 8.05748C26.621 8.05696 26.5907 8.06687 26.5918 8.136C26.5949 8.42374 26.5952 8.71122 26.5915 8.9987C26.5907 9.0673 26.6184 9.07748 26.6773 9.07696C26.9609 9.07487 27.2445 9.07461 27.5278 9.07722C27.5904 9.07774 27.6133 9.05922 27.6112 8.99478C27.6076 8.85313 27.6102 8.71122 27.6102 8.56956C27.6102 8.43183 27.6073 8.29383 27.6115 8.15635ZM31.2726 2.6627C31.2749 2.59617 31.2566 2.57061 31.1852 2.57165C30.9342 2.57557 30.6832 2.57661 30.4323 2.57113C30.3496 2.56957 30.341 2.60452 30.342 2.67209C30.3454 2.87843 30.3394 3.0853 30.3452 3.29165C30.3475 3.38061 30.3321 3.42443 30.2288 3.4153C30.1164 3.40513 30.0019 3.41609 29.8889 3.41191C29.825 3.4093 29.8044 3.43174 29.8059 3.49487C29.8099 3.6527 29.8093 3.81078 29.8059 3.96887C29.8049 4.02652 29.8239 4.04661 29.8821 4.04557C30.0399 4.04157 30.1978 4.04173 30.3559 4.04609C30.4299 4.0487 30.443 4.01791 30.4406 3.95374C30.4365 3.83243 30.4432 3.71061 30.438 3.5893C30.4352 3.52122 30.455 3.49852 30.5254 3.50009C30.7399 3.50426 30.9548 3.49878 31.1695 3.50322C31.2459 3.50478 31.278 3.48704 31.2731 3.40357C31.2663 3.28278 31.2712 3.16096 31.2712 3.03939C31.2712 2.91365 31.2684 2.78817 31.2726 2.6627ZM34.9566 18.7364C34.9532 18.3629 34.6466 18.0558 34.2752 18.0532C34.0926 18.0527 33.9175 18.1243 33.7876 18.2522C33.6577 18.3802 33.5833 18.5543 33.5812 18.7367C33.5786 19.1134 33.8891 19.4233 34.2694 19.4236C34.6495 19.4236 34.9605 19.1129 34.9566 18.7364ZM33.0428 3.40383C32.9669 3.40226 32.9473 3.42652 32.9481 3.50035C32.9515 3.91722 32.9515 4.33435 32.9479 4.75122C32.9473 4.82843 32.9745 4.84539 33.0459 4.84487C33.4628 4.84226 33.8797 4.84174 34.2968 4.84513C34.3725 4.84565 34.3918 4.82087 34.3912 4.74809C34.3881 4.33122 34.3884 3.91435 34.3918 3.49748C34.3923 3.41974 34.3654 3.40252 34.2934 3.40409C34.0871 3.40826 33.8807 3.40565 33.6744 3.40565C33.4639 3.40565 33.2533 3.40878 33.0428 3.40383ZM25.9144 11.1798C25.9165 11.1 25.9014 11.0674 25.8109 11.0684C25.3979 11.0734 24.985 11.0723 24.5717 11.069C24.4974 11.0682 24.476 11.088 24.4765 11.1634C24.4795 11.5805 24.4795 11.9977 24.4765 12.4148C24.4765 12.4787 24.4875 12.5074 24.5616 12.5069C24.9826 12.5035 25.4037 12.504 25.8247 12.5066C25.8925 12.5071 25.916 12.4894 25.9144 12.419C25.9103 12.2123 25.9129 12.006 25.9129 11.7994C25.9129 11.5928 25.9098 11.3862 25.9144 11.1798ZM30.2742 12.8781C30.2708 12.9644 30.3011 12.9887 30.3851 12.9871C30.6363 12.9822 30.8878 12.9923 31.1385 12.9822C31.2559 12.9777 31.2809 13.0192 31.2749 13.1254C31.2668 13.279 31.2783 13.4335 31.2707 13.5871C31.2668 13.674 31.2913 13.709 31.3816 13.7134C31.8668 13.7374 32.352 13.764 32.8372 13.795C32.9249 13.8005 32.9372 13.7661 32.9361 13.6923C32.9317 13.4371 32.9322 13.1818 32.9372 12.9266C32.9392 12.8343 32.9106 12.8108 32.8205 12.8118C32.4073 12.8163 31.9941 12.81 31.5809 12.8163C31.4766 12.8181 31.4528 12.7852 31.4552 12.6866C31.4619 12.4237 31.4559 12.1602 31.4586 11.897C31.4591 11.8338 31.4489 11.8012 31.3738 11.802C31.0372 11.8057 30.7012 11.8051 30.3652 11.8023C30.2948 11.8017 30.2734 11.8263 30.275 11.8938C30.2784 12.0597 30.276 12.2259 30.276 12.3918C30.276 12.5541 30.2805 12.7163 30.2742 12.8781ZM33.4357 10.6072C33.5087 10.6083 33.533 10.5908 33.5327 10.5136C33.5296 9.92982 33.5296 9.3461 33.5325 8.76235C33.5325 8.68774 33.5106 8.66635 33.4365 8.66687C32.8568 8.66948 32.2772 8.66948 31.6975 8.66687C31.6245 8.66661 31.5994 8.68591 31.5997 8.76183C31.6023 9.34565 31.6028 9.92948 31.5997 10.513C31.5994 10.5895 31.6239 10.6083 31.6967 10.6072C31.9847 10.6033 32.2725 10.6057 32.5602 10.6057C32.8521 10.6057 33.144 10.6033 33.4357 10.6072ZM27.8335 4.67348C27.9076 4.67426 27.9295 4.65313 27.9292 4.57826C27.9261 3.96678 27.9261 3.3553 27.9292 2.74383C27.93 2.65565 27.9003 2.63635 27.8181 2.63661C27.2103 2.63974 26.6032 2.64 25.9958 2.63635C25.909 2.63609 25.8886 2.664 25.8889 2.74696C25.8924 3.35442 25.8924 3.96193 25.8889 4.56939C25.8881 4.65835 25.9176 4.67478 25.9984 4.67374C26.2986 4.66904 26.5983 4.67191 26.898 4.67191C27.2098 4.67191 27.5215 4.66957 27.8335 4.67348ZM29.0275 12.0115C29.1214 12.0136 29.1512 11.9888 29.1501 11.8907C29.1449 11.3718 29.1499 10.8532 29.1462 10.3343C29.1457 10.2509 29.1666 10.2219 29.2532 10.2245C29.4519 10.2305 29.6505 10.223 29.8492 10.2282C29.9312 10.2303 29.9625 10.2099 29.9606 10.1215C29.9554 9.84193 29.9554 9.56233 29.9606 9.28278C29.9619 9.20243 29.9377 9.17791 29.8576 9.17922C29.5779 9.18384 29.2983 9.18373 29.0189 9.17896C28.9299 9.17713 28.9104 9.21026 28.9117 9.29165C28.9161 9.53087 28.9083 9.77009 28.9156 10.009C28.9187 10.1121 28.8966 10.1473 28.7841 10.1457C28.3182 10.1384 27.852 10.1447 27.3859 10.1408C27.3024 10.1403 27.276 10.1611 27.2768 10.248C27.2807 10.7992 27.2805 11.3504 27.2768 11.9017C27.2763 11.9867 27.3011 12.0128 27.3861 12.0112C27.6613 12.0065 27.9371 12.0097 28.2128 12.0097C28.4841 12.0097 28.7562 12.0057 29.0275 12.0115ZM31.5848 5.25861C31.5856 5.17409 31.5634 5.14956 31.4773 5.14983C30.6465 5.15322 29.8153 5.15348 28.9845 5.14957C28.8895 5.1493 28.8715 5.18009 28.8718 5.26722C28.8749 6.09417 28.8754 6.92139 28.8715 7.74835C28.871 7.8407 28.8976 7.86209 28.9873 7.86183C29.814 7.85843 30.641 7.85791 31.4679 7.86235C31.5692 7.86313 31.5853 7.82948 31.5848 7.73922C31.5804 7.32991 31.583 6.92061 31.583 6.51104C31.583 6.09339 31.5804 5.676 31.5848 5.25861ZM23.5669 13.2746C24.0769 13.3025 24.5869 13.3297 25.0966 13.3578C25.8657 13.4001 26.6346 13.4423 27.4033 13.4857C28.4961 13.5475 29.5884 13.6106 30.6812 13.6711C30.9102 13.6839 30.9055 13.6795 30.9076 13.4483C30.9081 13.362 30.8745 13.3505 30.8014 13.3516C30.5377 13.355 30.2742 13.3503 30.0107 13.3544C29.9332 13.3557 29.9056 13.3372 29.9061 13.2543C29.9095 12.6827 29.9092 12.1111 29.9061 11.5393C29.9061 11.4637 29.9218 11.4339 30.0058 11.4347C30.5815 11.4381 31.157 11.4381 31.7327 11.4347C31.811 11.4342 31.8266 11.4605 31.8256 11.5323C31.8222 11.7997 31.8274 12.0673 31.8225 12.335C31.8209 12.4187 31.8433 12.4448 31.9294 12.4437C32.3468 12.4393 32.7647 12.4445 33.1824 12.4398C33.2763 12.4388 33.3071 12.4623 33.3055 12.5606C33.2998 12.9459 33.3037 13.331 33.3024 13.716C33.3024 13.7768 33.2992 13.8193 33.3866 13.8235C33.9047 13.8488 34.4223 13.8798 34.9404 13.9132C35.0212 13.9187 35.0416 13.8955 35.0416 13.8157C35.039 12.8306 35.0416 11.8456 35.0387 10.8603C35.0377 10.5436 34.7914 10.3437 34.4786 10.3957C34.403 10.4082 34.3271 10.421 34.2517 10.4377C34.1385 10.4627 33.9892 10.4369 33.9191 10.5172C33.8523 10.5937 33.8956 10.7353 33.9008 10.8472C33.9058 10.9469 33.8794 10.9756 33.7761 10.9748C32.9612 10.9701 32.1462 10.9722 31.3315 10.9727C31.2827 10.9727 31.2334 10.9714 31.1859 10.9797C30.66 11.0723 30.1344 11.1697 29.6074 11.2586C29.5266 11.2722 29.5119 11.303 29.5127 11.3752C29.5164 11.675 29.5119 11.9752 29.5159 12.2752C29.5169 12.3514 29.5002 12.3798 29.4167 12.3796C28.614 12.3764 27.8113 12.3764 27.0089 12.3796C26.9244 12.3798 26.9072 12.3503 26.9103 12.2744C26.9155 12.1367 26.9059 11.9984 26.9134 11.861C26.9192 11.7647 26.8933 11.7329 26.7945 11.755C26.6606 11.785 26.5242 11.8072 26.3883 11.8273C26.3098 11.839 26.2735 11.8633 26.2761 11.9562C26.2847 12.2317 26.2774 12.5074 26.2805 12.7831C26.2813 12.8494 26.2662 12.8739 26.1942 12.8737C25.5294 12.871 24.8644 12.871 24.1995 12.8734C24.1324 12.8737 24.1071 12.8575 24.1095 12.7863C24.1147 12.6323 24.109 12.4782 24.1121 12.3243C24.1137 12.258 24.1038 12.2285 24.0252 12.2465C23.8752 12.2804 23.7226 12.3031 23.5713 12.3308C23.2293 12.3937 23.0157 12.6177 22.9656 12.9665C22.9669 13.0179 22.9645 13.0701 22.9705 13.1207C22.9828 13.224 22.9387 13.3315 22.994 13.4311C23.1646 13.3036 23.3587 13.2634 23.5669 13.2746ZM36.3509 23.7206C36.3519 23.7141 36.353 23.7074 36.3535 23.7008C36.2716 23.7083 36.1858 23.6669 36.1075 23.7206H36.3509ZM28.4927 0C28.4912 0.00763959 28.4909 0.0154895 28.4919 0.0232174C28.5308 0.0586957 28.5791 0.0626087 28.6281 0.0628696C28.8699 0.0644348 29.112 0.0644348 29.3541 0.0628696C29.4026 0.0626087 29.4514 0.0597391 29.4903 0.024C29.4913 0.0160301 29.4911 0.00794444 29.49 0H28.4927ZM22.9661 14.1344C23.0209 13.7995 23.2251 13.6265 23.5627 13.6448C24.7043 13.7061 25.8453 13.7718 26.9867 13.835C27.7759 13.879 28.565 13.921 29.3544 13.9654C30.4511 14.027 31.5475 14.0901 32.6439 14.1519C33.4132 14.1952 34.1823 14.237 34.9513 14.28C35.3841 14.3043 35.8174 14.3264 36.2502 14.3541C36.5627 14.3742 36.7933 14.6371 36.7944 14.9737C36.7965 15.7036 36.7952 16.4332 36.7952 17.1631C36.7952 17.2443 36.7923 17.3254 36.7959 17.4065C36.7985 17.4657 36.7777 17.4806 36.7185 17.4775C35.9411 17.4357 35.1634 17.4037 34.3871 17.3541C33.9903 17.3288 33.6196 17.3716 33.2914 17.617C32.8419 17.9536 32.6387 18.5272 32.7812 19.0643C32.9259 19.609 33.3864 20.0228 33.948 20.0723C34.4886 20.1201 35.0319 20.1376 35.5743 20.1668C35.9468 20.1866 36.3193 20.2049 36.6919 20.22C36.7657 20.2231 36.7975 20.2398 36.797 20.3243C36.7939 21.2729 36.7967 22.2219 36.7939 23.1707C36.7928 23.453 36.6308 23.6405 36.3535 23.7008C36.2726 23.7235 36.1876 23.6893 36.1075 23.7206H36.0345C35.9275 23.694 35.8174 23.701 35.7099 23.6992C35.1227 23.6893 34.5376 23.647 33.9514 23.6176C33.4459 23.5923 32.9408 23.5625 32.4355 23.5354C31.9346 23.5085 31.4332 23.4801 30.9326 23.4493C30.5852 23.4282 30.2374 23.4117 29.8897 23.3917C29.5219 23.3703 29.154 23.3515 28.7867 23.3285C28.4473 23.3074 28.1074 23.291 27.768 23.2722C27.384 23.2513 27 23.2289 26.6163 23.2064C26.2808 23.1869 25.945 23.1694 25.6092 23.1506C25.2138 23.1287 24.8172 23.1086 24.4215 23.0838C24.1184 23.065 23.8144 23.0583 23.5121 23.0283C23.1777 22.9951 22.9635 22.7603 22.958 22.421C22.958 19.7069 22.958 16.993 22.9585 14.279C22.9585 14.231 22.9507 14.1819 22.9661 14.1344Z" fill="white"/>
</svg>
