<svg width="60" height="16" viewBox="0 0 60 16" fill="none" xmlns="http://www.w3.org/2000/svg">
<path d="M9.65643 6.50354C8.3046 6.50354 7.61065 7.50605 7.61065 8.89471C7.61065 10.3382 8.23364 11.2871 9.74663 11.2871C10.3949 11.2871 10.9361 11.1044 11.3414 10.8644V10.1737C10.8459 10.4722 10.3949 10.6476 9.909 10.6476C8.98172 10.6476 8.53913 10.1652 8.53913 9.06768H11.4761V8.7327C11.4773 7.24172 10.7834 6.50354 9.65643 6.50354ZM8.55717 8.45497C8.65579 7.54381 9.08034 7.11382 9.62997 7.11382C10.1171 7.11382 10.5765 7.49509 10.621 8.45497H8.55717ZM14.4516 6.50354C13.9645 6.50354 13.5051 6.69479 13.2332 6.84096V4.23906L12.2963 4.46684V10.8388C12.8376 11.13 13.576 11.2859 14.0547 11.2859C15.362 11.2859 16.1726 10.4539 16.1726 8.7461C16.1726 7.28801 15.5689 6.50354 14.4516 6.50354ZM14.0547 10.6464C13.8286 10.6464 13.5147 10.6293 13.226 10.5014V7.5158C13.5868 7.31481 13.849 7.21492 14.2074 7.21492C14.8112 7.21492 15.2273 7.5901 15.2273 8.74732C15.2273 10.2273 14.7222 10.6464 14.0547 10.6464ZM33.109 7.87271V11.1762H32.1721V8.08101C32.1721 7.35988 31.8221 7.23198 31.359 7.23198C30.9994 7.23198 30.5388 7.39642 30.2598 7.56087V11.175H29.3241V7.17716C29.7294 6.9311 30.5857 6.50232 31.6224 6.50232C32.7025 6.50354 33.109 6.93232 33.109 7.87271ZM22.2486 4.70438H23.3659V11.1762H22.393V6.48283H22.3124L20.4735 11.1762H19.8974L18.0585 6.59368H17.9779V11.1762H17.1673V4.70438H18.2569L20.2762 9.80586H20.3219L22.2486 4.70438ZM26.4124 6.50354C25.2229 6.50354 24.357 7.29775 24.357 8.89471C24.357 10.4551 25.1784 11.2871 26.4124 11.2871C27.6475 11.2871 28.4678 10.4551 28.4678 8.89471C28.4678 7.29654 27.6018 6.50354 26.4124 6.50354ZM26.4124 10.6464C25.7725 10.6464 25.3035 10.1469 25.3035 8.89471C25.3035 7.66197 25.8182 7.14184 26.4124 7.14184C27.0257 7.14184 27.5212 7.66197 27.5212 8.89471C27.5212 10.1469 27.0522 10.6464 26.4124 10.6464ZM55.3841 12.4187L56.9728 14.2581C56.6577 14.5054 56.3125 14.7405 55.9337 14.9573C54.7851 15.6212 53.4537 16 52.0406 16C47.6904 16 44.1413 12.4065 44.1413 8.00061C44.1413 3.59345 47.6904 0 52.0406 0C53.2793 0 54.4556 0.292349 55.5031 0.811268C55.6679 0.890446 55.8303 0.978151 55.9926 1.07316L55.2662 1.73217L54.1766 0.588351L52.3328 2.25474L51.2408 1.04393L47.8023 4.17937L50.0056 6.63875L49.1385 7.4086L51.3093 9.87042L50.447 10.6391L53.5475 14.1338L55.3841 12.4187ZM59.1557 7.45367L60 8.40502L59.0619 9.26136L58.2164 8.31001L59.1557 7.45367ZM41.3186 6.65702H42.2843L40.6547 11.2225C40.2037 12.4833 39.654 13.1399 38.6185 13.1399V12.3931C39.2319 12.3931 39.6095 11.901 39.826 11.225L38.0965 6.65824H39.0876L40.2409 10.019H40.2951L41.3186 6.65702ZM35.993 6.50354C34.64 6.50354 33.9472 7.50605 33.9472 8.89471C33.9472 10.3382 34.569 11.2871 36.082 11.2871C36.7303 11.2871 37.2691 11.1044 37.6756 10.8644V10.1737C37.1813 10.4722 36.7303 10.6476 36.2444 10.6476C35.3171 10.6476 34.8733 10.1652 34.8733 9.06768H37.8115V8.7327C37.8139 7.24172 37.1187 6.50354 35.993 6.50354ZM34.8914 8.45497C34.9924 7.54381 35.4169 7.11382 35.9666 7.11382C36.4513 7.11382 36.9131 7.49509 36.9576 8.45497H34.8914ZM57.8556 10.8059L59.1244 12.2336L57.7149 13.5187L56.4448 12.0911L57.8556 10.8059ZM54.114 2.03913L55.3829 3.46677L53.9733 4.75189L52.7045 3.32425L54.114 2.03913ZM51.1349 2.53247L52.8259 4.43517L50.9473 6.14785L49.2563 4.24515L51.1349 2.53247ZM55.2722 7.62056L54.0034 6.19414L55.4105 4.90902L56.6818 6.33544L55.2722 7.62056ZM57.0149 5.48519L57.9518 4.62886L58.7961 5.58021L57.8604 6.43654L57.0149 5.48519ZM6.2937 4.70438H7.34846L5.88719 11.1762H4.91301L3.68746 6.62048H3.62372L2.43425 11.1762H1.46007L0 4.70438H1.01026L2.01932 9.533H2.08307L3.25449 4.70438H4.05669L5.30989 9.533H5.37364L6.2937 4.70438ZM56.4773 10.6342L55.2061 9.20899L56.6156 7.92265L57.8869 9.34785L56.4773 10.6342ZM55.8146 2.65794L56.7539 1.8016L57.5982 2.75295L56.6601 3.60929L55.8146 2.65794ZM52.2931 9.39657L50.6021 7.49387L52.4808 5.77876L54.1717 7.68146L52.2931 9.39657ZM53.6293 12.6855L51.9395 10.7828L53.817 9.07012L55.5079 10.9728L53.6293 12.6855Z" fill="white"/>
</svg>
