<svg width="15" height="14" viewBox="0 0 15 14" fill="none" xmlns="http://www.w3.org/2000/svg">
<path d="M7.57576 13.5758C11.2074 13.5758 14.1515 10.6318 14.1515 7.00007C14.1515 3.36839 11.2074 0.424316 7.57576 0.424316C3.94407 0.424316 1 3.36839 1 7.00007C1 10.6318 3.94407 13.5758 7.57576 13.5758Z" stroke="white" strokeWidth="0.7" strokeMiterlimit="10" strokeLinecap="round" strokeLinejoin="round"/>
<path d="M11.1427 7.00007C11.1427 10.6312 9.54582 13.5758 7.57564 13.5758C5.60419 13.5758 4.00732 10.6312 4.00732 7.00007C4.00732 3.36856 5.60419 0.424316 7.57564 0.424316C9.54625 0.424316 11.1427 3.36856 11.1427 7.00007Z" stroke="white" strokeWidth="0.7" strokeMiterlimit="10" strokeLinecap="round" strokeLinejoin="round"/>
<path d="M7.57568 0.717041V13.2818" stroke="white" strokeWidth="0.7" strokeMiterlimit="10" strokeLinecap="round" strokeLinejoin="round"/>
<path d="M14.1515 7H1" stroke="white" strokeWidth="0.7" strokeMiterlimit="10" strokeLinecap="round" strokeLinejoin="round"/>
<path d="M13.3194 3.81104H1.83008" stroke="white" strokeWidth="0.7" strokeMiterlimit="10" strokeLinecap="round" strokeLinejoin="round"/>
<path d="M13.3194 10.2053H1.83008" stroke="white" strokeWidth="0.7" strokeMiterlimit="10" strokeLinecap="round" strokeLinejoin="round"/>
</svg>
