<svg width="15" height="15" viewBox="0 0 15 15" fill="none" xmlns="http://www.w3.org/2000/svg">
<path d="M13.2983 6.92358V13.7305C13.2983 13.9713 13.1029 14.1684 12.864 14.1684H2.41522C2.17638 14.1684 1.98096 13.9713 1.98096 13.7305V6.92358" stroke="white" stroke-width="0.7" stroke-miterlimit="10"/>
<path d="M12.3774 2.74023L13.9998 5.88795C14.3289 6.52862 14.0141 7.0528 13.2976 7.0528H11.2917C10.576 7.0528 9.88642 6.47169 9.75831 5.76096L9.24023 2.86723" stroke="white" stroke-width="0.5" stroke-miterlimit="10"/>
<path d="M9.2395 2.86719L9.75758 5.7609C9.88569 6.47163 9.40452 7.05274 8.68799 7.05274H6.68169C5.96603 7.05274 5.47183 6.469 5.58301 5.75652L6.03377 2.87244" stroke="white" stroke-width="0.5" stroke-miterlimit="10"/>
<path d="M6.04088 2.83031L5.48199 6.40369C5.42597 6.76015 5.08724 7.05223 4.72898 7.05223H1.42294C1.06467 7.05223 0.901819 6.78773 1.0612 6.46368L2.90551 2.71338" stroke="white" stroke-width="0.5" stroke-miterlimit="10"/>
<mask id="path-5-inside-1" fill="white">
<path d="M12.1454 0.879075V2.55759H3.10711V0.879075H12.1454ZM12.1454 0.441162H3.10711C2.86827 0.441162 2.67285 0.638223 2.67285 0.879075V2.55759C2.67285 2.79845 2.86827 2.99551 3.10711 2.99551H12.1454C12.3843 2.99551 12.5797 2.79845 12.5797 2.55759V0.879075C12.5797 0.638223 12.3838 0.441162 12.1454 0.441162Z"/>
</mask>
<path d="M12.1454 0.879075H12.8454V0.179075H12.1454V0.879075ZM12.1454 2.55759V3.25759H12.8454V2.55759H12.1454ZM3.10711 2.55759H2.40711V3.25759H3.10711V2.55759ZM3.10711 0.879075V0.179075H2.40711V0.879075H3.10711ZM11.4454 0.879075V2.55759H12.8454V0.879075H11.4454ZM12.1454 1.85759H3.10711V3.25759H12.1454V1.85759ZM3.80711 2.55759V0.879075H2.40711V2.55759H3.80711ZM3.10711 1.57907H12.1454V0.179075H3.10711V1.57907ZM12.1454 -0.258838H3.10711V1.14116H12.1454V-0.258838ZM3.10711 -0.258838C2.47616 -0.258838 1.97285 0.257158 1.97285 0.879075H3.37285C3.37285 1.01929 3.26038 1.14116 3.10711 1.14116V-0.258838ZM1.97285 0.879075V2.55759H3.37285V0.879075H1.97285ZM1.97285 2.55759C1.97285 3.17951 2.47616 3.69551 3.10711 3.69551V2.29551C3.26038 2.29551 3.37285 2.41738 3.37285 2.55759H1.97285ZM3.10711 3.69551H12.1454V2.29551H3.10711V3.69551ZM12.1454 3.69551C12.7764 3.69551 13.2797 3.17951 13.2797 2.55759H11.8797C11.8797 2.41738 11.9922 2.29551 12.1454 2.29551V3.69551ZM13.2797 2.55759V0.879075H11.8797V2.55759H13.2797ZM13.2797 0.879075C13.2797 0.256701 12.7755 -0.258838 12.1454 -0.258838V1.14116C11.9922 1.14116 11.8797 1.01974 11.8797 0.879075H13.2797Z" fill="white" mask="url(#path-5-inside-1)"/>
<path d="M9.57677 8.62883V14.0033H5.70184V8.62883H9.57677ZM9.57677 8.19092H5.70184C5.463 8.19092 5.26758 8.38798 5.26758 8.62883V14.0033C5.26758 14.2442 5.463 14.4412 5.70184 14.4412H9.57677C9.81562 14.4412 10.011 14.2442 10.011 14.0033V8.62883C10.011 8.38798 9.81518 8.19092 9.57677 8.19092Z" fill="white" stroke="white" stroke-width="0.2"/>
</svg>
