<svg width="12" height="14" viewBox="0 0 12 14" fill="none" xmlns="http://www.w3.org/2000/svg">
<path d="M11.6356 5.8351C11.6356 2.85947 9.11264 0.424316 6.03378 0.424316C2.9528 0.424316 0.430658 2.85947 0.430658 5.8351C0.430658 5.8351 0.213802 12.5517 4.35721 13.3663C3.51937 11.5607 3.57294 8.19007 3.57294 8.19007C3.57294 5.72989 4.68121 3.72068 6.03378 3.72068C7.3885 3.72068 8.49678 5.72989 8.49678 8.19007C8.49678 8.19007 8.58893 11.5883 7.78707 13.3887C11.9909 12.757 11.6356 5.8351 11.6356 5.8351Z" stroke="white" strokeWidth="0.7" strokeMiterlimit="10" strokeLinecap="round" strokeLinejoin="round"/>
<path d="M6.31995 1.97686C6.31995 2.11861 6.19965 2.2457 6.03595 2.2457C5.87229 2.2457 5.75195 2.1186 5.75195 1.97686C5.75195 1.83512 5.87229 1.70801 6.03595 1.70801C6.19965 1.70801 6.31995 1.8351 6.31995 1.97686Z" fill="white" stroke="white" strokeWidth="0.5"/>
<path d="M3.60267 3.20085C3.60267 3.34345 3.48196 3.47055 3.31867 3.47055C3.15538 3.47055 3.03467 3.34345 3.03467 3.20085C3.03467 3.05826 3.15538 2.93115 3.31867 2.93115C3.48196 2.93115 3.60267 3.05826 3.60267 3.20085Z" fill="white" stroke="white" strokeWidth="0.5"/>
<path d="M2.53455 5.60198C2.53455 5.74324 2.41462 5.86998 2.2514 5.86998C2.0882 5.86998 1.96826 5.74324 1.96826 5.60198C1.96826 5.4607 2.08818 5.33398 2.2514 5.33398C2.41463 5.33398 2.53455 5.46069 2.53455 5.60198Z" fill="white" stroke="white" strokeWidth="0.5"/>
<path d="M2.53455 8.70745C2.53455 8.8494 2.41461 8.9763 2.2514 8.9763C2.0882 8.9763 1.96826 8.8494 1.96826 8.70745C1.96826 8.56661 2.08793 8.43945 2.2514 8.43945C2.41488 8.43945 2.53455 8.56661 2.53455 8.70745Z" fill="white" stroke="white" strokeWidth="0.5"/>
<path d="M9.0354 3.20085C9.0354 3.34363 8.9147 3.47055 8.75183 3.47055C8.58897 3.47055 8.46826 3.34363 8.46826 3.20085C8.46826 3.05807 8.58897 2.93115 8.75183 2.93115C8.9147 2.93115 9.0354 3.05807 9.0354 3.20085Z" fill="white" stroke="white" strokeWidth="0.5"/>
<path d="M9.82001 5.86998C9.6552 5.86998 9.53516 5.74238 9.53516 5.60198C9.53516 5.46159 9.6552 5.33398 9.82001 5.33398C9.98311 5.33398 10.104 5.46159 10.104 5.60198C10.104 5.74251 9.9834 5.86998 9.82001 5.86998Z" fill="white" stroke="white" strokeWidth="0.5"/>
<path d="M9.82001 8.9763C9.65574 8.9763 9.53516 8.84837 9.53516 8.70745C9.53516 8.56765 9.65548 8.43945 9.82001 8.43945C9.98284 8.43945 10.104 8.56765 10.104 8.70745C10.104 8.8485 9.98286 8.9763 9.82001 8.9763Z" fill="white" stroke="white" strokeWidth="0.5"/>
</svg>
