<svg width="15" height="14" viewBox="0 0 15 14" fill="none" xmlns="http://www.w3.org/2000/svg">
<path d="M7.57576 0.424316L8.98 2.28674L11.167 1.47941L11.3422 3.8051L13.6195 4.30783L12.5076 6.35862L14.1515 8.01359L12.1079 9.13783L12.5962 11.4181L10.2693 11.2595L9.44794 13.4426L7.57576 12.0511L5.70358 13.4426L4.88182 11.2595L2.55527 11.4181L3.04358 9.13783L1 8.01359L2.64394 6.35862L1.53242 4.30783L3.80891 3.8051L3.98455 1.47941L6.17152 2.28674L7.57576 0.424316Z" stroke="white" stroke-width="0.7" stroke-miterlimit="10" stroke-linejoin="round"/>
<path d="M4.34521 8.43877V5.90308H4.702L5.51486 7.18599C5.70322 7.48338 5.84958 7.75023 5.96964 8.00944L5.97728 8.00605C5.94758 7.66708 5.93952 7.35908 5.93952 6.96411V5.90308H6.24837V8.43877H5.91789L5.1131 7.15205C4.93661 6.8695 4.76649 6.58059 4.63964 6.30568L4.62691 6.30908C4.64558 6.62896 4.65364 6.93398 4.65364 7.35483V8.43877H4.34521Z" fill="white" stroke="white" stroke-width="0.2"/>
<path d="M8.13243 7.2498H7.14692V8.16362H8.24528V8.43853H6.81982V5.90283H8.1897V6.17774H7.14692V6.97871H8.13243V7.2498Z" fill="white" stroke="white" stroke-width="0.2"/>
<path d="M9.1177 8.43877L8.47412 5.90308H8.81945L9.12109 7.18599C9.19576 7.50205 9.26321 7.81811 9.30861 8.06247H9.31624C9.35824 7.81005 9.4363 7.50883 9.52285 7.18259L9.86182 5.90308H10.2042L10.5126 7.18938C10.5839 7.49059 10.6518 7.7918 10.6895 8.05865H10.6972C10.7498 7.78035 10.8219 7.49865 10.9004 7.18302L11.2355 5.9035H11.5694L10.852 8.4392H10.5096L10.1889 7.11853C10.1104 6.79526 10.0578 6.54665 10.0239 6.29126H10.0162C9.97127 6.54283 9.91527 6.79144 9.82067 7.11853L9.45964 8.4392H9.1177V8.43877Z" fill="white" stroke="white" stroke-width="0.2"/>
</svg>
