<svg width="13" height="14" viewBox="0 0 13 14" fill="none" xmlns="http://www.w3.org/2000/svg">
<path d="M6.11471 3.4151C6.11826 3.58536 5.98271 3.72717 5.80582 3.73078C5.62893 3.7362 5.48271 3.60117 5.4796 3.4291C5.47515 3.25975 5.61515 3.11839 5.79204 3.11433C5.96848 3.11072 6.11026 3.24485 6.11471 3.4151Z" fill="white" stroke="white" strokeWidth="0.2"/>
<path d="M7.58626 3.4151C7.58893 3.58536 7.45337 3.72717 7.27648 3.73078C7.10048 3.7362 6.95337 3.60117 6.95026 3.4291C6.94671 3.25975 7.08671 3.11839 7.26271 3.11433C7.43871 3.11072 7.58182 3.24485 7.58626 3.4151Z" fill="white" stroke="white" strokeWidth="0.2"/>
<path d="M6.8505 7.56084C6.85406 7.732 6.71495 7.87291 6.54073 7.87652C6.36206 7.88104 6.21673 7.74691 6.2145 7.57575C6.20917 7.40459 6.34917 7.26504 6.52517 7.26188C6.70206 7.25646 6.84695 7.39149 6.8505 7.56084Z" fill="white" stroke="white" strokeWidth="0.2"/>
<path d="M6.85086 9.23416C6.85441 9.40442 6.7153 9.54532 6.54108 9.54984C6.3633 9.55345 6.21708 9.41932 6.21397 9.24816C6.20953 9.0779 6.34953 8.937 6.52641 8.93248C6.70241 8.92797 6.8473 9.063 6.85086 9.23416Z" fill="white" stroke="white" strokeWidth="0.2"/>
<path d="M6.85086 10.9056C6.85441 11.0759 6.7153 11.2168 6.54019 11.2213C6.36241 11.2258 6.21708 11.0917 6.21397 10.9205C6.20953 10.7494 6.34953 10.6094 6.52641 10.6048C6.70153 10.6003 6.84641 10.7336 6.85086 10.9056Z" fill="white" stroke="white" strokeWidth="0.2"/>
<path d="M7.83517 5.57612C8.43162 5.17644 8.82406 4.51165 8.82406 3.75656C8.82406 2.53314 7.79695 1.54004 6.53162 1.54004C5.26628 1.54004 4.24097 2.53314 4.24097 3.75656C4.24097 4.51165 4.63252 5.17419 5.22806 5.57612C3.52497 6.10812 2.29297 7.65173 2.29297 9.4767C2.29297 11.7393 4.19075 13.5755 6.53162 13.5755C8.87251 13.5755 10.773 11.7393 10.773 9.4767C10.7725 7.65173 9.5374 6.10812 7.83517 5.57612Z" stroke="white" strokeWidth="0.7" strokeMiterlimit="10" strokeLinejoin="round"/>
<path d="M4.2041 1.54004H8.86011" stroke="white" strokeWidth="0.7" strokeMiterlimit="10" strokeLinecap="round" strokeLinejoin="round"/>
<path d="M5.72412 0.45166H7.34012" stroke="white" strokeWidth="0.7" strokeMiterlimit="10" strokeLinecap="round" strokeLinejoin="round"/>
<path d="M4.204 5.90264C4.204 5.90264 1.73422 4.79573 1 7.04567" stroke="white" strokeWidth="0.7" strokeMiterlimit="10" strokeLinecap="round" strokeLinejoin="round"/>
<path d="M8.86035 5.90264C8.86035 5.90264 11.3292 4.79573 12.0644 7.04567" stroke="white" strokeWidth="0.7" strokeMiterlimit="10" strokeLinecap="round" strokeLinejoin="round"/>
</svg>
