<svg width="17" height="20" viewBox="0 0 17 20" fill="none" xmlns="http://www.w3.org/2000/svg">
<path d="M4.58325 1H12.4198L10.2 4.74546H6.55518L4.58325 1Z" stroke="white" stroke-miterlimit="10" stroke-linecap="round" stroke-linejoin="round"/>
<path d="M7.57214 6.37066C8.38615 6.37066 9.74757 6.14158 10.507 6.37236C11.0965 6.55199 11.6626 7.33076 12.0168 7.7497C13.007 8.915 13.7289 10.2304 14.4258 11.5349C15.0187 12.644 15.6315 13.7331 15.9294 14.9325C16.1948 15.9853 15.7105 17.5729 14.5014 18.0214C13.4044 18.4301 11.9503 18.4955 10.6775 18.5455C8.79656 18.6189 7.00654 18.3932 5.12841 18.3966C3.89489 18.3966 1.6325 18.159 1.16353 16.9312C0.786088 15.9432 1.1425 14.3288 1.42445 13.375C1.62966 12.6758 1.98095 12.0403 2.29928 11.3843C2.55906 10.8403 2.7114 10.2838 2.99107 9.76767C3.29405 9.21514 3.76586 8.74902 4.10124 8.19706C4.47527 7.57462 5.06702 6.53664 5.89524 6.37123C6.39263 6.27004 7.06225 6.37066 7.57214 6.37066Z" stroke="white" stroke-miterlimit="10" stroke-linecap="round" stroke-linejoin="round"/>
<mask id="path-3-inside-1" fill="white">
<path d="M8.15038 16.6475V15.6038C7.55067 15.5936 6.93221 15.4072 6.57068 15.1497L6.81738 14.4579C7.19028 14.7057 7.72689 14.9018 8.30499 14.9018C9.03885 14.9018 9.5334 14.4789 9.5334 13.8906C9.5334 13.3221 9.13151 12.9714 8.36752 12.6616C7.31477 12.2483 6.66561 11.7731 6.66561 10.8761C6.66561 10.0189 7.27384 9.3686 8.22314 9.21285V8.1709H8.86263V9.17249C9.48224 9.19296 9.90516 9.35894 10.2053 9.53402L9.94665 10.2162C9.72894 10.0917 9.30716 9.86429 8.6472 9.86429C7.85138 9.86429 7.55124 10.3395 7.55124 10.7516C7.55124 11.2888 7.93323 11.5577 8.83137 11.9294C9.89549 12.3637 10.4327 12.8998 10.4327 13.8189C10.4327 14.6341 9.86423 15.3975 8.80011 15.5731V16.6481H8.15038V16.6475Z"/>
</mask>
<path d="M8.15038 15.6038H9.15038V14.6208L8.16744 14.604L8.15038 15.6038ZM6.57068 15.1497L5.62878 14.8138L5.3749 15.5257L5.99053 15.9642L6.57068 15.1497ZM6.81738 14.4579L7.37091 13.625L6.30527 12.9168L5.87548 14.122L6.81738 14.4579ZM8.36752 12.6616L8.74333 11.7348L8.73293 11.7307L8.36752 12.6616ZM8.22314 9.21285L8.38504 10.1997L9.22314 10.0622V9.21285H8.22314ZM8.22314 8.1709V7.1709H7.22314V8.1709H8.22314ZM8.86263 8.1709H9.86263V7.1709H8.86263V8.1709ZM8.86263 9.17249H7.86263V10.14L8.82963 10.1719L8.86263 9.17249ZM10.2053 9.53402L11.1403 9.88856L11.4405 9.09687L10.7092 8.67024L10.2053 9.53402ZM9.94665 10.2162L9.45027 11.0843L10.4666 11.6654L10.8817 10.5707L9.94665 10.2162ZM8.83137 11.9294L8.44891 12.8534L8.45351 12.8553L8.83137 11.9294ZM8.80011 15.5731L8.63725 14.5865L7.80011 14.7247V15.5731H8.80011ZM8.80011 16.6481V17.6481H9.80011V16.6481H8.80011ZM8.15038 16.6481H7.15038V17.6481H8.15038V16.6481ZM9.15038 16.6475V15.6038H7.15038V16.6475H9.15038ZM8.16744 14.604C7.71918 14.5963 7.31077 14.4491 7.15083 14.3351L5.99053 15.9642C6.55365 16.3653 7.38217 16.5909 8.13332 16.6037L8.16744 14.604ZM7.51258 15.4855L7.75928 14.7938L5.87548 14.122L5.62878 14.8138L7.51258 15.4855ZM6.26385 15.2907C6.78542 15.6373 7.51228 15.9018 8.30499 15.9018V13.9018C7.94149 13.9018 7.59514 13.7741 7.37091 13.625L6.26385 15.2907ZM8.30499 15.9018C8.85915 15.9018 9.40636 15.7415 9.83415 15.3854C10.2742 15.0191 10.5334 14.4863 10.5334 13.8906H8.5334C8.5334 13.8952 8.53301 13.8854 8.54052 13.8695C8.54781 13.8541 8.55574 13.8473 8.55463 13.8482C8.55169 13.8507 8.4847 13.9018 8.30499 13.9018V15.9018ZM10.5334 13.8906C10.5334 13.3307 10.3201 12.8509 9.94674 12.4747C9.60951 12.1349 9.17081 11.9082 8.74331 11.7349L7.99174 13.5883C8.32822 13.7247 8.47245 13.8284 8.52717 13.8835C8.54714 13.9036 8.54358 13.9059 8.53724 13.8908C8.53051 13.8749 8.5334 13.8699 8.5334 13.8906H10.5334ZM8.73293 11.7307C8.24023 11.5373 7.96411 11.3729 7.8149 11.2294C7.7076 11.1263 7.66561 11.0397 7.66561 10.8761H5.66561C5.66561 11.6095 5.9482 12.2091 6.42867 12.6711C6.86722 13.0928 7.44206 13.3726 8.00212 13.5924L8.73293 11.7307ZM7.66561 10.8761C7.66561 10.5908 7.83331 10.2902 8.38504 10.1997L8.06123 8.22605C6.71437 8.44703 5.66561 9.447 5.66561 10.8761H7.66561ZM9.22314 9.21285V8.1709H7.22314V9.21285H9.22314ZM8.22314 9.1709H8.86263V7.1709H8.22314V9.1709ZM7.86263 8.1709V9.17249H9.86263V8.1709H7.86263ZM8.82963 10.1719C9.27026 10.1865 9.5327 10.2994 9.70142 10.3978L10.7092 8.67024C10.2776 8.4185 9.69422 8.19941 8.89564 8.17304L8.82963 10.1719ZM9.27025 9.17948L9.01161 9.86161L10.8817 10.5707L11.1403 9.88856L9.27025 9.17948ZM10.443 9.34805C10.1613 9.18697 9.55983 8.86429 8.6472 8.86429V10.8643C9.05448 10.8643 9.29654 10.9964 9.45027 11.0843L10.443 9.34805ZM8.6472 8.86429C8.04466 8.86429 7.50043 9.04922 7.10233 9.43776C6.71292 9.81781 6.55124 10.3086 6.55124 10.7516H8.55124C8.55124 10.7825 8.53963 10.8296 8.49924 10.8691C8.48012 10.8877 8.46911 10.8894 8.48234 10.8846C8.49744 10.8791 8.54746 10.8643 8.6472 10.8643V8.86429ZM6.55124 10.7516C6.55124 11.3243 6.78346 11.7961 7.19797 12.1569C7.54165 12.456 8.00093 12.668 8.44892 12.8534L9.21383 11.0055C9.00212 10.9178 8.8426 10.8451 8.72057 10.7804C8.59715 10.7151 8.53697 10.6708 8.51103 10.6483C8.49028 10.6302 8.51021 10.6424 8.53076 10.6863C8.55215 10.732 8.55124 10.7629 8.55124 10.7516H6.55124ZM8.45351 12.8553C8.92343 13.0471 9.16085 13.2174 9.28097 13.3537C9.37237 13.4573 9.43267 13.5794 9.43267 13.8189H11.4327C11.4327 13.1393 11.2244 12.5337 10.7812 12.031C10.3667 11.5609 9.80344 11.2461 9.20923 11.0036L8.45351 12.8553ZM9.43267 13.8189C9.43267 14.119 9.24422 14.4863 8.63725 14.5865L8.96297 16.5598C10.4842 16.3087 11.4327 15.1492 11.4327 13.8189H9.43267ZM7.80011 15.5731V16.6481H9.80011V15.5731H7.80011ZM8.80011 15.6481H8.15038V17.6481H8.80011V15.6481ZM9.15038 16.6481V16.6475H7.15038V16.6481H9.15038Z" fill="white" mask="url(#path-3-inside-1)"/>
</svg>
