<svg width="17" height="13" viewBox="0 0 17 13" fill="none" xmlns="http://www.w3.org/2000/svg">
<path d="M15.9443 1.0881C15.8899 1.02257 15.8055 0.992008 15.7213 1.00179C15.7021 1.00277 15.6841 1.00594 15.6654 1.01132L1.18438 4.86729C1.078 4.89565 1.00307 4.98905 1.00008 5.09687C0.997331 5.20469 1.06726 5.30176 1.1719 5.3355L6.47057 7.03524L5.99657 10.7472C5.98408 10.845 6.03278 10.9406 6.11994 10.9895C6.15865 11.0113 6.2016 11.022 6.24431 11.022C6.298 11.022 6.35169 11.0051 6.39615 10.9716L8.33536 9.51787L10.0353 11.8956C10.0823 11.9614 10.1587 12 10.2399 12C10.2453 12 10.2511 11.9998 10.2568 11.9995C10.3442 11.9936 10.4219 11.9435 10.4619 11.867L15.9718 1.35362C16.0178 1.26756 16.0068 1.1634 15.9443 1.0881ZM14.2099 1.90569L6.70932 6.5971L2.1199 5.12499L14.2099 1.90569ZM6.56622 10.2284L6.91135 7.52595L8.04891 9.11689L6.56622 10.2284ZM10.2074 11.2829L7.09816 6.93427L15.1147 1.92012L10.2074 11.2829Z" fill="white" stroke="white" stroke-width="0.3"/>
</svg>
