<svg width="462" height="59" viewBox="0 0 462 59" fill="none" xmlns="http://www.w3.org/2000/svg">
<path d="M1 58.4998L22.9997 48.4998L32.9998 50.4997L43.9998 46.4997L61.9999 49.4999L79 44.4999L86 47.4998L98.0001 42.4997L105 40.4999V34.4998H113L131 33.4997L138 37.4997L160 35.4999L174 33.4997L178 37.4997L193 34.4998L198 29.4998L209 30.4999V25.4998L222 22.4996L249 23.4997L269 19.4997L282 17.4999L290 25.4998L304 18.4996L317 15.4998L327 17.4999L341 13L356.5 9L363.5 3.5L381 7L388.5 9H397.5H408.5L420 4.5H425.5H435L443 3.5L454 4.5L459.5 1" stroke="#00A651"/>
<path d="M1 58.4998L21.9997 52.4998L31.9997 49.4999L46.9998 50.4997L60.9999 52.4998L75.0004 43.4998L90 51.4997L100 45.4997L105 40.4999V38.4998L113 40.4999H130L142 43.4998L161 40.4999H172L181 34.4998L193 38.4998L200 27.4997L209 30.4999V25.4998L224 32.4997L251 28.4997L266 32.4997L279 30.4999L290 33.4997L307 25.4998L317 24.4998L325.5 25.4998L334 30.4999L341.5 22.5H352.5L362.5 24.4998L368 19H383.5L397 10L406 13L417 14.5H432.5L436 10L443.5 11L447 13L460 12" stroke="#E43133"/>
<path d="M1 58.5L22.0002 55.4998L32.9998 54.4997L48 55.4998L67.0005 56.4999L77.0002 51.4998L91.0003 54.4997L101 52.4999L105 48.4999L108 46.4998L116 48.4999L129 50.4998H142L159 45.4998L172 47.4999L183 45.4998L193 42.4999L201 44.5L209 41.4998V34.4999L225 38.4999L249 34.4999L266 31.5L280 37.4998H294L308 34.4999L316 35.5L328.001 31.5L336.501 34.4999H348.501L358.001 31.5H367.001L370.501 28.5L380.001 25.5L389.501 23H401.501H412.001L414.001 20.5L428.001 23L436.001 20.5H449.001L461.501 15.5" stroke="white"/>
</svg>
