<svg width="499" height="55" viewBox="0 0 499 55" fill="none" xmlns="http://www.w3.org/2000/svg">
<path fill-rule="evenodd" clip-rule="evenodd" d="M5 0H0V55H5V0ZM15 40H10V55H15V40ZM20 30H25V55H20V30ZM35 19H30V55H35V19ZM40 22H45V55H40V22ZM55 17H50V55H55V17ZM60 12H65V55H60V12ZM75 17H70V55H75V17ZM80 22H85V55H80V22ZM95 29H90V55H95V29ZM99.9999 25H105V54.9999H99.9999V25ZM115 32H110V55H115V32ZM120 36H125V55H120V36ZM135 40H130V55H135V40ZM140 33H145V55H140V33ZM155 22H150V55H155V22ZM160 26H165V55H160V26ZM175 32H170V55H175V32ZM180 37H185V55H180V37ZM195 43H190V55H195V43ZM200 42H205V55H200V42ZM215 38H210V55H215V38ZM220 45H225V55H220V45ZM235 35H230V55H235V35ZM240 25H245V55H240V25ZM255 16H250V55H255V16ZM260 9H265V55H260V9ZM275 3H270V55H275V3ZM280 29H285V55H280V29ZM295 19H290V55H295V19ZM300 12H305V55H300V12ZM315 22H310V55H315V22ZM320 33H325V55H320V33ZM335 29H330V55H335V29ZM340 22H345V55H340V22ZM355 24H350V55H355V24ZM359 28H364V55H359V28ZM373 24H368V55H373V24ZM377 18H382V55H377V18ZM391 25H386V55H391V25ZM395 32H400V55H395V32ZM409 43H404V55H409V43ZM413 37H418V55H413V37ZM427 25H422V55H427V25ZM431 30H436V55H431V30ZM445 34H440V55H445V34ZM449 27H454V55H449V27ZM463 22H458V55H463V22ZM467 18H472V55H467V18ZM481 10H476V55H481V10ZM485 7H490V55H485V7ZM499 2H494V55H499V2Z" fill="white"/>
</svg>
