<svg width="551" height="29" viewBox="0 0 551 29" fill="none" xmlns="http://www.w3.org/2000/svg">
<path fillRule="evenodd" clipRule="evenodd" d="M0.999512 26.9999L26.9993 25H36.9994L61.9996 22.9999L72.9997 25L88.9994 21.9998L93.9994 25L103 21.9998L114 25.9998L130 25L138.999 25.9998L150.999 22.9999L164 24L179 22.9999L189 21.0001L194.999 25.9998L211 21.9998H226.999L245.999 26.9999L263.999 22.9999L273.999 17.9998L279 16L284.999 14.9999L285.999 20L289 12L294.999 16L299 8.99986L303.999 13.9999L312 7.00002L318.999 12.9998L329 7.9998L335 12.9998L340.999 7.9998L343.999 3.00006L348.999 12.9998L357 7.00002L364 2L367 12L375.999 16.9998L385.999 21.0001L392.999 16L398.999 22.9999L404.999 24" fill="black" fillOpacity="0.01"/>
<path d="M0.999512 26.9999L26.9993 25H36.9994L61.9996 22.9999L72.9997 25L88.9994 21.9998L93.9994 25L103 21.9998L114 25.9998L130 25L138.999 25.9998L150.999 22.9999L164 24L179 22.9999L189 21.0001L194.999 25.9998L211 21.9998H226.999L245.999 26.9999L263.999 22.9999L273.999 17.9998L279 16L284.999 14.9999L285.999 20L289 12L294.999 16L299 8.99986L303.999 13.9999L312 7.00002L318.999 12.9998L329 7.9998L335 12.9998L340.999 7.9998L343.999 3.00006L348.999 12.9998L357 7.00002L364 2L367 12L375.999 16.9998L385.999 21.0001L392.999 16L398.999 22.9999L404.999 24L425.5 21.0001L439 16L468.5 16.9998L482 20L494.5 21.0001L499 13.9999L507.5 25.9998L519 24L534 12H550.5" stroke="#00A651" strokeWidth="2"/>
</svg>
