<svg width="495" height="56" viewBox="0 0 495 56" fill="none" xmlns="http://www.w3.org/2000/svg">
<path fill-rule="evenodd" clip-rule="evenodd" d="M175 0H170V56H175V0ZM55 17H50V56H55V17ZM40 23H45V56H40V23ZM35 27H30V56H35V27ZM20 29H25V56H20V29ZM15 36H10V56H15V36ZM5 46H0V56H5V46ZM60 23H65V56H60V23ZM75 25H70V56H75V25ZM80 30H85V56H80V30ZM95 23H90V56H95V23ZM100 17H105V56H100V17ZM115 25H110V56H115V25ZM120 32H125V56H120V32ZM135 37H130V56H135V37ZM140 43H145V56H140V43ZM155 35H150V56H155V35ZM160 20H165V56H160V20ZM180 16H185V56H180V16ZM195 29H190V56H195V29ZM200 34H205V56H200V34ZM215 41H210V56H215V41ZM220 41H225V56H220V41ZM235 47H230V56H235V47ZM240 41H245V56H240V41ZM255 34H250V56H255V34ZM260 29H265V56H260V29ZM275 20H270V56H275V20ZM280 29H285V56H280V29ZM295 35H290V56H295V35ZM300 46H305V56H300V46ZM315 39H310V56H315V39ZM320 34H325V56H320V34ZM335 31H330V56H335V31ZM340 30H345V56H340V30ZM355 23H350V56H355V23ZM360 14.9998H365V55.9998H360V14.9998ZM375 9H370V56H375V9ZM380 2H385V56H380V2ZM395 9H390V56H395V9ZM400.001 15H405.002V56H400.001V15ZM415 20H410V56H415V20ZM420 28H425V56H420V28ZM435 24H430V56H435V24ZM440 19H445V56H440V19ZM455 15H450V56H455V15ZM460 22H465V56H460V22ZM475 28H470V56H475V28ZM480 34H485V56H480V34ZM495 40H490V56H495V40Z" fill="white"/>
</svg>
