<svg width="552" height="27" viewBox="0 0 552 27" fill="none" xmlns="http://www.w3.org/2000/svg">
<path d="M1 25.4998L27 21.4998L45.5 23.4999L62.0001 21.4998L75 18.4999H89L98 16.4997L105.5 20.4997L113 22.4999L128 24.4997L138.5 22.4999L150 23.4999L164 21.4998L179 15.4997L188 22.4999L196 25.4998L210.5 24.4997L227 23.4999L245.5 18.4999L264 21.4998L270.5 15.4997L282 9.5L295.5 2L304.5 9.5L313.5 18.4999L329 20.4997L343.5 15.4997L355.5 18.4999L373 21.4998L386 18.4999L395 12.5H405L413 20.4997L451.5 15.4997L467.5 20.4997L481.5 6.49973L487.5 12.5L524 20.4997L551 10" stroke="#00A651" stroke-width="2"/>
</svg>
