<svg width="500" height="144" viewBox="0 0 500 144" fill="none" xmlns="http://www.w3.org/2000/svg">
<path fill-rule="evenodd" clip-rule="evenodd" d="M4.99932 143H3.99932V126H4.99932V143Z" fill="#00A651"/>
<path fill-rule="evenodd" clip-rule="evenodd" d="M12.9993 117H11.9993V99.9998H12.9993V117Z" fill="#00A651"/>
<path fill-rule="evenodd" clip-rule="evenodd" d="M32.9997 96.9999H31.9997V79.9999H32.9997V96.9999Z" fill="#E43133"/>
<path fill-rule="evenodd" clip-rule="evenodd" d="M42.9997 100H41.9997V82.9998H42.9997V100Z" fill="#00A651"/>
<path fill-rule="evenodd" clip-rule="evenodd" d="M52.9996 108H51.9996V81.9998H52.9996V108Z" fill="#E43133"/>
<path fill-rule="evenodd" clip-rule="evenodd" d="M62.9996 83.9998H61.9996V57.9999H62.9996V83.9998Z" fill="#00A651"/>
<path fill-rule="evenodd" clip-rule="evenodd" d="M72.9995 74.9998H71.9995V48.9999H72.9995V74.9998Z" fill="#00A651"/>
<path fill-rule="evenodd" clip-rule="evenodd" d="M82.9995 84.9998H81.9995V58.9999H82.9995V84.9998Z" fill="#00A651"/>
<path fill-rule="evenodd" clip-rule="evenodd" d="M92.9995 94.9999H91.9995V68.9999H92.9995V94.9999Z" fill="#E43133"/>
<path fill-rule="evenodd" clip-rule="evenodd" d="M102.999 60.9998H101.999V34.9999H102.999V60.9998Z" fill="#00A651"/>
<path fill-rule="evenodd" clip-rule="evenodd" d="M122.999 89.9998H121.999V63.9999H122.999V89.9998Z" fill="#E43133"/>
<path fill-rule="evenodd" clip-rule="evenodd" d="M133 102H132V75.9997H133V102Z" fill="#00A651"/>
<path fill-rule="evenodd" clip-rule="evenodd" d="M143 61H142V34.9998H143V61Z" fill="#00A651"/>
<path fill-rule="evenodd" clip-rule="evenodd" d="M153 59.9999H152V34H153V59.9999Z" fill="#E43133"/>
<path fill-rule="evenodd" clip-rule="evenodd" d="M1.99933 108H6.99979V134H1.99933V108Z" fill="#00A651"/>
<path fill-rule="evenodd" clip-rule="evenodd" d="M9.99929 102H14.9998V112H9.99929V102Z" fill="#00A651"/>
<path fill-rule="evenodd" clip-rule="evenodd" d="M19.9997 80.9998H24.9992V108H19.9997V80.9998Z" fill="#00A651"/>
<path fill-rule="evenodd" clip-rule="evenodd" d="M29.9997 92.9999H34.9992V139H29.9997V92.9999Z" fill="#E43133"/>
<path fill-rule="evenodd" clip-rule="evenodd" d="M39.9997 66.9999H44.9996V92.9998H39.9997V66.9999Z" fill="#00A651"/>
<path fill-rule="evenodd" clip-rule="evenodd" d="M49.9996 93.9999H54.9996V107H49.9996V93.9999Z" fill="#E43133"/>
<path fill-rule="evenodd" clip-rule="evenodd" d="M59.9996 55.9998H64.9996V82H59.9996V55.9998Z" fill="#00A651"/>
<path fill-rule="evenodd" clip-rule="evenodd" d="M69.9995 50.9998H74.9995V62.9999H69.9995V50.9998Z" fill="#00A651"/>
<path fill-rule="evenodd" clip-rule="evenodd" d="M79.9995 63.9999H84.9995V83H79.9995V63.9999Z" fill="#00A651"/>
<path fill-rule="evenodd" clip-rule="evenodd" d="M89.9995 71.9998H94.9999V103H89.9995V71.9998Z" fill="#E43133"/>
<path fill-rule="evenodd" clip-rule="evenodd" d="M99.9994 49.9997H104.999V72H99.9994V49.9997Z" fill="#00A651"/>
<path fill-rule="evenodd" clip-rule="evenodd" d="M109.999 56.9999H114.999V70.9999H109.999V56.9999Z" fill="#E43133"/>
<path fill-rule="evenodd" clip-rule="evenodd" d="M120 65H124.999V74.9998H120V65Z" fill="#E43133"/>
<path fill-rule="evenodd" clip-rule="evenodd" d="M130 75.9997H134.999V91.9999H130V75.9997Z" fill="#00A651"/>
<path fill-rule="evenodd" clip-rule="evenodd" d="M140 45.9999H145V88.9998H140V45.9999Z" fill="#00A651"/>
<path fill-rule="evenodd" clip-rule="evenodd" d="M150 31.9998H155V55.9999H150V31.9998Z" fill="#E43133"/>
<path fill-rule="evenodd" clip-rule="evenodd" d="M159.999 19.9999H165V39.9998H159.999V19.9999Z" fill="#00A651"/>
<path fill-rule="evenodd" clip-rule="evenodd" d="M351.999 68.9998H352.999V51.9999H351.999V68.9998Z" fill="#E43133"/>
<path fill-rule="evenodd" clip-rule="evenodd" d="M407.999 69.9998H408.999V52.9999H407.999V69.9998Z" fill="#E43133"/>
<path fill-rule="evenodd" clip-rule="evenodd" d="M349.999 67.9997H355V81.9998H349.999V67.9997Z" fill="#E43133"/>
<path fill-rule="evenodd" clip-rule="evenodd" d="M405.999 68.9997H411V82.9998H405.999V68.9997Z" fill="#E43133"/>
<path fill-rule="evenodd" clip-rule="evenodd" d="M332 88H333V70.9997H332V88Z" fill="#00A651"/>
<path fill-rule="evenodd" clip-rule="evenodd" d="M388 74H389V56.9997H388V74Z" fill="#00A651"/>
<path fill-rule="evenodd" clip-rule="evenodd" d="M360 70H361V52.9997H360V70Z" fill="#00A651"/>
<path fill-rule="evenodd" clip-rule="evenodd" d="M416 110H417V92.9997H416V110Z" fill="#00A651"/>
<path fill-rule="evenodd" clip-rule="evenodd" d="M322 81.9998H323V64.9999H322V81.9998Z" fill="#00A651"/>
<path fill-rule="evenodd" clip-rule="evenodd" d="M378 47.9998H379V30.9999H378V47.9998Z" fill="#00A651"/>
<path fill-rule="evenodd" clip-rule="evenodd" d="M302 90H303V72.9998H302V90Z" fill="#E43133"/>
<path fill-rule="evenodd" clip-rule="evenodd" d="M292 101H293V83.9999H292V101Z" fill="#00A651"/>
<path fill-rule="evenodd" clip-rule="evenodd" d="M282 73.9998H282.999V47.9998H282V73.9998Z" fill="#E43133"/>
<path fill-rule="evenodd" clip-rule="evenodd" d="M496 129H496.999V103H496V129Z" fill="#E43133"/>
<path fill-rule="evenodd" clip-rule="evenodd" d="M271.999 56H272.999V29.9998H271.999V56Z" fill="#00A651"/>
<path fill-rule="evenodd" clip-rule="evenodd" d="M261.999 63.9999H263V37.9997H261.999V63.9999Z" fill="#00A651"/>
<path fill-rule="evenodd" clip-rule="evenodd" d="M252 74.9999H253V49H252V74.9999Z" fill="#00A651"/>
<path fill-rule="evenodd" clip-rule="evenodd" d="M242 95H243V68.9998H242V95Z" fill="#E43133"/>
<path fill-rule="evenodd" clip-rule="evenodd" d="M486 125H487V98.9998H486V125Z" fill="#E43133"/>
<path fill-rule="evenodd" clip-rule="evenodd" d="M232 60H232.999V33.9998H232V60Z" fill="#00A651"/>
<path fill-rule="evenodd" clip-rule="evenodd" d="M476 104H476.999V77.9998H476V104Z" fill="#00A651"/>
<path fill-rule="evenodd" clip-rule="evenodd" d="M211.999 86H212.999V59.9998H211.999V86Z" fill="#E43133"/>
<path fill-rule="evenodd" clip-rule="evenodd" d="M455.999 96H456.999V69.9998H455.999V96Z" fill="#E43133"/>
<path fill-rule="evenodd" clip-rule="evenodd" d="M202 77.9998H203V51.9998H202V77.9998Z" fill="#00A651"/>
<path fill-rule="evenodd" clip-rule="evenodd" d="M446 83.9998H447V57.9998H446V83.9998Z" fill="#00A651"/>
<path fill-rule="evenodd" clip-rule="evenodd" d="M192 57.9998H193V31.9999H192V57.9998Z" fill="#00A651"/>
<path fill-rule="evenodd" clip-rule="evenodd" d="M436 54.9998H437V28.9999H436V54.9998Z" fill="#00A651"/>
<path fill-rule="evenodd" clip-rule="evenodd" d="M182 44H183V17.9998H182V44Z" fill="#E43133"/>
<path fill-rule="evenodd" clip-rule="evenodd" d="M426 110H427V83.9998H426V110Z" fill="#E43133"/>
<path fill-rule="evenodd" clip-rule="evenodd" d="M339.999 71.9997H344.999V80H339.999V71.9997Z" fill="#E43133"/>
<path fill-rule="evenodd" clip-rule="evenodd" d="M396 55H400.999V63.0002H396V55Z" fill="#E43133"/>
<path fill-rule="evenodd" clip-rule="evenodd" d="M330 52.9998H335V79H330V52.9998Z" fill="#00A651"/>
<path fill-rule="evenodd" clip-rule="evenodd" d="M386 38.9998H391V65H386V38.9998Z" fill="#00A651"/>
<path fill-rule="evenodd" clip-rule="evenodd" d="M358 34.9998H363V61H358V34.9998Z" fill="#00A651"/>
<path fill-rule="evenodd" clip-rule="evenodd" d="M414 74.9998H419V101H414V74.9998Z" fill="#00A651"/>
<path fill-rule="evenodd" clip-rule="evenodd" d="M320 66.9997H325V76.9998H320V66.9997Z" fill="#00A651"/>
<path fill-rule="evenodd" clip-rule="evenodd" d="M376 32.9997H381V42.9998H376V32.9997Z" fill="#00A651"/>
<path fill-rule="evenodd" clip-rule="evenodd" d="M310 65H315V91.9999H310V65Z" fill="#00A651"/>
<path fill-rule="evenodd" clip-rule="evenodd" d="M366 31H371V57.9999H366V31Z" fill="#00A651"/>
<path fill-rule="evenodd" clip-rule="evenodd" d="M300 85.9997H305V132H300V85.9997Z" fill="#E43133"/>
<path fill-rule="evenodd" clip-rule="evenodd" d="M290 67.9998H294.999V93.9999H290V67.9998Z" fill="#00A651"/>
<path fill-rule="evenodd" clip-rule="evenodd" d="M280 59.9997H285V73H280V59.9997Z" fill="#E43133"/>
<path fill-rule="evenodd" clip-rule="evenodd" d="M494 115H499V128H494V115Z" fill="#E43133"/>
<path fill-rule="evenodd" clip-rule="evenodd" d="M269.999 27.9999H275V53.9998H269.999V27.9999Z" fill="#00A651"/>
<path fill-rule="evenodd" clip-rule="evenodd" d="M259.999 39.9999H265V51.9998H259.999V39.9999Z" fill="#00A651"/>
<path fill-rule="evenodd" clip-rule="evenodd" d="M249.999 53.9998H255V72.9998H249.999V53.9998Z" fill="#00A651"/>
<path fill-rule="evenodd" clip-rule="evenodd" d="M239.999 71.9999H245V103H239.999V71.9999Z" fill="#E43133"/>
<path fill-rule="evenodd" clip-rule="evenodd" d="M483.999 102H489V133H483.999V102Z" fill="#E43133"/>
<path fill-rule="evenodd" clip-rule="evenodd" d="M230 48.9998H234.999V70.9998H230V48.9998Z" fill="#00A651"/>
<path fill-rule="evenodd" clip-rule="evenodd" d="M474 92.9998H478.999V115H474V92.9998Z" fill="#00A651"/>
<path fill-rule="evenodd" clip-rule="evenodd" d="M220 62.9997H224.999V76.9998H220V62.9997Z" fill="#E43133"/>
<path fill-rule="evenodd" clip-rule="evenodd" d="M464 81.9997H468.999V95.9998H464V81.9997Z" fill="#E43133"/>
<path fill-rule="evenodd" clip-rule="evenodd" d="M210 60.9998H214.999V70.9999H210V60.9998Z" fill="#E43133"/>
<path fill-rule="evenodd" clip-rule="evenodd" d="M454 70.9998H458.999V80.9999H454V70.9998Z" fill="#E43133"/>
<path fill-rule="evenodd" clip-rule="evenodd" d="M200 51.9998H205V68H200V51.9998Z" fill="#00A651"/>
<path fill-rule="evenodd" clip-rule="evenodd" d="M444 57.9998H449V74H444V57.9998Z" fill="#00A651"/>
<path fill-rule="evenodd" clip-rule="evenodd" d="M190 42.9997H195V85.9999H190V42.9997Z" fill="#00A651"/>
<path fill-rule="evenodd" clip-rule="evenodd" d="M434 39.9997H439V82.9999H434V39.9997Z" fill="#00A651"/>
<path fill-rule="evenodd" clip-rule="evenodd" d="M180 15.9999H185V39.9997H180V15.9999Z" fill="#E43133"/>
<path fill-rule="evenodd" clip-rule="evenodd" d="M424 81.9999H429V106H424V81.9999Z" fill="#E43133"/>
<path fill-rule="evenodd" clip-rule="evenodd" d="M170 1.99983H175V21.9999H170V1.99983Z" fill="#00A651"/>
</svg>
