<svg width="22" height="20" viewBox="0 0 22 20" fill="none" xmlns="http://www.w3.org/2000/svg">
<path d="M21 16.475C21 17.935 19.8065 19.1285 18.3471 19.1285H3.65548C2.19548 19.1285 1 17.9343 1 16.475V8.37435C1 6.91499 2.19613 5.72015 3.65548 5.72015H18.3465C19.8065 5.72015 20.9994 6.91499 20.9994 8.37435V16.475H21Z" stroke="#C4C4C4" stroke-width="1.5" stroke-miterlimit="10" stroke-linecap="round"/>
<path d="M2.66858 5.91436L14.0821 1.17887C14.0821 1.17887 16.2815 0.340162 16.8854 2.295C17.5376 4.41242 17.9808 5.72016 17.9808 5.72016" stroke="#C4C4C4" stroke-width="1.5" stroke-miterlimit="10" stroke-linecap="round"/>
<path d="M16.9747 14.0995C17.8994 14.0995 18.6489 13.3499 18.6489 12.4253C18.6489 11.5006 17.8994 10.7511 16.9747 10.7511C16.0501 10.7511 15.3005 11.5006 15.3005 12.4253C15.3005 13.3499 16.0501 14.0995 16.9747 14.0995Z" stroke="#C4C4C4" stroke-width="1.5" stroke-miterlimit="10" stroke-linecap="round"/>
</svg>
