<svg width="22" height="22" viewBox="0 0 22 22" fill="none" xmlns="http://www.w3.org/2000/svg">
<path d="M11 21C16.5139 21 21 16.5139 21 11C21 5.48608 16.5139 1 11 1C5.48608 1 1 5.48608 1 11C1 16.5139 5.48608 21 11 21ZM11 1.62502C16.1694 1.62502 20.375 5.83065 20.375 11C20.375 16.1694 16.1694 20.375 11 20.375C5.83061 20.375 1.62502 16.1694 1.62502 11C1.62502 5.83061 5.83061 1.62502 11 1.62502Z" fill="#C4C4C4" stroke="#C4C4C4" stroke-width="0.7"/>
<path d="M13.6846 5.51841L12.2919 5.51613C10.7272 5.51613 9.71609 6.57555 9.71609 8.2153V9.45981H8.31579C8.19479 9.45981 8.0968 9.55999 8.0968 9.68356V11.4867C8.0968 11.6103 8.1949 11.7103 8.31579 11.7103H9.71609V16.2602C9.71609 16.3838 9.81408 16.4839 9.93508 16.4839H11.7621C11.8831 16.4839 11.9811 16.3837 11.9811 16.2602V11.7103H13.6183C13.7393 11.7103 13.8373 11.6103 13.8373 11.4867L13.838 9.68356C13.838 9.62423 13.8149 9.5674 13.7739 9.52542C13.7329 9.48342 13.677 9.45981 13.6189 9.45981H11.9811V8.40483C11.9811 7.89776 12.0994 7.64035 12.7462 7.64035L13.6844 7.64001C13.8053 7.64001 13.9033 7.53982 13.9033 7.41637V5.74205C13.9033 5.61871 13.8054 5.51864 13.6846 5.51841Z" fill="#C4C4C4"/>
</svg>
