<svg width="21" height="24" viewBox="0 0 21 24" fill="none" xmlns="http://www.w3.org/2000/svg">
<path d="M20.0264 19.9567L18.2574 17.6477V10.81C18.2574 7.44222 16.0973 4.57618 13.0909 3.50885C13.0782 2.1226 11.9513 1 10.5608 1C9.19156 1 8.07746 2.09709 8.03919 3.45782C4.96478 4.49113 2.74084 7.39544 2.74084 10.81V17.652L1.0867 19.9652C0.984643 20.1098 0.971886 20.2969 1.05268 20.4542C1.13347 20.6116 1.29506 20.7094 1.47366 20.7094H8.08171C8.30283 21.8787 9.32763 22.7632 10.5608 22.7632C11.794 22.7632 12.8188 21.8745 13.0399 20.7094H19.6479C19.8265 20.7094 19.9924 20.6073 20.0689 20.4457C20.154 20.2926 20.1327 20.1013 20.0264 19.9567ZM10.5608 1.94401C11.3305 1.94401 11.9726 2.49681 12.1129 3.22395C11.5899 3.11339 11.0498 3.05386 10.497 3.05386C9.99099 3.05386 9.49347 3.10488 9.01296 3.19843C9.16605 2.48405 9.79964 1.94401 10.5608 1.94401ZM10.5608 21.8277C9.85492 21.8277 9.26385 21.36 9.05974 20.7179H12.0619C11.862 21.3557 11.2667 21.8277 10.5608 21.8277ZM2.39215 19.7696L3.5998 18.0772C3.65933 17.9964 3.6891 17.9028 3.6891 17.8008V10.81C3.6891 7.05526 6.74649 3.99786 10.5013 3.99786C14.256 3.99786 17.3134 7.05526 17.3134 10.81V17.805C17.3134 17.9071 17.3474 18.0092 17.4112 18.0942L18.6954 19.7696H2.39215Z" fill="#C4C4C4" stroke="#C4C4C4" stroke-width="0.5" stroke-miterlimit="10"/>
<path d="M15.7827 16.9589H5.33907C5.07968 16.9589 4.86707 17.1715 4.86707 17.4309C4.86707 17.6903 5.07968 17.9029 5.33907 17.9029H15.7827C16.0421 17.9029 16.2547 17.6903 16.2547 17.4309C16.2589 17.1715 16.0463 16.9589 15.7827 16.9589Z" fill="#C4C4C4" stroke="#C4C4C4" stroke-width="0.5" stroke-miterlimit="10"/>
<path d="M5.33893 12.2091C5.35169 12.2091 5.3687 12.2091 5.38145 12.2091C5.64084 12.1878 5.8322 11.9539 5.81093 11.6945C5.79393 11.5202 5.47075 7.40824 9.10646 6.52801C9.3616 6.46848 9.51468 6.20909 9.45515 5.95821C9.39561 5.70307 9.14048 5.54999 8.88534 5.60952C4.46721 6.67684 4.86693 11.7286 4.87118 11.7796C4.89244 12.022 5.09655 12.2091 5.33893 12.2091Z" fill="#C4C4C4" stroke="#C4C4C4" stroke-width="0.5" stroke-miterlimit="10"/>
</svg>
