<svg width="1302" height="118" viewBox="0 0 1302 118" fill="none" xmlns="http://www.w3.org/2000/svg">
<path d="M2.31885 116.5L33.34 106.5L47.4408 108.5L62.9516 104.5L88.333 107.5L112.304 102.5L122.175 105.5L139.096 100.5L148.966 98.4999V92.4998H160.247L185.628 91.4997L195.498 95.4997L226.52 93.4999L246.261 91.4997L251.901 95.4997L273.052 92.4998L280.102 87.4998L295.613 88.4999V83.4998L313.945 80.4996L352.016 81.4997L380.218 77.4997L398.548 75.4999L409.83 83.4998L429.57 76.4996L447.901 73.4998L462.002 75.4999L481.743 71L503.6 67L513.47 61.5L538.146 65L548.722 67H561.412H576.923L593.139 62.5H600.894H614.29L625.571 61.5L641.081 62.5L645.07 60.5L647.704 59.5" stroke="#00A651"/>
<path d="M1295.54 1L1291.77 9L1272.27 3.5L1260.99 4.5L1254.89 9L1239.84 4.5L1223.63 9L1207.48 6.5L1195.42 9H1181.79L1160.17 3.5L1142.94 14L1128.45 13L1108.7 17.4999L1094.6 15.4998L1076.27 18.4996L1056.53 25.4998L1045.25 17.4999L1026.92 19.4997L998.719 23.4997L960.647 22.4996L958.544 33.4997L942.316 30.4999L922.981 20.5L913.103 29.5L901.908 23.4997L892.963 33.4997L867.663 40.5L842.201 37.4997L832.33 33.4997L806.949 34.4998H795.669V40.4999L785.798 42.4997L768.877 47.4998L759.007 44.4999L735.035 49.4999L703.682 38L694.143 50.4997L678.656 53L650.338 59H649.021L647.704 59.5" stroke="#00A651"/>
<path d="M1 116.5L30.6111 110.5L44.7118 107.5L65.863 108.5L85.6041 110.5L105.346 101.5L126.496 109.5L140.597 103.5L147.647 98.4999V96.4998L158.928 98.4999H182.899L199.82 101.5L226.611 98.4999H242.122L254.812 92.4998L271.733 96.4998L281.604 85.4997L294.294 88.4999V83.4998L315.446 90.4997L353.518 86.4997L374.669 90.4997L392.999 88.4999L408.511 91.4997L432.481 83.4998L446.582 82.4998L458.569 83.4998L470.554 88.4999L481.13 80.5H496.64L510.741 82.4998L518.497 77H540.353L559.389 68L572.079 71L587.59 72.5H609.446L614.381 68L624.957 69L629.892 71C629.892 71 647.704 70 648.223 70H649.021" stroke="#E43133"/>
<path d="M1291.77 15.5L1277.41 23.0928L1272.48 21.0309L1261.91 20L1239.75 15.5L1235.14 24.6392L1219.64 23.0928L1209.45 29.2784H1187.94H1166.1L1158.35 34.9483L1144.26 32.8866H1128.77L1118.2 41.1339L1106.22 35.9793L1094.25 34.9483L1080.16 35.9793L1056.2 44.2266L1040.71 41.1339L1022.39 43.1956L1001.26 39.0719L963.215 43.1956H945.372L935.494 52.5L930.884 43.1956L919.537 49.3813L902.63 45.2576L889.949 51.4433H874.451L847.681 54.536L830.774 51.4433L814.319 54.5L801.148 53L795.551 51.4433L788.506 56.5977L770.854 54L753.732 58L733.557 63.8144L713.832 61.7524L692.698 60.7217L678.608 63.8144L651.655 70C651.655 70 649.278 70 649.021 70" stroke="#E43133"/>
<path d="M2.23236 115.749L31.8153 112.781L47.3082 111.805L68.426 112.866L95.177 113.94L109.278 108.912L128.98 111.994L143.069 110.002L148.717 105.967L152.95 103.952L164.207 106.003L182.504 108.069L200.809 108.112L224.768 103.106L243.065 105.173L258.562 103.185L272.656 100.181L283.913 102.231L295.189 99.2208L295.218 92.136L317.732 96.2366L351.543 92.2664L375.493 89.2855L395.183 95.4037L414.896 95.4494L434.622 92.4587L445.883 93.497L462.797 89.4876L474.754 92.5516L491.652 92.5907L505.041 89.5854L517.714 89.6147L522.654 86.5898L536.044 83.5843L549.431 81.085L566.328 81.1241L581.114 81.1583L583.94 78.6345L603.644 81.2105L614.919 78.7062L633.224 78.7486C633.224 78.7486 643.709 75.3801 650.848 73.2226" stroke="white"/>
<path d="M650.46 73.2984L679.495 70.2765L695.05 69.2684L716.262 70.2715L743.131 71.2737L757.271 66.2423L777.069 69.2571L791.21 67.2435L796.865 63.2192L801.107 61.2068L812.42 63.2171L830.804 65.2262L849.187 65.2236L873.226 60.1908L891.61 62.2002L907.165 60.1862L918.372 64.5L932.619 59.177L943.931 56.1576L953.934 58L966.556 53.1369L1000.49 49.1086L1021.11 52.1174L1040.86 49.1086L1064.13 52.1174L1079.72 43.0496L1095.24 50.1015L1112.21 46.0756L1125.82 53.1369L1141.2 49.0892L1154.63 46.0698L1167.36 46.068L1172.31 43.0496L1185.74 40.0301L1199.18 37.5135L1216.14 37.5112L1230.99 37.5091L1233.82 34.994L1253.62 37.506L1264.93 34.9897L1283.31 34.9872L1300.99 29.9553" stroke="white"/>
</svg>
