<svg width="1300" height="181" viewBox="0 0 1300 181" fill="none" xmlns="http://www.w3.org/2000/svg">
<path fill-rule="evenodd" clip-rule="evenodd" d="M5.05431 69.6152H4.04331V55.6921H5.05431V69.6152Z" fill="#00A651"/>
<path fill-rule="evenodd" clip-rule="evenodd" d="M13.1427 79.4434H12.1316V65.5202H13.1427V79.4434Z" fill="#00A651"/>
<path fill-rule="evenodd" clip-rule="evenodd" d="M33.3633 95.8234H32.3523V81.9004H33.3633V95.8234Z" fill="#E43133"/>
<path fill-rule="evenodd" clip-rule="evenodd" d="M43.4731 96.6426H42.4621V82.7194H43.4731V96.6426Z" fill="#00A651"/>
<path fill-rule="evenodd" clip-rule="evenodd" d="M53.5829 95.0046H52.5719V73.7103H53.5829V95.0046Z" fill="#E43133"/>
<path fill-rule="evenodd" clip-rule="evenodd" d="M63.6932 82.7194H62.6822V61.4253H63.6932V82.7194Z" fill="#00A651"/>
<path fill-rule="evenodd" clip-rule="evenodd" d="M73.8036 72.8912H72.7926V51.5972H73.8036V72.8912Z" fill="#00A651"/>
<path fill-rule="evenodd" clip-rule="evenodd" d="M83.9134 79.4432H82.9024V58.1492H83.9134V79.4432Z" fill="#00A651"/>
<path fill-rule="evenodd" clip-rule="evenodd" d="M94.0237 91.7284H93.0127V70.4343H94.0237V91.7284Z" fill="#E43133"/>
<path fill-rule="evenodd" clip-rule="evenodd" d="M104.134 72.0724H103.123V50.7783H104.134V72.0724Z" fill="#00A651"/>
<path fill-rule="evenodd" clip-rule="evenodd" d="M124.354 89.2714H123.343V67.9773H124.354V89.2714Z" fill="#E43133"/>
<path fill-rule="evenodd" clip-rule="evenodd" d="M134.464 96.6425H133.453V75.3482H134.464V96.6425Z" fill="#00A651"/>
<path fill-rule="evenodd" clip-rule="evenodd" d="M144.574 95.0046H143.563V73.7103H144.574V95.0046Z" fill="#00A651"/>
<path fill-rule="evenodd" clip-rule="evenodd" d="M154.685 120.393H153.674V99.0994H154.685V120.393Z" fill="#E43133"/>
<path fill-rule="evenodd" clip-rule="evenodd" d="M2.02134 40.9502H7.07686V62.2443H2.02134V40.9502Z" fill="#00A651"/>
<path fill-rule="evenodd" clip-rule="evenodd" d="M10.1092 67.1582H15.1647V75.3483H10.1092V67.1582Z" fill="#00A651"/>
<path fill-rule="evenodd" clip-rule="evenodd" d="M20.22 80.2624H25.2745V102.376H20.22V80.2624Z" fill="#00A651"/>
<path fill-rule="evenodd" clip-rule="evenodd" d="M30.3298 92.5473H35.3844V130.222H30.3298V92.5473Z" fill="#E43133"/>
<path fill-rule="evenodd" clip-rule="evenodd" d="M40.4401 69.6152H45.4952V90.9093H40.4401V69.6152Z" fill="#00A651"/>
<path fill-rule="evenodd" clip-rule="evenodd" d="M50.5504 83.5383H55.6055V94.1854H50.5504V83.5383Z" fill="#E43133"/>
<path fill-rule="evenodd" clip-rule="evenodd" d="M60.6603 59.7872H65.7153V81.0815H60.6603V59.7872Z" fill="#00A651"/>
<path fill-rule="evenodd" clip-rule="evenodd" d="M70.7701 53.235H75.8251V63.0632H70.7701V53.235Z" fill="#00A651"/>
<path fill-rule="evenodd" clip-rule="evenodd" d="M80.8804 62.2444H85.9354V77.8055H80.8804V62.2444Z" fill="#00A651"/>
<path fill-rule="evenodd" clip-rule="evenodd" d="M90.9902 72.8913H96.0458V98.2804H90.9902V72.8913Z" fill="#E43133"/>
<path fill-rule="evenodd" clip-rule="evenodd" d="M101.101 63.0631H106.156V81.0814H101.101V63.0631Z" fill="#00A651"/>
<path fill-rule="evenodd" clip-rule="evenodd" d="M111.211 58.1492H116.266V69.6153H111.211V58.1492Z" fill="#E43133"/>
<path fill-rule="evenodd" clip-rule="evenodd" d="M121.321 68.7964H126.376V76.9863H121.321V68.7964Z" fill="#E43133"/>
<path fill-rule="evenodd" clip-rule="evenodd" d="M131.431 75.3482H136.486V88.4524H131.431V75.3482Z" fill="#00A651"/>
<path fill-rule="evenodd" clip-rule="evenodd" d="M141.541 82.7195H146.596V117.937H141.541V82.7195Z" fill="#00A651"/>
<path fill-rule="evenodd" clip-rule="evenodd" d="M151.651 97.4614H156.706V117.118H151.651V97.4614Z" fill="#E43133"/>
<path fill-rule="evenodd" clip-rule="evenodd" d="M161.761 85.1765H166.816V101.556H161.761V85.1765Z" fill="#00A651"/>
<path fill-rule="evenodd" clip-rule="evenodd" d="M355.875 122.85H356.886V108.927H355.875V122.85Z" fill="#E43133"/>
<path fill-rule="evenodd" clip-rule="evenodd" d="M485.285 109.746H486.296V95.8235H485.285V109.746Z" fill="#E43133"/>
<path fill-rule="evenodd" clip-rule="evenodd" d="M353.853 122.031H358.909V133.497H353.853V122.031Z" fill="#E43133"/>
<path fill-rule="evenodd" clip-rule="evenodd" d="M483.262 108.927H488.318V120.393H483.262V108.927Z" fill="#E43133"/>
<path fill-rule="evenodd" clip-rule="evenodd" d="M335.655 131.86H336.666V117.936H335.655V131.86Z" fill="#00A651"/>
<path fill-rule="evenodd" clip-rule="evenodd" d="M465.065 127.765H466.076V113.841H465.065V127.765Z" fill="#00A651"/>
<path fill-rule="evenodd" clip-rule="evenodd" d="M495.395 135.136H496.406V121.213H495.395V135.136Z" fill="#00A651"/>
<path fill-rule="evenodd" clip-rule="evenodd" d="M325.545 106.47H326.556V92.5473H325.545V106.47Z" fill="#00A651"/>
<path fill-rule="evenodd" clip-rule="evenodd" d="M454.954 140.869H455.965V126.946H454.954V140.869Z" fill="#00A651"/>
<path fill-rule="evenodd" clip-rule="evenodd" d="M503.483 105.652H504.494V91.7285H503.483V105.652Z" fill="#00A651"/>
<path fill-rule="evenodd" clip-rule="evenodd" d="M305.325 117.118H306.336V103.194H305.325V117.118Z" fill="#E43133"/>
<path fill-rule="evenodd" clip-rule="evenodd" d="M434.735 126.946H435.746V113.022H434.735V126.946Z" fill="#E43133"/>
<path fill-rule="evenodd" clip-rule="evenodd" d="M295.215 120.393H296.226V106.47H295.215V120.393Z" fill="#00A651"/>
<path fill-rule="evenodd" clip-rule="evenodd" d="M424.624 135.136H425.635V121.213H424.624V135.136Z" fill="#00A651"/>
<path fill-rule="evenodd" clip-rule="evenodd" d="M285.104 126.127H286.115V104.832H285.104V126.127Z" fill="#E43133"/>
<path fill-rule="evenodd" clip-rule="evenodd" d="M414.514 149.059H415.524V127.765H414.514V149.059Z" fill="#E43133"/>
<path fill-rule="evenodd" clip-rule="evenodd" d="M274.994 131.86H276.005V110.565H274.994V131.86Z" fill="#00A651"/>
<path fill-rule="evenodd" clip-rule="evenodd" d="M404.404 127.765H405.415V106.47H404.404V127.765Z" fill="#00A651"/>
<path fill-rule="evenodd" clip-rule="evenodd" d="M264.884 148.24H265.896V126.945H264.884V148.24Z" fill="#00A651"/>
<path fill-rule="evenodd" clip-rule="evenodd" d="M394.293 113.023H395.305V91.7284H394.293V113.023Z" fill="#00A651"/>
<path fill-rule="evenodd" clip-rule="evenodd" d="M254.774 167.077H255.785V145.783H254.774V167.077Z" fill="#00A651"/>
<path fill-rule="evenodd" clip-rule="evenodd" d="M384.183 117.937H385.194V96.6426H384.183V117.937Z" fill="#00A651"/>
<path fill-rule="evenodd" clip-rule="evenodd" d="M244.664 173.629H245.675V152.335H244.664V173.629Z" fill="#E43133"/>
<path fill-rule="evenodd" clip-rule="evenodd" d="M374.074 134.317H375.085V113.022H374.074V134.317Z" fill="#E43133"/>
<path fill-rule="evenodd" clip-rule="evenodd" d="M234.554 152.335H235.565V131.041H234.554V152.335Z" fill="#00A651"/>
<path fill-rule="evenodd" clip-rule="evenodd" d="M363.964 109.747H364.974V88.4523H363.964V109.747Z" fill="#00A651"/>
<path fill-rule="evenodd" clip-rule="evenodd" d="M214.334 180.181H215.345V158.887H214.334V180.181Z" fill="#E43133"/>
<path fill-rule="evenodd" clip-rule="evenodd" d="M204.224 161.344H205.235V140.05H204.224V161.344Z" fill="#00A651"/>
<path fill-rule="evenodd" clip-rule="evenodd" d="M194.114 148.24H195.125V126.946H194.114V148.24Z" fill="#00A651"/>
<path fill-rule="evenodd" clip-rule="evenodd" d="M184.004 134.317H185.015V113.022H184.004V134.317Z" fill="#E43133"/>
<path fill-rule="evenodd" clip-rule="evenodd" d="M343.743 119.575H348.798V126.127H343.743V119.575Z" fill="#E43133"/>
<path fill-rule="evenodd" clip-rule="evenodd" d="M473.152 123.67H478.207V130.222H473.152V123.67Z" fill="#E43133"/>
<path fill-rule="evenodd" clip-rule="evenodd" d="M333.633 103.194H338.688V124.489H333.633V103.194Z" fill="#00A651"/>
<path fill-rule="evenodd" clip-rule="evenodd" d="M463.043 99.0992H468.098V120.394H463.043V99.0992Z" fill="#00A651"/>
<path fill-rule="evenodd" clip-rule="evenodd" d="M493.373 106.47H498.428V127.765H493.373V106.47Z" fill="#00A651"/>
<path fill-rule="evenodd" clip-rule="evenodd" d="M323.523 94.1854H328.578V102.375H323.523V94.1854Z" fill="#00A651"/>
<path fill-rule="evenodd" clip-rule="evenodd" d="M452.932 128.584H457.987V136.774H452.932V128.584Z" fill="#00A651"/>
<path fill-rule="evenodd" clip-rule="evenodd" d="M501.461 93.3663H506.516V101.556H501.461V93.3663Z" fill="#00A651"/>
<path fill-rule="evenodd" clip-rule="evenodd" d="M313.413 94.1856H318.468V116.299H313.413V94.1856Z" fill="#00A651"/>
<path fill-rule="evenodd" clip-rule="evenodd" d="M442.822 108.109H447.877V130.222H442.822V108.109Z" fill="#00A651"/>
<path fill-rule="evenodd" clip-rule="evenodd" d="M303.303 113.841H308.358V151.516H303.303V113.841Z" fill="#E43133"/>
<path fill-rule="evenodd" clip-rule="evenodd" d="M432.712 123.67H437.767V161.344H432.712V123.67Z" fill="#E43133"/>
<path fill-rule="evenodd" clip-rule="evenodd" d="M293.193 93.3663H298.247V114.661H293.193V93.3663Z" fill="#00A651"/>
<path fill-rule="evenodd" clip-rule="evenodd" d="M422.602 108.109H427.656V129.403H422.602V108.109Z" fill="#00A651"/>
<path fill-rule="evenodd" clip-rule="evenodd" d="M283.083 114.661H288.138V125.308H283.083V114.661Z" fill="#E43133"/>
<path fill-rule="evenodd" clip-rule="evenodd" d="M412.491 137.593H417.546V148.24H412.491V137.593Z" fill="#E43133"/>
<path fill-rule="evenodd" clip-rule="evenodd" d="M272.972 108.927H278.027V130.222H272.972V108.927Z" fill="#00A651"/>
<path fill-rule="evenodd" clip-rule="evenodd" d="M402.382 104.833H407.437V126.127H402.382V104.833Z" fill="#00A651"/>
<path fill-rule="evenodd" clip-rule="evenodd" d="M262.862 128.584H267.917V138.412H262.862V128.584Z" fill="#00A651"/>
<path fill-rule="evenodd" clip-rule="evenodd" d="M392.271 93.3664H397.327V103.194H392.271V93.3664Z" fill="#00A651"/>
<path fill-rule="evenodd" clip-rule="evenodd" d="M252.752 149.878H257.807V165.439H252.752V149.878Z" fill="#00A651"/>
<path fill-rule="evenodd" clip-rule="evenodd" d="M382.162 100.737H387.217V116.299H382.162V100.737Z" fill="#00A651"/>
<path fill-rule="evenodd" clip-rule="evenodd" d="M242.642 154.792H247.698V180.181H242.642V154.792Z" fill="#E43133"/>
<path fill-rule="evenodd" clip-rule="evenodd" d="M372.051 115.48H377.107V140.869H372.051V115.48Z" fill="#E43133"/>
<path fill-rule="evenodd" clip-rule="evenodd" d="M232.532 143.326H237.587V161.344H232.532V143.326Z" fill="#00A651"/>
<path fill-rule="evenodd" clip-rule="evenodd" d="M361.941 100.737H366.996V118.756H361.941V100.737Z" fill="#00A651"/>
<path fill-rule="evenodd" clip-rule="evenodd" d="M222.422 149.878H227.477V161.344H222.422V149.878Z" fill="#E43133"/>
<path fill-rule="evenodd" clip-rule="evenodd" d="M212.312 159.706H217.367V167.896H212.312V159.706Z" fill="#E43133"/>
<path fill-rule="evenodd" clip-rule="evenodd" d="M202.201 140.05H207.256V153.154H202.201V140.05Z" fill="#00A651"/>
<path fill-rule="evenodd" clip-rule="evenodd" d="M192.092 135.954H197.147V171.172H192.092V135.954Z" fill="#00A651"/>
<path fill-rule="evenodd" clip-rule="evenodd" d="M181.982 111.385H187.037V131.04H181.982V111.385Z" fill="#E43133"/>
<path fill-rule="evenodd" clip-rule="evenodd" d="M171.871 94.1855H176.926V110.566H171.871V94.1855Z" fill="#00A651"/>
<path fill-rule="evenodd" clip-rule="evenodd" d="M516.626 100.738H515.615V86.8143H516.626V100.738Z" fill="#00A651"/>
<path fill-rule="evenodd" clip-rule="evenodd" d="M540.891 72.0722H539.88V58.1492H540.891V72.0722Z" fill="#E43133"/>
<path fill-rule="evenodd" clip-rule="evenodd" d="M551 72.8914H549.989V58.9682H551V72.8914Z" fill="#00A651"/>
<path fill-rule="evenodd" clip-rule="evenodd" d="M561.11 71.2534H560.099V49.9591H561.11V71.2534Z" fill="#E43133"/>
<path fill-rule="evenodd" clip-rule="evenodd" d="M571.221 58.9681H570.21V37.6741H571.221V58.9681Z" fill="#00A651"/>
<path fill-rule="evenodd" clip-rule="evenodd" d="M581.33 49.1402H580.319V27.8462H581.33V49.1402Z" fill="#00A651"/>
<path fill-rule="evenodd" clip-rule="evenodd" d="M591.441 55.6922H590.43V34.3982H591.441V55.6922Z" fill="#00A651"/>
<path fill-rule="evenodd" clip-rule="evenodd" d="M601.551 67.9772H600.54V46.6831H601.551V67.9772Z" fill="#E43133"/>
<path fill-rule="evenodd" clip-rule="evenodd" d="M611.66 48.3212H610.649V27.0271H611.66V48.3212Z" fill="#00A651"/>
<path fill-rule="evenodd" clip-rule="evenodd" d="M631.881 65.5201H630.87V44.2261H631.881V65.5201Z" fill="#E43133"/>
<path fill-rule="evenodd" clip-rule="evenodd" d="M641.991 72.8913H640.98V51.597H641.991V72.8913Z" fill="#00A651"/>
<path fill-rule="evenodd" clip-rule="evenodd" d="M652.102 71.2534H651.091V49.9591H652.102V71.2534Z" fill="#00A651"/>
<path fill-rule="evenodd" clip-rule="evenodd" d="M662.211 96.6425H661.2V75.3484H662.211V96.6425Z" fill="#E43133"/>
<path fill-rule="evenodd" clip-rule="evenodd" d="M513.593 88.4524H518.648V96.6425H513.593V88.4524Z" fill="#00A651"/>
<path fill-rule="evenodd" clip-rule="evenodd" d="M524.714 72.7821H529.769V93.421H524.714V72.7821Z" fill="#00A651"/>
<path fill-rule="evenodd" clip-rule="evenodd" d="M537.857 68.7964H542.912V106.471H537.857V68.7964Z" fill="#E43133"/>
<path fill-rule="evenodd" clip-rule="evenodd" d="M547.967 45.8642H553.023V67.1583H547.967V45.8642Z" fill="#00A651"/>
<path fill-rule="evenodd" clip-rule="evenodd" d="M558.077 59.7874H563.132V70.4344H558.077V59.7874Z" fill="#E43133"/>
<path fill-rule="evenodd" clip-rule="evenodd" d="M568.188 36.036H573.243V57.3303H568.188V36.036Z" fill="#00A651"/>
<path fill-rule="evenodd" clip-rule="evenodd" d="M578.298 29.484H583.353V39.3122H578.298V29.484Z" fill="#00A651"/>
<path fill-rule="evenodd" clip-rule="evenodd" d="M588.407 38.4932H593.462V54.0543H588.407V38.4932Z" fill="#00A651"/>
<path fill-rule="evenodd" clip-rule="evenodd" d="M598.518 49.1401H603.573V74.5292H598.518V49.1401Z" fill="#E43133"/>
<path fill-rule="evenodd" clip-rule="evenodd" d="M608.627 39.3121H613.682V57.3304H608.627V39.3121Z" fill="#00A651"/>
<path fill-rule="evenodd" clip-rule="evenodd" d="M618.738 34.3982H623.793V45.8643H618.738V34.3982Z" fill="#E43133"/>
<path fill-rule="evenodd" clip-rule="evenodd" d="M628.849 45.0452H633.903V53.2351H628.849V45.0452Z" fill="#E43133"/>
<path fill-rule="evenodd" clip-rule="evenodd" d="M638.958 51.597H644.013V64.7012H638.958V51.597Z" fill="#00A651"/>
<path fill-rule="evenodd" clip-rule="evenodd" d="M649.068 58.9682H654.123V94.1853H649.068V58.9682Z" fill="#00A651"/>
<path fill-rule="evenodd" clip-rule="evenodd" d="M659.178 73.7104H664.234V93.3666H659.178V73.7104Z" fill="#E43133"/>
<path fill-rule="evenodd" clip-rule="evenodd" d="M669.288 61.4253H674.343V77.8053H669.288V61.4253Z" fill="#00A651"/>
<path fill-rule="evenodd" clip-rule="evenodd" d="M863.402 99.0995H864.413V85.1765H863.402V99.0995Z" fill="#E43133"/>
<path fill-rule="evenodd" clip-rule="evenodd" d="M990.661 89.2714H991.672V75.3484H990.661V89.2714Z" fill="#E43133"/>
<path fill-rule="evenodd" clip-rule="evenodd" d="M861.38 98.2804H866.436V109.746H861.38V98.2804Z" fill="#E43133"/>
<path fill-rule="evenodd" clip-rule="evenodd" d="M988.639 88.4523H993.694V99.9183H988.639V88.4523Z" fill="#E43133"/>
<path fill-rule="evenodd" clip-rule="evenodd" d="M843.182 108.109H844.193V94.1854H843.182V108.109Z" fill="#00A651"/>
<path fill-rule="evenodd" clip-rule="evenodd" d="M972.591 104.013H973.602V90.0902H972.591V104.013Z" fill="#00A651"/>
<path fill-rule="evenodd" clip-rule="evenodd" d="M833.072 82.7194H834.083V68.7964H833.072V82.7194Z" fill="#00A651"/>
<path fill-rule="evenodd" clip-rule="evenodd" d="M962.482 117.118H963.493V103.195H962.482V117.118Z" fill="#00A651"/>
<path fill-rule="evenodd" clip-rule="evenodd" d="M812.852 93.3665H813.863V79.4432H812.852V93.3665Z" fill="#E43133"/>
<path fill-rule="evenodd" clip-rule="evenodd" d="M942.261 103.195H943.272V89.2714H942.261V103.195Z" fill="#E43133"/>
<path fill-rule="evenodd" clip-rule="evenodd" d="M802.742 96.6425H803.753V82.7195H802.742V96.6425Z" fill="#00A651"/>
<path fill-rule="evenodd" clip-rule="evenodd" d="M932.152 111.384H933.163V97.4614H932.152V111.384Z" fill="#00A651"/>
<path fill-rule="evenodd" clip-rule="evenodd" d="M792.632 102.375H793.642V81.0812H792.632V102.375Z" fill="#E43133"/>
<path fill-rule="evenodd" clip-rule="evenodd" d="M922.041 125.307H923.052V104.013H922.041V125.307Z" fill="#E43133"/>
<path fill-rule="evenodd" clip-rule="evenodd" d="M782.521 108.109H783.532V86.8143H782.521V108.109Z" fill="#00A651"/>
<path fill-rule="evenodd" clip-rule="evenodd" d="M911.93 104.014H912.941V82.7193H911.93V104.014Z" fill="#00A651"/>
<path fill-rule="evenodd" clip-rule="evenodd" d="M772.411 124.489H773.423V103.194H772.411V124.489Z" fill="#00A651"/>
<path fill-rule="evenodd" clip-rule="evenodd" d="M901.821 89.2714H902.832V67.9771H901.821V89.2714Z" fill="#00A651"/>
<path fill-rule="evenodd" clip-rule="evenodd" d="M762.302 143.326H763.313V122.032H762.302V143.326Z" fill="#00A651"/>
<path fill-rule="evenodd" clip-rule="evenodd" d="M891.711 94.1855H892.722V72.8914H891.711V94.1855Z" fill="#00A651"/>
<path fill-rule="evenodd" clip-rule="evenodd" d="M752.191 149.878H753.202V128.584H752.191V149.878Z" fill="#E43133"/>
<path fill-rule="evenodd" clip-rule="evenodd" d="M881.601 110.566H882.612V89.2714H881.601V110.566Z" fill="#E43133"/>
<path fill-rule="evenodd" clip-rule="evenodd" d="M742.081 128.584H743.092V107.289H742.081V128.584Z" fill="#00A651"/>
<path fill-rule="evenodd" clip-rule="evenodd" d="M871.491 85.9953H872.502V64.701H871.491V85.9953Z" fill="#00A651"/>
<path fill-rule="evenodd" clip-rule="evenodd" d="M721.861 156.43H722.872V135.136H721.861V156.43Z" fill="#E43133"/>
<path fill-rule="evenodd" clip-rule="evenodd" d="M711.751 137.593H712.762V116.299H711.751V137.593Z" fill="#00A651"/>
<path fill-rule="evenodd" clip-rule="evenodd" d="M701.641 124.489H702.652V103.195H701.641V124.489Z" fill="#00A651"/>
<path fill-rule="evenodd" clip-rule="evenodd" d="M691.53 110.566H692.541V89.2714H691.53V110.566Z" fill="#E43133"/>
<path fill-rule="evenodd" clip-rule="evenodd" d="M851.27 95.8233H856.325V102.376H851.27V95.8233Z" fill="#E43133"/>
<path fill-rule="evenodd" clip-rule="evenodd" d="M980.68 99.9183H985.735V106.471H980.68V99.9183Z" fill="#E43133"/>
<path fill-rule="evenodd" clip-rule="evenodd" d="M841.16 79.4432H846.215V100.738H841.16V79.4432Z" fill="#00A651"/>
<path fill-rule="evenodd" clip-rule="evenodd" d="M970.569 75.3483H975.624V96.6425H970.569V75.3483Z" fill="#00A651"/>
<path fill-rule="evenodd" clip-rule="evenodd" d="M831.05 70.4342H836.105V78.6243H831.05V70.4342Z" fill="#00A651"/>
<path fill-rule="evenodd" clip-rule="evenodd" d="M960.46 104.832H965.515V113.022H960.46V104.832Z" fill="#00A651"/>
<path fill-rule="evenodd" clip-rule="evenodd" d="M820.94 70.4344H825.995V92.5475H820.94V70.4344Z" fill="#00A651"/>
<path fill-rule="evenodd" clip-rule="evenodd" d="M950.349 84.3575H955.404V106.471H950.349V84.3575Z" fill="#00A651"/>
<path fill-rule="evenodd" clip-rule="evenodd" d="M810.83 90.0902H815.885V127.764H810.83V90.0902Z" fill="#E43133"/>
<path fill-rule="evenodd" clip-rule="evenodd" d="M940.239 99.9183H945.294V137.593H940.239V99.9183Z" fill="#E43133"/>
<path fill-rule="evenodd" clip-rule="evenodd" d="M800.72 69.6151H805.774V90.9094H800.72V69.6151Z" fill="#00A651"/>
<path fill-rule="evenodd" clip-rule="evenodd" d="M930.129 84.3573H935.184V105.652H930.129V84.3573Z" fill="#00A651"/>
<path fill-rule="evenodd" clip-rule="evenodd" d="M790.61 90.9093H795.665V101.557H790.61V90.9093Z" fill="#E43133"/>
<path fill-rule="evenodd" clip-rule="evenodd" d="M920.019 113.841H925.074V124.489H920.019V113.841Z" fill="#E43133"/>
<path fill-rule="evenodd" clip-rule="evenodd" d="M780.499 85.1765H785.555V106.471H780.499V85.1765Z" fill="#00A651"/>
<path fill-rule="evenodd" clip-rule="evenodd" d="M909.908 81.0813H914.964V102.375H909.908V81.0813Z" fill="#00A651"/>
<path fill-rule="evenodd" clip-rule="evenodd" d="M770.389 104.832H775.445V114.66H770.389V104.832Z" fill="#00A651"/>
<path fill-rule="evenodd" clip-rule="evenodd" d="M899.799 69.6152H904.854V79.4432H899.799V69.6152Z" fill="#00A651"/>
<path fill-rule="evenodd" clip-rule="evenodd" d="M999.749 104.014H1000.76V82.7193H999.749V104.014Z" fill="#00A651"/>
<path fill-rule="evenodd" clip-rule="evenodd" d="M997.727 84.3574H1002.78V94.1853H997.727V84.3574Z" fill="#00A651"/>
<path fill-rule="evenodd" clip-rule="evenodd" d="M760.279 126.127H765.335V141.688H760.279V126.127Z" fill="#00A651"/>
<path fill-rule="evenodd" clip-rule="evenodd" d="M889.688 76.9862H894.744V92.5473H889.688V76.9862Z" fill="#00A651"/>
<path fill-rule="evenodd" clip-rule="evenodd" d="M750.169 131.041H755.225V156.43H750.169V131.041Z" fill="#E43133"/>
<path fill-rule="evenodd" clip-rule="evenodd" d="M879.579 91.7285H884.634V117.118H879.579V91.7285Z" fill="#E43133"/>
<path fill-rule="evenodd" clip-rule="evenodd" d="M740.06 119.575H745.114V137.593H740.06V119.575Z" fill="#00A651"/>
<path fill-rule="evenodd" clip-rule="evenodd" d="M869.469 76.9863H874.523V95.0043H869.469V76.9863Z" fill="#00A651"/>
<path fill-rule="evenodd" clip-rule="evenodd" d="M729.949 126.127H735.004V137.593H729.949V126.127Z" fill="#E43133"/>
<path fill-rule="evenodd" clip-rule="evenodd" d="M719.839 135.954H724.894V144.145H719.839V135.954Z" fill="#E43133"/>
<path fill-rule="evenodd" clip-rule="evenodd" d="M709.729 116.299H714.784V129.403H709.729V116.299Z" fill="#00A651"/>
<path fill-rule="evenodd" clip-rule="evenodd" d="M699.619 112.203H704.674V147.421H699.619V112.203Z" fill="#00A651"/>
<path fill-rule="evenodd" clip-rule="evenodd" d="M689.509 87.6333H694.564V107.289H689.509V87.6333Z" fill="#E43133"/>
<path fill-rule="evenodd" clip-rule="evenodd" d="M679.399 70.4343H684.454V86.8144H679.399V70.4343Z" fill="#00A651"/>
<path fill-rule="evenodd" clip-rule="evenodd" d="M1019.95 75.3484H1018.94V61.4252H1019.95V75.3484Z" fill="#00A651"/>
<path fill-rule="evenodd" clip-rule="evenodd" d="M1044.21 46.6831H1043.2V32.76H1044.21V46.6831Z" fill="#E43133"/>
<path fill-rule="evenodd" clip-rule="evenodd" d="M1054.32 47.5022H1053.31V33.579H1054.32V47.5022Z" fill="#00A651"/>
<path fill-rule="evenodd" clip-rule="evenodd" d="M1064.43 45.8642H1063.42V24.5699H1064.43V45.8642Z" fill="#E43133"/>
<path fill-rule="evenodd" clip-rule="evenodd" d="M1074.54 33.579H1073.53V12.2849H1074.54V33.579Z" fill="#00A651"/>
<path fill-rule="evenodd" clip-rule="evenodd" d="M1084.65 23.7511H1083.64V2.45702H1084.65V23.7511Z" fill="#00A651"/>
<path fill-rule="evenodd" clip-rule="evenodd" d="M1094.76 30.3031H1093.75V9.00902H1094.76V30.3031Z" fill="#00A651"/>
<path fill-rule="evenodd" clip-rule="evenodd" d="M1104.87 42.588H1103.86V21.294H1104.87V42.588Z" fill="#E43133"/>
<path fill-rule="evenodd" clip-rule="evenodd" d="M1114.98 22.932H1113.97V1.63795H1114.98V22.932Z" fill="#00A651"/>
<path fill-rule="evenodd" clip-rule="evenodd" d="M1135.2 40.131H1134.19V18.8369H1135.2V40.131Z" fill="#E43133"/>
<path fill-rule="evenodd" clip-rule="evenodd" d="M1145.32 47.5021H1144.3V26.2079H1145.32V47.5021Z" fill="#00A651"/>
<path fill-rule="evenodd" clip-rule="evenodd" d="M1155.43 45.8642H1154.41V24.57H1155.43V45.8642Z" fill="#00A651"/>
<path fill-rule="evenodd" clip-rule="evenodd" d="M1165.54 71.2533H1164.52V49.9593H1165.54V71.2533Z" fill="#E43133"/>
<path fill-rule="evenodd" clip-rule="evenodd" d="M1016.92 63.0632H1021.97V71.2533H1016.92V63.0632Z" fill="#00A651"/>
<path fill-rule="evenodd" clip-rule="evenodd" d="M1028.04 47.3929H1033.09V68.0319H1028.04V47.3929Z" fill="#00A651"/>
<path fill-rule="evenodd" clip-rule="evenodd" d="M1041.18 43.4072H1046.24V81.0815H1041.18V43.4072Z" fill="#E43133"/>
<path fill-rule="evenodd" clip-rule="evenodd" d="M1051.29 20.4751H1056.35V41.7692H1051.29V20.4751Z" fill="#00A651"/>
<path fill-rule="evenodd" clip-rule="evenodd" d="M1061.4 34.3982H1066.46V45.0452H1061.4V34.3982Z" fill="#E43133"/>
<path fill-rule="evenodd" clip-rule="evenodd" d="M1071.51 10.6469H1076.57V31.9412H1071.51V10.6469Z" fill="#00A651"/>
<path fill-rule="evenodd" clip-rule="evenodd" d="M1081.62 4.09484H1086.68V13.923H1081.62V4.09484Z" fill="#00A651"/>
<path fill-rule="evenodd" clip-rule="evenodd" d="M1091.73 13.104H1096.79V28.6651H1091.73V13.104Z" fill="#00A651"/>
<path fill-rule="evenodd" clip-rule="evenodd" d="M1101.84 23.7509H1106.9V49.14H1101.84V23.7509Z" fill="#E43133"/>
<path fill-rule="evenodd" clip-rule="evenodd" d="M1011.87 87.6334H1010.86V66.3394H1011.87V87.6334Z" fill="#E43133"/>
<path fill-rule="evenodd" clip-rule="evenodd" d="M1008.84 68.7963H1013.89V94.1854H1008.84V68.7963Z" fill="#E43133"/>
<path fill-rule="evenodd" clip-rule="evenodd" d="M1111.95 13.9229H1117.01V31.9412H1111.95V13.9229Z" fill="#00A651"/>
<path fill-rule="evenodd" clip-rule="evenodd" d="M1122.06 9.00903H1127.12V20.4751H1122.06V9.00903Z" fill="#E43133"/>
<path fill-rule="evenodd" clip-rule="evenodd" d="M1132.17 19.6561H1137.23V27.8459H1132.17V19.6561Z" fill="#E43133"/>
<path fill-rule="evenodd" clip-rule="evenodd" d="M1142.28 26.2079H1147.34V39.3121H1142.28V26.2079Z" fill="#00A651"/>
<path fill-rule="evenodd" clip-rule="evenodd" d="M1152.39 33.5791H1157.45V68.7962H1152.39V33.5791Z" fill="#00A651"/>
<path fill-rule="evenodd" clip-rule="evenodd" d="M1162.5 48.3212H1167.56V67.9774H1162.5V48.3212Z" fill="#E43133"/>
<path fill-rule="evenodd" clip-rule="evenodd" d="M1172.61 36.0361H1177.67V52.4161H1172.61V36.0361Z" fill="#00A651"/>
<path fill-rule="evenodd" clip-rule="evenodd" d="M1295.96 76.9861H1296.97V55.6921H1295.96V76.9861Z" fill="#E43133"/>
<path fill-rule="evenodd" clip-rule="evenodd" d="M1285.85 82.7195H1286.86V61.4252H1285.85V82.7195Z" fill="#00A651"/>
<path fill-rule="evenodd" clip-rule="evenodd" d="M1275.74 99.0996H1276.75V77.8053H1275.74V99.0996Z" fill="#00A651"/>
<path fill-rule="evenodd" clip-rule="evenodd" d="M1265.63 117.937H1266.64V96.6426H1265.63V117.937Z" fill="#00A651"/>
<path fill-rule="evenodd" clip-rule="evenodd" d="M1255.52 124.489H1256.53V103.194H1255.52V124.489Z" fill="#E43133"/>
<path fill-rule="evenodd" clip-rule="evenodd" d="M1245.41 103.195H1246.42V81.9003H1245.41V103.195Z" fill="#00A651"/>
<path fill-rule="evenodd" clip-rule="evenodd" d="M1225.18 131.041H1226.2V109.746H1225.18V131.041Z" fill="#E43133"/>
<path fill-rule="evenodd" clip-rule="evenodd" d="M1215.07 112.203H1216.09V90.9094H1215.07V112.203Z" fill="#00A651"/>
<path fill-rule="evenodd" clip-rule="evenodd" d="M1204.96 99.0995H1205.98V77.8054H1204.96V99.0995Z" fill="#00A651"/>
<path fill-rule="evenodd" clip-rule="evenodd" d="M1194.85 85.1765H1195.87V63.8822H1194.85V85.1765Z" fill="#E43133"/>
<path fill-rule="evenodd" clip-rule="evenodd" d="M1293.93 65.5201H1298.99V76.1674H1293.93V65.5201Z" fill="#E43133"/>
<path fill-rule="evenodd" clip-rule="evenodd" d="M1283.82 59.7873H1288.88V81.0814H1283.82V59.7873Z" fill="#00A651"/>
<path fill-rule="evenodd" clip-rule="evenodd" d="M1273.71 79.4433H1278.77V89.2713H1273.71V79.4433Z" fill="#00A651"/>
<path fill-rule="evenodd" clip-rule="evenodd" d="M1263.6 100.737H1268.66V116.299H1263.6V100.737Z" fill="#00A651"/>
<path fill-rule="evenodd" clip-rule="evenodd" d="M1253.49 105.652H1258.55V131.041H1253.49V105.652Z" fill="#E43133"/>
<path fill-rule="evenodd" clip-rule="evenodd" d="M1243.38 94.1855H1248.44V112.204H1243.38V94.1855Z" fill="#00A651"/>
<path fill-rule="evenodd" clip-rule="evenodd" d="M1233.27 100.737H1238.33V112.203H1233.27V100.737Z" fill="#E43133"/>
<path fill-rule="evenodd" clip-rule="evenodd" d="M1223.16 110.565H1228.22V118.755H1223.16V110.565Z" fill="#E43133"/>
<path fill-rule="evenodd" clip-rule="evenodd" d="M1213.05 90.9094H1218.11V104.014H1213.05V90.9094Z" fill="#00A651"/>
<path fill-rule="evenodd" clip-rule="evenodd" d="M1202.94 86.8143H1208V122.032H1202.94V86.8143Z" fill="#00A651"/>
<path fill-rule="evenodd" clip-rule="evenodd" d="M1192.83 62.2444H1197.89V81.9003H1192.83V62.2444Z" fill="#E43133"/>
<path fill-rule="evenodd" clip-rule="evenodd" d="M1182.72 45.0451H1187.78V61.4253H1182.72V45.0451Z" fill="#00A651"/>
</svg>
