<svg width="1300" height="55" viewBox="0 0 1300 55" fill="none" xmlns="http://www.w3.org/2000/svg">
<path fill-rule="evenodd" clip-rule="evenodd" d="M5.02707 0H0V55H5.02707V0ZM15.081 40H10.054V55H15.081V40ZM20.1084 30H25.1355V55H20.1084V30ZM35.1894 19H30.1624V55H35.1894V19ZM40.2163 22H45.2434V55H40.2163V22ZM55.2979 17H50.2708V55H55.2979V17ZM60.3248 12H65.3518V55H60.3248V12ZM75.4063 17H70.3792V55H75.4063V17ZM80.4332 22H85.4602V55H80.4332V22ZM95.5142 29H90.4871V55H95.5142V29ZM100.541 24.9999H105.568V54.9998H100.541V24.9999ZM115.623 32H110.596V55H115.623V32ZM120.65 36H125.677V55H120.65V36ZM135.731 40H130.704V55H135.731V40ZM140.758 33H145.785V55H140.758V33ZM155.839 22H150.812V55H155.839V22ZM160.866 26H165.893V55H160.866V26ZM175.947 32H170.92V55H175.947V32ZM180.974 37H186.001V55H180.974V37ZM196.056 43H191.029V55H196.056V43ZM201.083 42H206.11V55H201.083V42ZM216.164 38H211.137V55H216.164V38ZM221.191 45H226.218V55H221.191V45ZM236.272 35H231.245V55H236.272V35ZM241.3 25H246.327V55H241.3V25ZM256.381 16H251.353V55H256.381V16ZM261.407 9H266.435V55H261.407V9ZM276.489 3H271.462V55H276.489V3ZM281.516 29H286.543V55H281.516V29ZM296.597 19H291.57V55H296.597V19ZM301.624 12H306.651V55H301.624V12ZM316.705 22H311.678V55H316.705V22ZM321.732 33H326.759V55H321.732V33ZM336.814 29H331.787V55H336.814V29ZM341.841 22H346.868V55H341.841V22ZM356.922 24H351.895V55H356.922V24ZM360.943 28H365.97V55H360.943V28ZM375.02 24H369.992V55H375.02V24ZM379.041 18H384.068V55H379.041V18ZM393.117 25H388.09V55H393.117V25ZM397.139 32H402.166V55H397.139V32ZM411.214 43H406.187V55H411.214V43ZM415.236 37H420.263V55H415.236V37ZM429.312 25H424.285V55H429.312V25ZM433.333 30H438.361V55H433.333V30ZM447.409 34H442.382V55H447.409V34ZM451.431 27H456.458V55H451.431V27ZM465.507 22H460.48V55H465.507V22ZM469.528 18H474.555V55H469.528V18ZM483.604 10H478.577V55H483.604V10ZM487.626 7H492.653V55H487.626V7ZM501.702 12H496.674V55H501.702V12Z" fill="white"/>
<path fill-rule="evenodd" clip-rule="evenodd" d="M783.217 3H778.19V55H783.217V3ZM768.136 9H773.163V55H768.136V9ZM567.053 12H572.08V55H567.053V12ZM562.026 17H556.999V55H562.026V17ZM511.756 19H506.729V55H511.756V19ZM521.81 26H516.783V55H521.81V26ZM526.837 30H531.864V55H526.837V30ZM541.918 19H536.891V55H541.918V19ZM546.945 22H551.972V55H546.945V22ZM582.135 17H577.108V55H582.135V17ZM587.162 22H592.189V55H587.162V22ZM602.243 29H597.216V55H602.243V29ZM607.27 24.9999H612.297V54.9998H607.27V24.9999ZM622.351 32H617.324V55H622.351V32ZM627.378 36H632.405V55H627.378V36ZM642.459 40H637.432V55H642.459V40ZM647.486 33H652.513V55H647.486V33ZM662.568 22H657.541V55H662.568V22ZM667.595 26H672.622V55H667.595V26ZM682.676 32H677.649V55H682.676V32ZM687.703 37H692.73V55H687.703V37ZM702.784 43H697.757V55H702.784V43ZM707.811 42H712.838V55H707.811V42ZM722.893 38H717.866V55H722.893V38ZM727.92 45H732.947V55H727.92V45ZM743.001 35H737.974V55H743.001V35ZM748.028 25H753.055V55H748.028V25ZM763.109 16H758.082V55H763.109V16ZM788.244 29H793.271V55H788.244V29ZM803.325 19H798.298V55H803.325V19ZM808.353 12H813.38V55H808.353V12ZM823.434 22H818.407V55H823.434V22ZM828.461 33H833.488V55H828.461V33ZM843.542 29H838.515V55H843.542V29ZM848.569 22H853.596V55H848.569V22ZM863.651 24H858.624V55H863.651V24ZM867.672 28H872.699V55H867.672V28ZM881.748 24H876.721V55H881.748V24ZM885.77 18H890.797V55H885.77V18ZM899.845 25H894.818V55H899.845V25ZM903.867 32H908.894V55H903.867V32ZM917.943 43H912.916V55H917.943V43ZM921.965 37H926.992V55H921.965V37ZM936.04 25H931.013V55H936.04V25ZM940.062 30H945.089V55H940.062V30ZM954.138 34H949.111V55H954.138V34ZM958.159 27H963.186V55H958.159V27ZM972.235 22H967.208V55H972.235V22ZM976.257 18H981.284V55H976.257V18ZM990.333 10H985.306V55H990.333V10ZM994.354 7H999.381V55H994.354V7ZM1008.43 22H1003.4V55H1008.43V22Z" fill="white"/>
<path fill-rule="evenodd" clip-rule="evenodd" d="M1284.92 3H1289.95V55H1284.92V3ZM1279.89 9H1274.86V55H1279.89V9ZM1078.81 12H1073.78V55H1078.81V12ZM1013.46 15H1018.48V55H1013.46V15ZM1023.51 23H1028.54V55H1023.51V23ZM1038.59 30H1033.57V55H1038.59V30ZM1043.62 19H1048.65V55H1043.62V19ZM1058.7 22H1053.67V55H1058.7V22ZM1063.73 17H1068.75V55H1063.73V17ZM1083.84 17H1088.86V55H1083.84V17ZM1098.92 22H1093.89V55H1098.92V22ZM1103.94 29H1108.97V55H1103.94V29ZM1119.03 24.9999H1114V54.9998H1119.03V24.9999ZM1124.05 32H1129.08V55H1124.05V32ZM1139.13 36H1134.11V55H1139.13V36ZM1144.16 40H1149.19V55H1144.16V40ZM1159.24 33H1154.21V55H1159.24V33ZM1164.27 22H1169.3V55H1164.27V22ZM1179.35 26H1174.32V55H1179.35V26ZM1184.38 32H1189.4V55H1184.38V32ZM1199.46 37H1194.43V55H1199.46V37ZM1204.49 43H1209.51V55H1204.49V43ZM1219.57 42H1214.54V55H1219.57V42ZM1224.59 38H1229.62V55H1224.59V38ZM1239.68 45H1234.65V55H1239.68V45ZM1244.7 35H1249.73V55H1244.7V35ZM1259.78 25H1254.76V55H1259.78V25ZM1264.81 16H1269.84V55H1264.81V16ZM1300 29H1294.97V55H1300V29Z" fill="white"/>
</svg>
