<svg width="1294" height="30" viewBox="0 0 1294 30" fill="none" xmlns="http://www.w3.org/2000/svg">
<path fillRule="evenodd" clipRule="evenodd" d="M1 28.5001L26.9998 26.8882H36.9999L62.0001 25.2762L73.0002 26.8882L88.9999 24.4702L93.9999 26.8882L103 24.4702L114 27.694L130 26.8882L139 27.694L151 25.2762L164 26.0822L179 25.2762L189 23.6644L195 27.694L211 24.4702H227L246 28.5001L264 25.2762L274 21.2463L279 19.6345L285 18.8284L286 22.8584L289 16.4106L295 19.6345L299 13.9925L304 18.0224L312 12.3807L319 17.2164L329 13.1865L335 17.2164L341 13.1865L344 9.15685L349 17.2164L357 12.3807L364 8.35083L367 16.4106L376 20.4403L386 23.6644L393 19.6345L399 25.2762L405 26.0822" fill="black" fill-opacity="0.01"/>
<path d="M1 28.5001L26.9998 26.8882H36.9999L62.0001 25.2762L73.0002 26.8882L88.9999 24.4702L93.9999 26.8882L103 24.4702L114 27.694L130 26.8882L139 27.694L151 25.2762L164 26.0822L179 25.2762L189 23.6644L195 27.694L211 24.4702H227L246 28.5001L264 25.2762L274 21.2463L279 19.6345L285 18.8284L286 22.8584L289 16.4106L295 19.6345L299 13.9925L304 18.0224L312 12.3807L319 17.2164L329 13.1865L335 17.2164L341 13.1865L344 9.15685L349 17.2164L357 12.3807L364 8.35083L367 16.4106L376 20.4403L386 23.6644L393 19.6345L399 25.2762L405 26.0822L425.5 23.6644L439 19.6345L468.5 20.4403L482 22.8584L494.5 23.6644L499 18.0224L507.5 27.694L519 26.0822L534 16.4106H550.5" stroke="#00A651" stroke-width="2"/>
<path fillRule="evenodd" clipRule="evenodd" d="M550 16.4105H565.5L579 17.2165H589L614 15.6044L625 17.2165L641 14.7984L646 17.2165L655 14.7984L666 18.0223L682 17.2165L691 18.0223L703 15.6044L716 16.4105L731 15.6044L741 13.9926L747 18.0223L763 14.7984H779L798 18.8283L816 15.6044L826 11.5745L831 9.96271L837 9.15669L838.5 8.35066L842 8.75375L847 9.96271L852.5 13.9926H859.5L866.5 11.9776L874 11.1717L881.5 9.15673L887 7.54464L890.5 9.96271L897.5 13.9926L902.5 13.1866L907.5 11.1717L914.5 11.5745L920.5 13.1866L928.5 14.7984L938 13.9926L941.5 5.52987H953L961 1.5" fill="black" fill-opacity="0.01"/>
<path d="M550 16.4105H565.5L579 17.2165H589L614 15.6044L625 17.2165L641 14.7984L646 17.2165L655 14.7984L666 18.0223L682 17.2165L691 18.0223L703 15.6044L716 16.4105L731 15.6044L741 13.9926L747 18.0223L763 14.7984H779L798 18.8283L816 15.6044L826 11.5745L831 9.96271L837 9.15669L838.5 8.35066L842 8.75375L847 9.96271L852.5 13.9926H859.5L866.5 11.9776L874 11.1717L881.5 9.15673L887 7.54464L890.5 9.96271L897.5 13.9926L902.5 13.1866L907.5 11.1717L914.5 11.5745L920.5 13.1866L928.5 14.7984L938 13.9926L941.5 5.52987H953L961 1.5L977.5 13.9926L991 9.96271L1020.5 10.7685L1034 13.1866L1046.5 13.9926L1051.5 13.1866L1059.5 18.0223L1071 16.4105L1087 14.3956L1092.5 13.1866H1100" stroke="#00A651" stroke-width="2"/>
<path d="M1099.5 13.1867H1104.5L1107.5 16.0076L1114.5 15.2016L1122.5 16.8134L1132 16.0076L1135.5 7.54485H1147L1155 6.73888L1170.5 8.35082L1186 5.9329L1215.5 6.73888L1229.5 7.54485L1242.5 3.91797L1251.5 5.9329L1258.5 11.9777L1265 18.4254L1279.5 13.9926L1283.5 9.96277L1293 5.9329" stroke="#00A651" stroke-width="2"/>
</svg>
