<svg width="1302" height="185" viewBox="0 0 1302 185" fill="none" xmlns="http://www.w3.org/2000/svg">
<path d="M1.50391 28.5L22.6202 121.5L34.1838 80L46.2503 87.5L69.8804 70.5L96.0243 77L114.124 62.5L131.721 87.5L148.815 99.5L168.423 87.5L195.07 174L212.666 176.5L230.766 171L245.849 183L277.021 121.5L294.618 131L315.734 99.5L335.342 128.5L354.447 118.5L371.541 121.5L391.149 114L412.768 159.5L423.829 131L443.94 136.5L473.603 126L489.692 109L501.758 104.5L503.769 103.5" stroke="#FFD700" stroke-width="2"/>
<path d="M1005.37 72L990.81 93L980.312 96.7635L950.649 107.307L930.538 101.784L919.477 130.402L897.858 84.7137L878.25 92.2448L861.156 89.2324L842.051 99.2739L822.443 70.1535L801.327 101.784L783.73 92.2448L752.558 154L737.475 141.95L719.376 147.473L701.779 144.963L675.132 58.1037L655.524 70.1535L638.43 58.1037L620.833 33L602.734 47.5602L576.59 41.0332L552.96 58.1037L540.893 50.5726L505.197 103.29L503.186 104.295" stroke="#FFD700" stroke-width="2"/>
<path d="M1005.37 72.2905L1041.07 19.5726L1053.14 27.1037L1076.77 10.0332L1102.91 16.5602L1121.01 2L1138.61 27.1037L1155.7 39.1535L1175.31 27.1037L1201.96 113.963L1219.55 116.473L1237.65 110.95L1252.74 123L1283.91 61.2448L1301.5 70.7842" stroke="#FFD700" stroke-width="2"/>
</svg>
