<svg width="16" height="19" viewBox="0 0 16 19" fill="none" xmlns="http://www.w3.org/2000/svg">
<path fillRule="evenodd" clipRule="evenodd" d="M10.4998 8.27256H14.4998V13.7273H10.4998V8.27256Z" stroke="#C4C4C4"/>
<path d="M12.4998 17.4999V14.5V17.4999ZM12.4998 17.4999H11.9998V14.5L12.4998 17.4999ZM12.4998 17.4999V14.5L12.9998 17.4999H12.4998Z" stroke="#C4C4C4"/>
<path d="M4.49933 17.4999V15.4997V17.4999ZM4.49933 17.4999H3.99934V15.4997L4.49933 17.4999ZM4.49934 17.4999V15.4997L4.99933 17.4999H4.49934Z" stroke="#C4C4C4"/>
<path fillRule="evenodd" clipRule="evenodd" d="M1.99983 4.99996H5.99933V14.9997H1.99983V4.99996Z" stroke="#C4C4C4"/>
<path d="M4.49933 4.49996V2.49978V4.49996ZM4.49933 4.49996H3.99934V2.49978L4.49933 4.49996ZM4.49934 4.49996V2.49978L4.99933 4.49996H4.49934Z" stroke="#C4C4C4"/>
<path d="M12.4998 7.49987V2.49978V7.49987ZM12.4998 7.49987H11.9998V2.49978L12.4998 7.49987ZM12.4998 7.49987V2.49978L12.9998 7.49987H12.4998Z" stroke="#C4C4C4"/>
</svg>
