<svg width="16" height="16" viewBox="0 0 16 16" fill="none" xmlns="http://www.w3.org/2000/svg">
<path d="M1.68812 9.71194C2.40471 9.71194 2.98562 9.13103 2.98562 8.41444C2.98562 7.69785 2.40471 7.11694 1.68812 7.11694C0.971535 7.11694 0.390625 7.69785 0.390625 8.41444C0.390625 9.13103 0.971535 9.71194 1.68812 9.71194Z" stroke="white" stroke-miterlimit="10" stroke-linecap="round" stroke-linejoin="round"/>
<path d="M6.36684 15.481C7.08343 15.481 7.66434 14.9001 7.66434 14.1835C7.66434 13.4669 7.08343 12.886 6.36684 12.886C5.65025 12.886 5.06934 13.4669 5.06934 14.1835C5.06934 14.9001 5.65025 15.481 6.36684 15.481Z" stroke="white" stroke-miterlimit="10" stroke-linecap="round" stroke-linejoin="round"/>
<path d="M9.43422 3.11355C10.1508 3.11355 10.7317 2.53264 10.7317 1.81605C10.7317 1.09947 10.1508 0.518555 9.43422 0.518555C8.71763 0.518555 8.13672 1.09947 8.13672 1.81605C8.13672 2.53264 8.71763 3.11355 9.43422 3.11355Z" stroke="white" stroke-miterlimit="10" stroke-linecap="round" stroke-linejoin="round"/>
<path d="M14.3121 10.47C15.0287 10.47 15.6096 9.88909 15.6096 9.1725C15.6096 8.45591 15.0287 7.875 14.3121 7.875C13.5956 7.875 13.0146 8.45591 13.0146 9.1725C13.0146 9.88909 13.5956 10.47 14.3121 10.47Z" stroke="white" stroke-miterlimit="10" stroke-linecap="round" stroke-linejoin="round"/>
<path d="M2.66504 9.71362L5.40654 13.3141" stroke="white" stroke-miterlimit="10" stroke-linecap="round" stroke-linejoin="round"/>
<path d="M7.0127 12.8855L9.25819 3.11401" stroke="white" stroke-miterlimit="10" stroke-linecap="round" stroke-linejoin="round"/>
<path d="M10.2954 3.11401L13.4554 8.20051" stroke="white" stroke-miterlimit="10" stroke-linecap="round" stroke-linejoin="round"/>
</svg>
