<svg width="550" height="59" viewBox="0 0 550 59" fill="none" xmlns="http://www.w3.org/2000/svg">
<path fillRule="evenodd" clipRule="evenodd" d="M0 58.4998H89L111 48.4998L121 50.4997L132 46.4997L150 49.4999L167 44.4999L174 47.4998L186 42.4997L193 40.4999V34.4998H201L219 33.4997L226 37.4997L248 35.4999L262 33.4997L266 37.4997L281 34.4998L286 29.4998L297 30.4999V25.4998L310 22.4996L337 23.4997L357 19.4997L370 17.4999L378 25.4998L392 18.4996L405 15.4998" fill="black" fillOpacity="0.01"/>
<path d="M0 58.4998H89L111 48.4998L121 50.4997L132 46.4997L150 49.4999L167 44.4999L174 47.4998L186 42.4997L193 40.4999V34.4998H201L219 33.4997L226 37.4997L248 35.4999L262 33.4997L266 37.4997L281 34.4998L286 29.4998L297 30.4999V25.4998L310 22.4996L337 23.4997L357 19.4997L370 17.4999L378 25.4998L392 18.4996L405 15.4998L415 17.4999L429 13L444.5 9L451.5 3.5L469 7L476.5 9H485.5H496.5L508 4.5H513.5H523L531 3.5L542 4.5L547.5 1" stroke="#00A651"/>
<path fillRule="evenodd" clipRule="evenodd" d="M0 58.4998H89L110 52.4998L120 49.4999L135 50.4997L149 52.4998L163 43.4998L178 51.4997L188 45.4997L193 40.4999V38.4998L201 40.4999H218L230 43.4998L249 40.4999H260L269 34.4998L281 38.4998L288 27.4997L297 30.4999V25.4998L312 32.4997L339 28.4997L354 32.4997L367 30.4999L378 33.4997L395 25.4998L405 24.4998" fill="black" fillOpacity="0.01"/>
<path d="M0 58.4998H89L110 52.4998L120 49.4999L135 50.4997L149 52.4998L163 43.4998L178 51.4997L188 45.4997L193 40.4999V38.4998L201 40.4999H218L230 43.4998L249 40.4999H260L269 34.4998L281 38.4998L288 27.4997L297 30.4999V25.4998L312 32.4997L339 28.4997L354 32.4997L367 30.4999L378 33.4997L395 25.4998L405 24.4998L413.5 25.4998L422 30.4999L429.5 22.5H440.5L450.5 24.4998L456 19H471.5L485 10L494 13L505 14.5H520.5L524 10L531.5 11L535 13L548 12" stroke="#E43133"/>
<path fillRule="evenodd" clipRule="evenodd" d="M0 58.5H88.9999L110 55.4998L121 54.4997L136 55.4998L155 56.4999L165 51.4998L179 54.4997L189 52.4999L193 48.4999L196 46.4998L204 48.4999L217 50.4998H230L247 45.4998L260 47.4999L271 45.4998L281 42.4999L289 44.5L297 41.4998V34.4999L313 38.4999L337 34.4999L354 31.5L368 37.4998H382L396 34.4999L404 35.5" fill="black" fillOpacity="0.01"/>
<path d="M0 58.5H88.9999L110 55.4998L121 54.4997L136 55.4998L155 56.4999L165 51.4998L179 54.4997L189 52.4999L193 48.4999L196 46.4998L204 48.4999L217 50.4998H230L247 45.4998L260 47.4999L271 45.4998L281 42.4999L289 44.5L297 41.4998V34.4999L313 38.4999L337 34.4999L354 31.5L368 37.4998H382L396 34.4999L404 35.5L416 31.5L424.5 34.4999H436.5L446 31.5H455L458.5 28.5L468 25.5L477.5 23H489.5H500L502 20.5L516 23L524 20.5H537L549.5 15.5" stroke="white"/>
</svg>
