<svg width="502" height="173" viewBox="0 0 502 173" fill="none" xmlns="http://www.w3.org/2000/svg">
<path fillRule="evenodd" clipRule="evenodd" d="M4.99932 36.9998H3.99932V19.9999H4.99932V36.9998Z" fill="#00A651"/>
<path fillRule="evenodd" clipRule="evenodd" d="M12.9993 49H11.9993V31.9998H12.9993V49Z" fill="#00A651"/>
<path fillRule="evenodd" clipRule="evenodd" d="M32.9997 68.9999H31.9997V51.9999H32.9997V68.9999Z" fill="#E43133"/>
<path fillRule="evenodd" clipRule="evenodd" d="M42.9997 70H41.9997V52.9998H42.9997V70Z" fill="#00A651"/>
<path fillRule="evenodd" clipRule="evenodd" d="M52.9996 67.9999H51.9996V41.9998H52.9996V67.9999Z" fill="#E43133"/>
<path fillRule="evenodd" clipRule="evenodd" d="M62.9996 52.9998H61.9996V26.9999H62.9996V52.9998Z" fill="#00A651"/>
<path fillRule="evenodd" clipRule="evenodd" d="M72.9995 40.9998H71.9995V14.9999H72.9995V40.9998Z" fill="#00A651"/>
<path fillRule="evenodd" clipRule="evenodd" d="M82.9995 48.9998H81.9995V22.9999H82.9995V48.9998Z" fill="#00A651"/>
<path fillRule="evenodd" clipRule="evenodd" d="M92.9995 63.9999H91.9995V37.9999H92.9995V63.9999Z" fill="#E43133"/>
<path fillRule="evenodd" clipRule="evenodd" d="M102.999 39.9998H101.999V13.9999H102.999V39.9998Z" fill="#00A651"/>
<path fillRule="evenodd" clipRule="evenodd" d="M122.999 60.9998H121.999V34.9999H122.999V60.9998Z" fill="#E43133"/>
<path fillRule="evenodd" clipRule="evenodd" d="M133 69.9999H132V43.9997H133V69.9999Z" fill="#00A651"/>
<path fillRule="evenodd" clipRule="evenodd" d="M143 68H142V41.9998H143V68Z" fill="#00A651"/>
<path fillRule="evenodd" clipRule="evenodd" d="M153 98.9999H152V73H153V98.9999Z" fill="#E43133"/>
<path fillRule="evenodd" clipRule="evenodd" d="M1.99933 1.99993H6.99979V27.9998H1.99933V1.99993Z" fill="#00A651"/>
<path fillRule="evenodd" clipRule="evenodd" d="M9.99929 33.9999H14.9998V43.9999H9.99929V33.9999Z" fill="#00A651"/>
<path fillRule="evenodd" clipRule="evenodd" d="M19.9997 49.9998H24.9992V76.9998H19.9997V49.9998Z" fill="#00A651"/>
<path fillRule="evenodd" clipRule="evenodd" d="M29.9997 64.9999H34.9992V111H29.9997V64.9999Z" fill="#E43133"/>
<path fillRule="evenodd" clipRule="evenodd" d="M39.9997 36.9999H44.9996V62.9998H39.9997V36.9999Z" fill="#00A651"/>
<path fillRule="evenodd" clipRule="evenodd" d="M49.9996 53.9999H54.9996V66.9999H49.9996V53.9999Z" fill="#E43133"/>
<path fillRule="evenodd" clipRule="evenodd" d="M59.9996 24.9998H64.9996V51H59.9996V24.9998Z" fill="#00A651"/>
<path fillRule="evenodd" clipRule="evenodd" d="M69.9995 16.9998H74.9995V28.9999H69.9995V16.9998Z" fill="#00A651"/>
<path fillRule="evenodd" clipRule="evenodd" d="M79.9995 27.9999H84.9995V47H79.9995V27.9999Z" fill="#00A651"/>
<path fillRule="evenodd" clipRule="evenodd" d="M89.9995 40.9998H94.9999V71.9998H89.9995V40.9998Z" fill="#E43133"/>
<path fillRule="evenodd" clipRule="evenodd" d="M99.9994 28.9997H104.999V51H99.9994V28.9997Z" fill="#00A651"/>
<path fillRule="evenodd" clipRule="evenodd" d="M109.999 22.9999H114.999V36.9999H109.999V22.9999Z" fill="#E43133"/>
<path fillRule="evenodd" clipRule="evenodd" d="M120 36H124.999V45.9998H120V36Z" fill="#E43133"/>
<path fillRule="evenodd" clipRule="evenodd" d="M130 43.9997H134.999V59.9999H130V43.9997Z" fill="#00A651"/>
<path fillRule="evenodd" clipRule="evenodd" d="M140 52.9999H145V95.9998H140V52.9999Z" fill="#00A651"/>
<path fillRule="evenodd" clipRule="evenodd" d="M150 70.9998H155V94.9999H150V70.9998Z" fill="#E43133"/>
<path fillRule="evenodd" clipRule="evenodd" d="M159.999 55.9999H165V75.9998H159.999V55.9999Z" fill="#00A651"/>
<path fillRule="evenodd" clipRule="evenodd" d="M351.999 102H352.999V84.9999H351.999V102Z" fill="#E43133"/>
<path fillRule="evenodd" clipRule="evenodd" d="M479.999 85.9998H480.999V68.9999H479.999V85.9998Z" fill="#E43133"/>
<path fillRule="evenodd" clipRule="evenodd" d="M349.999 101H355V115H349.999V101Z" fill="#E43133"/>
<path fillRule="evenodd" clipRule="evenodd" d="M477.999 84.9997H483V98.9998H477.999V84.9997Z" fill="#E43133"/>
<path fillRule="evenodd" clipRule="evenodd" d="M332 113H333V95.9997H332V113Z" fill="#00A651"/>
<path fillRule="evenodd" clipRule="evenodd" d="M460 108H461V90.9997H460V108Z" fill="#00A651"/>
<path fillRule="evenodd" clipRule="evenodd" d="M490 117H491V99.9997H490V117Z" fill="#00A651"/>
<path fillRule="evenodd" clipRule="evenodd" d="M322 81.9998H323V64.9999H322V81.9998Z" fill="#00A651"/>
<path fillRule="evenodd" clipRule="evenodd" d="M450 124H451V107H450V124Z" fill="#00A651"/>
<path fillRule="evenodd" clipRule="evenodd" d="M498 80.9998H499V63.9999H498V80.9998Z" fill="#00A651"/>
<path fillRule="evenodd" clipRule="evenodd" d="M302 95H303V77.9998H302V95Z" fill="#E43133"/>
<path fillRule="evenodd" clipRule="evenodd" d="M430 107H431V89.9998H430V107Z" fill="#E43133"/>
<path fillRule="evenodd" clipRule="evenodd" d="M292 98.9998H293V81.9999H292V98.9998Z" fill="#00A651"/>
<path fillRule="evenodd" clipRule="evenodd" d="M420 117H421V99.9999H420V117Z" fill="#00A651"/>
<path fillRule="evenodd" clipRule="evenodd" d="M282 106H282.999V79.9998H282V106Z" fill="#E43133"/>
<path fillRule="evenodd" clipRule="evenodd" d="M410 134H410.999V108H410V134Z" fill="#E43133"/>
<path fillRule="evenodd" clipRule="evenodd" d="M271.999 113H272.999V86.9998H271.999V113Z" fill="#00A651"/>
<path fillRule="evenodd" clipRule="evenodd" d="M399.999 108H400.999V81.9998H399.999V108Z" fill="#00A651"/>
<path fillRule="evenodd" clipRule="evenodd" d="M261.999 133H263V107H261.999V133Z" fill="#00A651"/>
<path fillRule="evenodd" clipRule="evenodd" d="M389.999 89.9999H391V63.9997H389.999V89.9999Z" fill="#00A651"/>
<path fillRule="evenodd" clipRule="evenodd" d="M252 156H253V130H252V156Z" fill="#00A651"/>
<path fillRule="evenodd" clipRule="evenodd" d="M380 95.9999H381V70H380V95.9999Z" fill="#00A651"/>
<path fillRule="evenodd" clipRule="evenodd" d="M242 164H243V138H242V164Z" fill="#E43133"/>
<path fillRule="evenodd" clipRule="evenodd" d="M370 116H371V89.9998H370V116Z" fill="#E43133"/>
<path fillRule="evenodd" clipRule="evenodd" d="M232 138H232.999V112H232V138Z" fill="#00A651"/>
<path fillRule="evenodd" clipRule="evenodd" d="M360 86H360.999V59.9998H360V86Z" fill="#00A651"/>
<path fillRule="evenodd" clipRule="evenodd" d="M211.999 172H212.999V146H211.999V172Z" fill="#E43133"/>
<path fillRule="evenodd" clipRule="evenodd" d="M202 149H203V123H202V149Z" fill="#00A651"/>
<path fillRule="evenodd" clipRule="evenodd" d="M192 133H193V107H192V133Z" fill="#00A651"/>
<path fillRule="evenodd" clipRule="evenodd" d="M182 116H183V89.9998H182V116Z" fill="#E43133"/>
<path fillRule="evenodd" clipRule="evenodd" d="M339.999 97.9997H344.999V106H339.999V97.9997Z" fill="#E43133"/>
<path fillRule="evenodd" clipRule="evenodd" d="M467.999 103H472.999V111H467.999V103Z" fill="#E43133"/>
<path fillRule="evenodd" clipRule="evenodd" d="M330 77.9998H335V104H330V77.9998Z" fill="#00A651"/>
<path fillRule="evenodd" clipRule="evenodd" d="M458 72.9998H463V99H458V72.9998Z" fill="#00A651"/>
<path fillRule="evenodd" clipRule="evenodd" d="M488 81.9998H493V108H488V81.9998Z" fill="#00A651"/>
<path fillRule="evenodd" clipRule="evenodd" d="M320 66.9997H325V76.9998H320V66.9997Z" fill="#00A651"/>
<path fillRule="evenodd" clipRule="evenodd" d="M448 109H453V119H448V109Z" fill="#00A651"/>
<path fillRule="evenodd" clipRule="evenodd" d="M496 65.9997H501V75.9998H496V65.9997Z" fill="#00A651"/>
<path fillRule="evenodd" clipRule="evenodd" d="M310 67H315V93.9999H310V67Z" fill="#00A651"/>
<path fillRule="evenodd" clipRule="evenodd" d="M438 84H443V111H438V84Z" fill="#00A651"/>
<path fillRule="evenodd" clipRule="evenodd" d="M300 90.9997H305V137H300V90.9997Z" fill="#E43133"/>
<path fillRule="evenodd" clipRule="evenodd" d="M428 103H433V149H428V103Z" fill="#E43133"/>
<path fillRule="evenodd" clipRule="evenodd" d="M290 65.9998H294.999V91.9999H290V65.9998Z" fill="#00A651"/>
<path fillRule="evenodd" clipRule="evenodd" d="M418 83.9998H422.999V110H418V83.9998Z" fill="#00A651"/>
<path fillRule="evenodd" clipRule="evenodd" d="M280 91.9997H285V105H280V91.9997Z" fill="#E43133"/>
<path fillRule="evenodd" clipRule="evenodd" d="M408 120H413V133H408V120Z" fill="#E43133"/>
<path fillRule="evenodd" clipRule="evenodd" d="M269.999 84.9999H275V111H269.999V84.9999Z" fill="#00A651"/>
<path fillRule="evenodd" clipRule="evenodd" d="M397.999 79.9999H403V106H397.999V79.9999Z" fill="#00A651"/>
<path fillRule="evenodd" clipRule="evenodd" d="M259.999 109H265V121H259.999V109Z" fill="#00A651"/>
<path fillRule="evenodd" clipRule="evenodd" d="M387.999 65.9999H393V77.9998H387.999V65.9999Z" fill="#00A651"/>
<path fillRule="evenodd" clipRule="evenodd" d="M249.999 135H255V154H249.999V135Z" fill="#00A651"/>
<path fillRule="evenodd" clipRule="evenodd" d="M377.999 74.9998H383V93.9998H377.999V74.9998Z" fill="#00A651"/>
<path fillRule="evenodd" clipRule="evenodd" d="M239.999 141H245V172H239.999V141Z" fill="#E43133"/>
<path fillRule="evenodd" clipRule="evenodd" d="M367.999 92.9999H373V124H367.999V92.9999Z" fill="#E43133"/>
<path fillRule="evenodd" clipRule="evenodd" d="M230 127H234.999V149H230V127Z" fill="#00A651"/>
<path fillRule="evenodd" clipRule="evenodd" d="M358 74.9998H362.999V96.9998H358V74.9998Z" fill="#00A651"/>
<path fillRule="evenodd" clipRule="evenodd" d="M220 135H224.999V149H220V135Z" fill="#E43133"/>
<path fillRule="evenodd" clipRule="evenodd" d="M210 147H214.999V157H210V147Z" fill="#E43133"/>
<path fillRule="evenodd" clipRule="evenodd" d="M200 123H205V139H200V123Z" fill="#00A651"/>
<path fillRule="evenodd" clipRule="evenodd" d="M190 118H195V161H190V118Z" fill="#00A651"/>
<path fillRule="evenodd" clipRule="evenodd" d="M180 87.9999H185V112H180V87.9999Z" fill="#E43133"/>
<path fillRule="evenodd" clipRule="evenodd" d="M170 66.9998H175V86.9999H170V66.9998Z" fill="#00A651"/>
</svg>
