<svg width="1265" height="168" viewBox="0 0 1265 168" fill="none" xmlns="http://www.w3.org/2000/svg">
<path d="M1 167L23.0005 158L34.0005 160L46.5005 154L60.5005 158L79.5005 154L89.0005 155.5L98.5005 150.5L107.5 143L112.5 147L121.5 143L131 144L140.5 142L152 146L169.5 139L175 147L190 143L197.5 136.5L206 139L212.5 134L230.5 136.5L246 131H262.5L281 129L290 134L304 127L315 129H317" stroke="#00A651"/>
<path d="M317 129L318 129L339 120L350 122L362.5 116L376.5 120L395.5 116L405 117.5L414.5 112.5L421.5 108L428.5 109H437.5H445.5L456.5 104L468 108L483.5 104L491 109L506 105L513.5 98.5004L528 94.5H545L560 89L571.5 79.5L582.5 85.5L598 79.5L608 85.5L620 89L631 91H633.5" stroke="#00A651"/>
<path d="M633 91.0002L634 91L655 82.0003L666 84.0004L678.5 78.0004L692.5 82.0003L711.5 78.0004L721 79.5004L730.5 74.5004L738.5 78.0004L744.5 71.0004L753.5 74.5004H765.5L772.5 66.0001L777 74.5004H798.5L807 71.0004H820L831.5 67.0002L838 63.0002H847.5L862.5 60.5004L876.5 58.0002L894.5 55.0004L913 53.0004L922 58.0002L936 51L945.5 54.5L948.5 51.5" stroke="#00A651"/>
<path d="M948.5 51.5L949 51L957.5 53.5L971 51L982.5 46L996 42.0003L1016 34.5004L1026.5 38.0004L1036 39.5004L1045.5 34.5004L1052.5 38.0004L1059.5 31.0004L1068.5 27.0002L1078 28.0002L1086 34.5004L1099 30.0001L1112.5 31.0004H1122L1137 27.0002H1144L1153 23.0002L1159.5 18.0002L1176 11L1193.5 8.5L1205.5 1L1225.5 6L1236 13.0002L1251 11L1263 13.0002" stroke="#00A651"/>
<path d="M1 167.001L21.9997 161.001L35.0005 155.501L47.5005 158.001L64.0005 160L73.5005 152.001L83.5005 158.001H94.0005L106.5 153.501L111 152.001L121.5 153.501L129 149.001L140 152.001L159 149.001L172.5 152.001L183 142L195 147.001L203.5 142H212L219 134.001L228.5 142L249.5 134.001L264 142L276.5 138.001L287 142L302 134.001L316 133H318" stroke="#E43133"/>
<path d="M318 133L319.5 133L339 127L352 121.5L364.5 124L381 126L390.5 124H400.5H411L423.5 119.5L432 124L438.5 119.5H448.5L457 118L476 115L489.5 118H501.5L512 113L520.5 108H529L537 115H562.5L571 100L584 99L593.5 104H603L619 100L633.5 99H634" stroke="#E43133"/>
<path d="M634 99.0001L635.5 99L655 93L668 87.5002L680.5 90.0002L697 92L705.5 90.0002H716.5H727L739.5 85.5002L744 84.0001L754.5 85.5002L762 81.0001L773 84.0001L792 81.0001H802L819.5 84.0001L828 79.0002L836.5 74H845H851.5H861.5L882.5 66.0001L899 65L909.5 70.0002L915.5 62L935 66.0001L946.5 62L948.5 63.5L950 65" stroke="#E43133"/>
<path d="M950 65L952.5 67.5L972 59L985 53.5002L997.5 56.0002L1014 58H1023.5L1033.5 56.0002H1044L1056.5 51.5002L1061 50.0001L1069.5 45.0002L1079 47.0001L1090 50.0001L1109 47.0001L1122.5 50.0001L1133 40L1145 45.0002L1153.5 40H1162L1170 36.0002L1188 31H1207.5L1214 40H1224.5L1237 45.0002H1252L1262.5 36.0002" stroke="#E43133"/>
<path d="M1 167.001L22.0002 164L32.9998 163L45.5006 160L65.0006 163L75.0006 157L83.0006 161L95.5006 163L101.501 160L108.501 157L114.501 161L128.001 164L142.001 157L155.501 160L171.501 157H183.001L193 151L201.001 160L211.001 154.001L216.001 147L230.001 151L248.501 144L266.501 149.5L274.501 146L289.501 154.001L301.501 144.001L311 145L315 147H318" stroke="white"/>
<path d="M318 147L319.5 147L322.5 144L328.5 147L339 144L350 143L362.501 140L382.001 143L392.001 137L400.001 141L412.501 143L418.501 140L425.501 137L431.501 141L445.001 144L459.001 137L472.501 140L488.501 137H500.001L510 131L520 131.5L528.001 134L536 133L549 132.5L566 130.5L583.501 129.5L591.501 126L603.5 117L623 115.5L632.5 127L634.001 127" stroke="white"/>
<path d="M634 127L635.5 127L638.5 124L644.5 127L655 124L666 123L678.501 120L698.001 123L706 129L717.5 127L730 129L734.501 120L743 129L752.5 127L761.001 124L775.001 117L788.501 120L804.501 117H816.001L826 111L834.5 109.5L842 102.5L854.5 99L867.5 95H890L907.501 93L915 99L925.5 97L934.501 104L948 107H949" stroke="white"/>
<path d="M949 107L950.5 107L955 107L959.5 107L970 104L981 103L993.501 99.9999L1013 103L1023.5 101H1031L1043.5 103L1049.5 99.9999L1055.5 101H1062.5L1076 104L1090 97L1103.5 99.9999L1119.5 97H1131L1140 99.9999H1149L1159 94H1168.5L1178 90.9999L1196.5 84H1212L1222.5 85.9998L1235 84L1249.5 84.0001L1264 74" stroke="white"/>
</svg>
