<svg width="1258" height="155" viewBox="0 0 1258 155" fill="none" xmlns="http://www.w3.org/2000/svg">
<path fillRule="evenodd" clipRule="evenodd" d="M4.99932 154H3.99932V137H4.99932V154Z" fill="#00A651"/>
<path fillRule="evenodd" clipRule="evenodd" d="M12.9993 128H11.9993V111H12.9993V128Z" fill="#00A651"/>
<path fillRule="evenodd" clipRule="evenodd" d="M32.9997 108H31.9997V90.9999H32.9997V108Z" fill="#E43133"/>
<path fillRule="evenodd" clipRule="evenodd" d="M42.9997 111H41.9997V93.9998H42.9997V111Z" fill="#00A651"/>
<path fillRule="evenodd" clipRule="evenodd" d="M52.9996 119H51.9996V92.9998H52.9996V119Z" fill="#E43133"/>
<path fillRule="evenodd" clipRule="evenodd" d="M62.9996 94.9998H61.9996V68.9999H62.9996V94.9998Z" fill="#00A651"/>
<path fillRule="evenodd" clipRule="evenodd" d="M72.9995 85.9998H71.9995V59.9999H72.9995V85.9998Z" fill="#00A651"/>
<path fillRule="evenodd" clipRule="evenodd" d="M82.9995 95.9998H81.9995V69.9999H82.9995V95.9998Z" fill="#00A651"/>
<path fillRule="evenodd" clipRule="evenodd" d="M92.9995 106H91.9995V79.9999H92.9995V106Z" fill="#E43133"/>
<path fillRule="evenodd" clipRule="evenodd" d="M102.999 71.9998H101.999V45.9999H102.999V71.9998Z" fill="#00A651"/>
<path fillRule="evenodd" clipRule="evenodd" d="M122.999 101H121.999V74.9999H122.999V101Z" fill="#E43133"/>
<path fillRule="evenodd" clipRule="evenodd" d="M133 113H132V86.9997H133V113Z" fill="#00A651"/>
<path fillRule="evenodd" clipRule="evenodd" d="M143 72H142V45.9998H143V72Z" fill="#00A651"/>
<path fillRule="evenodd" clipRule="evenodd" d="M153 70.9999H152V45H153V70.9999Z" fill="#E43133"/>
<path fillRule="evenodd" clipRule="evenodd" d="M1.99933 119H6.99979V145H1.99933V119Z" fill="#00A651"/>
<path fillRule="evenodd" clipRule="evenodd" d="M9.99929 113H14.9998V123H9.99929V113Z" fill="#00A651"/>
<path fillRule="evenodd" clipRule="evenodd" d="M19.9997 91.9998H24.9992V119H19.9997V91.9998Z" fill="#00A651"/>
<path fillRule="evenodd" clipRule="evenodd" d="M29.9997 103.755H34.9992V144.122H29.9997V103.755Z" fill="#E43133"/>
<path fillRule="evenodd" clipRule="evenodd" d="M39.9997 77.9999H44.9996V104H39.9997V77.9999Z" fill="#00A651"/>
<path fillRule="evenodd" clipRule="evenodd" d="M49.9996 105H54.9996V118H49.9996V105Z" fill="#E43133"/>
<path fillRule="evenodd" clipRule="evenodd" d="M59.9996 66.9998H64.9996V93H59.9996V66.9998Z" fill="#00A651"/>
<path fillRule="evenodd" clipRule="evenodd" d="M69.9995 61.9998H74.9995V73.9999H69.9995V61.9998Z" fill="#00A651"/>
<path fillRule="evenodd" clipRule="evenodd" d="M79.9995 74.9999H84.9995V94H79.9995V74.9999Z" fill="#00A651"/>
<path fillRule="evenodd" clipRule="evenodd" d="M89.9995 82.9998H94.9999V114H89.9995V82.9998Z" fill="#E43133"/>
<path fillRule="evenodd" clipRule="evenodd" d="M99.9994 60.9997H104.999V83H99.9994V60.9997Z" fill="#00A651"/>
<path fillRule="evenodd" clipRule="evenodd" d="M109.999 67.9999H114.999V81.9999H109.999V67.9999Z" fill="#E43133"/>
<path fillRule="evenodd" clipRule="evenodd" d="M120 76H124.999V85.9998H120V76Z" fill="#E43133"/>
<path fillRule="evenodd" clipRule="evenodd" d="M130 86.9997H134.999V103H130V86.9997Z" fill="#00A651"/>
<path fillRule="evenodd" clipRule="evenodd" d="M140 56.9999H145V99.9998H140V56.9999Z" fill="#00A651"/>
<path fillRule="evenodd" clipRule="evenodd" d="M150 42.9998H155V66.9999H150V42.9998Z" fill="#E43133"/>
<path fillRule="evenodd" clipRule="evenodd" d="M159.999 30.9999H165V50.9998H159.999V30.9999Z" fill="#00A651"/>
<path fillRule="evenodd" clipRule="evenodd" d="M351.999 79.9998H352.999V62.9999H351.999V79.9998Z" fill="#E43133"/>
<path fillRule="evenodd" clipRule="evenodd" d="M407.999 80.9998H408.999V63.9999H407.999V80.9998Z" fill="#E43133"/>
<path fillRule="evenodd" clipRule="evenodd" d="M349.999 78.9997H355V92.9998H349.999V78.9997Z" fill="#E43133"/>
<path fillRule="evenodd" clipRule="evenodd" d="M405.999 79.9997H411V93.9998H405.999V79.9997Z" fill="#E43133"/>
<path fillRule="evenodd" clipRule="evenodd" d="M332 99H333V81.9997H332V99Z" fill="#00A651"/>
<path fillRule="evenodd" clipRule="evenodd" d="M388 85H389V67.9997H388V85Z" fill="#00A651"/>
<path fillRule="evenodd" clipRule="evenodd" d="M360 81H361V63.9997H360V81Z" fill="#00A651"/>
<path fillRule="evenodd" clipRule="evenodd" d="M416 121H417V104H416V121Z" fill="#00A651"/>
<path fillRule="evenodd" clipRule="evenodd" d="M322 92.9998H323V75.9999H322V92.9998Z" fill="#00A651"/>
<path fillRule="evenodd" clipRule="evenodd" d="M378 58.9998H379V41.9999H378V58.9998Z" fill="#00A651"/>
<path fillRule="evenodd" clipRule="evenodd" d="M302 101H303V83.9998H302V101Z" fill="#E43133"/>
<path fillRule="evenodd" clipRule="evenodd" d="M292 112H293V94.9999H292V112Z" fill="#00A651"/>
<path fillRule="evenodd" clipRule="evenodd" d="M282 84.9998H282.999V58.9998H282V84.9998Z" fill="#E43133"/>
<path fillRule="evenodd" clipRule="evenodd" d="M496 140H496.999V114H496V140Z" fill="#E43133"/>
<path fillRule="evenodd" clipRule="evenodd" d="M271.999 67H272.999V40.9998H271.999V67Z" fill="#00A651"/>
<path fillRule="evenodd" clipRule="evenodd" d="M261.999 74.9999H263V48.9997H261.999V74.9999Z" fill="#00A651"/>
<path fillRule="evenodd" clipRule="evenodd" d="M252 85.9999H253V60H252V85.9999Z" fill="#00A651"/>
<path fillRule="evenodd" clipRule="evenodd" d="M242 106H243V79.9998H242V106Z" fill="#E43133"/>
<path fillRule="evenodd" clipRule="evenodd" d="M486 136H487V110H486V136Z" fill="#E43133"/>
<path fillRule="evenodd" clipRule="evenodd" d="M232 71H232.999V44.9998H232V71Z" fill="#00A651"/>
<path fillRule="evenodd" clipRule="evenodd" d="M476 115H476.999V88.9998H476V115Z" fill="#00A651"/>
<path fillRule="evenodd" clipRule="evenodd" d="M211.999 97H212.999V70.9998H211.999V97Z" fill="#E43133"/>
<path fillRule="evenodd" clipRule="evenodd" d="M455.999 107H456.999V80.9998H455.999V107Z" fill="#E43133"/>
<path fillRule="evenodd" clipRule="evenodd" d="M202 88.9998H203V62.9998H202V88.9998Z" fill="#00A651"/>
<path fillRule="evenodd" clipRule="evenodd" d="M446 94.9998H447V68.9998H446V94.9998Z" fill="#00A651"/>
<path fillRule="evenodd" clipRule="evenodd" d="M192 68.9998H193V42.9999H192V68.9998Z" fill="#00A651"/>
<path fillRule="evenodd" clipRule="evenodd" d="M436 65.9998H437V39.9999H436V65.9998Z" fill="#00A651"/>
<path fillRule="evenodd" clipRule="evenodd" d="M182 55H183V28.9998H182V55Z" fill="#E43133"/>
<path fillRule="evenodd" clipRule="evenodd" d="M426 121H427V94.9998H426V121Z" fill="#E43133"/>
<path fillRule="evenodd" clipRule="evenodd" d="M339.999 82.9997H344.999V91H339.999V82.9997Z" fill="#E43133"/>
<path fillRule="evenodd" clipRule="evenodd" d="M396 66H400.999V74.0002H396V66Z" fill="#E43133"/>
<path fillRule="evenodd" clipRule="evenodd" d="M330 63.9998H335V90H330V63.9998Z" fill="#00A651"/>
<path fillRule="evenodd" clipRule="evenodd" d="M386 49.9998H391V76H386V49.9998Z" fill="#00A651"/>
<path fillRule="evenodd" clipRule="evenodd" d="M358 45.9998H363V72H358V45.9998Z" fill="#00A651"/>
<path fillRule="evenodd" clipRule="evenodd" d="M414 85.9998H419V112H414V85.9998Z" fill="#00A651"/>
<path fillRule="evenodd" clipRule="evenodd" d="M320 77.9997H325V87.9998H320V77.9997Z" fill="#00A651"/>
<path fillRule="evenodd" clipRule="evenodd" d="M376 43.9997H381V53.9998H376V43.9997Z" fill="#00A651"/>
<path fillRule="evenodd" clipRule="evenodd" d="M310 67.5999H315V102.7H310V67.5999Z" fill="#00A651"/>
<path fillRule="evenodd" clipRule="evenodd" d="M366 42H371V68.9999H366V42Z" fill="#00A651"/>
<path fillRule="evenodd" clipRule="evenodd" d="M300 96.1019H305V121.449H300V96.1019Z" fill="#E43133"/>
<path fillRule="evenodd" clipRule="evenodd" d="M290 78.9998H294.999V105H290V78.9998Z" fill="#00A651"/>
<path fillRule="evenodd" clipRule="evenodd" d="M280 70.9997H285V84H280V70.9997Z" fill="#E43133"/>
<path fillRule="evenodd" clipRule="evenodd" d="M494 126H499V139H494V126Z" fill="#E43133"/>
<path fillRule="evenodd" clipRule="evenodd" d="M269.999 38.9999H275V64.9998H269.999V38.9999Z" fill="#00A651"/>
<path fillRule="evenodd" clipRule="evenodd" d="M259.999 50.9999H265V62.9998H259.999V50.9999Z" fill="#00A651"/>
<path fillRule="evenodd" clipRule="evenodd" d="M249.999 64.9998H255V83.9998H249.999V64.9998Z" fill="#00A651"/>
<path fillRule="evenodd" clipRule="evenodd" d="M239.999 82.9999H245V114H239.999V82.9999Z" fill="#E43133"/>
<path fillRule="evenodd" clipRule="evenodd" d="M483.999 113H489V144H483.999V113Z" fill="#E43133"/>
<path fillRule="evenodd" clipRule="evenodd" d="M230 59.9998H234.999V81.9998H230V59.9998Z" fill="#00A651"/>
<path fillRule="evenodd" clipRule="evenodd" d="M474 104H478.999V126H474V104Z" fill="#00A651"/>
<path fillRule="evenodd" clipRule="evenodd" d="M220 73.9997H224.999V87.9998H220V73.9997Z" fill="#E43133"/>
<path fillRule="evenodd" clipRule="evenodd" d="M464 92.9997H468.999V107H464V92.9997Z" fill="#E43133"/>
<path fillRule="evenodd" clipRule="evenodd" d="M210 71.9998H214.999V81.9999H210V71.9998Z" fill="#E43133"/>
<path fillRule="evenodd" clipRule="evenodd" d="M454 81.9998H458.999V91.9999H454V81.9998Z" fill="#E43133"/>
<path fillRule="evenodd" clipRule="evenodd" d="M200 62.9998H205V79H200V62.9998Z" fill="#00A651"/>
<path fillRule="evenodd" clipRule="evenodd" d="M444 68.9998H449V85H444V68.9998Z" fill="#00A651"/>
<path fillRule="evenodd" clipRule="evenodd" d="M190 53.9997H195V96.9999H190V53.9997Z" fill="#00A651"/>
<path fillRule="evenodd" clipRule="evenodd" d="M434 50.9997H439V93.9999H434V50.9997Z" fill="#00A651"/>
<path fillRule="evenodd" clipRule="evenodd" d="M180 26.9999H185V50.9997H180V26.9999Z" fill="#E43133"/>
<path fillRule="evenodd" clipRule="evenodd" d="M424 92.9999H429V117H424V92.9999Z" fill="#E43133"/>
<path fillRule="evenodd" clipRule="evenodd" d="M170 12.9998H175V32.9999H170V12.9998Z" fill="#00A651"/>
<path fillRule="evenodd" clipRule="evenodd" d="M525.999 143H524.999V126H525.999V143Z" fill="#00A651"/>
<path fillRule="evenodd" clipRule="evenodd" d="M533.999 117H532.999V99.9998H533.999V117Z" fill="#00A651"/>
<path fillRule="evenodd" clipRule="evenodd" d="M564 100H563V82.9998H564V100Z" fill="#00A651"/>
<path fillRule="evenodd" clipRule="evenodd" d="M574 108H573V81.9998H574V108Z" fill="#E43133"/>
<path fillRule="evenodd" clipRule="evenodd" d="M584 83.9998H583V57.9999H584V83.9998Z" fill="#00A651"/>
<path fillRule="evenodd" clipRule="evenodd" d="M594 74.9998H593V48.9999H594V74.9998Z" fill="#00A651"/>
<path fillRule="evenodd" clipRule="evenodd" d="M604 84.9998H603V58.9999H604V84.9998Z" fill="#00A651"/>
<path fillRule="evenodd" clipRule="evenodd" d="M613.999 94.9999H612.999V68.9999H613.999V94.9999Z" fill="#E43133"/>
<path fillRule="evenodd" clipRule="evenodd" d="M623.999 60.9998H622.999V34.9999H623.999V60.9998Z" fill="#00A651"/>
<path fillRule="evenodd" clipRule="evenodd" d="M643.999 89.9998H642.999V63.9999H643.999V89.9998Z" fill="#E43133"/>
<path fillRule="evenodd" clipRule="evenodd" d="M654 102H653V75.9997H654V102Z" fill="#00A651"/>
<path fillRule="evenodd" clipRule="evenodd" d="M664 61H663V34.9998H664V61Z" fill="#00A651"/>
<path fillRule="evenodd" clipRule="evenodd" d="M674 59.9999H673V34H674V59.9999Z" fill="#E43133"/>
<path fillRule="evenodd" clipRule="evenodd" d="M522.999 108H528V134H522.999V108Z" fill="#00A651"/>
<path fillRule="evenodd" clipRule="evenodd" d="M530.999 102H536V112H530.999V102Z" fill="#00A651"/>
<path fillRule="evenodd" clipRule="evenodd" d="M541 80.9998H545.999V108H541V80.9998Z" fill="#00A651"/>
<path fillRule="evenodd" clipRule="evenodd" d="M561 66.9999H566V92.9998H561V66.9999Z" fill="#00A651"/>
<path fillRule="evenodd" clipRule="evenodd" d="M571 93.9999H576V107H571V93.9999Z" fill="#E43133"/>
<path fillRule="evenodd" clipRule="evenodd" d="M581 55.9998H586V82H581V55.9998Z" fill="#00A651"/>
<path fillRule="evenodd" clipRule="evenodd" d="M591 50.9998H596V62.9999H591V50.9998Z" fill="#00A651"/>
<path fillRule="evenodd" clipRule="evenodd" d="M601 63.9999H605.999V83H601V63.9999Z" fill="#00A651"/>
<path fillRule="evenodd" clipRule="evenodd" d="M610.999 71.9998H616V103H610.999V71.9998Z" fill="#E43133"/>
<path fillRule="evenodd" clipRule="evenodd" d="M620.999 49.9997H625.999V72H620.999V49.9997Z" fill="#00A651"/>
<path fillRule="evenodd" clipRule="evenodd" d="M630.999 56.9999H635.999V70.9999H630.999V56.9999Z" fill="#E43133"/>
<path fillRule="evenodd" clipRule="evenodd" d="M641 65H645.999V74.9998H641V65Z" fill="#E43133"/>
<path fillRule="evenodd" clipRule="evenodd" d="M511.999 150H510.999V124H511.999V150Z" fill="#E43133"/>
<path fillRule="evenodd" clipRule="evenodd" d="M509 125H513.999V135H509V125Z" fill="#E43133"/>
<path fillRule="evenodd" clipRule="evenodd" d="M651 75.9997H655.999V91.9999H651V75.9997Z" fill="#00A651"/>
<path fillRule="evenodd" clipRule="evenodd" d="M661 45.9999H666V88.9998H661V45.9999Z" fill="#00A651"/>
<path fillRule="evenodd" clipRule="evenodd" d="M671 31.9998H676V55.9999H671V31.9998Z" fill="#E43133"/>
<path fillRule="evenodd" clipRule="evenodd" d="M680.999 19.9999H686V39.9998H680.999V19.9999Z" fill="#00A651"/>
<path fillRule="evenodd" clipRule="evenodd" d="M872.999 68.9998H873.999V51.9999H872.999V68.9998Z" fill="#E43133"/>
<path fillRule="evenodd" clipRule="evenodd" d="M928.999 69.9998H929.999V52.9999H928.999V69.9998Z" fill="#E43133"/>
<path fillRule="evenodd" clipRule="evenodd" d="M870.999 67.9997H876V81.9998H870.999V67.9997Z" fill="#E43133"/>
<path fillRule="evenodd" clipRule="evenodd" d="M926.999 68.9997H932V82.9998H926.999V68.9997Z" fill="#E43133"/>
<path fillRule="evenodd" clipRule="evenodd" d="M1043 92.9998H1044V75.9999H1043V92.9998Z" fill="#E43133"/>
<path fillRule="evenodd" clipRule="evenodd" d="M1041 91.9997H1046V106H1041V91.9997Z" fill="#E43133"/>
<path fillRule="evenodd" clipRule="evenodd" d="M853 88H854V70.9997H853V88Z" fill="#00A651"/>
<path fillRule="evenodd" clipRule="evenodd" d="M909 74H910V56.9997H909V74Z" fill="#00A651"/>
<path fillRule="evenodd" clipRule="evenodd" d="M881 70H882V52.9997H881V70Z" fill="#00A651"/>
<path fillRule="evenodd" clipRule="evenodd" d="M937 110H938V92.9997H937V110Z" fill="#00A651"/>
<path fillRule="evenodd" clipRule="evenodd" d="M843 81.9998H844V64.9999H843V81.9998Z" fill="#00A651"/>
<path fillRule="evenodd" clipRule="evenodd" d="M899 47.9998H900V30.9999H899V47.9998Z" fill="#00A651"/>
<path fillRule="evenodd" clipRule="evenodd" d="M813 101H814V83.9999H813V101Z" fill="#00A651"/>
<path fillRule="evenodd" clipRule="evenodd" d="M803 73.9998H803.999V47.9998H803V73.9998Z" fill="#E43133"/>
<path fillRule="evenodd" clipRule="evenodd" d="M792.999 56H793.999V29.9998H792.999V56Z" fill="#00A651"/>
<path fillRule="evenodd" clipRule="evenodd" d="M782.999 63.9999H784V37.9997H782.999V63.9999Z" fill="#00A651"/>
<path fillRule="evenodd" clipRule="evenodd" d="M773 74.9999H774V49H773V74.9999Z" fill="#00A651"/>
<path fillRule="evenodd" clipRule="evenodd" d="M763 95H764V68.9998H763V95Z" fill="#E43133"/>
<path fillRule="evenodd" clipRule="evenodd" d="M1007 109H1008V82.9998H1007V109Z" fill="#E43133"/>
<path fillRule="evenodd" clipRule="evenodd" d="M753 60H753.999V33.9998H753V60Z" fill="#00A651"/>
<path fillRule="evenodd" clipRule="evenodd" d="M1017 119H1018V92.9998H1017V119Z" fill="#00A651"/>
<path fillRule="evenodd" clipRule="evenodd" d="M972 89H972.999V62.9998H972V89Z" fill="#00A651"/>
<path fillRule="evenodd" clipRule="evenodd" d="M732.999 86H733.999V59.9998H732.999V86Z" fill="#E43133"/>
<path fillRule="evenodd" clipRule="evenodd" d="M976.999 96H977.999V69.9998H976.999V96Z" fill="#E43133"/>
<path fillRule="evenodd" clipRule="evenodd" d="M723 77.9998H724V51.9998H723V77.9998Z" fill="#00A651"/>
<path fillRule="evenodd" clipRule="evenodd" d="M967 83.9998H968V57.9998H967V83.9998Z" fill="#00A651"/>
<path fillRule="evenodd" clipRule="evenodd" d="M713 57.9998H714V31.9999H713V57.9998Z" fill="#00A651"/>
<path fillRule="evenodd" clipRule="evenodd" d="M957 54.9998H958V28.9999H957V54.9998Z" fill="#00A651"/>
<path fillRule="evenodd" clipRule="evenodd" d="M703 44H704V17.9998H703V44Z" fill="#E43133"/>
<path fillRule="evenodd" clipRule="evenodd" d="M947 110H948V83.9998H947V110Z" fill="#E43133"/>
<path fillRule="evenodd" clipRule="evenodd" d="M860.999 71.9997H865.999V80H860.999V71.9997Z" fill="#E43133"/>
<path fillRule="evenodd" clipRule="evenodd" d="M917 55H921.999V63.0002H917V55Z" fill="#E43133"/>
<path fillRule="evenodd" clipRule="evenodd" d="M851 52.9998H856V79H851V52.9998Z" fill="#00A651"/>
<path fillRule="evenodd" clipRule="evenodd" d="M907 38.9998H912V65H907V38.9998Z" fill="#00A651"/>
<path fillRule="evenodd" clipRule="evenodd" d="M879 34.9998H884V61H879V34.9998Z" fill="#00A651"/>
<path fillRule="evenodd" clipRule="evenodd" d="M935 74.9998H940V101H935V74.9998Z" fill="#00A651"/>
<path fillRule="evenodd" clipRule="evenodd" d="M841 66.9997H846V76.9998H841V66.9997Z" fill="#00A651"/>
<path fillRule="evenodd" clipRule="evenodd" d="M897 32.9997H902V42.9998H897V32.9997Z" fill="#00A651"/>
<path fillRule="evenodd" clipRule="evenodd" d="M831 65H836V91.9999H831V65Z" fill="#00A651"/>
<path fillRule="evenodd" clipRule="evenodd" d="M887 31H892V57.9999H887V31Z" fill="#00A651"/>
<path fillRule="evenodd" clipRule="evenodd" d="M820 81.5305H825V93.7346H820V81.5305Z" fill="#E43133"/>
<path fillRule="evenodd" clipRule="evenodd" d="M811 67.9998H815.999V93.9999H811V67.9998Z" fill="#00A651"/>
<path fillRule="evenodd" clipRule="evenodd" d="M801 59.9997H806V73H801V59.9997Z" fill="#E43133"/>
<path fillRule="evenodd" clipRule="evenodd" d="M790.999 27.9999H796V53.9998H790.999V27.9999Z" fill="#00A651"/>
<path fillRule="evenodd" clipRule="evenodd" d="M780.999 39.9999H786V51.9998H780.999V39.9999Z" fill="#00A651"/>
<path fillRule="evenodd" clipRule="evenodd" d="M770.999 53.9998H776V72.9998H770.999V53.9998Z" fill="#00A651"/>
<path fillRule="evenodd" clipRule="evenodd" d="M760.999 71.2353H766V90.3823H760.999V71.2353Z" fill="#E43133"/>
<path fillRule="evenodd" clipRule="evenodd" d="M1005 85.0588H1010V101.471H1005V85.0588Z" fill="#E43133"/>
<path fillRule="evenodd" clipRule="evenodd" d="M751 48.9998H755.999V70.9998H751V48.9998Z" fill="#00A651"/>
<path fillRule="evenodd" clipRule="evenodd" d="M995 92.9998H999.999V115H995V92.9998Z" fill="#00A651"/>
<path fillRule="evenodd" clipRule="evenodd" d="M741 62.9997H745.999V76.9998H741V62.9997Z" fill="#E43133"/>
<path fillRule="evenodd" clipRule="evenodd" d="M985 81.9997H989.999V95.9998H985V81.9997Z" fill="#E43133"/>
<path fillRule="evenodd" clipRule="evenodd" d="M731 60.9998H735.999V70.9999H731V60.9998Z" fill="#E43133"/>
<path fillRule="evenodd" clipRule="evenodd" d="M975 70.9998H979.999V80.9999H975V70.9998Z" fill="#E43133"/>
<path fillRule="evenodd" clipRule="evenodd" d="M721 51.9998H726V68H721V51.9998Z" fill="#00A651"/>
<path fillRule="evenodd" clipRule="evenodd" d="M965 57.9998H970V74H965V57.9998Z" fill="#00A651"/>
<path fillRule="evenodd" clipRule="evenodd" d="M1015 94.9998H1020V111H1015V94.9998Z" fill="#00A651"/>
<path fillRule="evenodd" clipRule="evenodd" d="M711 42.9997H716V85.9999H711V42.9997Z" fill="#00A651"/>
<path fillRule="evenodd" clipRule="evenodd" d="M955 39.9997H960V82.9999H955V39.9997Z" fill="#00A651"/>
<path fillRule="evenodd" clipRule="evenodd" d="M701 15.9999H706V39.9997H701V15.9999Z" fill="#E43133"/>
<path fillRule="evenodd" clipRule="evenodd" d="M945 81.9999H950V106H945V81.9999Z" fill="#E43133"/>
<path fillRule="evenodd" clipRule="evenodd" d="M691 1.99983H696V21.9999H691V1.99983Z" fill="#00A651"/>
<path fillRule="evenodd" clipRule="evenodd" d="M1110 45.9998H1111V28.9999H1110V45.9998Z" fill="#E43133"/>
<path fillRule="evenodd" clipRule="evenodd" d="M1166 46.9998H1167V29.9999H1166V46.9998Z" fill="#E43133"/>
<path fillRule="evenodd" clipRule="evenodd" d="M1108 44.9997H1113V58.9998H1108V44.9997Z" fill="#E43133"/>
<path fillRule="evenodd" clipRule="evenodd" d="M1164 45.9997H1169V59.9998H1164V45.9997Z" fill="#E43133"/>
<path fillRule="evenodd" clipRule="evenodd" d="M1090 65H1091V47.9997H1090V65Z" fill="#00A651"/>
<path fillRule="evenodd" clipRule="evenodd" d="M1146 51H1147V33.9997H1146V51Z" fill="#00A651"/>
<path fillRule="evenodd" clipRule="evenodd" d="M1118 47H1119V29.9997H1118V47Z" fill="#00A651"/>
<path fillRule="evenodd" clipRule="evenodd" d="M1174 87H1175V69.9997H1174V87Z" fill="#00A651"/>
<path fillRule="evenodd" clipRule="evenodd" d="M1080 58.9998H1081V41.9999H1080V58.9998Z" fill="#00A651"/>
<path fillRule="evenodd" clipRule="evenodd" d="M1136 24.9998H1137V7.99988H1136V24.9998Z" fill="#00A651"/>
<path fillRule="evenodd" clipRule="evenodd" d="M1254 106H1255V79.9998H1254V106Z" fill="#E43133"/>
<path fillRule="evenodd" clipRule="evenodd" d="M1244 102H1245V75.9998H1244V102Z" fill="#E43133"/>
<path fillRule="evenodd" clipRule="evenodd" d="M1234 81H1235V54.9998H1234V81Z" fill="#00A651"/>
<path fillRule="evenodd" clipRule="evenodd" d="M1214 73H1215V46.9998H1214V73Z" fill="#E43133"/>
<path fillRule="evenodd" clipRule="evenodd" d="M1204 60.9998H1205V34.9998H1204V60.9998Z" fill="#00A651"/>
<path fillRule="evenodd" clipRule="evenodd" d="M1052 90.9998H1053V64.9999H1052V90.9998Z" fill="#00A651"/>
<path fillRule="evenodd" clipRule="evenodd" d="M1184 87H1185V60.9998H1184V87Z" fill="#E43133"/>
<path fillRule="evenodd" clipRule="evenodd" d="M1098 48.9997H1103V57H1098V48.9997Z" fill="#E43133"/>
<path fillRule="evenodd" clipRule="evenodd" d="M1154 32H1159V40.0002H1154V32Z" fill="#E43133"/>
<path fillRule="evenodd" clipRule="evenodd" d="M1088 29.9998H1093V56H1088V29.9998Z" fill="#00A651"/>
<path fillRule="evenodd" clipRule="evenodd" d="M1144 15.9998H1149V42H1144V15.9998Z" fill="#00A651"/>
<path fillRule="evenodd" clipRule="evenodd" d="M1116 11.9998H1121V38H1116V11.9998Z" fill="#00A651"/>
<path fillRule="evenodd" clipRule="evenodd" d="M1172 51.9998H1177V78H1172V51.9998Z" fill="#00A651"/>
<path fillRule="evenodd" clipRule="evenodd" d="M1078 43.9997H1083V53.9998H1078V43.9997Z" fill="#00A651"/>
<path fillRule="evenodd" clipRule="evenodd" d="M1134 9.99972H1139V19.9998H1134V9.99972Z" fill="#00A651"/>
<path fillRule="evenodd" clipRule="evenodd" d="M1068 42H1073V68.9999H1068V42Z" fill="#00A651"/>
<path fillRule="evenodd" clipRule="evenodd" d="M1124 8H1129V35H1124V8Z" fill="#00A651"/>
<path fillRule="evenodd" clipRule="evenodd" d="M1025 89H1030V116H1025V89Z" fill="#00A651"/>
<path fillRule="evenodd" clipRule="evenodd" d="M1252 91.9997H1257V105H1252V91.9997Z" fill="#E43133"/>
<path fillRule="evenodd" clipRule="evenodd" d="M1193 66.9998H1194V40.9998H1193V66.9998Z" fill="#E43133"/>
<path fillRule="evenodd" clipRule="evenodd" d="M1191 52.9997H1196V66H1191V52.9997Z" fill="#E43133"/>
<path fillRule="evenodd" clipRule="evenodd" d="M1242 78.9999H1247V110H1242V78.9999Z" fill="#E43133"/>
<path fillRule="evenodd" clipRule="evenodd" d="M1232 69.9998H1237V91.9998H1232V69.9998Z" fill="#00A651"/>
<path fillRule="evenodd" clipRule="evenodd" d="M1222 58.9997H1227V72.9998H1222V58.9997Z" fill="#E43133"/>
<path fillRule="evenodd" clipRule="evenodd" d="M1212 47.9998H1217V57.9999H1212V47.9998Z" fill="#E43133"/>
<path fillRule="evenodd" clipRule="evenodd" d="M1060 94H1061V67.9998H1060V94Z" fill="#E43133"/>
<path fillRule="evenodd" clipRule="evenodd" d="M1058 68.9998H1063V78.9999H1058V68.9998Z" fill="#E43133"/>
<path fillRule="evenodd" clipRule="evenodd" d="M1202 34.9998H1207V51H1202V34.9998Z" fill="#00A651"/>
<path fillRule="evenodd" clipRule="evenodd" d="M1050 75.9997H1055V119H1050V75.9997Z" fill="#00A651"/>
<path fillRule="evenodd" clipRule="evenodd" d="M1182 58.9999H1187V82.9997H1182V58.9999Z" fill="#E43133"/>
</svg>
