<svg width="1273" height="30" viewBox="0 0 1273 30" fill="none" xmlns="http://www.w3.org/2000/svg">
<path d="M1 28.5003L27 25.7311L45.5 27.1158L62.0001 25.7311L75 23.6542H89L98 22.2694L105.5 25.0387L113 26.4234L128 27.808L138.5 26.4234L150 27.1158L164 25.7311L179 21.5771L188 26.4234L196 28.5003L210.5 27.808L227 27.1158L245.5 23.6542L264 25.7311L270.5 21.5771L282 17.4234L295.5 12.231L304.5 17.4234L313.5 23.6542L329 25.0387L343.5 21.5771L355.5 23.6542L373 25.7311L386 23.6542L395 19.5003H405L413 25.0387L451.5 21.5771L467.5 25.0387L481.5 15.3462L487.5 19.5003L524 25.0387L551 17.7695" stroke="#00A651" stroke-width="2"/>
<path d="M551 17.7695L566.5 13.6156L596.5 16.0386L613 14.6539L626 12.577H640L649 11.1923L656.5 13.9615L664 15.3463L679 16.7308L689.5 15.3463L701 16.0386L715 14.6539L730 10.4999L739.5 12.5772L753 10.4999L769.5 6.69235L778 16.0386L796.5 12.577L815 14.6539L821.5 10.4999L832 8.42315L842.5 12.5772L854.5 13.9615L867 12.5772L880 13.9615L894.5 10.4999L906.5 12.577L924 14.6539L937 12.577L947 11.1923L956 8.42315L969 4.26904L1002.5 10.4999L1018.5 13.9615L1038.5 10.4999L1058.5 4.26904L1075.5 8.42315L1089.5 7.38482H1107.5" stroke="#00A651" stroke-width="2"/>
<path d="M1107 7.38514H1118L1126 3.23129L1138.5 5.30803L1175 1.50049L1189.5 5.30803H1208.5L1231 3.23114L1245.5 3.23129L1272 1.50049" stroke="#00A651" stroke-width="2"/>
</svg>
