<svg width="1272" height="140" viewBox="0 0 1272 140" fill="none" xmlns="http://www.w3.org/2000/svg">
<path d="M1 138.5L30.5 118L43.5 97L67 73.5L85 95L108 63.5L120 71L136.5 95L173 14L192.5 59.5L222.5 71L237.5 82.5L253.5 71L271 57.5L284 76.5L306.5 97L326 82.5L348 76.5L364.5 63.5L380.5 47.5L423 90L450 76.5L460.5 87L504 130L516 124" stroke="#FFD700" strokeWidth="2"/>
<path d="M1045.5 88.5L1027.5 106.5L1022 103L981.5 76L971 65.5L944 79L901.5 36.5L885.5 52.5L869 65.5L847 71.5L827.5 86L805 65.5L792 46.5L774.5 60L758.5 71.5L743.5 60L713.5 48.5L694 3L657.5 84L641 60L629 52.5L606 84L588 62.5L564.5 86L551.5 107L522 121L516 124" stroke="#FFD700" strokeWidth="2"/>
<path d="M1045 89L1054.5 79.5L1064.5 63L1084 48.5L1106 42.5L1122.5 29.5L1138.5 13.5L1181 56L1208 42.5L1218.5 53L1264.5 92.5L1267.5 93L1271 93.5" stroke="#FFD700" strokeWidth="2"/>
</svg>
