<svg width="1275" height="56" viewBox="0 0 1275 56" fill="none" xmlns="http://www.w3.org/2000/svg">
<path fillRule="evenodd" clipRule="evenodd" d="M175 0H170V56H175V0ZM55 17H50V56H55V17ZM40 23H45V56H40V23ZM35 27H30V56H35V27ZM20 29H25V56H20V29ZM15 36H10V56H15V36ZM5 46H0V56H5V46ZM60 23H65V56H60V23ZM75 25H70V56H75V25ZM80 30H85V56H80V30ZM95 23H90V56H95V23ZM100 17H105V56H100V17ZM115 25H110V56H115V25ZM120 32H125V56H120V32ZM135 37H130V56H135V37ZM140 43H145V56H140V43ZM155 35H150V56H155V35ZM160 20H165V56H160V20ZM180 16H185V56H180V16ZM195 29H190V56H195V29ZM200 34H205V56H200V34ZM215 41H210V56H215V41ZM220 41H225V56H220V41ZM235 47H230V56H235V47ZM240 41H245V56H240V41ZM255 34H250V56H255V34ZM260 29H265V56H260V29ZM275 20H270V56H275V20ZM280 29H285V56H280V29ZM295 35H290V56H295V35ZM300 46H305V56H300V46ZM315 39H310V56H315V39ZM320 34H325V56H320V34ZM335 31H330V56H335V31ZM340 30H345V56H340V30ZM355 23H350V56H355V23ZM360 14.9998H365V55.9998H360V14.9998ZM375 9H370V56H375V9ZM380 23H385V56H380V23ZM395 25H390V56H395V25ZM400.001 15H405.002V56H400.001V15ZM415 20H410V56H415V20ZM420 7H425V56H420V7ZM435 24H430V56H435V24ZM440 19H445V56H440V19ZM455 22H450V56H455V22ZM460 22H465V56H460V22ZM475 28H470V56H475V28ZM480 34H485V56H480V34ZM495 32H490V56H495V32Z" fill="white"/>
<path fillRule="evenodd" clipRule="evenodd" d="M1275 11H1270V56H1275V11ZM1140 15H1145V56H1140V15ZM1120 20H1125V56H1120V20ZM1055 20.0002H1050V56.0002H1055V20.0002ZM1005 27.0002H1000V56.0002H1005V27.0002ZM1015 35.0002H1010V56.0002H1015V35.0002ZM1020 41.0002H1025V56.0002H1020V41.0002ZM1035 47.0002H1030V56.0002H1035V47.0002ZM1040 29.0002H1045V56.0002H1040V29.0002ZM1060 29.0002H1065V56.0002H1060V29.0002ZM1075 35.0002H1070V56.0002H1075V35.0002ZM1080 32.0002H1085V56.0002H1080V32.0002ZM1095 24.0002H1090V56.0002H1095V24.0002ZM1100 34.0002H1105V56.0002H1100V34.0002ZM1115 21.0002H1110V56.0002H1115V21.0002ZM1135 23.0002H1130V56.0002H1135V23.0002ZM1155 18.0002H1150V56.0002H1155V18.0002ZM1160 20.0002H1165V56.0002H1160V20.0002ZM1175 20.0002H1170V56.0002H1175V20.0002ZM1180 17.0002H1185V56.0002H1180V17.0002ZM1195 20.0002H1190V56.0002H1195V20.0002ZM1200 28.0002H1205V56.0002H1200V28.0002ZM1215 24.0002H1210V56.0002H1215V24.0002ZM1220 19.0002H1225V56.0002H1220V19.0002ZM1235 23H1230V56H1235V23ZM1240 22.0002H1245V56.0002H1240V22.0002ZM1255 17H1250V56H1255V17ZM1260 34.0002H1265V56.0002H1260V34.0002Z" fill="white"/>
<path fillRule="evenodd" clipRule="evenodd" d="M680 7H685V56H680V7ZM675 10H670V56H675V10ZM600 17H605V56H600V17ZM505 22H500V56H505V22ZM515 26H510V56H515V26ZM520 27H525V56H520V27ZM535 30H530V56H535V30ZM540 23H545V56H540V23ZM555 33H550V56H555V33ZM560 23H565V56H560V23ZM575 25H570V56H575V25ZM580 30H585V56H580V30ZM595 23H590V56H595V23ZM615 25H610V56H615V25ZM620 32H625V56H620V32ZM635 37H630V56H635V37ZM640 43H645V56H640V43ZM655 35H650V56H655V35ZM660 20H665V56H660V20ZM695 21H690V56H695V21ZM700 17H705V56H700V17ZM715 37H710V56H715V37ZM720 41H725V56H720V41ZM735 31H730V56H735V31ZM740 41H745V56H740V41ZM755 34H750V56H755V34ZM760 29H765V56H760V29ZM775 29H770V56H775V29ZM780 29H785V56H780V29ZM795 35H790V56H795V35ZM800 46H805V56H800V46ZM815 39H810V56H815V39ZM820 34H825V56H820V34ZM835 31H830V56H835V31ZM840 30H845V56H840V30ZM855 23H850V56H855V23ZM860 14.9998H865V55.9998H860V14.9998ZM875 24H870V56H875V24ZM880 18H885V56H880V18ZM895 22H890V56H895V22ZM900.001 15H905.002V56H900.001V15ZM915 20H910V56H915V20ZM920 28H925V56H920V28ZM935 24H930V56H935V24ZM940 19H945V56H940V19ZM955 27H950V56H955V27ZM960 22H965V56H960V22ZM975 28H970V56H975V28ZM980 14H985V56H980V14ZM995 7H990V56H995V7Z" fill="white"/>
</svg>
