<svg width="66" height="15" viewBox="0 0 66 15" fill="none" xmlns="http://www.w3.org/2000/svg">
<path fill-rule="evenodd" clip-rule="evenodd" d="M4.1011 12.4704C4.0738 12.4906 4.04165 12.5009 4.00996 12.5009C3.97683 12.5009 3.94369 12.4898 3.91591 12.4685C3.86085 12.4265 3.83697 12.3523 3.85645 12.2838L4.87936 8.72878L2.06553 6.48417C2.01095 6.44075 1.98853 6.36608 2.00998 6.29804C2.03045 6.22974 2.09087 6.18327 2.15862 6.18161L5.68882 6.10638L6.84865 2.59815C6.89349 2.46263 7.10644 2.46263 7.15128 2.59815L8.3116 6.10638L11.8418 6.18161C11.9095 6.18327 11.97 6.22974 11.9909 6.29804C12.0119 6.36608 11.99 6.44075 11.9349 6.48417L9.12106 8.72878L10.1435 12.2838C10.163 12.3523 10.1391 12.4265 10.084 12.4685C10.029 12.5105 9.95537 12.5116 9.89884 12.4704L6.99972 10.3492" fill="#FFFF66"/>
<path fill-rule="evenodd" clip-rule="evenodd" d="M17.101 12.4704C17.0738 12.4906 17.0416 12.5009 17.0099 12.5009C16.9768 12.5009 16.9436 12.4898 16.9159 12.4685C16.8608 12.4265 16.8369 12.3523 16.8564 12.2838L17.8793 8.72878L15.0655 6.48417C15.0109 6.44075 14.9885 6.36608 15.0099 6.29804C15.0309 6.22974 15.0908 6.18327 15.1586 6.18161L18.6888 6.10638L19.8486 2.59815C19.8939 2.46263 20.1064 2.46263 20.1512 2.59815L21.3116 6.10638L24.8418 6.18161C24.9095 6.18327 24.9699 6.22974 24.9909 6.29804C25.0118 6.36608 24.9894 6.44075 24.9348 6.48417L22.121 8.72878L23.1434 12.2838C23.1629 12.3523 23.139 12.4265 23.084 12.4685C23.0289 12.5105 22.9553 12.5116 22.8993 12.4704L19.9997 10.3492" fill="#FFFF66"/>
<path fill-rule="evenodd" clip-rule="evenodd" d="M30.101 12.4704C30.0737 12.4906 30.0415 12.5009 30.0094 12.5009C29.9767 12.5009 29.9441 12.4898 29.9153 12.4685C29.8608 12.4265 29.8369 12.3523 29.8568 12.2838L30.8793 8.72878L28.0654 6.48417C28.0108 6.44075 27.9889 6.36608 28.0099 6.29804C28.0308 6.22974 28.0908 6.18327 28.1585 6.18161L31.6887 6.10638L32.8485 2.59815C32.8939 2.46263 33.1063 2.46263 33.1512 2.59815L34.3115 6.10638L37.8417 6.18161C37.9099 6.18327 37.9699 6.22974 37.9908 6.29804C38.0118 6.36608 37.9894 6.44075 37.9353 6.48417L35.121 8.72878L36.1434 12.2838C36.1629 12.3523 36.1395 12.4265 36.0839 12.4685C36.0289 12.5105 35.9548 12.5116 35.8992 12.4704L32.9996 10.3492" fill="#FFFF66"/>
<path fill-rule="evenodd" clip-rule="evenodd" d="M43.1009 12.4704C43.0737 12.4906 43.0415 12.5009 43.0098 12.5009C42.9767 12.5009 42.944 12.4898 42.9158 12.4685C42.8607 12.4265 42.8368 12.3523 42.8568 12.2838L43.8792 8.72878L41.0654 6.48417C41.0108 6.44075 40.9889 6.36608 41.0098 6.29804C41.0308 6.22974 41.0907 6.18327 41.159 6.18161L44.6887 6.10638L45.849 2.59815C45.8938 2.46263 46.1063 2.46263 46.1511 2.59815L47.3115 6.10638L50.8417 6.18161C50.9099 6.18327 50.9698 6.22974 50.9908 6.29804C51.0117 6.36608 50.9893 6.44075 50.9352 6.48417L48.1214 8.72878L49.1433 12.2838C49.1633 12.3523 49.1394 12.4265 49.0844 12.4685C49.0288 12.5105 48.9552 12.5116 48.8992 12.4704L46.0001 10.3492" fill="#FFFF66"/>
<path fill-rule="evenodd" clip-rule="evenodd" d="M56.1009 12.4704C56.0736 12.4906 56.0419 12.5009 56.0098 12.5009C55.9766 12.5009 55.944 12.4898 55.9157 12.4685C55.8607 12.4265 55.8373 12.3523 55.8567 12.2838L56.8792 8.72878L54.0653 6.48417C54.0112 6.44075 53.9888 6.36608 54.0098 6.29804C54.0307 6.22974 54.0907 6.18327 54.1589 6.18161L57.6886 6.10638L58.8489 2.59815C58.8938 2.46263 59.1062 2.46263 59.1511 2.59815L60.3114 6.10638L63.8416 6.18161C63.9098 6.18327 63.9698 6.22974 63.9907 6.29804C64.0117 6.36608 63.9893 6.44075 63.9352 6.48417L61.1214 8.72878L62.1433 12.2838C62.1633 12.3523 62.1394 12.4265 62.0843 12.4685C62.0292 12.5105 61.9552 12.5116 61.8986 12.4704L59 10.3492" fill="#C4C4C4"/>
</svg>
